<svg id="edima-logo" xmlns="http://www.w3.org/2000/svg" viewBox="0 0 713.8 185.9"><style>.st0{fill:none;stroke:#000;stroke-width:5;stroke-miterlimit:10}.st1{fill:url(#SVGID_1_)}.st2{fill:none;stroke:#b3b3b3;stroke-width:5;stroke-miterlimit:10}.st3{fill:url(#SVGID_2_)}.st4{fill:url(#SVGID_3_)}.st5{fill:none;stroke:#b80000;stroke-width:5;stroke-miterlimit:10}.st6{fill:url(#SVGID_4_)}.st7{fill:url(#SVGID_5_)}.st8{fill:url(#SVGID_6_)}</style><path d="M7.5 179.9V8.3H119v30.9H42.5v36.6H107v31H42.5v41.1H119v32z"/><path class="st0" d="M7.5 179.9V8.3H119v30.9H42.5v36.6H107v31H42.5v41.1H119v32z"/><linearGradient id="SVGID_1_" gradientUnits="userSpaceOnUse" x1="63.23" y1="5.342" x2="63.23" y2="176.942"><stop offset="0" stop-color="#dedede"/><stop offset=".171" stop-color="#fff"/><stop offset=".49" stop-color="#fcfcfc"/><stop offset=".686" stop-color="#f4f4f4"/><stop offset=".849" stop-color="#e6e6e6"/><stop offset=".993" stop-color="#d2d2d1"/><stop offset="1" stop-color="#d1d1d0"/></linearGradient><path class="st1" d="M7.5 176.9V5.3H119v30.9H42.5v36.6H107v31H42.5v41.1H119v32z"/><path class="st2" d="M7.5 176.9V5.3H119v30.9H42.5v36.6H107v31H42.5v41.1H119v32z"/><path d="M274.3 94.1c0 20.7-2.9 37.3-8.6 49.9s-14.3 21.7-25.8 27.4-27.7 8.6-48.5 8.6h-52.3V8.3h51.8c20.3 0 36.4 2.9 48.3 8.8 11.9 5.9 20.8 15 26.5 27.5 5.7 12.4 8.6 28.9 8.6 49.5zm-36.1-.3c0-15-1.5-26.1-4.4-33.3-2.9-7.2-7.9-12.4-14.9-15.6-7-3.1-17.4-4.7-31.3-4.7h-13.4v107.7h13.4c13.8 0 24.2-1.6 31.2-4.8s12-8.5 14.9-15.9c2.9-7.4 4.5-18.6 4.5-33.4z"/><path class="st0" d="M274.3 94.1c0 20.7-2.9 37.3-8.6 49.9s-14.3 21.7-25.8 27.4-27.7 8.6-48.5 8.6h-52.3V8.3h51.8c20.3 0 36.4 2.9 48.3 8.8 11.9 5.9 20.8 15 26.5 27.5 5.7 12.4 8.6 28.9 8.6 49.5zm-36.1-.3c0-15-1.5-26.1-4.4-33.3-2.9-7.2-7.9-12.4-14.9-15.6-7-3.1-17.4-4.7-31.3-4.7h-13.4v107.7h13.4c13.8 0 24.2-1.6 31.2-4.8s12-8.5 14.9-15.9c2.9-7.4 4.5-18.6 4.5-33.4z"/><g><linearGradient id="SVGID_2_" gradientUnits="userSpaceOnUse" x1="206.68" y1="5.342" x2="206.68" y2="177.042"><stop offset="0" stop-color="#dedede"/><stop offset=".171" stop-color="#fff"/><stop offset=".49" stop-color="#fcfcfc"/><stop offset=".686" stop-color="#f4f4f4"/><stop offset=".849" stop-color="#e6e6e6"/><stop offset=".993" stop-color="#d2d2d1"/><stop offset="1" stop-color="#d1d1d0"/></linearGradient><path class="st3" d="M274.3 91.1c0 20.7-2.9 37.3-8.6 49.9s-14.3 21.7-25.8 27.4-27.7 8.6-48.5 8.6h-52.3V5.3h51.8c20.3 0 36.4 2.9 48.3 8.8 11.9 5.9 20.8 15 26.5 27.5 5.7 12.4 8.6 28.9 8.6 49.5zm-36.1-.3c0-15-1.5-26.1-4.4-33.3-2.9-7.2-7.9-12.4-14.9-15.6-7-3.1-17.4-4.7-31.3-4.7h-13.4v107.7h13.4c13.8 0 24.2-1.6 31.2-4.8s12-8.5 14.9-15.9c2.9-7.4 4.5-18.6 4.5-33.4z"/><path class="st2" d="M274.3 91.1c0 20.7-2.9 37.3-8.6 49.9s-14.3 21.7-25.8 27.4-27.7 8.6-48.5 8.6h-52.3V5.3h51.8c20.3 0 36.4 2.9 48.3 8.8 11.9 5.9 20.8 15 26.5 27.5 5.7 12.4 8.6 28.9 8.6 49.5zm-36.1-.3c0-15-1.5-26.1-4.4-33.3-2.9-7.2-7.9-12.4-14.9-15.6-7-3.1-17.4-4.7-31.3-4.7h-13.4v107.7h13.4c13.8 0 24.2-1.6 31.2-4.8s12-8.5 14.9-15.9c2.9-7.4 4.5-18.6 4.5-33.4z"/></g><g><path d="M339.9 24.5c0 6-1.5 10.3-4.5 12.7-3 2.4-7.5 3.6-13.6 3.6-6.8 0-11.4-1.4-13.8-4.2s-3.7-6.8-3.7-12c0-5.8 1.3-9.9 4-12.5 2.6-2.5 7.2-3.8 13.5-3.8 6.4 0 11.1 1.2 13.9 3.7 2.8 2.4 4.2 6.6 4.2 12.5z"/><path class="st0" d="M339.9 24.5c0 6-1.5 10.3-4.5 12.7-3 2.4-7.5 3.6-13.6 3.6-6.8 0-11.4-1.4-13.8-4.2s-3.7-6.8-3.7-12c0-5.8 1.3-9.9 4-12.5 2.6-2.5 7.2-3.8 13.5-3.8 6.4 0 11.1 1.2 13.9 3.7 2.8 2.4 4.2 6.6 4.2 12.5z"/><g><linearGradient id="SVGID_3_" gradientUnits="userSpaceOnUse" x1="322.08" y1="4.376" x2="322.08" y2="179.126"><stop offset="0" stop-color="#d5153b"/><stop offset=".036" stop-color="#e41c44"/><stop offset=".092" stop-color="#f3234e"/><stop offset=".156" stop-color="#fc2853"/><stop offset=".248" stop-color="#ff2955"/><stop offset=".451" stop-color="#fb2753"/><stop offset=".657" stop-color="#ef214b"/><stop offset=".864" stop-color="#db173f"/><stop offset="1" stop-color="#c90f34"/></linearGradient><path class="st4" d="M339.9 21.5c0 6-1.5 10.3-4.5 12.7-3 2.4-7.5 3.6-13.6 3.6-6.8 0-11.4-1.4-13.8-4.2s-3.7-6.8-3.7-12c0-5.8 1.3-9.9 4-12.5 2.6-2.5 7.2-3.8 13.5-3.8 6.4 0 11.1 1.2 13.9 3.7 2.8 2.4 4.2 6.6 4.2 12.5z"/><path class="st5" d="M339.9 21.5c0 6-1.5 10.3-4.5 12.7-3 2.4-7.5 3.6-13.6 3.6-6.8 0-11.4-1.4-13.8-4.2s-3.7-6.8-3.7-12c0-5.8 1.3-9.9 4-12.5 2.6-2.5 7.2-3.8 13.5-3.8 6.4 0 11.1 1.2 13.9 3.7 2.8 2.4 4.2 6.6 4.2 12.5z"/></g></g><g><path d="M496.2 179.9V64.6L455 136.3h-20.1l-40.7-71.7v115.3h-33.7V8.3h40.3l44.8 81.5 45.1-81.5h39.4v171.6z"/><path class="st0" d="M496.2 179.9V64.6L455 136.3h-20.1l-40.7-71.7v115.3h-33.7V8.3h40.3l44.8 81.5 45.1-81.5h39.4v171.6z"/><g><linearGradient id="SVGID_4_" gradientUnits="userSpaceOnUse" x1="445.279" y1="5.342" x2="445.279" y2="176.942"><stop offset="0" stop-color="#dedede"/><stop offset=".171" stop-color="#fff"/><stop offset=".49" stop-color="#fcfcfc"/><stop offset=".686" stop-color="#f4f4f4"/><stop offset=".849" stop-color="#e6e6e6"/><stop offset=".993" stop-color="#d2d2d1"/><stop offset="1" stop-color="#d1d1d0"/></linearGradient><path class="st6" d="M496.2 176.9V61.6L455 133.3h-20.1l-40.7-71.7v115.3h-33.7V5.3h40.3l44.8 81.5 45.1-81.5h39.4v171.6z"/><path class="st2" d="M496.2 176.9V61.6L455 133.3h-20.1l-40.7-71.7v115.3h-33.7V5.3h40.3l44.8 81.5 45.1-81.5h39.4v171.6z"/></g></g><g><path d="M547 179.9L603.8 8.3h45.5l57 171.6h-35.8L659.1 145h-66.2l-11.1 34.9H547zm55.8-65.5h46.3L626 43.5l-23.2 70.9z"/><path class="st0" d="M547 179.9L603.8 8.3h45.5l57 171.6h-35.8L659.1 145h-66.2l-11.1 34.9H547zm55.8-65.5h46.3L626 43.5l-23.2 70.9z"/><g><linearGradient id="SVGID_5_" gradientUnits="userSpaceOnUse" x1="626.63" y1="5.342" x2="626.63" y2="176.942"><stop offset="0" stop-color="#dedede"/><stop offset=".171" stop-color="#fff"/><stop offset=".49" stop-color="#fcfcfc"/><stop offset=".686" stop-color="#f4f4f4"/><stop offset=".849" stop-color="#e6e6e6"/><stop offset=".993" stop-color="#d2d2d1"/><stop offset="1" stop-color="#d1d1d0"/></linearGradient><path class="st7" d="M547 176.9L603.8 5.3h45.5l57 171.6h-35.8L659.1 142h-66.2l-11.1 34.9H547zm55.8-65.5h46.3L626 40.5l-23.2 70.9z"/><path class="st2" d="M547 176.9L603.8 5.3h45.5l57 171.6h-35.8L659.1 142h-66.2l-11.1 34.9H547zm55.8-65.5h46.3L626 40.5l-23.2 70.9z"/></g></g><g><path d="M335.1 49.8h-47.7v27.4h18.7v102.7h32V49.8z"/><path class="st0" d="M335.1 49.8h-47.7v27.4h18.7v102.7h32V49.8z"/><g><linearGradient id="SVGID_6_" gradientUnits="userSpaceOnUse" x1="312.744" y1="4.376" x2="312.744" y2="179.126"><stop offset="0" stop-color="#d5153b"/><stop offset=".036" stop-color="#e41c44"/><stop offset=".092" stop-color="#f3234e"/><stop offset=".156" stop-color="#fc2853"/><stop offset=".248" stop-color="#ff2955"/><stop offset=".451" stop-color="#fb2753"/><stop offset=".657" stop-color="#ef214b"/><stop offset=".864" stop-color="#db173f"/><stop offset="1" stop-color="#c90f34"/></linearGradient><path class="st8" d="M335.1 46.8h-47.7v27.4h18.7v102.7h32V46.8z"/><path class="st5" d="M335.1 46.8h-47.7v27.4h18.7v102.7h32V46.8z"/></g></g></svg>