<svg id="edima-logo" xmlns="http://www.w3.org/2000/svg" viewBox="0 0 713.8 185.9"><style>.st0{fill:none;stroke:#fff;stroke-width:5;stroke-miterlimit:10}</style><path class="st0" d="M7.5 176.9V5.3H119v30.9H42.5v36.6H107v31H42.5v41.1H119v32H7.5zM274.3 91.1c0 20.7-2.9 37.3-8.6 49.9s-14.3 21.7-25.8 27.4-27.7 8.6-48.5 8.6h-52.3V5.3h51.8c20.3 0 36.4 2.9 48.3 8.8 11.9 5.9 20.8 15 26.5 27.5 5.7 12.4 8.6 28.9 8.6 49.5zm-36.1-.3c0-15-1.5-26.1-4.4-33.3-2.9-7.2-7.9-12.4-14.9-15.6-7-3.1-17.4-4.7-31.3-4.7h-13.4v107.7h13.4c13.8 0 24.2-1.6 31.2-4.8s12-8.5 14.9-15.9c2.9-7.4 4.5-18.6 4.5-33.4zM339.9 21.5c0 6-1.5 10.3-4.5 12.7-3 2.4-7.5 3.6-13.6 3.6-6.8 0-11.4-1.4-13.8-4.2s-3.7-6.8-3.7-12c0-5.8 1.3-9.9 4-12.5 2.6-2.5 7.2-3.8 13.5-3.8 6.4 0 11.1 1.2 13.9 3.7 2.8 2.4 4.2 6.6 4.2 12.5zM496.2 176.9V61.6L455 133.3h-20.1l-40.7-71.7v115.3h-33.7V5.3h40.3l44.8 81.5 45.1-81.5h39.4v171.6h-33.9zM547 176.9L603.8 5.3h45.5l57 171.6h-35.8L659.1 142h-66.2l-11.1 34.9H547zm55.8-65.5h46.3L626 40.5l-23.2 70.9zM335.1 46.8h-47.7v27.4h18.7v102.7h32V46.8z"/></svg>