<svg id="Layer_1" xmlns="http://www.w3.org/2000/svg" width="552" height="637" viewBox="0 0 552 637"><style>.st0,.st1{fill:none;stroke-linejoin:round}.st0{stroke-width:1.5;stroke-miterlimit:10;stroke:#1a3d6f}.st1{stroke:#0d849b}.st2{fill:#fff}.st3{fill:#0d849b}.st4,.st5{fill:none;stroke:#0d849b;stroke-linejoin:round;stroke-miterlimit:10}.st5{fill:#fff;stroke:#1d1d1b;stroke-width:1.5}.st6{fill:#1d1d1b}.st7{fill:none;stroke:#9c9b9b;stroke-width:.5;stroke-miterlimit:10}</style><path class="st0" d="M99.3 521.2l8.1-7.8c.3-.3.6-1 .6-1.4v-8.8-29.3c0-.5-.3-1.1-.6-1.4L76 441.4c-.3-.3-.2-.6.2-.6H118c.5 0 1.1-.3 1.5-.6l11-10.6c.3-.3 1-.6 1.5-.6h3.7c.5 0 1.1-.3 1.5-.6l12.7-12.3c.3-.3 1-.6 1.5-.6h8.9"/><path class="st0" d="M17.1 545.2v-15c0-.5-.3-1.1-.6-1.4l-3.3-3.2c-.3-.3-.6-1-.6-1.4v-5c0-.5.3-1.1.6-1.4l4.1-4c.3-.3 1-.6 1.5-.6h.9c.5 0 1.1-.3 1.5-.6l3.3-3.1c.3-.3 1-.6 1.5-.6h6.8c.5 0 1.1.3 1.5.6l3.2 3.1c.3.3 1 .6 1.5.6h45c.5 0 1.1-.3 1.5-.6l11.3-10.9c.3-.3.6-1 .6-1.4v-7c0-.5.3-1.1.6-1.4l10.2-9.8M160.1 410.2h-14.5c-.5 0-1.1.3-1.5.6l-9.7 9.4c-.3.3-1 .6-1.5.6h-3.8c-.5 0-1.1.3-1.5.6l-6.9 6.7c-.3.3-1 .6-1.5.6h-3.6c-.5 0-1.1-.3-1.5-.6l-5.3-5.1c-.3-.3-1-.6-1.5-.6h-1.4"/><path class="st0" d="M75.4 513.1l-8.4 8.1c-.6.5-1.7 1-2.4 1h-24c-.8 0-1.9.4-2.4 1l-6.4 6.2c-.6.5-1 1.6-1 2.4v10.9c0 .8-.5 1.9-1 2.4l-12.1 11.7c-.6.5-1 1.5-1 2.1 0 .6-.4 1.6-1 2.2L9.9 567c-.5.6-1 1.7-1 2.4v3.4c0 .8.6 1.4 1.4 1.4h3c.8 0 1.4.6 1.4 1.4v18.9"/><path class="st0" d="M14.7 580.8L3.6 591.5c-.6.5-1 1.6-1 2.4v8.3c0 .8.6 1.4 1.4 1.4h30.1c.8 0 1.9.4 2.4 1l10.3 10c.6.5 1.5.5 2 0l6.6-6.3c.6-.5 1.7-1 2.4-1h23c.8 0 1.9.4 2.4 1l1.1 1.1c.6.5 1.5.5 2 0l3.7-3.6c.6-.5 1.7-1 2.4-1h8.2c.8 0 1.4-.6 1.4-1.4v-8"/><path class="st0" d="M92.3 604.8v-16.5c0-.8.5-1.9 1-2.4l30.8-29.7c.6-.5 1.7-1 2.4-1h8.2c.8 0 1.9-.4 2.4-1l10.2-9.9c.6-.5 1-1.6 1-2.4v-9.2c0-.8.5-1.9 1-2.4l4-3.9c.6-.5 1.7-1 2.4-1h5.7"/><path class="st0" d="M148.4 538h18.1c.8 0 1.9-.4 2.4-1l3.8-3.7c.6-.5 1.7-1 2.4-1h11.3c.8 0 1.9-.4 2.4-1l8.6-8.3c.6-.5 1.5-1.4 2-2l6.9-6.7c.6-.5 1.7-1 2.4-1h3.8c.8 0 1.9.4 2.4 1l8.6 8.3c.6.5 1.4 1.4 2 1.9l.9.9"/><path class="st0" d="M218.9 518.1l-1.9 1.8c-.6.5-1 1.6-1 2.4v5.4c0 .8.5 1.9 1 2.4l5.7 5.5c.6.5 1.7 1 2.4 1h5.3c.8 0 1.9.4 2.4 1l7.6 7.3c.6.5 1 1.6 1 2.4v5.8c0 .8.5 1.9 1 2.4l32.5 31.5c.6.5 1.5 1.4 2 2l2.4 2.3c.6.5 1 1.6 1 2.4v2.5c0 .8-.5 1.9-1 2.4l-9.6 9.3c-.6.5-.6 1.4 0 2l1.9 1.8c.6.5 1.7 1 2.4 1h5.3c.8 0 1.9-.4 2.4-1l14.8-14.3c.6-.5.6-1.4 0-2l-6.3-6.1c-.6-.5-.6-1.4 0-2l7.7-7.5c.6-.5 1.5-.5 2 0l6.9 6.7c.6.5 1.5.5 2 0l2.6-2.5c.6-.5.6-1.4 0-2l-19.3-18.7c-.6-.5-1.7-1-2.4-1h-6.1c-.8 0-1.9-.4-2.4-1l-13.6-13.2"/><path class="st0" d="M278.1 558.2v-12.8c0-.8-.5-1.9-1-2.4l-5.1-4.9c-.6-.5-1.7-1.1-2.4-1.1l-2.9-.3c-.8-.1-1.9-.6-2.4-1.1l-14.3-14c-.6-.5-1-1.6-1-2.4V513c0-.8.5-1.9 1-2.4l1.6-1.6c.6-.5 1-1.6 1-2.4v-1.2c0-.8.5-1.9 1-2.4l2.1-2.1c.6-.5 1.7-1 2.4-1h3.6c.8 0 1.9.4 2.4 1l11.6 11.2c.6.5 1 1.6 1 2.4v5.2c0 .8.5 1.9 1 2.4l13.7 13.3c.6.5 1.5 1.4 2 2l27.6 26.7c.6.5 1 1.6 1 2.4v9.3c0 .8-.5 1.9-1 2.4l-2 2c-.6.5-.6 1.4 0 2l5.4 5.2"/><path class="st0" d="M322.2 571.3l12.5 12.1c.6.5 1 1.6 1 2.4v6.5c0 .8-.5 1.9-1 2.4l-.7.7c-.6.5-1 1.6-1 2.4v4c0 .8 0 1.4.1 1.3.1-.1.6.3 1.1.9l3.9 3.7c.6.5 1.7 1 2.4 1h6.7c.8 0 1.4.6 1.4 1.4v3.7c0 .8-.6 1.4-1.4 1.4H335.3c-.8 0-1 .4-.4 1l3.7 3.6c.6.5 1 1.6 1 2.4v5.8c0 .8.5 1.9 1 2.4l2.8 2.7c.6.5 1.7 1 2.4 1h9.8c.8 0 1-.4.4-1l-5.5-5.3c-.6-.5-.4-1 .4-1h5.3c.8 0 1.4-.6 1.4-1.4v-2.8c0-.8.5-1.9 1-2.4l1.9-1.8c.6-.5 1.7-1 2.4-1h3.2c.8 0 1.4-.6 1.4-1.4v-10.2M176.5 399.8v-15.5c0-.8.5-1.9 1-2.4l13.1-12.6c.6-.5 1.7-1 2.4-1h24.3c.8 0 1.9-.4 2.4-1l10.7-10.3c.6-.5 1-1.6 1-2.4v-14.9c0-.8-.5-1.9-1-2.4l-7.6-7.3c-.6-.5-1-1.6-1-2.4V316c0-.8.5-1.9 1-2.4l17.4-16.8c.6-.5 1.5-.5 2 0l4.1 4c.6.5 1 1.6 1 2.4v4.3c0 .8.5 1.9 1 2.4l3.4 3.3c.6.5 1 1.6 1 2.4v5.9c0 .8-.6 1.4-1.4 1.4h-9.6c-.8 0-1.4.6-1.4 1.4v4.3c0 .8.6 1.4 1.4 1.4h6.9c.8 0 1.4.6 1.4 1.4v11.5c0 .8-.5 1-1 .4l-4.1-4c-.6-.5-1.5-.5-2 0l-4.5 4.3c-.6.5-.6 1.4 0 2l6.7 6.5M135 405.2h-19.9c-.5 0-1.1.3-1.5.6l-1.7 1.6c-.3.3-1 .6-1.5.6h-7.8c-.5 0-1.1-.3-1.5-.6l-1.1-1.1c-.3-.3-1-.6-1.5-.6h-5.7c-.5 0-1.1.3-1.5.6l-3.5 3.3c-.3.3-1 .6-1.5.6h-8.2c-.5 0-1.1.3-1.5.6l-3.9 3.8c-.3.3-1 .6-1.5.6h-4.7c-.5 0-.6-.3-.2-.6l11.6-11.3 1.2-1.2 3.3-3.2c.3-.3 1-.6 1.5-.6h8c.5 0 1.1-.3 1.5-.6l2.6-2.5c.3-.3.6-1 .6-1.4v-3.1c0-.5-.3-1.1-.6-1.4l-1.1-1c-.3-.3-.9-.3-1.2 0l-5.3 5.2c-.3.3-.9.3-1.2 0l-6.3-6.1c-.3-.3-.9-.3-1.2 0l-.8.7c-.3.3-1 .6-1.5.6H77c-.5 0-1.1-.3-1.5-.6l-1.5-1.5c-.3-.3-.3-.9 0-1.2l12.9-12.5c.3-.3.6-1 .6-1.4v-3.2c0-.5-.4-.9-.9-.9H82c-.5 0-.6-.3-.2-.6l1.5-1.4c.3-.3.3-.9 0-1.2l-2.9-2.8c-.3-.3-.3-.9 0-1.2l1.5-1.4c.3-.3.9-.3 1.2 0l2.8 2.7c.3.3 1 .6 1.5.6H92c.5 0 1.1-.3 1.5-.6l3.4-3.3c.3-.3.6-1 .6-1.4v-1.1c0-.5.3-1.1.6-1.4l3.6-3.4c.3-.3.6-1 .6-1.4v-2.9c0-.5-.4-.9-.9-.9h-6.8c-.5 0-.9-.4-.9-.9v-4.5c0-.5.3-1.1.6-1.4l1.6-1.5c.3-.3.6-1 .6-1.4v-3.1c0-.5-.3-1.1-.6-1.4l-1.8-1.7c-.3-.3-.9-.3-1.2 0l-5.7 5.5c-.3.3-.9.3-1.2 0l-6.5-6.3c-.3-.3-.3-.9 0-1.2l4.6-4.5c.3-.3.3-.9 0-1.2l-.3-.3c-.3-.3-1-.6-1.5-.6h-7.9c-.5 0-.9-.4-.9-.9v-2.6c0-.5.3-1.1.6-1.4l3.7-3.6c.3-.3.6-1 .6-1.4v-4.5c0-.5.1-1.2.2-1.7l.7-2.7c.1-.5.2-1.2.2-1.7v-3.6c0-.5-.3-.6-.6-.3l-4.6 4.5c-.3.3-1 .6-1.5.6h-1.9c-.5 0-.9-.4-.9-.9v-2.4c0-.5.3-1.1.6-1.4l4-3.9c.3-.3.6-1 .6-1.4v-4.4c0-.5-.4-.9-.9-.9h-2.7c-.5 0-1.1-.3-1.5-.6l-3-2.9c-.3-.3-.3-.9 0-1.2l5.5-5.4c.3-.3.6-.2.6.3v2.9c0 .5.3.6.6.3l2.6-2.6 1.2-1.2 2.2-2.1c.3-.3.3-.9 0-1.2l-2.9-2.8c-.3-.3-.6-1-.6-1.4v-3.9c0-.5.3-1.1.6-1.4l6.2-6c.3-.3 1-.6 1.5-.6h5.9c.5 0 1.1.3 1.5.6l.8.7c.3.3 1 .6 1.5.6h7.1c.5 0 1.1.3 1.5.6l2.8 2.7c.3.3.3.9 0 1.2l-7.7 7.5c-.3.3-.6 1-.6 1.4v1.2c0 .5-.3 1.1-.6 1.4l-2.7 2.6c-.3.3-.6 1-.6 1.4v4.5c0 .5.3.6.6.3l4.4-4.3c.3-.3 1-.6 1.5-.6h18.8c.5 0 .9.4.9.9v7.7c0 .5-.3 1.1-.6 1.4l-3.6 3.4-1.2 1.2-8.3 8c-.3.3-.2.6.2.6h10.4c.5 0 1.1.3 1.5.6l26.5 25.6c.3.3.6 1 .6 1.4v25.2c0 .5.3 1.1.6 1.4l23.7 23.1"/><path class="st0" d="M160.1 403.8h-11.7c-.5 0-1.1-.3-1.5-.6l-5-4.8c-.3-.3-1-.6-1.5-.6h-3.7c-.5 0-.9-.4-.9-.9v-3.1c0-.5.3-1.1.6-1.4l3.7-3.6 1.2-1.2.3-.3 1.2-1.2 3.9-3.8c.3-.3.6-1 .6-1.4v-8c0-.5-.3-1.1-.6-1.4l-5.4-5.3c-.3-.3-.9-.3-1.2 0l-3.2 3.1c-.3.3-1 .6-1.5.6h-3.1c-.5 0-.9-.4-.9-.9v-1.3c0-.5.3-1.1.6-1.4l2.7-2.6c.3-.3.6-1 .6-1.4v-2.7c0-.5-.3-1.1-.6-1.4l-3.1-3c-.3-.3-.6-1-.6-1.4v-3.6c0-.5-.3-1.1-.6-1.4l-1.6-1.5c-.3-.3-.6-1-.6-1.4V340c0-.5-.3-1.1-.6-1.4l-3.4-3.2c-.3-.3-1-.6-1.5-.6h-2.8c-.5 0-.9-.4-.9-.9v-10.2c0-.5-.3-1.1-.6-1.4l-6.5-6.3M72.1 333.9c.5 0 .9.4.9.9v3.5c0 .5-.3 1.1-.6 1.4l-3.5 3.4c-.3.3-1 .6-1.5.6h-2.7c-.5 0-.9.4-.9.9v4.6c0 .5.3 1.1.6 1.4l1.1 1.1c.3.3.6 1 .6 1.4V368c0 .5-.3 1.1-.6 1.4l-2.1 2.1c-.3.3-.6 1-.6 1.4v2.2c0 .5-.4.9-.9.9H50.1c-.5 0-1.1.3-1.5.6L44 381c-.3.3-1 .6-1.5.6h-8.1c-.5 0-1.1.3-1.5.6l-2.6 2.5c-.3.3-1 .6-1.5.6h-5.7c-.5 0-.9-.4-.9-.9v-3c0-.5-.4-.9-.9-.9h-2.4c-.5 0-.9-.4-.9-.9V372c0-.5.3-1.1.6-1.4l15.6-15.1c.3-.3.2-.6-.2-.6h-5.6c-.5 0-1.1-.3-1.5-.6l-1.7-1.6c-.3-.3-.3-.9 0-1.2l4.8-4.7c.3-.3.3-.9 0-1.2l-3.1-3c-.3-.3-.6-1-.6-1.4v-3.1c0-.5.3-1.1.6-1.4l1.8-1.7c.3-.3.9-.3 1.2 0l1.6 1.6c.3.3 1 .6 1.5.6h4.4c.5 0 1.1-.3 1.5-.6l3-2.9c.3-.3.3-.9 0-1.2l-2.5-2.4c-.3-.3-.3-.9 0-1.2l4.9-4.8c.3-.3 1-.6 1.5-.6h1.9c.5 0 1.1-.3 1.5-.6l2.5-2.5c.3-.3 1-.6 1.5-.6h5c.5 0 .6.3.2.6l-4.7 4.5c-.3.3-.2.6.2.6h4.9c.5 0 1.1-.3 1.5-.6l2.4-2.4c.3-.3.9-.3 1.2 0l6.8 6.6c.3.3.3.8-.1 1.1l-4.4 3.2c-.4.3-.3.5.2.5h5.7zM393.3 282.8v9.2c0 .8.6 1.4 1.4 1.4h4c.8 0 1.9.4 2.4 1l5.7 5.5c.6.5.6 1.4 0 2L396 312.3c-.6.5-1.5.5-2 0l-4.8-4.7c-.6-.5-1.7-1-2.4-1h-6.7c-.8 0-1.9.4-2.4 1l-15.5 15c-.6.5-1 1.6-1 2.4v21.5c0 .8-.5 1.9-1 2.4l-8.1 7.8c-.6.5-1.7 1-2.4 1h-8c-.8 0-1.9-.4-2.4-1l-4-3.8c-.6-.5-1.7-1-2.4-1h-16.8c-.8 0-1.9.4-2.4 1l-13.1 12.7c-.6.5-1.7 1-2.4 1H285c-.8 0-1.9.4-2.4 1l-2.1 2c-.6.5-1.7 1-2.4 1h-19c-.8 0-1.9-.4-2.4-1l-3.9-3.7"/><path class="st0" d="M182.3 404.3h28.9c.8 0 1.9-.4 2.4-1l43-41.6c.6-.5 1-1 1-1.1s.6-.1 1.4-.1h13.1"/><path class="st0" d="M189.1 404.3l7.4-7.1c.6-.5 1-1.6 1-2.4v-3.5c0-.8.5-1.9 1-2.4l6.5-6.3c.6-.5 1-1.6 1-2.4v-4.8M286.7 492.3l7.5 7.2-7.8 7.5M171.6 420.1v6.7l17 16.5H206l6.8 6.5-5.4 5.2v8.7l-17.5 16.9h8.9v25.8"/><path class="st0" d="M207.4 463.7h5.3l9.9 9.6h32.5l12.3-11.9 7-6.8-20.5-19.8 7.6-7.3v-2.8h21.2l7.6-7.5v-41.9"/><path class="st0" d="M198.8 489.7h8.6l4-3.9 6.2 5.9 6.6-6.4 6.2 6 8.6-8.3h15.3l9.5 9.3H292l18.2-17.7v-17.9h-9l-14.6-14.1-5.6 5.4M180.1 410.5h10.3l8.8 8.6-11.5 11.1M142.9 548.7v-9.1l-10.7-10.4h-18.6l-8.1-7.8M290.3 417.2h5.9l7.4 7.2v9.1h8.1l12.7 12.2-8.3 8.1"/><path class="st0" d="M318.2 439.5h10l7.4 7.1 4.9 4.8h19.7l4.8 4.7-5.6 5.5"/><path class="st0" d="M310.2 469.4h7.8l9.6-9.3h14.8l17.4 16.8h35.5l11.1-10.7h16.9l15.1 14.5v11.6M297.1 488.2l11.6 11.4h32.8l16.3-15.8M322.2 500.3v13.4l3.4 3.2v19.5l10 9.8 4.4-4.2 12.4 12.1h5.4v16.2h35.9l5.5-5.3"/><path class="st0" d="M325.6 525.6l-12.3-11.9h-36.5"/><path class="st0" d="M289.2 513.7v5.9l17.7 17.1v13M327 536.7l-17.6 17M318.8 561.8v-10h10.3l7.8 7.5v12.9l5.1 4.9h10.1l6.4-6.2"/><path class="st0" d="M339.6 574.7v6.9l-3.4 3.2M336.7 500l26.7 25.8v7l4.2 3.9h31.6l4.9-4.6h6.8"/><path class="st0" d="M357.7 520.3v11.4l-3.6 3.4 6.9 6.6v3.1l-3.9 3.7M345.4 357.8v2.9l7.6 7.3h26.1l5.5 5.4v21.7l-1.9 1.9-5.5 5.3h7.8v9.6l-3.4 3.3v14.9l-14.7 14.2M360.2 333.7l9.2-8.9h36.8l13.9 13.5 3.6 3.4"/><path class="st0" d="M417.9 336.1V355l-19.1 18.5h-9.1M361 343l9.8 9.5h10.3v11.1M472.9 413.5c-1.6.3-11.8 11.4-11.8 11.4H436l-11.1-10.7h-27.7M412.7 466.2v16l15.4 14.9-6.8 6.6v11l2.8 2.8h9.3M30.2 603.7v-22.9l7.4-7.2v-15.4l10.7-10.3v-8.3l-7.4-7.2M65 343.7h-6l-5.5-5.4M410.9 124.7v-4.9l6.1-5.8V61.1l-22.2-21.2M468.8 367.8v-12.6c0-.8-.5-1.9-1-2.4l-7.3-7c-.6-.5-1.7-1-2.4-1h-4.8c-.8 0-1.9-.4-2.4-1l-4.7-4.6c-.6-.5-1.7-1-2.4-1h-4.3c-.8 0-1.4-.6-1.4-1.4v-13.6c0-.8-.5-1.9-1-2.4l-3.1-3c-.6-.5-1-1.6-1-2.4v-2.9c0-.8.5-1.9 1-2.4l3.2-3.1c.6-.5 1-1.6 1-2.4V301c0-.8-.5-1.9-1-2.4l-7.6-7.3c-.6-.5-1-1.6-1-2.4v-4.2c0-.8.5-1.9 1-2.4l11.4-11c.6-.5.4-1-.4-1h-32.7s-.5.4-1 1l-2.2 2.1c-.6.5-1 1.6-1 2.4v6.1c0 .8.4 1.9 1 2.4l4.8 4.9c.5.6 1 1.7 1 2.4v.1c0 .8-.5 1.9-1 2.4l-4.1 4M434.7 517.7l15.9-15.4h17.2l9.8 9.5-7.4 7.2 8.1 7.8-4.9 4.6v6.5h15.5l6.7-6.5h14.5v-4.9h-14.8l-5.3-5v-20.1l11.9-11.4h17.5l8.6 8.3"/><path class="st0" d="M357.6 624.6v-21.2l-3-5v-16l7.8 7.6h7.3v-10.8h23.1l6.4 6.2h6.2l8.2-7.9h15.8v.1l-12.9-12.4h-9.2v-10.4l15.7-15.2v-10.5h16.7l9.7-9.5v-15.5M464 349.2l-6.7 6.4v10l7.1 6.5 15.2 14.7v6.9l-4.1 4h-10.4v15.8h28.2l7.1 6.9v9.3l4.8 4.6v9h21.1l18.5 17.9h7.2v28.2h-14.8l-5.6 5.4-9.6 9.2h-22.5M450.1 262.5l29.6-28.6v-18.4M243.3 609.9c-.5.6-.5 1.5 0 2l18.2 17.6c.6.5 1.5.5 2 0l7.2-6.9c.6-.5.6-1.4 0-2l-6.9-6.7c-.6-.5-1-1.6-1-2.4v-2.6c0-.8-.6-1.4-1.4-1.4h-14.2c-.8 0-1.9.5-2.4 1l-1.5 1.4zM202.1 566.4c.5-.6 1.5-1.1 2.3-1.1h9.5c.8 0 1.9.4 2.4 1l1.7 1.7c.6.5 1 1.6 1 2.4v17.4c0 .8-.6 1.4-1.4 1.4h-17c-.8 0-1.4-.6-1.4-1.4v-16.5c0-.8.4-1.9.9-2.5l2-2.4zM216.5 538.7c.6.5 1.1 1.6 1.1 2.4v9.8c0 .8-.5 1.9-1 2.4l-4 3.9c-.6.5-1.5.5-2 0l-4.7-4.5c-.6-.5-1-1.6-1-2.4v-7c0-.8.5-1.9 1-2.4l5.2-5c.6-.5 1.5-.6 2.1-.1l3.3 2.9zM170.3 398.8v-78.9c0-.5.3-1.1.6-1.5L284 205.3l.6-.6v-36.1c0-.5.3-1.1.6-1.4l10.4-10c.3-.3 1-.6 1.5-.6h4.6c.5 0 .9-.4.9-.9V148c0-.5-.3-1.1-.6-1.4l-3.1-3c-.3-.3-.6-1-.6-1.4v-3.8c0-.5.3-1.1.6-1.4l18.4-17.8c.3-.3.6-1 .6-1.4v-10.6c0-.5.3-1.1.6-1.4l5.7-5.5c.3-.3.6-1 .6-1.4v-3.6c0-.5.3-1.1.6-1.4l8.1-7.8c.3-.3.6-1 .6-1.4V71.2c0-.5.3-1.1.6-1.4l14.8-14.3c.3-.3.9-.3 1.2 0l4 3.9c.3.3.6.2.6-.3V43.7c0-.5.4-.9.9-.9h9.1c.5 0 1.1.3 1.5.6l6.8 6.6c.3.3.9.3 1.2 0l7.4-7.2c.3-.3.6-1 .6-1.4V32c0-.5.3-1.1.6-1.4l6.7-6.5c.3-.3 1-.6 1.5-.6h5.4c.5 0 1.1.3 1.5.6l14.9 14.4c.3.3 1 .6 1.5.6h4.3c.5 0 1.1.3 1.5.6l8.8 8.6c.3.3.9.3 1.2 0l11.1-10.7c.3-.3.6-1 .6-1.4V20.5c0-.5.3-1.1.6-1.4l14.5-14c.3-.3 1-.6 1.5-.6h37c.5 0 .9.4.9.9v5.8c0 .5-.4.9-.9.9h-18.4c-.5 0-.6.3-.2.6l13.7 13.2c.3.3.3.9 0 1.2L469.5 48c-.3.3-.6 1-.6 1.4V60c0 .5.3 1.1.6 1.4l11.3 10.9c.3.3.6 1 .6 1.4v5.9c0 .5-.3 1.1-.6 1.4L464 97.3c-.3.3-.3.9 0 1.2l7.1 6.9c.3.3.6 1 .6 1.4v41.3c0 .5.3 1.1.6 1.4l6.3 6.1c.3.3.6 1 .6 1.4v26.3c0 .5.3 1.1.6 1.4l9.5 9.2c.3.3.6 1 .6 1.4v9.4c0 .5-.3 1.1-.6 1.4L446.1 248c-.3.3-1 .6-1.5.6H422c-.5 0-1.1.3-1.5.6l-8.2 8c-.3.3-1 .6-1.5.6h-21.4c-.5 0-1.1-.3-1.5-.6l-15.1-14.6c-.3-.3-.6-1-.6-1.4V198c0-.5.3-1.1.6-1.4l44-42.5c.3-.3.6-1 .6-1.4v-27c0-.5-.4-.9-.9-.9h-17.8c-.5 0-1.1.3-1.5.6l-8.4 8.2c-.3.3-.6 1-.6 1.4v22.5c0 .5-.3 1.1-.6 1.4L332.7 212c-.3.3-.6 1-.6 1.4v27.1c0 .5.3 1.1.6 1.4l10.4 10c.3.3.6 1 .6 1.4V266c0 .5-.3 1.1-.6 1.4l-20.9 20.2c-.3.3-.6 1-.6 1.4v33c0 .5-.3 1.1-.6 1.4l-9.2 8.9c-.3.3-1 .6-1.5.6h-19.7c-.5 0-1.1.3-1.5.6l-6.6 6.4c-.3.3-1 .6-1.5.6h-6.4c-.5 0-.9-.4-.9-.9v-23.9c0-.5-.3-1.1-.6-1.4l-13-12.6c-.3-.3-.6-1-.6-1.4v-23.1V263.4v-.7c0 .1.3.4.6.7l5 4.9c.3.3 1 .6 1.5.6h2.8c.5 0 1.1-.3 1.5-.6l4-3.8c.3-.3.6-1 .6-1.4v-16.4c0-.5.3-1.1.6-1.4l7.8-7.5c.3-.3.6-1 .6-1.4v-14"/><path class="st1" d="M165 421.3v7.5c0 .8.5 1.9 1 2.4l17.3 16.8c.6.5 1.7 1 2.4 1h13.1"/><circle class="st2" cx="198.8" cy="448.9" r="2.3"/><path class="st3" d="M198.8 451.5c-1.4 0-2.6-1.1-2.6-2.6s1.1-2.6 2.6-2.6 2.6 1.1 2.6 2.6-1.2 2.6-2.6 2.6 1.4 0 0 0zm0-4.5c-1.1 0-2 .9-2 2s.9 2 2 2 2-.9 2-2-.9-2-2-2 1.1 0 0 0z"/><path class="st1" d="M170.1 435.1v9.8c0 .8.5 1.9 1 2.4l10.1 9.7c.6.5 1.7 1 2.4 1h15.3"/><circle class="st2" cx="198.8" cy="458" r="2.3"/><path class="st3" d="M198.8 460.6c-1.4 0-2.6-1.1-2.6-2.6s1.1-2.6 2.6-2.6 2.6 1.1 2.6 2.6-1.2 2.6-2.6 2.6 1.4 0 0 0zm0-4.5c-1.1 0-2 .9-2 2s.9 2 2 2 2-.9 2-2-.9-2-2-2 1.1 0 0 0z"/><path class="st1" d="M127 434.2v8.7c0 .8-.5 1.9-1 2.4l-3.4 3.3c-.6.5-1.7 1-2.4 1H98"/><circle class="st2" cx="98.2" cy="449.6" r="2.3"/><path class="st3" d="M98.2 447c1.4 0 2.6 1.1 2.6 2.6s-1.1 2.6-2.6 2.6-2.6-1.1-2.6-2.6 1.2-2.6 2.6-2.6-1.4 0 0 0zm0 4.6c1.1 0 2-.9 2-2s-.9-2-2-2-2 .9-2 2 .9 2 2 2c1 0-1.1 0 0 0z"/><path class="st1" d="M112.9 449.6l-7.3 7.1"/><ellipse transform="rotate(-44.053 105.65 456.544)" class="st2" cx="105.7" cy="456.6" rx="2.3" ry="2.3"/><path class="st3" d="M103.9 454.7c1-1 2.6-1 3.6.1s1 2.6-.1 3.6c-1 1-2.6 1-3.6-.1-.9-1-.9-2.6.1-3.6 1-.9-1 1 0 0zm3.1 3.3c.8-.7.8-2 0-2.8-.8-.8-2-.8-2.8 0-.8.8-.8 2 0 2.8.8.7 2.1.7 2.8 0 .8-.8-.7.7 0 0z"/><path class="st1" d="M145.4 420.4v27.2c0 .8-.5 1.9-1 2.4l-4.3 4.2c-.6.5-1.7 1-2.4 1h-16.4c-.8 0-1.9.4-2.4 1l-6.8 6.6"/><ellipse transform="rotate(-44.048 112.059 462.54)" class="st2" cx="112.1" cy="462.6" rx="2.3" ry="2.3"/><path class="st3" d="M110.3 460.7c1-1 2.6-1 3.6.1 1 1 1 2.6-.1 3.6s-2.6 1-3.6-.1-.9-2.6.1-3.6-1 1 0 0zm3.1 3.3c.8-.7.8-2 0-2.8s-2-.8-2.8 0c-.8.8-.8 2 0 2.8.8.7 2 .7 2.8 0 .8-.8-.8.7 0 0z"/><path class="st1" d="M124 464.6h15.8c.8 0 1.9-.4 2.4-1l10-9.7c.6-.5 1-1.6 1-2.4V422c0-.8.4-1.8.9-2.2s1.5-.8 2.3-.8h4.9"/><circle class="st2" cx="124.2" cy="464.6" r="2.3"/><path class="st3" d="M124.2 467.1c1.4 0 2.6-1.1 2.6-2.6s-1.1-2.6-2.6-2.6c-1.4 0-2.6 1.1-2.6 2.6s1.2 2.6 2.6 2.6c1.4 0-1.4 0 0 0zm0-4.5c1.1 0 2 .9 2 2s-.9 2-2 2-2-.9-2-2 .9-2 2-2c1 0-1.1 0 0 0z"/><path class="st1" d="M174.4 450.5v9.6c0 .8.5 1.9 1 2.4l4.3 4.2c.6.5 1.7 1 2.4 1h7.6"/><circle class="st2" cx="189.6" cy="467.7" r="2.3"/><path class="st3" d="M189.6 470.2c-1.4 0-2.6-1.1-2.6-2.6s1.1-2.6 2.6-2.6c1.4 0 2.6 1.1 2.6 2.6s-1.2 2.6-2.6 2.6c-1.4 0 1.4 0 0 0zm0-4.5c-1.1 0-2 .9-2 2s.9 2 2 2 2-.9 2-2-.9-2-2-2 1.1 0 0 0z"/><path class="st1" d="M136.1 464.6l-20.5 19.9c-.6.5-1 1.6-1 2.4V515c0 .8.5 1.9 1 2.4l.8.8"/><ellipse transform="rotate(-45.952 116.295 518.076)" class="st2" cx="116.3" cy="518.1" rx="2.3" ry="2.3"/><path class="st3" d="M114.5 519.9c-1-1-1-2.6-.1-3.6 1-1 2.6-1 3.6-.1 1 1 1 2.6.1 3.6-.9 1.1-2.6 1.1-3.6.1-1-.9 1 1 0 0zm3.2-3.2c-.8-.8-2-.7-2.8 0s-.7 2 0 2.8c.8.8 2 .7 2.8 0s.7-2 0-2.8.7.8 0 0z"/><path class="st1" d="M146.9 459.1v10.3c0 .8-.5 1.9-1 2.4l-21.4 20.7c-.6.5-1 1.6-1 2.4v11.9"/><circle class="st2" cx="123.5" cy="506.8" r="2.3"/><path class="st3" d="M120.9 506.8c0-1.4 1.1-2.6 2.6-2.6s2.6 1.1 2.6 2.6c0 1.4-1.1 2.6-2.6 2.6s-2.6-1.2-2.6-2.6c0-1.4 0 1.4 0 0zm4.5 0c0-1.1-.9-2-2-2s-2 .9-2 2 .9 2 2 2c1.1-.1 2-1 2-2 0-1.1 0 1 0 0z"/><path class="st1" d="M153.3 431.1l7.9 7.7c.6.5 1 1.6 1 2.4v29.3c0 .8-.5 1.9-1 2.4l-26.3 25.5c-.6.5-1 1.6-1 2.4v17.4c0 .8.5 1.9 1 2.4l1.6 1.5"/><ellipse transform="rotate(-45.952 136.354 522.008)" class="st2" cx="136.4" cy="522" rx="2.3" ry="2.3"/><path class="st3" d="M134.6 523.9c-1-1-1-2.6-.1-3.6 1-1 2.6-1 3.6-.1 1 1 1 2.6.1 3.6-1 1-2.6 1.1-3.6.1s1 1 0 0zm3.1-3.3c-.8-.8-2-.7-2.8 0-.8.8-.7 2 0 2.8.8.8 2 .7 2.8 0s.8-2 0-2.8.8.8 0 0z"/><path class="st1" d="M184 467.7l-8.1 7.9c-.6.5-1 1.6-1 2.4v8.1c0 .8.6 1.4 1.4 1.4h9.9c.8 0 1.4.6 1.4 1.4v2.8"/><circle class="st2" cx="187.5" cy="491.6" r="2.3"/><path class="st3" d="M185 491.6c0-1.4 1.1-2.6 2.6-2.6s2.6 1.1 2.6 2.6c0 1.4-1.1 2.6-2.6 2.6s-2.6-1.2-2.6-2.6c0-1.4 0 1.4 0 0zm4.5 0c0-1.1-.9-2-2-2s-2 .9-2 2 .9 2 2 2 2-.9 2-2 0 1.1 0 0z"/><path class="st1" d="M146.9 486.8v21.9"/><circle class="st2" cx="146.9" cy="508.5" r="2.3"/><path class="st3" d="M144.4 508.5c0-1.4 1.1-2.6 2.6-2.6s2.6 1.1 2.6 2.6c0 1.4-1.1 2.6-2.6 2.6s-2.6-1.2-2.6-2.6c0-1.4 0 1.4 0 0zm4.5 0c0-1.1-.9-2-2-2s-2 .9-2 2 .9 2 2 2 2-.9 2-2c0-1 0 1.1 0 0z"/><path class="st1" d="M154.5 479.4l8.8 8.5c.6.5 1 1.6 1 2.4V507c0 .8.5 1.9 1 2.4l10.6 10.2"/><ellipse transform="rotate(-45.952 175.848 519.606)" class="st2" cx="175.9" cy="519.6" rx="2.3" ry="2.3"/><path class="st3" d="M174.1 521.5c-1-1-1-2.6-.1-3.6 1-1 2.6-1 3.6-.1s1 2.6.1 3.6c-1 1-2.6 1.1-3.6.1s1 1 0 0zm3.1-3.3c-.8-.7-2-.7-2.8 0s-.7 2 0 2.8 2 .7 2.8 0c.8-.8.8-2 0-2.8-.8-.7.8.8 0 0z"/><path class="st1" d="M180.1 487.5v19.6c0 .8.5 1.9 1 2.4l5.2 5"/><ellipse transform="rotate(-45.952 186.149 514.356)" class="st2" cx="186.2" cy="514.4" rx="2.3" ry="2.3"/><path class="st3" d="M184.4 516.2c-1-1-1-2.6-.1-3.6 1-1 2.6-1 3.6-.1 1 1 1 2.6.1 3.6s-2.6 1.1-3.6.1 1 1 0 0zm3.1-3.2c-.8-.8-2-.7-2.8 0s-.7 2 0 2.8 2 .7 2.8 0 .8-2.1 0-2.8.8.7 0 0z"/><path class="st1" d="M181.2 409.3h34.2c.8 0 1.9-.4 2.4-1l20.7-20c.6-.5 1.5-1.4 2-2l7.7-7.2c.6-.5 1.7-1 2.4-1h28"/><circle class="st2" cx="278.5" cy="378.2" r="2.3"/><path class="st3" d="M278.5 380.7c-1.4 0-2.6-1.1-2.6-2.6s1.1-2.6 2.6-2.6 2.6 1.1 2.6 2.6-1.2 2.6-2.6 2.6 1.4 0 0 0zm0-4.5c-1.1 0-2 .9-2 2s.9 2 2 2 2-.9 2-2-1-2-2-2 1 0 0 0z"/><path class="st1" d="M278.6 385.1H256c-.8 0-1.9.4-2.4 1l-3.6 3.5c-.6.5-1.7 1-2.4 1H236"/><circle class="st2" cx="278.5" cy="385.1" r="2.3"/><path class="st3" d="M278.5 382.5c-1.4 0-2.6 1.1-2.6 2.6 0 1.4 1.1 2.6 2.6 2.6s2.6-1.1 2.6-2.6c-.1-1.4-1.2-2.6-2.6-2.6s1.4 0 0 0zm0 4.5c-1.1 0-2-.9-2-2s.9-2 2-2 2 .9 2 2c-.1 1.2-1 2-2 2s1 0 0 0z"/><path class="st1" d="M66.1 513.1l-2.7 2.6c-.6.5-1.7 1-2.4 1H34.5c-.8 0-1.9-.4-2.4-1l-.5-.5"/><ellipse transform="rotate(-45.949 31.66 515.278)" class="st2" cx="31.7" cy="515.2" rx="2.3" ry="2.3"/><path class="st3" d="M33.4 513.4c1 1 1 2.6.1 3.6-1 1-2.6 1-3.6.1-1-1-1-2.6-.1-3.6 1-1 2.6-1.1 3.6-.1s-1-1 0 0zm-3.1 3.3c.8.8 2 .7 2.8 0 .7-.8.7-2 0-2.8-.8-.8-2-.7-2.8 0s-.8 2 0 2.8-.8-.8 0 0z"/><path class="st1" d="M39.2 516.6l-3.3 3.2c-.6.5-1.7 1-2.4 1h-14"/><circle class="st2" cx="19.7" cy="520.7" r="2.3"/><path class="st3" d="M19.7 518.2c1.4 0 2.6 1.1 2.6 2.6s-1.1 2.6-2.6 2.6c-1.4 0-2.6-1.1-2.6-2.6s1.2-2.6 2.6-2.6c1.4 0-1.4 0 0 0zm0 4.5c1.1 0 2-.9 2-2s-.9-2-2-2-2 .9-2 2 .9 2 2 2-1.1 0 0 0z"/><path class="st1" d="M24.5 521.1v16.8"/><circle class="st2" cx="24.5" cy="537.7" r="2.3"/><path class="st3" d="M21.9 537.7c0-1.4 1.1-2.6 2.6-2.6s2.6 1.1 2.6 2.6c0 1.4-1.1 2.6-2.6 2.6s-2.6-1.2-2.6-2.6c0-1.4 0 1.4 0 0zm4.5 0c0-1.1-.9-2-2-2s-2 .9-2 2 .9 2 2 2 2-.9 2-2 0 1.1 0 0z"/><path class="st1" d="M47.9 543.1h-2c-.8 0-1.9.4-2.4 1l-11.2 10.8c-.6.5-1 1.6-1 2.4v10.6c0 .8-.5 1.9-1 2.4l-3.1 3"/><ellipse transform="rotate(-44.053 27.213 573.254)" class="st2" cx="27.2" cy="573.3" rx="2.3" ry="2.3"/><path class="st3" d="M25.5 571.4c1-1 2.6-1 3.6.1 1 1 1 2.6-.1 3.6-1 1-2.6 1-3.6-.1-1-1-1-2.6.1-3.6 1-.9-1.1 1 0 0zm3.1 3.3c.8-.7.8-2 0-2.8-.8-.8-2-.8-2.8 0s-.8 2 0 2.8 2 .7 2.8 0c.8-.8-.8.7 0 0z"/><path class="st1" d="M29.8 583.4h-1.3c-.7 0-1.7.4-2.3 1l-.2.2c-.6.5-1 1.6-1 2.4v8.8"/><circle class="st2" cx="25" cy="595.6" r="2.3"/><path class="st3" d="M22.5 595.6c0-1.4 1.1-2.6 2.6-2.6s2.6 1.1 2.6 2.6c0 1.4-1.1 2.6-2.6 2.6s-2.6-1.2-2.6-2.6c0-1.4 0 1.4 0 0zm4.5 0c0-1.1-.9-2-2-2s-2 .9-2 2 .9 2 2 2 2-.9 2-2 0 1.1 0 0z"/><path class="st1" d="M25.9 548.7v16.1c0 .8-.5 1.9-1 2.4l-4 3.9c-.6.5-1 1.6-1 2.4v5.2"/><circle class="st2" cx="19.9" cy="578.6" r="2.3"/><path class="st3" d="M17.3 578.6c0-1.4 1.1-2.6 2.6-2.6s2.6 1.1 2.6 2.6c0 1.4-1.1 2.6-2.6 2.6s-2.6-1.2-2.6-2.6c0-1.4 0 1.4 0 0zm4.5 0c0-1.1-.9-2-2-2s-2 .9-2 2 .9 2 2 2c1.1-.1 2-.9 2-2s0 1.1 0 0z"/><path class="st1" d="M20.8 553.7v8.7c0 .8-.5 1.9-1 2.4l-3 2.9c-.4.4-1.1.7-1.7.9"/><ellipse transform="rotate(-3.527 15.162 568.55)" class="st2" cx="15.2" cy="568.5" rx="2.3" ry="2.3"/><path class="st3" d="M15 566c1.4-.1 2.6 1 2.7 2.4.1 1.4-1 2.6-2.4 2.7-1.4.1-2.6-1-2.7-2.4-.1-1.4 1-2.6 2.4-2.7 1.4-.1-1.4.1 0 0zm.3 4.5c1.1-.1 1.9-1 1.8-2.1-.1-1.1-1-1.9-2.1-1.8-1.1.1-1.9 1-1.8 2.1.1 1 1 1.9 2.1 1.8 1.1-.1-1.1.1 0 0z"/><path class="st1" d="M107.9 491.7l-4.4 4.2c-.6.5-1 1.6-1 2.4v5.2c0 .8-.5 1.9-1 2.4L89.1 518"/><ellipse transform="rotate(-44.048 89.137 517.838)" class="st2" cx="89.1" cy="517.9" rx="2.3" ry="2.3"/><path class="st3" d="M87.4 516c1-1 2.6-1 3.6.1 1 1 1 2.6-.1 3.6-1 1-2.6 1-3.6-.1-1-1-.9-2.6.1-3.6 1-.9-1 1 0 0zm3.1 3.3c.8-.8.8-2 0-2.8-.7-.8-2-.8-2.8 0-.8.8-.8 2 0 2.8.8.7 2 .7 2.8 0s-.8.7 0 0z"/><path class="st1" d="M81.5 513.7l-13.5 13c-.6.5-1.7 1-2.4 1h-9"/><circle class="st2" cx="56.7" cy="527.7" r="2.3"/><path class="st3" d="M56.7 525.1c1.4 0 2.6 1.1 2.6 2.6 0 1.4-1.1 2.6-2.6 2.6s-2.6-1.1-2.6-2.6c.1-1.5 1.2-2.6 2.6-2.6s-1.4 0 0 0zm0 4.5c1.1 0 2-.9 2-2s-.9-2-2-2-2 .9-2 2c.1 1.1 1 2 2 2s-1 0 0 0z"/><path class="st1" d="M108.9 524.7l-4.4 4.3c-.6.5-1.7 1-2.4 1H79.4"/><circle class="st2" cx="79.5" cy="529.9" r="2.3"/><path class="st3" d="M79.5 527.4c1.4 0 2.6 1.1 2.6 2.6s-1.1 2.6-2.6 2.6-2.6-1.1-2.6-2.6 1.2-2.6 2.6-2.6-1.4 0 0 0zm0 4.5c1.1 0 2-.9 2-2s-.9-2-2-2-2 .9-2 2 .9 2 2 2-1.1 0 0 0z"/><path class="st1" d="M117.8 529.2l-7.3 7c-.6.5-1.7 1-2.4 1H56.6"/><circle class="st2" cx="56.7" cy="537.3" r="2.3"/><path class="st3" d="M56.7 534.7c1.4 0 2.6 1.1 2.6 2.6s-1.1 2.6-2.6 2.6-2.6-1.1-2.6-2.6 1.2-2.6 2.6-2.6-1.4 0 0 0zm0 4.5c1.1 0 2-.9 2-2s-.9-2-2-2-2 .9-2 2c.1 1.1 1 2 2 2s-1 0 0 0z"/><path class="st1" d="M68.6 537.3l-18.2 17.6c-.6.5-1 1.6-1 2.4v16c0 .8-.5 1.9-1 2.4l-5.4 5.2"/><ellipse transform="rotate(-44.048 43.036 580.823)" class="st2" cx="43" cy="580.8" rx="2.3" ry="2.3"/><path class="st3" d="M41.3 579c1-1 2.6-1 3.6.1 1 1 1 2.6-.1 3.6-1 1-2.6 1-3.6-.1-1-1-1-2.6.1-3.6 1-1-1.1 1 0 0zm3.1 3.3c.8-.7.8-2 0-2.8s-2-.8-2.8 0-.8 2 0 2.8 2 .7 2.8 0c.8-.8-.8.7 0 0z"/><path class="st1" d="M64.4 541.3V555c0 .8-.5 1.9-1 2.4l-5.3 5.2c-.6.5-1 1.6-1 2.4v18.5c0 .8-.5 1.9-1 2.4l-8.6 8.3"/><ellipse transform="rotate(-44.048 47.523 594.017)" class="st2" cx="47.5" cy="594" rx="2.3" ry="2.3"/><path class="st3" d="M45.7 592.2c1-1 2.6-1 3.6.1 1 1 1 2.6-.1 3.6-1 1-2.6 1-3.6-.1-.9-1-.9-2.6.1-3.6 1.1-1-1 1 0 0zm3.2 3.2c.8-.8.8-2 0-2.8s-2-.8-2.8 0-.8 2 0 2.8 2 .8 2.8 0c.8-.7-.8.8 0 0z"/><path class="st1" d="M80 537.3l-5.5 5.3c-.6.5-1 1.6-1 2.4v14.8c0 .8-.5 1.9-1 2.4l-9.5 9.2c-.6.5-1 1.6-1 2.4v1.7"/><circle class="st2" cx="62" cy="575.4" r="2.3"/><path class="st3" d="M59.4 575.4c0-1.4 1.1-2.6 2.6-2.6s2.6 1.1 2.6 2.6c0 1.4-1.1 2.6-2.6 2.6s-2.6-1.2-2.6-2.6c0-1.4 0 1.4 0 0zm4.5 0c0-1.1-.9-2-2-2s-2 .9-2 2 .9 2 2 2 2-.9 2-2 0 1.1 0 0z"/><path class="st1" d="M54.2 587.6v8.3c0 .8-.5 1.9-1 2.4l-3.6 3.5"/><ellipse transform="rotate(-44.048 49.604 601.69)" class="st2" cx="49.6" cy="601.7" rx="2.3" ry="2.3"/><path class="st3" d="M47.8 599.9c1-1 2.6-1 3.6.1 1 1 1 2.6-.1 3.6-1 1-2.6 1-3.6-.1-.9-1-.9-2.6.1-3.6s-1 1 0 0zm3.2 3.2c.8-.8.8-2 0-2.8-.8-.8-2-.8-2.8 0s-.8 2 0 2.8 2 .8 2.8 0-.8.8 0 0z"/><path class="st1" d="M93.7 537.3l-9.2 8.9c-.6.5-1 1.6-1 2.4v12.9c0 .8.5 1.9 1 2.4l6.3 6.1"/><ellipse transform="rotate(-45.952 90.651 569.736)" class="st2" cx="90.7" cy="569.8" rx="2.3" ry="2.3"/><path class="st3" d="M88.9 571.6c-1-1-1-2.6-.1-3.6 1-1 2.6-1 3.6-.1 1 1 1 2.6.1 3.6-1 1.1-2.6 1.1-3.6.1s1 1 0 0zm3.1-3.2c-.8-.8-2-.7-2.8 0-.7.8-.7 2 0 2.8s2 .7 2.8 0 .8-2.1 0-2.8.8.7 0 0z"/><path class="st1" d="M69.4 565.2l9.2 8.9c.6.5 1 1.6 1 2.4v19.2"/><circle class="st2" cx="79.6" cy="595.5" r="2.3"/><path class="st3" d="M77.1 595.5c0-1.4 1.1-2.6 2.6-2.6 1.4 0 2.6 1.1 2.6 2.6 0 1.4-1.1 2.6-2.6 2.6s-2.6-1.1-2.6-2.6c0-1.4 0 1.5 0 0zm4.5 0c0-1.1-.9-2-2-2s-2 .9-2 2 .9 2 2 2 2-.9 2-2c0-1 0 1.1 0 0z"/><path class="st1" d="M79.6 577.9l-9 8.7c-.6.5-1 1.6-1 2.4v3.2c0 .8-.5 1.9-1 2.4l-4.2 4.1"/><ellipse transform="rotate(-44.048 64.46 598.634)" class="st2" cx="64.5" cy="598.7" rx="2.3" ry="2.3"/><path class="st3" d="M62.7 596.8c1-1 2.6-1 3.6.1 1 1 1 2.6-.1 3.6-1 1-2.6 1-3.6-.1-1-1-.9-2.6.1-3.6s-1 1 0 0zm3.1 3.3c.8-.7.8-2 0-2.8s-2-.8-2.8 0-.8 2 0 2.8c.8.7 2 .7 2.8 0 .8-.8-.8.7 0 0z"/><path class="st1" d="M90.5 540.3l3.3 3.2c.6.5 1.7 1 2.4 1H111c.8 0 1.9-.4 2.4-1l7.7-7.4"/><ellipse transform="rotate(-44.048 121.056 536.113)" class="st2" cx="121.1" cy="536.1" rx="2.3" ry="2.3"/><path class="st3" d="M122.8 538c-1 1-2.6 1-3.6-.1-1-1-1-2.6.1-3.6s2.6-1 3.6.1c1 1 .9 2.6-.1 3.6s1-1 0 0zm-3.1-3.3c-.8.8-.8 2 0 2.8s2 .8 2.8 0c.8-.8.8-2 0-2.8-.8-.7-2-.7-2.8 0-.8.8.8-.7 0 0z"/><path class="st1" d="M115.2 541.8h12.6c.8 0 1.9.4 2.4 1l2.2 2.1"/><ellipse transform="rotate(-45.952 132.345 544.79)" class="st2" cx="132.4" cy="544.8" rx="2.3" ry="2.3"/><path class="st3" d="M130.6 546.7c-1-1-1-2.6-.1-3.6 1-1 2.6-1 3.6-.1 1 1 1 2.6.1 3.6-1 1-2.6 1-3.6.1-1-1 1 .9 0 0zm3.1-3.3c-.8-.8-2-.7-2.8 0-.7.8-.7 2 0 2.8.8.8 2 .7 2.8 0s.8-2 0-2.8.8.8 0 0z"/><path class="st1" d="M105.9 544.2l6 5.8c.6.5 1.7 1 2.4 1h7.4"/><circle class="st2" cx="121.6" cy="551" r="2.3"/><path class="st3" d="M121.6 553.5c-1.4 0-2.6-1.1-2.6-2.6s1.1-2.6 2.6-2.6 2.6 1.1 2.6 2.6-1.2 2.6-2.6 2.6 1.4 0 0 0zm0-4.5c-1.1 0-2 .9-2 2s.9 2 2 2 2-.9 2-2-.9-2-2-2 1.1 0 0 0z"/><path class="st1" d="M83.5 551.8l13.9 13.5"/><ellipse transform="rotate(-45.952 97.32 565.168)" class="st2" cx="97.3" cy="565.2" rx="2.3" ry="2.3"/><path class="st3" d="M95.6 567c-1-1-1-2.6-.1-3.6 1-1 2.6-1 3.6-.1 1 1 1 2.6.1 3.6-1 1.1-2.6 1.1-3.6.1-1.1-.9 1 1 0 0zm3.1-3.2c-.8-.7-2-.7-2.8 0s-.7 2 0 2.8 2 .7 2.8 0 .8-2 0-2.8c-.8-.7.8.8 0 0z"/><path class="st1" d="M97.8 544.5v6.3c0 .8.5 1.9 1 2.4l5.6 5.4"/><ellipse transform="rotate(-45.952 104.26 558.4)" class="st2" cx="104.3" cy="558.4" rx="2.3" ry="2.3"/><path class="st3" d="M102.5 560.3c-1-1-1-2.6-.1-3.6 1-1 2.6-1 3.6-.1 1 1 1 2.6.1 3.6-1 1-2.6 1.1-3.6.1s1 1 0 0zm3.1-3.3c-.8-.8-2-.7-2.8 0s-.7 2 0 2.8 2 .7 2.8 0c.8-.8.8-2 0-2.8s.8.8 0 0z"/><path class="st1" d="M136 393.1v-9.9c0-.8.5-1.9 1-2.4l3.9-3.8"/><ellipse transform="rotate(-44.053 140.794 377.099)" class="st2" cx="140.8" cy="377.1" rx="2.3" ry="2.3"/><path class="st3" d="M142.6 379c-1 1-2.6 1-3.6-.1s-1-2.6.1-3.6c1-1 2.6-1 3.6.1.9.9.9 2.6-.1 3.6-1 .9 1-1 0 0zm-3.1-3.3c-.8.8-.8 2 0 2.8.7.8 2 .8 2.8 0 .8-.8.8-2 0-2.8s-2.1-.7-2.8 0 .7-.7 0 0z"/><path class="st1" d="M136 397h-32.1"/><circle class="st2" cx="104.1" cy="397" r="2.3"/><path class="st3" d="M104.1 394.4c1.4 0 2.6 1.1 2.6 2.6s-1.1 2.6-2.6 2.6c-1.4 0-2.6-1.1-2.6-2.6s1.1-2.6 2.6-2.6c1.4 0-1.5 0 0 0zm0 4.5c1.1 0 2-.9 2-2s-.9-2-2-2-2 .9-2 2 .9 2 2 2c1 0-1.1 0 0 0z"/><path class="st1" d="M113.3 397l-19.1-18.4c-.6-.5-1.5-.5-2 0l-4.3 4.2"/><ellipse transform="rotate(-44.048 87.99 382.622)" class="st2" cx="88" cy="382.6" rx="2.3" ry="2.3"/><path class="st3" d="M86.2 380.8c1-1 2.6-1 3.6.1s1 2.6-.1 3.6c-1 1-2.6 1-3.6-.1s-.9-2.6.1-3.6-1 1 0 0zm3.2 3.2c.8-.7.8-2 0-2.8s-2-.8-2.8 0c-.8.8-.8 2 0 2.8.7.8 2 .8 2.8 0 .7-.7-.8.8 0 0z"/><path class="st1" d="M97.5 381.7V372c0-.8-.5-1.9-1-2.4l-1.5-1.4"/><ellipse transform="rotate(-45.952 95.1 368.288)" class="st2" cx="95.1" cy="368.3" rx="2.3" ry="2.3"/><path class="st3" d="M96.9 366.5c1 1 1 2.6.1 3.6-1 1-2.6 1-3.6.1-1-1-1-2.6-.1-3.6s2.6-1.1 3.6-.1-1-1 0 0zm-3.2 3.2c.8.7 2 .7 2.8 0 .8-.8.7-2 0-2.8-.8-.8-2-.7-2.8 0-.7.8-.7 2.1 0 2.8.8.8-.7-.7 0 0z"/><path class="st1" d="M101.5 385.7v-27.8"/><circle class="st2" cx="101.5" cy="358" r="2.3"/><path class="st3" d="M104.1 358c0 1.4-1.1 2.6-2.6 2.6-1.4 0-2.6-1.1-2.6-2.6 0-1.4 1.1-2.6 2.6-2.6 1.4.1 2.6 1.2 2.6 2.6 0 1.4 0-1.4 0 0zm-4.6 0c0 1.1.9 2 2 2s2-.9 2-2-.9-2-2-2c-1.1.1-2 .9-2 2s0-1.1 0 0z"/><path class="st1" d="M106.1 340v-8.6c0-.8-.5-1.9-1-2.4l-9.7-9.3c-.6-.5-1.5-.5-2 0l-2.8 2.7"/><ellipse transform="rotate(-44.048 90.644 322.283)" class="st2" cx="90.6" cy="322.3" rx="2.3" ry="2.3"/><path class="st3" d="M88.9 320.5c1-1 2.6-1 3.6.1s1 2.6-.1 3.6c-1 1-2.6 1-3.6-.1s-.9-2.7.1-3.6c1-1-1 .9 0 0zm3.1 3.2c.8-.8.8-2 0-2.8s-2-.8-2.8 0c-.8.8-.8 2 0 2.8s2 .8 2.8 0-.8.8 0 0z"/><path class="st1" d="M97.5 321.7v-7.5c0-.8-.5-1.9-1-2.4L85.3 301c-.6-.5-1-1.6-1-2.4v-12.4c0-.8-.5-1.9-1-2.4l-.8-.8"/><ellipse transform="rotate(-45.952 82.472 282.979)" class="st2" cx="82.5" cy="283" rx="2.3" ry="2.3"/><path class="st3" d="M84.3 281.2c1 1 1 2.6.1 3.6-1 1-2.6 1-3.6.1-1-1-1-2.6-.1-3.6s2.5-1.1 3.6-.1c1 .9-1.1-1 0 0zm-3.2 3.2c.8.7 2 .7 2.8 0s.7-2 0-2.8c-.8-.8-2-.7-2.8 0-.8.8-.8 2.1 0 2.8.8.8-.8-.7 0 0z"/><path class="st1" d="M88.8 304.4v-6.2V266"/><circle class="st2" cx="88.8" cy="266.2" r="2.3"/><path class="st3" d="M91.4 266.2c0 1.4-1.1 2.6-2.6 2.6s-2.6-1.1-2.6-2.6c0-1.4 1.1-2.6 2.6-2.6s2.6 1.1 2.6 2.6c0 1.4 0-1.5 0 0zm-4.5 0c0 1.1.9 2 2 2s2-.9 2-2-.9-2-2-2c-1.2 0-2 .9-2 2 0 1 0-1.1 0 0z"/><path class="st1" d="M88.9 304.4l17.2-16.7"/><ellipse transform="rotate(-44.048 105.988 287.802)" class="st2" cx="106" cy="287.8" rx="2.3" ry="2.3"/><path class="st3" d="M107.8 289.7c-1 1-2.6 1-3.6-.1s-1-2.6.1-3.6c1-1 2.6-1 3.6.1.9 1 .9 2.6-.1 3.6-1 .9 1-1 0 0zm-3.2-3.3c-.8.7-.8 2 0 2.8.7.8 2 .8 2.8 0 .8-.8.8-2 0-2.8s-2-.7-2.8 0c-.7.8.8-.7 0 0z"/><path class="st1" d="M101.5 373.2l15.3-14.8c.6-.5 1-1.6 1-2.4v-10c0-.8.5-1.9 1-2.4l1.5-1.5"/><ellipse transform="rotate(-44.048 120.245 342.244)" class="st2" cx="120.3" cy="342.3" rx="2.3" ry="2.3"/><path class="st3" d="M122 344.1c-1 1-2.6 1-3.6-.1-1-1-1-2.6.1-3.6s2.6-1 3.6.1c1 1 .9 2.6-.1 3.6s1-1 0 0zm-3.1-3.2c-.8.7-.8 2 0 2.8s2 .8 2.8 0c.8-.8.8-2 0-2.8-.8-.8-2-.8-2.8 0-.8.7.8-.8 0 0z"/><path class="st1" d="M101.6 382.7l22.7-22"/><ellipse transform="rotate(-44.048 124.21 360.779)" class="st2" cx="124.2" cy="360.8" rx="2.3" ry="2.3"/><path class="st3" d="M126 362.6c-1 1-2.6 1-3.6-.1-1-1-1-2.6.1-3.6 1-1 2.6-1 3.6.1.9 1 .9 2.7-.1 3.6s1-.9 0 0zm-3.1-3.2c-.8.7-.8 2 0 2.8.8.8 2 .8 2.8 0 .8-.8.8-2 0-2.8-.8-.7-2.1-.8-2.8 0-.8.7.7-.8 0 0z"/><path class="st1" d="M106.1 390l13.6-13.1c.6-.5 1.7-1 2.4-1h6c.7 0 1.5-.3 2.1-.7"/><ellipse transform="rotate(-42.625 130.081 375.205)" class="st2" cx="130.1" cy="375.2" rx="2.3" ry="2.3"/><path class="st3" d="M131.8 377.1c-1 1-2.7.9-3.6-.1s-.9-2.7.1-3.6c1-1 2.7-.9 3.6.1 1 1 .9 2.6-.1 3.6-1 .9 1-1 0 0zm-3.1-3.3c-.8.7-.8 2-.1 2.8.7.8 2 .8 2.8.1.8-.7.8-2 .1-2.8-.7-.8-2-.9-2.8-.1s.8-.8 0 0z"/><path class="st1" d="M121.6 397v-10.6c0-.8.5-1.9 1-2.4l2.6-2.5"/><ellipse transform="rotate(-44.048 125.149 381.497)" class="st2" cx="125.2" cy="381.5" rx="2.3" ry="2.3"/><path class="st3" d="M126.9 383.4c-1 1-2.6 1-3.6-.1-1-1-1-2.6.1-3.6 1-1 2.6-1 3.6.1s.9 2.6-.1 3.6c-1 .9 1-1 0 0zm-3.1-3.3c-.8.7-.8 2 0 2.8.8.8 2 .8 2.8 0 .8-.8.8-2 0-2.8-.8-.7-2-.7-2.8 0-.8.8.8-.7 0 0z"/><path class="st1" d="M101.4 366.5l7.6-7.3c.6-.5 1-1.6 1-2.4v-16.4c0-.8-.6-1.4-1.4-1.4H105"/><circle class="st2" cx="105.1" cy="338.9" r="2.3"/><path class="st3" d="M105.1 336.4c1.4 0 2.6 1.1 2.6 2.6s-1.1 2.6-2.6 2.6c-1.4 0-2.6-1.1-2.6-2.6s1.2-2.6 2.6-2.6c1.4 0-1.4 0 0 0zm0 4.5c1.1 0 2-.9 2-2s-.9-2-2-2-2 .9-2 2 1 2 2 2c1.1 0-1 0 0 0z"/><path class="st1" d="M69.2 341.6l-10.4-10"/><ellipse transform="rotate(-45.949 58.95 331.71)" class="st2" cx="58.9" cy="331.7" rx="2.3" ry="2.3"/><path class="st3" d="M60.7 329.9c1 1 1 2.6.1 3.6s-2.6 1-3.6.1c-1-1-1-2.6-.1-3.6 1-1.1 2.6-1.1 3.6-.1 1 .9-1-1 0 0zm-3.1 3.2c.8.7 2 .7 2.8 0 .8-.8.7-2 0-2.8-.8-.8-2-.7-2.8 0s-.8 2 0 2.8c.8.7-.8-.8 0 0z"/><path class="st1" d="M63.2 348.4H49c-.8 0-1.9-.4-2.4-1l-4-3.9"/><ellipse transform="rotate(-45.952 42.603 343.602)" class="st2" cx="42.6" cy="343.6" rx="2.3" ry="2.3"/><path class="st3" d="M44.4 341.8c1 1 1 2.6.1 3.6s-2.6 1-3.6.1c-1-1-1-2.6-.1-3.6s2.6-1.1 3.6-.1-1-1 0 0zm-3.2 3.2c.8.8 2 .7 2.8 0s.7-2 0-2.8-2-.7-2.8 0-.7 2.1 0 2.8c.8.8-.7-.7 0 0z"/><path class="st1" d="M55.5 348.3l-4 3.9c-.6.5-1.7 1-2.4 1h-7.5c-.8 0-1.4-.6-1.4-1.4v-2.5c0-.8-.5-1.9-1-2.4l-3-2.9"/><ellipse transform="rotate(-45.949 36.187 344.029)" class="st2" cx="36.2" cy="344" rx="2.3" ry="2.3"/><path class="st3" d="M38 342.2c1 1 1 2.6.1 3.6s-2.6 1-3.6.1c-1-1-1-2.6-.1-3.6.9-1.1 2.5-1.1 3.6-.1 1 .9-1.1-1 0 0zm-3.2 3.2c.8.7 2 .7 2.8 0 .7-.8.7-2 0-2.8-.8-.8-2-.7-2.8 0-.8.8-.8 2.1 0 2.8.8.8-.8-.7 0 0z"/><path class="st1" d="M47.1 353.2l-14.4 13.9"/><ellipse transform="rotate(-44.048 32.835 366.975)" class="st2" cx="32.8" cy="367" rx="2.3" ry="2.3"/><path class="st3" d="M31.1 365.2c1-1 2.6-1 3.6.1s1 2.6-.1 3.6c-1 1-2.6 1-3.6-.1s-1-2.7.1-3.6c1-1-1.1.9 0 0zm3.1 3.2c.8-.8.8-2 0-2.8s-2-.8-2.8 0c-.8.8-.8 2 0 2.8s2 .7 2.8 0-.8.7 0 0z"/><path class="st1" d="M38 362v5.4c0 .8-.5 1.9-1 2.4l-8.3 8.1"/><ellipse transform="rotate(-44.048 28.772 377.708)" class="st2" cx="28.8" cy="377.7" rx="2.3" ry="2.3"/><path class="st3" d="M27 375.9c1-1 2.6-1 3.6.1 1 1 1 2.6-.1 3.6-1 1-2.6 1-3.6-.1-.9-1-.9-2.6.1-3.6s-1 1 0 0zm3.1 3.2c.8-.7.8-2 0-2.8-.8-.8-2-.8-2.8 0-.8.8-.8 2 0 2.8s2.1.8 2.8 0c.8-.7-.7.8 0 0z"/><path class="st1" d="M44.5 355.8v13.4c0 .8-.5 1.9-1 2.4l-4.1 3.9"/><ellipse transform="rotate(-44.048 39.464 375.382)" class="st2" cx="39.5" cy="375.4" rx="2.3" ry="2.3"/><path class="st3" d="M37.7 373.6c1-1 2.6-1 3.6.1 1 1 1 2.6-.1 3.6-1 1-2.6 1-3.6-.1-1-1-.9-2.7.1-3.6s-1 .9 0 0zm3.1 3.2c.8-.7.8-2 0-2.8-.8-.8-2-.8-2.8 0s-.8 2 0 2.8 2 .8 2.8 0c.8-.7-.8.8 0 0z"/><path class="st1" d="M52.9 350.6v7c0 .8-.5 1.9-1 2.4l-1.7 1.6c-.6.5-1 1.6-1 2.4v2.3"/><circle class="st2" cx="49.2" cy="366.2" r="2.3"/><path class="st3" d="M46.6 366.2c0-1.4 1.1-2.6 2.6-2.6s2.6 1.1 2.6 2.6c0 1.4-1.1 2.6-2.6 2.6s-2.6-1.2-2.6-2.6c0-1.4 0 1.4 0 0zm4.6 0c0-1.1-.9-2-2-2s-2 .9-2 2 .9 2 2 2 2-.9 2-2 0 1.1 0 0z"/><path class="st1" d="M58 348.7v12.1c0 .8-.5 1.9-1 2.4l-1 .9c-.6.5-1 1.6-1 2.4v1.9"/><circle class="st2" cx="55" cy="368.3" r="2.3"/><path class="st3" d="M52.5 368.3c0-1.4 1.1-2.6 2.6-2.6s2.6 1.1 2.6 2.6c0 1.4-1.1 2.6-2.6 2.6s-2.6-1.2-2.6-2.6c0-1.4 0 1.4 0 0zm4.5 0c0-1.1-.9-2-2-2s-2 .9-2 2 .9 2 2 2 2-.9 2-2 0 1.1 0 0z"/><path class="st1" d="M231.1 395.5l9.1 8.8c.6.5 1.7 1 2.4 1h6.2c.8 0 1.9-.4 2.4-1l11.3-10.9c.6-.5 1.7-1 2.4-1h13.6"/><circle class="st2" cx="278.5" cy="392.4" r="2.3"/><path class="st3" d="M278.5 395c-1.4 0-2.6-1.1-2.6-2.6s1.1-2.6 2.6-2.6 2.6 1.1 2.6 2.6-1.2 2.6-2.6 2.6 1.4 0 0 0zm0-4.6c-1.1 0-2 .9-2 2s.9 2 2 2 2-.9 2-2-1-2-2-2 1 0 0 0z"/><path class="st1" d="M224.3 402.1l14.4 13.9c.6.5 1.7 1 2.4 1h37.5"/><circle class="st2" cx="278.5" cy="417" r="2.3"/><path class="st3" d="M278.5 419.5c-1.4 0-2.6-1.1-2.6-2.6s1.1-2.6 2.6-2.6 2.6 1.1 2.6 2.6-1.2 2.6-2.6 2.6 1.4 0 0 0zm0-4.5c-1.1 0-2 .9-2 2s.9 2 2 2 2-.9 2-2c-.1-1.1-1-2-2-2s1 0 0 0z"/><path class="st1" d="M258.7 416.8l12.7-12.2c.6-.5 1.7-1 2.4-1h4.8"/><circle class="st2" cx="278.5" cy="403.6" r="2.3"/><path class="st3" d="M278.5 406.1c-1.4 0-2.6-1.1-2.6-2.6s1.1-2.6 2.6-2.6 2.6 1.1 2.6 2.6-1.2 2.6-2.6 2.6 1.4 0 0 0zm0-4.5c-1.1 0-2 .9-2 2s.9 2 2 2 2-.9 2-2-1-2-2-2 1 0 0 0z"/><path class="st1" d="M208.5 409.5l17.3 16.8c.6.5 1.7 1 2.4 1h16.9"/><circle class="st2" cx="245" cy="427.3" r="2.3"/><path class="st3" d="M245 429.9c-1.4 0-2.6-1.1-2.6-2.6s1.1-2.6 2.6-2.6 2.6 1.1 2.6 2.6-1.2 2.6-2.6 2.6 1.4 0 0 0zm0-4.6c-1.1 0-2 .9-2 2s.9 2 2 2 2-.9 2-2-.9-2-2-2 1.1 0 0 0z"/><path class="st1" d="M218.4 419.4V434c0 .8.6 1.4 1.4 1.4h19.8c.8 0 1.9.4 2.4 1l16.3 15.8"/><ellipse transform="rotate(-45.952 258.361 452.163)" class="st2" cx="258.4" cy="452.2" rx="2.3" ry="2.3"/><path class="st3" d="M256.6 454c-1-1-1-2.6-.1-3.6s2.6-1 3.6-.1c1 1 1 2.6.1 3.6s-2.6 1.1-3.6.1c-1-.9 1 1 0 0zm3.1-3.2c-.8-.7-2-.7-2.8 0s-.7 2 0 2.8c.8.8 2 .7 2.8 0s.8-2.1 0-2.8c-.7-.8.8.7 0 0z"/><path class="st1" d="M230.5 435.5v12c0 .8.6 1.4 1.4 1.4h5.5c.8 0 1.9.4 2.4 1l11.4 11"/><ellipse transform="rotate(-45.952 251.05 460.816)" class="st2" cx="251.1" cy="460.8" rx="2.3" ry="2.3"/><path class="st3" d="M249.3 462.7c-1-1-1-2.6-.1-3.6 1-1 2.6-1 3.6-.1 1 1 1 2.6.1 3.6-1 1-2.6 1.1-3.6.1s1 1 0 0zm3.1-3.3c-.8-.7-2-.7-2.8 0s-.7 2 0 2.8c.8.8 2 .7 2.8 0 .8-.8.8-2 0-2.8-.7-.7.8.8 0 0z"/><path class="st1" d="M230.5 440.3l-5.7 5.5c-.6.5-1 1.6-1 2.4v7.5c0 .8.5 1.9 1 2.4l6.4 6.2"/><ellipse transform="rotate(-45.952 231.035 464.19)" class="st2" cx="231.1" cy="464.2" rx="2.3" ry="2.3"/><path class="st3" d="M229.3 466.1c-1-1-1-2.6-.1-3.6 1-1 2.6-1 3.6-.1 1 1 1 2.6.1 3.6s-2.6 1-3.6.1c-1-1 1 .9 0 0zm3.1-3.3c-.8-.8-2-.7-2.8 0-.8.8-.7 2 0 2.8.8.8 2 .7 2.8 0 .8-.8.8-2 0-2.8-.8-.7.8.8 0 0z"/><path class="st1" d="M212.8 413.7v6.2c0 .8-.5 1.9-1 2.4l-7.8 7.5"/><ellipse transform="rotate(-44.048 204.067 429.653)" class="st2" cx="204.1" cy="429.7" rx="2.3" ry="2.3"/><path class="st3" d="M202.3 427.8c1-1 2.6-1 3.6.1 1 1 1 2.6-.1 3.6s-2.6 1-3.6-.1c-.9-1-.9-2.6.1-3.6 1-.9-1 1 0 0zm3.1 3.3c.8-.7.8-2 0-2.8s-2-.8-2.8 0c-.8.8-.8 2 0 2.8s2.1.7 2.8 0c.8-.8-.7.7 0 0z"/><path class="st1" d="M182.3 402.1l6.9-6.7c.6-.5 1-1.6 1-2.4v-8.8c0-.8.5-1.9 1-2.4l3.1-3"/><ellipse transform="rotate(-44.048 194.289 378.776)" class="st2" cx="194.3" cy="378.8" rx="2.3" ry="2.3"/><path class="st3" d="M196.1 380.6c-1 1-2.6 1-3.6-.1s-1-2.6.1-3.6c1-1 2.6-1 3.6.1s.9 2.7-.1 3.6c-1 1 1-.9 0 0zm-3.2-3.2c-.8.8-.8 2 0 2.8s2 .8 2.8 0c.8-.8.8-2 0-2.8s-2-.8-2.8 0 .8-.8 0 0z"/><path class="st1" d="M190.9 388.4h-7.7"/><circle class="st2" cx="183.3" cy="388.4" r="2.3"/><path class="st3" d="M183.3 385.8c1.4 0 2.6 1.1 2.6 2.6s-1.1 2.6-2.6 2.6-2.6-1.1-2.6-2.6 1.2-2.6 2.6-2.6-1.4 0 0 0zm0 4.5c1.1 0 2-.9 2-2s-.9-2-2-2-2 .9-2 2 1 2 2 2-1 0 0 0z"/><path class="st1" d="M198.8 393.1h12.6c.8 0 1.9-.4 2.4-1l26.1-25.3"/><ellipse transform="rotate(-44.048 239.821 366.904)" class="st2" cx="239.8" cy="366.9" rx="2.3" ry="2.3"/><path class="st3" d="M241.6 368.8c-1 1-2.6 1-3.6-.1s-1-2.6.1-3.6c1-1 2.6-1 3.6.1.9 1 .9 2.6-.1 3.6s1-1 0 0zm-3.1-3.3c-.8.7-.8 2 0 2.8.7.8 2 .8 2.8 0 .8-.8.8-2 0-2.8s-2.1-.7-2.8 0c-.8.8.7-.7 0 0z"/><path class="st1" d="M222.6 383.6v-8.7c0-.8.5-1.9 1-2.4l11.8-11.5"/><ellipse transform="rotate(-44.048 235.363 361.108)" class="st2" cx="235.4" cy="361.1" rx="2.3" ry="2.3"/><path class="st3" d="M237.1 363c-1 1-2.6 1-3.6-.1s-1-2.6.1-3.6c1-1 2.6-1 3.6.1s1 2.6-.1 3.6c-1 .9 1.1-1 0 0zm-3.1-3.3c-.8.8-.8 2 0 2.8s2 .8 2.8 0c.8-.8.8-2 0-2.8s-2-.7-2.8 0c-.8.8.8-.7 0 0z"/><path class="st1" d="M245.7 300.6l-13.1 12.7c-.6.5-1 1.6-1 2.4v8.6"/><circle class="st2" cx="231.6" cy="324.1" r="2.3"/><path class="st3" d="M229 324.1c0-1.4 1.1-2.6 2.6-2.6s2.6 1.1 2.6 2.6c0 1.4-1.1 2.6-2.6 2.6s-2.6-1.2-2.6-2.6c0-1.4 0 1.4 0 0zm4.6 0c0-1.1-.9-2-2-2s-2 .9-2 2 .9 2 2 2 2-.9 2-2c0-1 0 1.1 0 0z"/><path class="st1" d="M290.3 400.9l10.9-10.5c.6-.5 1-1.6 1-2.4v-13.1c0-.8.5-1.9 1-2.4l12-11.6c.6-.5 1.7-1 2.4-1h7.3"/><circle class="st2" cx="324.9" cy="359.9" r="2.3"/><path class="st3" d="M324.9 362.5c-1.4 0-2.6-1.1-2.6-2.6s1.1-2.6 2.6-2.6 2.6 1.1 2.6 2.6-1.2 2.6-2.6 2.6 1.4 0 0 0zm0-4.6c-1.1 0-2 .9-2 2s.9 2 2 2 2-.9 2-2c-.1-1.1-1-2-2-2s1 0 0 0z"/><path class="st1" d="M290.3 409.1l18.5-17.9c.6-.5 1-1.6 1-2.4v-12c0-.8.5-1.9 1-2.4l6-5.8c.6-.5 1.7-1 2.4-1h14.9"/><circle class="st2" cx="334.2" cy="367.6" r="2.3"/><path class="st3" d="M334.2 370.1c-1.4 0-2.6-1.1-2.6-2.6s1.1-2.6 2.6-2.6c1.4 0 2.6 1.1 2.6 2.6s-1.2 2.6-2.6 2.6c-1.4 0 1.4 0 0 0zm0-4.5c-1.1 0-2 .9-2 2s.9 2 2 2 2-.9 2-2-1-2-2-2c-1.1 0 1 0 0 0z"/><path class="st1" d="M292.1 416.8l26.7-25.8c.6-.5 1-1.6 1-2.4v-10.2c0-.8.6-1.4 1.4-1.4h50.2"/><circle class="st2" cx="371.2" cy="377" r="2.3"/><path class="st3" d="M371.2 379.6c-1.4 0-2.6-1.1-2.6-2.6s1.1-2.6 2.6-2.6c1.4 0 2.6 1.1 2.6 2.6s-1.2 2.6-2.6 2.6c-1.4 0 1.4 0 0 0zm0-4.5c-1.1 0-2 .9-2 2s.9 2 2 2 2-.9 2-2-.9-2-2-2c-1 0 1.1 0 0 0z"/><path class="st1" d="M308.5 400.9h20.1c.8 0 1.9-.4 2.4-1l10.4-10c.6-.5 1.7-1 2.4-1h27.5"/><circle class="st2" cx="371.2" cy="388.9" r="2.3"/><path class="st3" d="M371.2 391.4c-1.4 0-2.6-1.1-2.6-2.6s1.1-2.6 2.6-2.6c1.4 0 2.6 1.1 2.6 2.6s-1.2 2.6-2.6 2.6c-1.4 0 1.4 0 0 0zm0-4.5c-1.1 0-2 .9-2 2s.9 2 2 2 2-.9 2-2-.9-2-2-2c-1 0 1.1 0 0 0z"/><path class="st1" d="M334.7 396.9l11.7 11.3c.6.5 1.7 1 2.4 1H373"/><circle class="st2" cx="372.9" cy="409.2" r="2.3"/><path class="st3" d="M372.9 411.8c-1.4 0-2.6-1.1-2.6-2.6 0-1.4 1.1-2.6 2.6-2.6s2.6 1.1 2.6 2.6c0 1.4-1.2 2.6-2.6 2.6s1.4 0 0 0zm0-4.5c-1.1 0-2 .9-2 2s.9 2 2 2 2-.9 2-2c0-1.2-.9-2-2-2s1.1 0 0 0z"/><path class="st1" d="M305.1 404.3l7.2 7c.6.5 1.7 1 2.4 1h20.5c.8 0 1.9.4 2.4 1l6.5 6.3c.6.5 1.7 1 2.4 1h23.1"/><circle class="st2" cx="369.6" cy="420.5" r="2.3"/><path class="st3" d="M369.6 423.1c-1.4 0-2.6-1.1-2.6-2.6 0-1.4 1.1-2.6 2.6-2.6s2.6 1.1 2.6 2.6c0 1.4-1.2 2.6-2.6 2.6s1.4 0 0 0zm0-4.5c-1.1 0-2 .9-2 2s.9 2 2 2 2-.9 2-2c0-1.2-.9-2-2-2s1.1 0 0 0z"/><path class="st1" d="M324.6 412.4v11.1c0 .8.6 1.4 1.4 1.4h5.5c.8 0 1.9.4 2.4 1l2.9 2.8c.6.5 1.7 1 2.4 1h27.1"/><circle class="st2" cx="366.2" cy="429.7" r="2.3"/><path class="st3" d="M366.2 432.3c-1.4 0-2.6-1.1-2.6-2.6s1.1-2.6 2.6-2.6 2.6 1.1 2.6 2.6-1.1 2.6-2.6 2.6 1.5 0 0 0zm0-4.6c-1.1 0-2 .9-2 2s.9 2 2 2 2-.9 2-2-.9-2-2-2 1.1 0 0 0z"/><path class="st1" d="M352.8 429.7v13.4"/><circle class="st2" cx="352.8" cy="443" r="2.3"/><path class="st3" d="M350.3 443c0-1.4 1.1-2.6 2.6-2.6s2.6 1.1 2.6 2.6c0 1.4-1.1 2.6-2.6 2.6s-2.6-1.2-2.6-2.6c0-1.4 0 1.4 0 0zm4.5 0c0-1.1-.9-2-2-2s-2 .9-2 2 .9 2 2 2 2-1 2-2c0-1.1 0 1 0 0z"/><path class="st1" d="M330.1 424.9v6.2c0 .8.5 1.9 1 2.4l5.4 5.2"/><ellipse transform="rotate(-45.952 336.37 438.657)" class="st2" cx="336.4" cy="438.7" rx="2.3" ry="2.3"/><path class="st3" d="M334.6 440.5c-1-1-1-2.6-.1-3.6s2.6-1 3.6-.1c1 1 1 2.6.1 3.6-.9 1.1-2.6 1.1-3.6.1s1 1 0 0zm3.2-3.2c-.8-.8-2-.7-2.8 0-.7.8-.7 2 0 2.8.8.8 2 .7 2.8 0s.7-2.1 0-2.8c-.8-.8.7.7 0 0z"/><path class="st1" d="M300.1 409.5l13 12.5"/><ellipse transform="rotate(-45.952 312.956 421.919)" class="st2" cx="313" cy="421.9" rx="2.3" ry="2.3"/><path class="st3" d="M311.2 423.8c-1-1-1-2.6-.1-3.6s2.6-1 3.6-.1c1 1 1 2.6.1 3.6s-2.6 1.1-3.6.1 1 1 0 0zm3.1-3.3c-.8-.8-2-.7-2.8 0-.8.8-.7 2 0 2.8.8.8 2 .7 2.8 0s.8-2 0-2.8c-.7-.7.8.8 0 0z"/><path class="st1" d="M287.5 420.1l7.7 7.4"/><ellipse transform="rotate(-45.952 295.061 427.427)" class="st2" cx="295.1" cy="427.5" rx="2.3" ry="2.3"/><path class="st3" d="M293.3 429.3c-1-1-1-2.6-.1-3.6s2.6-1 3.6-.1c1 1 1 2.6.1 3.6s-2.6 1.1-3.6.1 1 1 0 0zm3.1-3.3c-.8-.7-2-.7-2.8 0s-.7 2 0 2.8c.8.8 2 .7 2.8 0s.8-2 0-2.8c-.7-.7.8.8 0 0z"/><path class="st1" d="M290.1 422.4v9.4c0 .8.5 1.8 1 2.4l13.3 12.1"/><ellipse transform="rotate(-47.699 304.283 446.11)" class="st2" cx="304.3" cy="446.1" rx="2.3" ry="2.3"/><path class="st3" d="M302.5 448c-1-.9-1.1-2.6-.2-3.6s2.6-1.1 3.6-.2c1 .9 1.1 2.6.2 3.6s-2.5 1.1-3.6.2c-1-1 1.1.9 0 0zm3.1-3.4c-.8-.7-2-.7-2.8.1-.7.8-.7 2 .1 2.8.8.7 2 .7 2.8-.1.7-.8.7-2-.1-2.8-.8-.7.8.8 0 0z"/><path class="st1" d="M277.8 425.6v2.2c0 .8.5 1.9 1 2.4l4.3 4.1"/><ellipse transform="rotate(-45.952 282.928 434.231)" class="st2" cx="282.9" cy="434.3" rx="2.3" ry="2.3"/><path class="st3" d="M281.2 436.1c-1-1-1-2.6-.1-3.6s2.6-1 3.6-.1c1 1 1 2.6.1 3.6s-2.6 1.1-3.6.1 1 1 0 0zm3.1-3.2c-.8-.8-2-.7-2.8 0-.8.8-.7 2 0 2.8.8.8 2 .7 2.8 0s.8-2.1 0-2.8c-.8-.8.8.7 0 0z"/><path class="st1" d="M269.8 424.9v6.4c0 .8.5 1.9 1 2.4l4.4 4.3"/><ellipse transform="rotate(-45.952 275.195 437.846)" class="st2" cx="275.2" cy="437.9" rx="2.3" ry="2.3"/><path class="st3" d="M273.4 439.7c-1-1-1-2.6-.1-3.6s2.6-1 3.6-.1c1 1 1 2.6.1 3.6-.9 1.1-2.5 1.1-3.6.1-1-1 1.1 1 0 0zm3.2-3.2c-.8-.8-2-.7-2.8 0s-.7 2 0 2.8c.8.8 2 .7 2.8 0s.8-2.1 0-2.8c-.8-.8.8.7 0 0z"/><path class="st1" d="M263.5 424.9v9.2c0 .8.5 1.9 1 2.4l4.6 4.5"/><ellipse transform="rotate(-45.952 269.03 440.83)" class="st2" cx="269" cy="440.9" rx="2.3" ry="2.3"/><path class="st3" d="M267.3 442.7c-1-1-1-2.6-.1-3.6 1-1 2.6-1 3.6-.1 1 1 1 2.6.1 3.6s-2.6 1.1-3.6.1 1 1 0 0zm3.1-3.2c-.8-.7-2-.7-2.8 0s-.7 2 0 2.8c.8.8 2 .7 2.8 0 .8-.9.8-2.1 0-2.8-.8-.8.8.7 0 0z"/><path class="st1" d="M200.5 470.7l6 5.8c.6.5 1 1.6 1 2.4v1.5"/><circle class="st2" cx="207.5" cy="480.2" r="2.3"/><path class="st3" d="M204.9 480.2c0-1.4 1.1-2.6 2.6-2.6s2.6 1.1 2.6 2.6c0 1.4-1.1 2.6-2.6 2.6s-2.6-1.1-2.6-2.6c0-1.4 0 1.5 0 0zm4.6 0c0-1.1-.9-2-2-2s-2 .9-2 2 .9 2 2 2 2-.9 2-2c0-1 0 1.1 0 0z"/><g><path class="st1" d="M203.2 473.3h10.1c.8 0 1.9.4 2.4 1l2.9 2.8c.6.5 1.7 1 2.4 1h41.1c.8 0 1.9.4 2.4 1l5 4.8"/><ellipse transform="rotate(-45.952 269.363 483.721)" class="st2" cx="269.4" cy="483.8" rx="2.3" ry="2.3"/><path class="st3" d="M267.6 485.6c-1-1-1-2.6-.1-3.6s2.6-1 3.6-.1c1 1 1 2.6.1 3.6s-2.6 1.1-3.6.1 1 1 0 0zm3.1-3.3c-.8-.8-2-.7-2.8 0-.8.8-.7 2 0 2.8.8.8 2 .7 2.8 0s.8-2 0-2.8c-.7-.7.8.8 0 0z"/></g><g><path class="st1" d="M256.2 478.2l21.2-20.5c.6-.5 1.7-1 2.4-1h9.9"/><circle class="st2" cx="289.7" cy="456.7" r="2.3"/><path class="st3" d="M289.7 459.3c-1.4 0-2.6-1.1-2.6-2.6s1.1-2.6 2.6-2.6 2.6 1.1 2.6 2.6-1.2 2.6-2.6 2.6 1.4 0 0 0zm0-4.5c-1.1 0-2 .9-2 2s.9 2 2 2 2-.9 2-2c-.1-1.1-1-2-2-2s1 0 0 0z"/></g><g><path class="st1" d="M275 460.1l4.4 4.3c.6.5 1.7 1 2.4 1h20.9"/><circle class="st2" cx="302.6" cy="465.4" r="2.3"/><path class="st3" d="M302.6 468c-1.4 0-2.6-1.1-2.6-2.6s1.1-2.6 2.6-2.6 2.6 1.1 2.6 2.6-1.2 2.6-2.6 2.6 1.4 0 0 0zm0-4.6c-1.1 0-2 .9-2 2s.9 2 2 2 2-.9 2-2-.9-2-2-2 1.1 0 0 0z"/></g><g><path class="st1" d="M287.6 465.4l5.8 5.6c.6.5 1.7 1 2.4 1h5.7"/><circle class="st2" cx="301.5" cy="472" r="2.3"/><path class="st3" d="M301.5 474.6c-1.4 0-2.6-1.1-2.6-2.6s1.1-2.6 2.6-2.6 2.6 1.1 2.6 2.6-1.2 2.6-2.6 2.6 1.4 0 0 0zm0-4.6c-1.1 0-2 .9-2 2s.9 2 2 2 2-.9 2-2-1-2-2-2 1 0 0 0z"/></g><g><path class="st1" d="M268.2 466.7l12.9 12.4c.6.5 1.7 1 2.4 1h6.3"/><circle class="st2" cx="289.7" cy="480.1" r="2.3"/><path class="st3" d="M289.7 482.7c-1.4 0-2.6-1.1-2.6-2.6s1.1-2.6 2.6-2.6 2.6 1.1 2.6 2.6-1.2 2.6-2.6 2.6 1.4 0 0 0zm0-4.5c-1.1 0-2 .9-2 2s.9 2 2 2 2-.9 2-2-1-2-2-2 1 0 0 0z"/></g><g><path class="st1" d="M222.6 436v1.9c0 .8-.5 1.9-1 2.4l-3.3 3.2"/><ellipse transform="rotate(-44.048 218.395 443.435)" class="st2" cx="218.4" cy="443.5" rx="2.3" ry="2.3"/><path class="st3" d="M216.6 441.6c1-1 2.6-1 3.6.1s1 2.6-.1 3.6c-1 1-2.6 1-3.6-.1-.9-1-.9-2.6.1-3.6s-1 1 0 0zm3.2 3.3c.8-.7.8-2 0-2.8-.8-.8-2-.8-2.8 0-.8.8-.8 2 0 2.8s2 .7 2.8 0c.7-.8-.8.7 0 0z"/></g><g><path class="st1" d="M265.6 307l11.2-10.8c.6-.5 1.5-1.4 2-2l6.5-6.3c.6-.5 1-1.6 1-2.4v-29"/><circle class="st2" cx="286.3" cy="256.6" r="2.3"/><path class="st3" d="M288.9 256.6c0 1.4-1.1 2.6-2.6 2.6s-2.6-1.1-2.6-2.6c0-1.4 1.1-2.6 2.6-2.6s2.6 1.2 2.6 2.6c0 1.4 0-1.4 0 0zm-4.5 0c0 1.1.9 2 2 2s2-.9 2-2-.9-2-2-2-2 .9-2 2 0-1.1 0 0z"/></g><g><path class="st1" d="M276.3 295.8l-8.8-8.5c-.6-.5-1-1.6-1-2.4v-6.6"/><circle class="st2" cx="266.5" cy="278.4" r="2.3"/><path class="st3" d="M269 278.4c0 1.4-1.1 2.6-2.6 2.6s-2.6-1.1-2.6-2.6c0-1.4 1.1-2.6 2.6-2.6s2.6 1.2 2.6 2.6c0 1.4 0-1.4 0 0zm-4.5 0c0 1.1.9 2 2 2s2-.9 2-2-.9-2-2-2-2 .9-2 2 0-1.1 0 0z"/></g><g><path class="st1" d="M274.1 320.5l22.9-22.1c.6-.5 1-1.6 1-2.4v-20.5c0-.8.5-1.9 1-2.4l22.9-22.1"/><ellipse transform="rotate(-44.048 321.83 250.917)" class="st2" cx="321.8" cy="250.9" rx="2.3" ry="2.3"/><path class="st3" d="M323.6 252.8c-1 1-2.6 1-3.6-.1-1-1-1-2.6.1-3.6 1-1 2.6-1 3.6.1s.9 2.6-.1 3.6c-1 .9 1-1 0 0zm-3.1-3.3c-.8.7-.8 2 0 2.8.8.8 2 .8 2.8 0 .8-.8.8-2 0-2.8s-2-.7-2.8 0c-.8.8.8-.7 0 0z"/></g><g><path class="st1" d="M298 281.2h10.8c.8 0 1.9-.4 2.4-1l19.3-18.7"/><ellipse transform="rotate(-44.048 330.481 261.605)" class="st2" cx="330.5" cy="261.6" rx="2.3" ry="2.3"/><path class="st3" d="M332.3 263.5c-1 1-2.6 1-3.6-.1s-1-2.6.1-3.6c1-1 2.6-1 3.6.1.9 1 .9 2.6-.1 3.6s1-1 0 0zm-3.2-3.3c-.8.7-.8 2 0 2.8.7.8 2 .8 2.8 0 .8-.8.8-2 0-2.8s-2-.7-2.8 0c-.7.8.8-.7 0 0z"/></g><g><path class="st1" d="M282.8 311.9h16c.8 0 1.9-.4 2.4-1l7-6.8"/><ellipse transform="rotate(-44.048 308.069 304.236)" class="st2" cx="308.1" cy="304.3" rx="2.3" ry="2.3"/><path class="st3" d="M309.9 306.1c-1 1-2.6 1-3.6-.1-1-1-1-2.6.1-3.6 1-1 2.6-1 3.6.1.9 1 .9 2.6-.1 3.6-1.1 1 1-1 0 0zm-3.2-3.3c-.8.8-.8 2 0 2.8s2 .8 2.8 0c.8-.8.8-2 0-2.8s-2-.7-2.8 0c-.8.8.8-.7 0 0z"/></g><g><path class="st1" d="M274.1 323.6h29.6"/><circle class="st2" cx="303.6" cy="323.6" r="2.3"/><path class="st3" d="M303.6 326.1c-1.4 0-2.6-1.1-2.6-2.6s1.1-2.6 2.6-2.6 2.6 1.1 2.6 2.6-1.2 2.6-2.6 2.6 1.4 0 0 0zm0-4.5c-1.1 0-2 .9-2 2s.9 2 2 2 2-.9 2-2-.9-2-2-2 1.1 0 0 0z"/></g><g><path class="st1" d="M311.2 261.2v-56.1c0-.8.5-1.9 1-2.4l24.1-23.4c.6-.5 1-1.6 1-2.4v-22.7"/><circle class="st2" cx="337.4" cy="154.4" r="2.3"/><path class="st3" d="M339.9 154.4c0 1.4-1.1 2.6-2.6 2.6-1.4 0-2.6-1.1-2.6-2.6 0-1.4 1.1-2.6 2.6-2.6 1.5.1 2.6 1.2 2.6 2.6 0 1.4 0-1.4 0 0zm-4.5 0c0 1.1.9 2 2 2s2-.9 2-2-.9-2-2-2c-1.1.1-2 .9-2 2s0-1.1 0 0z"/></g><g><path class="st1" d="M306.4 265.9l-8.5-8.2c-.6-.5-1-1.6-1-2.4V228"/><circle class="st2" cx="296.9" cy="228.1" r="2.3"/><path class="st3" d="M299.4 228.1c0 1.4-1.1 2.6-2.6 2.6s-2.6-1.1-2.6-2.6c0-1.4 1.1-2.6 2.6-2.6s2.6 1.2 2.6 2.6c0 1.4 0-1.4 0 0zm-4.5 0c0 1.1.9 2 2 2s2-.9 2-2-.9-2-2-2-2 .9-2 2c0 1 0-1.1 0 0z"/></g><g><path class="st1" d="M317.7 197.4l-19.5-18.8c-.6-.5-1-1.6-1-2.4v-6.7"/><circle class="st2" cx="297.2" cy="169.6" r="2.3"/><path class="st3" d="M299.8 169.6c0 1.4-1.1 2.6-2.6 2.6s-2.6-1.1-2.6-2.6c0-1.4 1.1-2.6 2.6-2.6s2.6 1.2 2.6 2.6c0 1.4 0-1.4 0 0zm-4.5 0c0 1.1.9 2 2 2s2-.9 2-2-.9-2-2-2-2 .9-2 2 0-1.1 0 0z"/></g><g><path class="st1" d="M337.4 168.4l-19.8-19.1c-.6-.5-1-1.6-1-2.4v-13.4"/><circle class="st2" cx="316.6" cy="133.7" r="2.3"/><path class="st3" d="M319.1 133.7c0 1.4-1.1 2.6-2.6 2.6s-2.6-1.1-2.6-2.6c0-1.4 1.1-2.6 2.6-2.6s2.6 1.1 2.6 2.6c0 1.4 0-1.5 0 0zm-4.5 0c0 1.1.9 2 2 2s2-.9 2-2-.9-2-2-2-2 .9-2 2c0 1 0-1.1 0 0z"/></g><g><path class="st1" d="M316.7 143.7l11.3-10.9c.6-.5 1-1.6 1-2.4v-21.3c0-.8.5-1.9 1-2.4l14.7-14.2c.6-.5 1-1.6 1-2.4V71.7"/><circle class="st2" cx="345.7" cy="71.8" r="2.3"/><path class="st3" d="M348.3 71.8c0 1.4-1.1 2.6-2.6 2.6s-2.6-1.1-2.6-2.6c0-1.4 1.1-2.6 2.6-2.6s2.6 1.2 2.6 2.6c0 1.4 0-1.4 0 0zm-4.5 0c0 1.1.9 2 2 2s2-.9 2-2-.9-2-2-2-2 .9-2 2 0-1.1 0 0z"/></g><g><path class="st1" d="M329 120.6l24-23.1c.6-.5 1-1.6 1-2.4V77.7c0-.8.5-1.9 1-2.4l7.9-7.6c.6-.5 1-1.6 1-2.4V55"/><circle class="st2" cx="363.9" cy="55.1" r="2.3"/><path class="st3" d="M366.4 55.1c0 1.4-1.1 2.6-2.6 2.6s-2.6-1.1-2.6-2.6c0-1.4 1.1-2.6 2.6-2.6s2.6 1.2 2.6 2.6c0 1.4 0-1.4 0 0zm-4.5 0c0 1.1.9 2 2 2s2-.9 2-2-.9-2-2-2-2 .9-2 2 0-1.1 0 0z"/></g><g><path class="st1" d="M340.5 109.5H361c.8 0 1.9-.4 2.4-1l25.9-25.1c.6-.5 1-1.6 1-2.4V52.9"/><circle class="st2" cx="390.4" cy="53" r="2.3"/><path class="st3" d="M393 53c0 1.4-1.1 2.6-2.6 2.6s-2.6-1.1-2.6-2.6c0-1.4 1.1-2.6 2.6-2.6s2.6 1.2 2.6 2.6c0 1.4 0-1.4 0 0zm-4.5 0c0 1.1.9 2 2 2s2-.9 2-2-.9-2-2-2c-1.1.1-2 .9-2 2s0-1.1 0 0z"/></g><g><path class="st1" d="M383.7 89l-13.1-12.7c-.6-.5-1-1.6-1-2.4V61.8"/><circle class="st2" cx="369.5" cy="61.9" r="2.3"/><path class="st3" d="M372.1 61.9c0 1.4-1.1 2.6-2.6 2.6s-2.6-1.1-2.6-2.6c0-1.4 1.1-2.6 2.6-2.6s2.6 1.2 2.6 2.6c0 1.4 0-1.4 0 0zm-4.5 0c0 1.1.9 2 2 2s2-.9 2-2-.9-2-2-2-2 .9-2 2 0-1.1 0 0z"/></g><g><path class="st1" d="M390.2 75l9.2-8.9c.6-.5 1-1.6 1-2.4v-5.3"/><circle class="st2" cx="400.4" cy="58.5" r="2.3"/><path class="st3" d="M403 58.5c0 1.4-1.1 2.6-2.6 2.6s-2.6-1.1-2.6-2.6c0-1.4 1.1-2.6 2.6-2.6s2.6 1.2 2.6 2.6c0 1.4 0-1.4 0 0zm-4.5 0c0 1.1.9 2 2 2s2-.9 2-2-.9-2-2-2c-1.2 0-2 .9-2 2s0-1.1 0 0z"/></g><g><path class="st1" d="M322 153.5l18.7-18c.6-.5 1-1.6 1-2.4V124c0-.8.5-1.9 1-2.4l2.3-2.2"/><ellipse transform="rotate(-44.048 344.839 119.481)" class="st2" cx="344.9" cy="119.5" rx="2.3" ry="2.3"/><path class="st3" d="M346.6 121.3c-1 1-2.6 1-3.6-.1-1-1-1-2.6.1-3.6 1-1 2.6-1 3.6.1s.9 2.6-.1 3.6 1-1 0 0zm-3.1-3.2c-.8.7-.8 2 0 2.8.8.8 2 .8 2.8 0 .8-.8.8-2 0-2.8-.8-.7-2-.8-2.8 0-.8.7.8-.8 0 0z"/></g><g><path class="st1" d="M341.6 127.6h24.1c.8 0 1.9-.4 2.4-1l15.8-15.3c.6-.5 1-1.6 1-2.4v-8.3"/><circle class="st2" cx="385" cy="100.7" r="2.3"/><path class="st3" d="M387.6 100.7c0 1.4-1.1 2.6-2.6 2.6s-2.6-1.1-2.6-2.6c0-1.4 1.1-2.6 2.6-2.6s2.6 1.2 2.6 2.6c0 1.4 0-1.4 0 0zm-4.5 0c0 1.1.9 2 2 2s2-.9 2-2-.9-2-2-2c-1.2.1-2 .9-2 2s0-1.1 0 0z"/></g><g><path class="st1" d="M385 106.9l17.9-17.3c.6-.5 1-1.6 1-2.4V74.3"/><circle class="st2" cx="403.9" cy="74.4" r="2.3"/><path class="st3" d="M406.5 74.4c0 1.4-1.1 2.6-2.6 2.6s-2.6-1.1-2.6-2.6c0-1.4 1.1-2.6 2.6-2.6s2.6 1.2 2.6 2.6c0 1.4 0-1.4 0 0zm-4.5 0c0 1.1.9 2 2 2s2-.9 2-2-.9-2-2-2c-1.2.1-2 .9-2 2s0-1.1 0 0z"/></g><g><path class="st1" d="M337.4 170.3l18.6-17.9c.6-.5 1-1.6 1-2.4v-13.1"/><circle class="st2" cx="356.9" cy="137" r="2.3"/><path class="st3" d="M359.5 137c0 1.4-1.1 2.6-2.6 2.6s-2.6-1.1-2.6-2.6c0-1.4 1.1-2.6 2.6-2.6s2.6 1.2 2.6 2.6c0 1.4 0-1.4 0 0zm-4.5 0c0 1.1.9 2 2 2s2-.9 2-2-.9-2-2-2-2 .9-2 2 0-1.1 0 0z"/></g><g><path class="st1" d="M356.9 147.4l17-16.4"/><ellipse transform="rotate(-44.048 373.828 131.062)" class="st2" cx="373.8" cy="131.1" rx="2.3" ry="2.3"/><path class="st3" d="M375.6 132.9c-1 1-2.6 1-3.6-.1s-1-2.6.1-3.6c1-1 2.6-1 3.6.1s.9 2.6-.1 3.6 1-1 0 0zm-3.1-3.2c-.8.7-.8 2 0 2.8.8.8 2 .8 2.8 0 .8-.8.8-2 0-2.8s-2-.8-2.8 0c-.8.7.8-.8 0 0z"/></g><g><path class="st1" d="M325.5 189.5h10.4c.8 0 1.9-.4 2.4-1l38.1-36.8"/><ellipse transform="rotate(-44.048 376.335 151.761)" class="st2" cx="376.4" cy="151.8" rx="2.3" ry="2.3"/><path class="st3" d="M378.1 153.6c-1 1-2.6 1-3.6-.1s-1-2.6.1-3.6c1-1 2.6-1 3.6.1 1 1 .9 2.6-.1 3.6s1-1 0 0zm-3.1-3.2c-.8.7-.8 2 0 2.8s2 .8 2.8 0c.8-.8.8-2 0-2.8-.8-.8-2-.8-2.8 0-.8.7.8-.8 0 0z"/></g><g><path class="st1" d="M311.2 219l-9.2-8.9c-.6-.5-1-1.6-1-2.4v-7.4c0-.8-.5-1.9-1-2.4l-6.5-6.3"/><ellipse transform="rotate(-45.952 293.435 191.606)" class="st2" cx="293.5" cy="191.6" rx="2.3" ry="2.3"/><path class="st3" d="M295.2 189.8c1 1 1 2.6.1 3.6-1 1-2.6 1-3.6.1-1-1-1-2.6-.1-3.6s2.6-1.1 3.6-.1-1-1 0 0zm-3.1 3.2c.8.7 2 .7 2.8 0 .8-.8.7-2 0-2.8-.8-.8-2-.7-2.8 0-.8.8-.8 2.1 0 2.8.8.8-.8-.7 0 0z"/></g><g><path class="st1" d="M199.2 494.2h16c.8 0 1.9.4 2.4 1l17.6 17c.6.5 1 1.6 1 2.4v5.1c0 .8.5 1.9 1 2.4l16 15.5"/><ellipse transform="rotate(-45.952 253.107 537.422)" class="st2" cx="253.1" cy="537.5" rx="2.3" ry="2.3"/><path class="st3" d="M251.4 539.3c-1-1-1-2.6-.1-3.6 1-1 2.6-1 3.6-.1 1 1 1 2.6.1 3.6-1 1-2.6 1.1-3.6.1-1.1-1 1 1 0 0zm3.1-3.2c-.8-.8-2-.7-2.8 0-.8.8-.7 2 0 2.8.8.8 2 .7 2.8 0s.8-2.1 0-2.8c-.8-.8.8.7 0 0z"/></g><g><path class="st1" d="M232.9 489v8.2c0 .8.5 1.9 1 2.4l3.7 3.6"/><ellipse transform="rotate(-45.952 237.501 503.052)" class="st2" cx="237.5" cy="503.1" rx="2.3" ry="2.3"/><path class="st3" d="M235.7 504.9c-1-1-1-2.6-.1-3.6s2.6-1 3.6-.1c1 1 1 2.6.1 3.6s-2.5 1.1-3.6.1c-1-1 1.1 1 0 0zm3.2-3.2c-.8-.7-2-.7-2.8 0s-.7 2 0 2.8c.8.8 2 .7 2.8 0s.8-2.1 0-2.8c-.8-.8.8.7 0 0z"/></g><g><path class="st1" d="M237.2 541.3h7.1c.8 0 1.9.4 2.4 1l27.6 26.7c.6.5 1.7 1 2.4 1h7.6"/><circle class="st2" cx="284.2" cy="570" r="2.3"/><path class="st3" d="M284.2 572.5c-1.4 0-2.6-1.1-2.6-2.6s1.1-2.6 2.6-2.6 2.6 1.1 2.6 2.6-1.2 2.6-2.6 2.6 1.4 0 0 0zm0-4.5c-1.1 0-2 .9-2 2s.9 2 2 2 2-.9 2-2c-.1-1.1-.9-2-2-2s1.1 0 0 0z"/></g><g><path class="st1" d="M263.2 558.3v5.7c0 .8.5 1.9 1 2.4l20.1 19.4c.6.5 1 1.6 1 2.4v7.5"/><circle class="st2" cx="285.4" cy="595.6" r="2.3"/><path class="st3" d="M282.8 595.6c0-1.4 1.1-2.6 2.6-2.6s2.6 1.1 2.6 2.6c0 1.4-1.1 2.6-2.6 2.6s-2.6-1.2-2.6-2.6c0-1.4 0 1.4 0 0zm4.5 0c0-1.1-.9-2-2-2s-2 .9-2 2 .9 2 2 2 2-.9 2-2 0 1.1 0 0z"/></g><g><path class="st1" d="M221.8 500l-4.8 4.6"/><ellipse transform="rotate(-44.048 217.121 504.447)" class="st2" cx="217.1" cy="504.5" rx="2.3" ry="2.3"/><path class="st3" d="M215.4 502.6c1-1 2.6-1 3.6.1s1 2.6-.1 3.6c-1 1-2.6 1-3.6-.1s-1-2.6.1-3.6c1-.9-1.1 1 0 0zm3.1 3.3c.8-.7.8-2 0-2.8-.8-.8-2-.8-2.8 0-.8.8-.8 2 0 2.8s2 .7 2.8 0c.8-.8-.8.7 0 0z"/></g><g><path class="st1" d="M232.9 492.3h9.2c.8 0 1.9.4 2.4 1l2.5 2.5"/><ellipse transform="rotate(-45.952 246.956 495.595)" class="st2" cx="247" cy="495.6" rx="2.3" ry="2.3"/><path class="st3" d="M245.2 497.5c-1-1-1-2.6-.1-3.6s2.6-1 3.6-.1c1 1 1 2.6.1 3.6s-2.6 1-3.6.1c-1-1 1 .9 0 0zm3.1-3.3c-.8-.7-2-.7-2.8 0s-.7 2 0 2.8c.8.8 2 .7 2.8 0s.8-2 0-2.8c-.7-.7.8.8 0 0z"/></g><g><path class="st1" d="M258.9 487.5v3.4c0 .8.5 1.9 1 2.4l3.9 3.7c.6.5 1.7 1 2.4 1h4.5c.8 0 1.9.4 2.4 1l1.8 1.8"/><ellipse transform="rotate(-45.952 274.856 500.64)" class="st2" cx="274.9" cy="500.7" rx="2.3" ry="2.3"/><path class="st3" d="M273.1 502.5c-1-1-1-2.6-.1-3.6 1-1 2.6-1 3.6-.1 1 1 1 2.6.1 3.6s-2.6 1.1-3.6.1 1 1 0 0zm3.1-3.2c-.8-.7-2-.7-2.8 0s-.7 2 0 2.8c.8.8 2 .7 2.8 0s.8-2.1 0-2.8c-.7-.8.8.7 0 0z"/></g><g><path class="st1" d="M293.5 491.8l12.3 11.9c.6.5 1.7 1 2.4 1h2.9"/><circle class="st2" cx="311" cy="504.7" r="2.3"/><path class="st3" d="M311 507.2c-1.4 0-2.6-1.1-2.6-2.6s1.1-2.6 2.6-2.6 2.6 1.1 2.6 2.6-1.2 2.6-2.6 2.6 1.4 0 0 0zm0-4.5c-1.1 0-2 .9-2 2s.9 2 2 2 2-.9 2-2-1-2-2-2 1 0 0 0z"/></g><g><path class="st1" d="M302.3 500.5v6.4"/><circle class="st2" cx="302.3" cy="506.8" r="2.3"/><path class="st3" d="M299.7 506.8c0-1.4 1.1-2.6 2.6-2.6s2.6 1.1 2.6 2.6c0 1.4-1.1 2.6-2.6 2.6s-2.6-1.2-2.6-2.6c0-1.4 0 1.4 0 0zm4.6 0c0-1.1-.9-2-2-2s-2 .9-2 2 .9 2 2 2 2-1 2-2c0-1.1 0 1 0 0z"/></g><g><path class="st1" d="M282.9 514v4.3c0 .8.5 1.9 1 2.4l16.1 15.6"/><ellipse transform="rotate(-45.952 299.933 536.1)" class="st2" cx="300" cy="536.1" rx="2.3" ry="2.3"/><path class="st3" d="M298.2 538c-1-1-1-2.6-.1-3.6 1-1 2.6-1 3.6-.1 1 1 1 2.6.1 3.6-1 1-2.6 1.1-3.6.1s1 1 0 0zm3.1-3.3c-.8-.8-2-.7-2.8 0s-.7 2 0 2.8c.8.8 2 .7 2.8 0 .8-.8.8-2 0-2.8-.8-.7.8.8 0 0z"/></g><g><path class="st1" d="M296.9 514.9v3.4c0 .8.5 1.9 1 2.4l15.1 14.6c.6.5 1 1.6 1 2.4v1.7"/><circle class="st2" cx="314.1" cy="539.2" r="2.3"/><path class="st3" d="M311.5 539.2c0-1.4 1.1-2.6 2.6-2.6s2.6 1.1 2.6 2.6-1.1 2.6-2.6 2.6-2.6-1.1-2.6-2.6 0 1.5 0 0zm4.5 0c0-1.1-.9-2-2-2s-2 .9-2 2 .9 2 2 2 2-.9 2-2 0 1.1 0 0z"/></g><g><path class="st1" d="M305.1 514.9v3.6c0 .8.5 1.9 1 2.4l9.3 9"/><ellipse transform="rotate(-45.952 315.32 529.715)" class="st2" cx="315.3" cy="529.8" rx="2.3" ry="2.3"/><path class="st3" d="M313.6 531.6c-1-1-1-2.6-.1-3.6 1-1 2.6-1 3.6-.1 1 1 1 2.6.1 3.6s-2.6 1.1-3.6.1 1 1 0 0zm3.1-3.3c-.8-.8-2-.7-2.8 0s-.7 2 0 2.8c.8.8 2 .7 2.8 0 .8-.8.8-2 0-2.8-.8-.7.8.8 0 0z"/></g><g><path class="st1" d="M328.4 500.3v9.3c0 .8.5 1.9 1 2.4l2.6 2.5c.6.5 1 1.6 1 2.4v15.7"/><circle class="st2" cx="333" cy="532.5" r="2.3"/><path class="st3" d="M330.5 532.5c0-1.4 1.1-2.6 2.6-2.6s2.6 1.1 2.6 2.6-1.1 2.6-2.6 2.6-2.6-1.2-2.6-2.6 0 1.4 0 0zm4.5 0c0-1.1-.9-2-2-2s-2 .9-2 2 .9 2 2 2 2-.9 2-2 0 1.1 0 0z"/></g><g><path class="st1" d="M332.8 519.9l5.7 5.5c.6.5 1 1.6 1 2.4v3.2c0 .8.5 1.9 1 2.4l5 4.8"/><ellipse transform="rotate(-45.952 345.48 538.114)" class="st2" cx="345.5" cy="538.1" rx="2.3" ry="2.3"/><path class="st3" d="M343.7 540c-1-1-1-2.6-.1-3.6 1-1 2.6-1 3.6-.1 1 1 1 2.6.1 3.6s-2.6 1.1-3.6.1 1 1 0 0zm3.2-3.3c-.8-.8-2-.7-2.8 0-.8.8-.7 2 0 2.8.8.8 2 .7 2.8 0s.7-2 0-2.8c-.8-.7.7.8 0 0z"/></g><g><path class="st1" d="M328.4 503.3l17.1 16.5c.6.5 1 1.6 1 2.4v3.7"/><circle class="st2" cx="346.5" cy="525.8" r="2.3"/><path class="st3" d="M343.9 525.8c0-1.4 1.1-2.6 2.6-2.6s2.6 1.1 2.6 2.6c0 1.4-1.1 2.6-2.6 2.6s-2.6-1.2-2.6-2.6c0-1.4 0 1.4 0 0zm4.6 0c0-1.1-.9-2-2-2s-2 .9-2 2 .9 2 2 2c1.1-.1 2-.9 2-2s0 1.1 0 0z"/></g><g><path class="st1" d="M301.8 482.8l8.2 8c.6.5 1.7 1 2.4 1h24.5"/><circle class="st2" cx="336.8" cy="491.8" r="2.3"/><path class="st3" d="M336.8 494.3c-1.4 0-2.6-1.1-2.6-2.6s1.1-2.6 2.6-2.6 2.6 1.1 2.6 2.6-1.2 2.6-2.6 2.6 1.4 0 0 0zm0-4.5c-1.1 0-2 .9-2 2s.9 2 2 2 2-.9 2-2-.9-2-2-2 1.1 0 0 0z"/></g><g><path class="st1" d="M313.6 491.5l20-19.3c.6-.5 1.7-1 2.4-1h4.7"/><circle class="st2" cx="340.5" cy="471.2" r="2.3"/><path class="st3" d="M340.5 473.7c-1.4 0-2.6-1.1-2.6-2.6s1.1-2.6 2.6-2.6 2.6 1.1 2.6 2.6-1.2 2.6-2.6 2.6 1.4 0 0 0zm0-4.5c-1.1 0-2 .9-2 2s.9 2 2 2 2-.9 2-2-.9-2-2-2 1.1 0 0 0z"/></g><g><path class="st1" d="M327.4 478.4l5.4 5.2c.6.5 1.7 1 2.4 1h5.4"/><circle class="st2" cx="340.5" cy="484.6" r="2.3"/><path class="st3" d="M340.5 487.2c-1.4 0-2.6-1.1-2.6-2.6s1.1-2.6 2.6-2.6 2.6 1.1 2.6 2.6-1.2 2.6-2.6 2.6 1.4 0 0 0zm0-4.5c-1.1 0-2 .9-2 2s.9 2 2 2 2-.9 2-2-.9-2-2-2 1.1 0 0 0z"/></g><g><path class="st1" d="M306.9 478.2h8.9c.8 0 1.9-.4 2.4-1l8.7-8.4"/><ellipse transform="rotate(-44.048 326.804 468.892)" class="st2" cx="326.8" cy="468.9" rx="2.3" ry="2.3"/><path class="st3" d="M328.6 470.8c-1 1-2.6 1-3.6-.1s-1-2.6.1-3.6c1-1 2.6-1 3.6.1s.9 2.6-.1 3.6c-1 .9 1-1 0 0zm-3.1-3.3c-.8.7-.8 2 0 2.8.8.8 2 .8 2.8 0 .8-.8.8-2 0-2.8s-2.1-.7-2.8 0c-.8.8.7-.7 0 0z"/></g><g><path class="st1" d="M324.4 445.7l6.3 6.1"/><ellipse transform="rotate(-45.952 330.57 451.724)" class="st2" cx="330.6" cy="451.8" rx="2.3" ry="2.3"/><path class="st3" d="M328.8 453.6c-1-1-1-2.6-.1-3.6s2.6-1 3.6-.1c1 1 1 2.6.1 3.6s-2.6 1.1-3.6.1 1 1 0 0zm3.2-3.3c-.8-.7-2-.7-2.8 0-.8.8-.7 2 0 2.8.8.8 2 .7 2.8 0s.7-2 0-2.8c-.8-.7.7.8 0 0z"/></g><g><path class="st1" d="M354.9 470.7H368c.8 0 1.9-.4 2.4-1l7.8-7.5"/><ellipse transform="rotate(-44.048 378.145 462.291)" class="st2" cx="378.2" cy="462.3" rx="2.3" ry="2.3"/><path class="st3" d="M379.9 464.2c-1 1-2.6 1-3.6-.1-1-1-1-2.6.1-3.6 1-1 2.6-1 3.6.1s1 2.6-.1 3.6c-1 .9 1.1-1 0 0zm-3.1-3.3c-.8.7-.8 2 0 2.8s2 .8 2.8 0c.8-.8.8-2 0-2.8s-2-.7-2.8 0c-.8.8.8-.7 0 0z"/></g><g><path class="st1" d="M374.3 465.6v-11.1c0-.8.5-1.9 1-2.4l14-13.5c.6-.5 1-1.6 1-2.4v-12.5"/><circle class="st2" cx="390.3" cy="423.8" r="2.3"/><path class="st3" d="M392.9 423.8c0 1.4-1.1 2.6-2.6 2.6s-2.6-1.1-2.6-2.6c0-1.4 1.1-2.6 2.6-2.6s2.6 1.2 2.6 2.6c0 1.4 0-1.4 0 0zm-4.5 0c0 1.1.9 2 2 2s2-.9 2-2-.9-2-2-2-2 .9-2 2 0-1.1 0 0z"/></g><g><path class="st1" d="M381.3 446.3h14.8c.8 0 1.9-.4 2.4-1l12.4-12c.6-.5 1-1.6 1-2.4v-7.4"/><circle class="st2" cx="412.1" cy="423.6" r="2.3"/><path class="st3" d="M414.6 423.6c0 1.4-1.1 2.6-2.6 2.6s-2.6-1.1-2.6-2.6c0-1.4 1.1-2.6 2.6-2.6s2.6 1.2 2.6 2.6c0 1.4 0-1.4 0 0zm-4.5 0c0 1.1.9 2 2 2s2-.9 2-2-.9-2-2-2-2 .9-2 2 0-1.1 0 0z"/></g><g><path class="st1" d="M406.1 437.6l-6.5-6.3c-.6-.5-1-1.6-1-2.4v-4.6"/><circle class="st2" cx="398.6" cy="424.4" r="2.3"/><path class="st3" d="M401.2 424.4c0 1.4-1.1 2.6-2.6 2.6s-2.6-1.1-2.6-2.6c0-1.4 1.1-2.6 2.6-2.6s2.6 1.2 2.6 2.6c0 1.4 0-1.4 0 0zm-4.6 0c0 1.1.9 2 2 2s2-.9 2-2-.9-2-2-2-2 1-2 2c0 1.1 0-1 0 0z"/></g><g><path class="st1" d="M402.2 441.7h14.3c.8 0 1.9-.4 2.4-1l10.4-10.1"/><ellipse transform="rotate(-44.053 429.197 430.746)" class="st2" cx="429.2" cy="430.7" rx="2.3" ry="2.3"/><path class="st3" d="M431 432.6c-1 1-2.6 1-3.6-.1s-1-2.6.1-3.6c1-1 2.6-1 3.6.1s.9 2.6-.1 3.6 1-1 0 0zm-3.1-3.3c-.8.8-.8 2 0 2.8s2 .8 2.8 0c.8-.8.8-2 0-2.8s-2.1-.7-2.8 0c-.8.8.7-.7 0 0z"/></g><g><path class="st1" d="M423.1 436.7h39.5c.8 0 1.9-.4 2.4-1l11.7-11.3c.6-.5 1.7-1 2.4-1h7.5"/><circle class="st2" cx="486.5" cy="423.5" r="2.3"/><path class="st3" d="M486.5 426c-1.4 0-2.6-1.1-2.6-2.6s1.1-2.6 2.6-2.6 2.6 1.1 2.6 2.6-1.2 2.6-2.6 2.6 1.4 0 0 0zm0-4.5c-1.1 0-2 .9-2 2s.9 2 2 2 2-.9 2-2c-.1-1.1-.9-2-2-2s1.1 0 0 0z"/></g><g><path class="st1" d="M468.2 432.7h19.4c.8 0 1.9.4 2.4 1l4.5 4.4"/><ellipse transform="rotate(-45.952 494.47 437.935)" class="st2" cx="494.5" cy="438" rx="2.3" ry="2.3"/><path class="st3" d="M492.7 439.8c-1-1-1-2.6-.1-3.6 1-1 2.6-1 3.6-.1 1 1 1 2.6.1 3.6-.9 1.1-2.6 1.1-3.6.1s1 1 0 0zm3.2-3.2c-.8-.8-2-.7-2.8 0s-.7 2 0 2.8c.8.8 2 .7 2.8 0s.7-2.1 0-2.8c-.8-.8.7.7 0 0z"/></g><g><path class="st1" d="M442.6 436.7l9.2 8.9c.6.5 1.7 1 2.4 1h41.3"/><circle class="st2" cx="495.3" cy="446.6" r="2.3"/><path class="st3" d="M495.3 449.1c-1.4 0-2.6-1.1-2.6-2.6s1.1-2.6 2.6-2.6c1.4 0 2.6 1.1 2.6 2.6s-1.1 2.6-2.6 2.6c-1.4 0 1.5 0 0 0zm0-4.5c-1.1 0-2 .9-2 2s.9 2 2 2 2-.9 2-2-.9-2-2-2c-1 0 1.1 0 0 0z"/></g><g><path class="st1" d="M425 436.7l16.1 15.5c.6.5 1 1.6 1 2.4v5.5c0 .8-.5 1.9-1 2.4l-3.9 3.8"/><ellipse transform="rotate(-44.048 437.26 466.222)" class="st2" cx="437.3" cy="466.2" rx="2.3" ry="2.3"/><path class="st3" d="M435.5 464.4c1-1 2.6-1 3.6.1s1 2.6-.1 3.6c-1 1-2.6 1-3.6-.1s-.9-2.6.1-3.6-1 1 0 0zm3.1 3.3c.8-.7.8-2 0-2.8s-2-.8-2.8 0c-.8.8-.8 2 0 2.8.8.7 2.1.7 2.8 0 .8-.8-.7.7 0 0z"/></g><g><path class="st1" d="M412.1 441.7v10c0 .8.6 1.4 1.4 1.4h14.1c.8 0 1.9.4 2.4 1l1.3 1.3"/><ellipse transform="rotate(-45.952 431.2 455.259)" class="st2" cx="431.2" cy="455.3" rx="2.3" ry="2.3"/><path class="st3" d="M429.5 457.1c-1-1-1-2.6-.1-3.6 1-1 2.6-1 3.6-.1 1 1 1 2.6.1 3.6-1 1.1-2.6 1.1-3.6.1-1.1-1 1 1 0 0zm3.1-3.2c-.8-.7-2-.7-2.8 0s-.7 2 0 2.8c.8.8 2 .7 2.8 0s.8-2.1 0-2.8c-.8-.8.8.7 0 0z"/></g><g><path class="st1" d="M389.2 446.3l8.3 8c.6.5 1 1.6 1 2.4v3.6"/><circle class="st2" cx="398.5" cy="460.2" r="2.3"/><path class="st3" d="M395.9 460.2c0-1.4 1.1-2.6 2.6-2.6s2.6 1.1 2.6 2.6c0 1.4-1.1 2.6-2.6 2.6s-2.6-1.2-2.6-2.6c0-1.4 0 1.4 0 0zm4.6 0c0-1.1-.9-2-2-2s-2 .9-2 2 .9 2 2 2 2-.9 2-2 0 1.1 0 0z"/></g><g><path class="st1" d="M378.1 448.9l10 9.7c.6.5 1 1.6 1 2.4v7.3"/><circle class="st2" cx="389.2" cy="468.2" r="2.3"/><path class="st3" d="M386.6 468.2c0-1.4 1.1-2.6 2.6-2.6s2.6 1.1 2.6 2.6c0 1.4-1.1 2.6-2.6 2.6s-2.6-1.2-2.6-2.6c0-1.4 0 1.4 0 0zm4.5 0c0-1.1-.9-2-2-2s-2 .9-2 2 .9 2 2 2c1.1-.1 2-1 2-2 0-1.1 0 1 0 0z"/></g><g><path class="st1" d="M443.7 457.1h19c.8 0 1.9.4 2.4 1l24.5 23.7"/><ellipse transform="rotate(-45.952 489.462 481.726)" class="st2" cx="489.5" cy="481.8" rx="2.3" ry="2.3"/><path class="st3" d="M487.7 483.6c-1-1-1-2.6-.1-3.6s2.6-1 3.6-.1c1 1 1 2.6.1 3.6s-2.6 1.1-3.6.1 1 1 0 0zm3.2-3.2c-.8-.8-2-.7-2.8 0s-.7 2 0 2.8c.8.8 2 .7 2.8 0s.7-2.1 0-2.8c-.8-.8.7.7 0 0z"/></g><g><path class="st1" d="M471.5 464.3h40.8c.8 0 1.9.4 2.4 1l16.9 16.4"/><ellipse transform="rotate(-45.952 531.463 481.557)" class="st2" cx="531.5" cy="481.6" rx="2.3" ry="2.3"/><path class="st3" d="M529.7 483.4c-1-1-1-2.6-.1-3.6 1-1 2.6-1 3.6-.1 1 1 1 2.6.1 3.6s-2.6 1.1-3.6.1 1 1 0 0zm3.2-3.2c-.8-.7-2-.7-2.8 0s-.7 2 0 2.8c.8.8 2 .7 2.8 0 .8-.8.7-2.1 0-2.8-.8-.8.7.7 0 0z"/></g><g><path class="st1" d="M524.3 474.6v10.7c0 .8.5 1.9 1 2.4l.2.2"/><ellipse transform="rotate(-45.952 525.405 487.837)" class="st2" cx="525.4" cy="487.9" rx="2.3" ry="2.3"/><path class="st3" d="M523.7 489.7c-1-1-1-2.6-.1-3.6s2.6-1 3.6-.1c1 1 1 2.6.1 3.6-1 1.1-2.6 1.1-3.6.1-1.1-1 1 1 0 0zm3.1-3.2c-.8-.7-2-.7-2.8 0s-.7 2 0 2.8c.8.8 2 .7 2.8 0 .8-.8.8-2.1 0-2.8-.8-.8.8.7 0 0z"/></g><g><path class="st1" d="M498.1 464.3l11.2 10.8c.6.5 1 1.6 1 2.4v2.8"/><circle class="st2" cx="510.3" cy="480.2" r="2.3"/><path class="st3" d="M507.7 480.2c0-1.4 1.1-2.6 2.6-2.6s2.6 1.1 2.6 2.6c0 1.4-1.1 2.6-2.6 2.6s-2.6-1.1-2.6-2.6c0-1.4 0 1.5 0 0zm4.6 0c0-1.1-.9-2-2-2s-2 .9-2 2 .9 2 2 2 2-.9 2-2c0-1 0 1.1 0 0z"/></g><g><path class="st1" d="M483.2 464.3l17.2 16.7"/><ellipse transform="rotate(-45.952 500.27 480.835)" class="st2" cx="500.3" cy="480.9" rx="2.3" ry="2.3"/><path class="st3" d="M498.5 482.7c-1-1-1-2.6-.1-3.6s2.6-1 3.6-.1c1 1 1 2.6.1 3.6s-2.6 1.1-3.6.1 1 1 0 0zm3.2-3.2c-.8-.7-2-.7-2.8 0s-.7 2 0 2.8c.8.8 2 .7 2.8 0 .8-.9.7-2.1 0-2.8-.8-.8.7.7 0 0z"/></g><g><path class="st1" d="M493.9 464.2l11.7-11.3c.6-.5 1.7-1 2.4-1h16.8"/><circle class="st2" cx="524.7" cy="451.9" r="2.3"/><path class="st3" d="M524.7 454.4c-1.4 0-2.6-1.1-2.6-2.6s1.1-2.6 2.6-2.6 2.6 1.1 2.6 2.6-1.2 2.6-2.6 2.6 1.4 0 0 0zm0-4.5c-1.1 0-2 .9-2 2s.9 2 2 2 2-.9 2-2-.9-2-2-2 1.1 0 0 0z"/></g><g><path class="st1" d="M517.7 451.9l18.9 18.3c.6.5 1.7 1 2.4 1h4.8"/><circle class="st2" cx="543.6" cy="471.1" r="2.3"/><path class="st3" d="M543.6 473.7c-1.4 0-2.6-1.1-2.6-2.6s1.1-2.6 2.6-2.6 2.6 1.1 2.6 2.6-1.2 2.6-2.6 2.6 1.4 0 0 0zm0-4.5c-1.1 0-2 .9-2 2s.9 2 2 2 2-.9 2-2-.9-2-2-2 1.1 0 0 0z"/></g><g><path class="st1" d="M532.6 466.3l3.1-3"/><ellipse transform="rotate(-44.048 535.601 463.398)" class="st2" cx="535.6" cy="463.4" rx="2.3" ry="2.3"/><path class="st3" d="M537.4 465.3c-1 1-2.6 1-3.6-.1s-1-2.6.1-3.6c1-1 2.6-1 3.6.1s.9 2.6-.1 3.6c-1 .9 1-1 0 0zm-3.1-3.3c-.8.8-.8 2 0 2.8s2 .8 2.8 0c.8-.8.8-2 0-2.8s-2.1-.7-2.8 0c-.8.8.7-.7 0 0z"/></g><g><path class="st1" d="M522.3 472.7h5.7c.8 0 1.9.4 2.4 1l7.4 7.2c.6.5 1.7 1 2.4 1h3.5"/><circle class="st2" cx="543.6" cy="481.8" r="2.3"/><path class="st3" d="M543.6 484.4c-1.4 0-2.6-1.1-2.6-2.6s1.1-2.6 2.6-2.6 2.6 1.1 2.6 2.6-1.2 2.6-2.6 2.6 1.4 0 0 0zm0-4.5c-1.1 0-2 .9-2 2s.9 2 2 2 2-.9 2-2-.9-2-2-2 1.1 0 0 0z"/></g><g><path class="st1" d="M454.1 457.1v16.2c0 .8.5 1.9 1 2.4l26.8 25.9c.6.5 1 1.6 1 2.4v23.9"/><circle class="st2" cx="482.9" cy="527.8" r="2.3"/><path class="st3" d="M480.4 527.8c0-1.4 1.1-2.6 2.6-2.6s2.6 1.1 2.6 2.6c0 1.4-1.1 2.6-2.6 2.6s-2.6-1.2-2.6-2.6c0-1.4 0 1.4 0 0zm4.5 0c0-1.1-.9-2-2-2s-2 .9-2 2 .9 2 2 2 2-.9 2-2 0 1.1 0 0z"/></g><g><path class="st1" d="M467.5 460.5v12.7c0 .8.5 1.9 1 2.4l15.8 15.3"/><ellipse transform="rotate(-45.952 484.188 490.82)" class="st2" cx="484.2" cy="490.9" rx="2.3" ry="2.3"/><path class="st3" d="M482.4 492.7c-1-1-1-2.6-.1-3.6s2.6-1 3.6-.1c1 1 1 2.6.1 3.6s-2.5 1.1-3.6.1c-1-1 1.1 1 0 0zm3.2-3.3c-.8-.7-2-.7-2.8 0s-.7 2 0 2.8c.8.8 2 .7 2.8 0 .8-.8.8-2 0-2.8-.8-.7.8.8 0 0z"/></g><g><path class="st1" d="M439.7 466.7l3.8 3.6c.6.5 1 1.6 1 2.4v11.7c0 .8.5 1.9 1 2.4l9.3 9"/><ellipse transform="rotate(-45.952 454.628 495.686)" class="st2" cx="454.7" cy="495.7" rx="2.3" ry="2.3"/><path class="st3" d="M452.9 497.6c-1-1-1-2.6-.1-3.6s2.6-1 3.6-.1c1 1 1 2.6.1 3.6s-2.6 1-3.6.1c-1-1 1 .9 0 0zm3.1-3.3c-.8-.7-2-.7-2.8 0-.8.8-.7 2 0 2.8.8.8 2 .7 2.8 0s.8-2 0-2.8c-.8-.7.8.8 0 0z"/></g><g><path class="st1" d="M444.5 480.1h5.3c.8 0 1.9.4 2.4 1l11.3 10.9"/><ellipse transform="rotate(-45.952 463.418 491.937)" class="st2" cx="463.5" cy="492" rx="2.3" ry="2.3"/><path class="st3" d="M461.7 493.8c-1-1-1-2.6-.1-3.6s2.6-1 3.6-.1c1 1 1 2.6.1 3.6-1 1.1-2.6 1.1-3.6.1s1 1 0 0zm3.1-3.2c-.8-.8-2-.7-2.8 0s-.7 2 0 2.8c.8.8 2 .7 2.8 0s.8-2.1 0-2.8c-.8-.8.8.7 0 0z"/></g><g><path class="st1" d="M418.9 466.7v9c0 .8.5 1.9 1 2.4l7.4 7.1"/><ellipse transform="rotate(-45.952 427.128 485.12)" class="st2" cx="427.2" cy="485.2" rx="2.3" ry="2.3"/><path class="st3" d="M425.4 487c-1-1-1-2.6-.1-3.6 1-1 2.6-1 3.6-.1 1 1 1 2.6.1 3.6-1 1-2.6 1.1-3.6.1s1 1 0 0zm3.1-3.3c-.8-.7-2-.7-2.8 0s-.7 2 0 2.8c.8.8 2 .7 2.8 0s.8-2 0-2.8c-.8-.7.8.8 0 0z"/></g><g><path class="st1" d="M372.2 211.4l30.2-29.2c.6-.5 1.7-1 2.4-1h22c.8 0 1.4-.6 1.4-1.4V136"/><circle class="st2" cx="428.2" cy="136.1" r="2.3"/><path class="st3" d="M430.8 136.1c0 1.4-1.1 2.6-2.6 2.6s-2.6-1.1-2.6-2.6c0-1.4 1.1-2.6 2.6-2.6s2.6 1.2 2.6 2.6c0 1.4 0-1.4 0 0zm-4.5 0c0 1.1.9 2 2 2s2-.9 2-2-.9-2-2-2-2 .9-2 2 0-1.1 0 0z"/></g><g><path class="st1" d="M428.3 150.4l15.3-14.8c.6-.5 1-1.6 1-2.4V95.4c0-.8.5-1.9 1-2.4l17.5-17"/><ellipse transform="rotate(-44.048 463.053 76.063)" class="st2" cx="463.1" cy="76.1" rx="2.3" ry="2.3"/><path class="st3" d="M464.9 77.9c-1 1-2.6 1-3.6-.1-1-1-1-2.6.1-3.6 1-1 2.6-1 3.6.1.9 1 .9 2.6-.1 3.6-1.1 1 1-1 0 0zm-3.2-3.2c-.8.7-.8 2 0 2.8s2 .8 2.8 0c.8-.8.8-2 0-2.8-.8-.8-2-.8-2.8 0-.8.7.8-.8 0 0z"/></g><g><path class="st1" d="M444.2 109.8l-14.7-14.3c-.6-.5-1-1.6-1-2.4V59c0-.8-.5-1.9-1-2.4l-8.7-8.4"/><ellipse transform="rotate(-45.952 418.835 48.307)" class="st2" cx="418.9" cy="48.3" rx="2.3" ry="2.3"/><path class="st3" d="M420.6 46.5c1 1 1 2.6.1 3.6-1 1-2.6 1-3.6.1-1-1-1-2.6-.1-3.6 1-1.1 2.6-1.1 3.6-.1 1.1 1-1-1 0 0zm-3.1 3.2c.8.7 2 .7 2.8 0s.7-2 0-2.8c-.8-.8-2-.7-2.8 0-.8.8-.8 2.1 0 2.8.8.8-.8-.7 0 0z"/></g><g><path class="st1" d="M428.4 70.3l31.8-30.7c.6-.5 1-1.6 1-2.4v-7.3c0-.8.5-1.9 1-2.4l6.5-6.3"/><ellipse transform="rotate(-44.048 468.662 21.204)" class="st2" cx="468.7" cy="21.2" rx="2.3" ry="2.3"/><path class="st3" d="M470.5 23c-1 1-2.6 1-3.6-.1-1-1-1-2.6.1-3.6 1-1 2.6-1 3.6.1s.9 2.7-.1 3.6c-1.1 1 1-.9 0 0zm-3.2-3.2c-.8.7-.8 2 0 2.8.8.8 2 .8 2.8 0 .8-.8.8-2 0-2.8-.8-.7-2-.7-2.8 0-.8.8.8-.7 0 0z"/></g><g><path class="st1" d="M465.6 24.2l-9.3-8.9"/><ellipse transform="rotate(-45.952 456.394 15.374)" class="st2" cx="456.4" cy="15.4" rx="2.3" ry="2.3"/><path class="st3" d="M458.2 13.5c1 1 1 2.6.1 3.6-1 1-2.6 1-3.6.1-1-1-1-2.6-.1-3.6 1-1 2.6-1 3.6-.1 1 1-1-.9 0 0zm-3.1 3.3c.8.7 2 .7 2.8 0 .7-.8.7-2 0-2.8-.8-.8-2-.7-2.8 0-.8.8-.8 2 0 2.8.7.7-.8-.8 0 0z"/></g><g><path class="st1" d="M450 88.7V62.5c0-.8.5-1.9 1-2.4l7.1-6.8"/><ellipse transform="rotate(-44.048 457.972 53.319)" class="st2" cx="458" cy="53.3" rx="2.3" ry="2.3"/><path class="st3" d="M459.8 55.2c-1 1-2.6 1-3.6-.1s-1-2.6.1-3.6c1-1 2.6-1 3.6.1.9 1 .9 2.6-.1 3.6-1 .9 1-1 0 0zm-3.2-3.3c-.8.7-.8 2 0 2.8s2 .8 2.8 0c.8-.8.8-2 0-2.8-.7-.7-2-.7-2.8 0-.7.8.8-.7 0 0z"/></g><g><path class="st1" d="M444.5 124.8l12.9-12.5"/><ellipse transform="rotate(-44.048 457.288 112.345)" class="st2" cx="457.3" cy="112.4" rx="2.3" ry="2.3"/><path class="st3" d="M459.1 114.2c-1 1-2.6 1-3.6-.1-1-1-1-2.6.1-3.6 1-1 2.6-1 3.6.1s.9 2.6-.1 3.6 1-1 0 0zm-3.1-3.3c-.8.7-.8 2 0 2.8.8.8 2 .8 2.8 0 .8-.8.8-2 0-2.8-.8-.7-2.1-.7-2.8 0-.8.8.7-.7 0 0z"/></g><g><path class="st1" d="M428.3 169.2l26.6-25.7c.6-.5 1-1.6 1-2.4v-8.6c0-.8.5-1.9 1-2.4l4.3-4.1"/><ellipse transform="rotate(-44.048 461.077 126.084)" class="st2" cx="461.1" cy="126.1" rx="2.3" ry="2.3"/><path class="st3" d="M462.9 127.9c-1 1-2.6 1-3.6-.1-1-1-1-2.6.1-3.6 1-1 2.6-1 3.6.1.9 1 .9 2.6-.1 3.6s1-1 0 0zm-3.2-3.2c-.8.7-.8 2 0 2.8.8.8 2 .8 2.8 0 .8-.8.8-2 0-2.8-.7-.7-2-.8-2.8 0-.7.7.8-.8 0 0z"/></g><g><path class="st1" d="M386.8 197.4H420c.8 0 1.9-.4 2.4-1l39.8-38.5"/><ellipse transform="rotate(-44.048 462.08 157.97)" class="st2" cx="462.1" cy="158" rx="2.3" ry="2.3"/><path class="st3" d="M463.9 159.8c-1 1-2.6 1-3.6-.1s-1-2.6.1-3.6c1-1 2.6-1 3.6.1.9 1 .9 2.6-.1 3.6s1-1 0 0zm-3.2-3.2c-.8.7-.8 2 0 2.8.8.8 2 .8 2.8 0 .8-.8.8-2 0-2.8-.7-.8-2-.8-2.8 0-.7.7.8-.8 0 0z"/></g><g><path class="st1" d="M375.9 208.3h22c.8 0 1.9-.4 2.4-1l2.2-2.1c.6-.5 1.7-1 2.4-1H471"/><circle class="st2" cx="470.9" cy="204.2" r="2.3"/><path class="st3" d="M470.9 206.8c-1.4 0-2.6-1.1-2.6-2.6 0-1.4 1.1-2.6 2.6-2.6s2.6 1.1 2.6 2.6c-.1 1.4-1.2 2.6-2.6 2.6s1.4 0 0 0zm0-4.6c-1.1 0-2 .9-2 2s.9 2 2 2 2-.9 2-2c-.1-1.1-.9-2-2-2s1.1 0 0 0z"/></g><g><path class="st1" d="M453.1 204.2l12-11.6c.6-.5 1-1.6 1-2.4v-12c0-.8.5-1.9 1-2.4l1.4-1.3"/><ellipse transform="rotate(-44.048 468.376 174.574)" class="st2" cx="468.4" cy="174.6" rx="2.3" ry="2.3"/><path class="st3" d="M470.2 176.4c-1 1-2.6 1-3.6-.1-1-1-1-2.6.1-3.6 1-1 2.6-1 3.6.1.9 1 .9 2.6-.1 3.6s1-1 0 0zm-3.2-3.2c-.8.7-.8 2 0 2.8s2 .8 2.8 0c.8-.8.8-2 0-2.8-.7-.8-2-.8-2.8 0-.7.7.8-.8 0 0z"/></g><g><path class="st1" d="M427.5 204l35.2-34.1"/><ellipse transform="rotate(-44.048 462.607 169.992)" class="st2" cx="462.6" cy="170" rx="2.3" ry="2.3"/><path class="st3" d="M464.4 171.8c-1 1-2.6 1-3.6-.1-1-1-1-2.6.1-3.6 1-1 2.6-1 3.6.1.9 1 .9 2.7-.1 3.6-1 1 1-.9 0 0zm-3.1-3.2c-.8.7-.8 2 0 2.8s2 .8 2.8 0c.8-.8.8-2 0-2.8-.8-.7-2.1-.8-2.8 0-.8.7.7-.8 0 0z"/></g><g><path class="st1" d="M387.5 208.5l17.2 16.6c.6.5 1.7 1 2.4 1h48.3"/><circle class="st2" cx="455.2" cy="226.1" r="2.3"/><path class="st3" d="M455.2 228.7c-1.4 0-2.6-1.1-2.6-2.6 0-1.4 1.1-2.6 2.6-2.6s2.6 1.1 2.6 2.6c-.1 1.4-1.2 2.6-2.6 2.6s1.4 0 0 0zm0-4.5c-1.1 0-2 .9-2 2s.9 2 2 2 2-.9 2-2c-.1-1.2-.9-2-2-2s1.1 0 0 0z"/></g><g><path class="st1" d="M415.8 226.1l10.7-10.3c.6-.5 1.7-1 2.4-1h33.6"/><circle class="st2" cx="462.4" cy="214.8" r="2.3"/><path class="st3" d="M462.4 217.4c-1.4 0-2.6-1.1-2.6-2.6s1.1-2.6 2.6-2.6 2.6 1.1 2.6 2.6-1.2 2.6-2.6 2.6 1.4 0 0 0zm0-4.6c-1.1 0-2 .9-2 2s.9 2 2 2 2-.9 2-2c-.1-1.1-1-2-2-2s1 0 0 0z"/></g><g><path class="st1" d="M372.2 233.9l12.8-12.4"/><ellipse transform="rotate(-44.048 384.909 221.57)" class="st2" cx="384.9" cy="221.6" rx="2.3" ry="2.3"/><path class="st3" d="M386.7 223.4c-1 1-2.6 1-3.6-.1-1-1-1-2.6.1-3.6 1-1 2.6-1 3.6.1s.9 2.6-.1 3.6 1-1 0 0zm-3.1-3.2c-.8.7-.8 2 0 2.8.8.8 2 .8 2.8 0 .8-.8.8-2 0-2.8-.8-.8-2.1-.8-2.8 0-.8.7.7-.8 0 0z"/></g><g><path class="st1" d="M391.9 257.7v-11.2c0-.8-.5-1.9-1-2.4l-6.3-6.1c-.6-.5-.6-1.4 0-2l6-5.8"/><ellipse transform="rotate(-44.048 390.527 230.332)" class="st2" cx="390.5" cy="230.3" rx="2.3" ry="2.3"/><path class="st3" d="M392.3 232.2c-1 1-2.6 1-3.6-.1-1-1-1-2.6.1-3.6 1-1 2.6-1 3.6.1s.9 2.6-.1 3.6 1-1 0 0zm-3.1-3.3c-.8.7-.8 2 0 2.8.8.8 2 .8 2.8 0 .8-.8.8-2 0-2.8s-2-.7-2.8 0c-.8.8.8-.7 0 0z"/></g><g><path class="st1" d="M402.3 257.7l23.2-22.5c.6-.5 1.7-1 2.4-1H443"/><circle class="st2" cx="443" cy="234.3" r="2.3"/><path class="st3" d="M443 236.9c-1.4 0-2.6-1.1-2.6-2.6s1.1-2.6 2.6-2.6 2.6 1.1 2.6 2.6-1.2 2.6-2.6 2.6 1.4 0 0 0zm0-4.6c-1.1 0-2 .9-2 2s.9 2 2 2 2-.9 2-2-1-2-2-2 1 0 0 0z"/></g><g><path class="st1" d="M419.5 241.2h18.2"/><circle class="st2" cx="437.6" cy="241.2" r="2.3"/><path class="st3" d="M437.6 243.7c-1.4 0-2.6-1.1-2.6-2.6s1.1-2.6 2.6-2.6 2.6 1.1 2.6 2.6-1.2 2.6-2.6 2.6 1.4 0 0 0zm0-4.5c-1.1 0-2 .9-2 2s.9 2 2 2 2-.9 2-2c-.1-1.1-.9-2-2-2s1.1 0 0 0z"/></g><g><path class="st1" d="M392.2 250.8l14.7-14.2"/><ellipse transform="rotate(-44.048 406.827 236.627)" class="st2" cx="406.8" cy="236.6" rx="2.3" ry="2.3"/><path class="st3" d="M408.6 238.5c-1 1-2.6 1-3.6-.1-1-1-1-2.6.1-3.6 1-1 2.6-1 3.6.1s.9 2.6-.1 3.6 1-1 0 0zm-3.1-3.3c-.8.7-.8 2 0 2.8.8.8 2 .8 2.8 0 .8-.8.8-2 0-2.8s-2-.7-2.8 0c-.8.8.8-.7 0 0z"/></g><g><path class="st1" d="M353 368l11.7-11.4"/><ellipse transform="rotate(-44.048 364.633 356.715)" class="st2" cx="364.7" cy="356.7" rx="2.3" ry="2.3"/><path class="st3" d="M366.4 358.6c-1 1-2.6 1-3.6-.1s-1-2.6.1-3.6c1-1 2.6-1 3.6.1s.9 2.6-.1 3.6 1-1 0 0zm-3.1-3.3c-.8.7-.8 2 0 2.8.8.8 2 .8 2.8 0 .8-.8.8-2 0-2.8s-2-.7-2.8 0c-.8.8.8-.7 0 0z"/></g><g><path class="st1" d="M365 345.1l8.9-8.6c.6-.5 1.7-1 2.4-1H399c.8 0 1.9.4 2.4 1l5.1 4.9"/><ellipse transform="rotate(-45.952 406.442 341.34)" class="st2" cx="406.5" cy="341.4" rx="2.3" ry="2.3"/><path class="st3" d="M404.7 343.2c-1-1-1-2.6-.1-3.6s2.6-1 3.6-.1 1 2.6.1 3.6c-1 1.1-2.6 1.1-3.6.1s1 1 0 0zm3.1-3.2c-.8-.8-2-.7-2.8 0-.8.8-.7 2 0 2.8.8.8 2 .7 2.8 0s.8-2.1 0-2.8c-.7-.8.8.7 0 0z"/></g><g><path class="st1" d="M375.7 352.5l5.5-5.3c.6-.5 1.7-1 2.4-1h10.6"/><circle class="st2" cx="394.2" cy="346.2" r="2.3"/><path class="st3" d="M394.2 348.7c-1.4 0-2.6-1.1-2.6-2.6s1.1-2.6 2.6-2.6 2.6 1.1 2.6 2.6-1.2 2.6-2.6 2.6 1.4 0 0 0zm0-4.5c-1.1 0-2 .9-2 2s.9 2 2 2 2-.9 2-2-1-2-2-2 1 0 0 0z"/></g><g><path class="st1" d="M384 355.8h12.1c.8 0 1.9.4 2.4 1l1.6 1.6"/><ellipse transform="rotate(-45.952 400.127 358.202)" class="st2" cx="400.2" cy="358.2" rx="2.3" ry="2.3"/><path class="st3" d="M398.4 360.1c-1-1-1-2.6-.1-3.6s2.6-1 3.6-.1c1 1 1 2.6.1 3.6s-2.6 1-3.6.1c-1-1 1 .9 0 0zm3.1-3.3c-.8-.7-2-.7-2.8 0s-.7 2 0 2.8c.8.8 2 .7 2.8 0 .8-.8.8-2 0-2.8-.8-.7.8.8 0 0z"/></g><g><path class="st1" d="M363 326.6l7.1-6.9c.6-.5 1.7-1 2.4-1h26.2c.8 0 1.9-.4 2.4-1l15.1-14.6c.6-.5 1-1.6 1-2.4v-18.8c0-.8.5-1.9 1-2.4l2-2"/><ellipse transform="rotate(-44.048 420.293 277.618)" class="st2" cx="420.3" cy="277.6" rx="2.3" ry="2.3"/><path class="st3" d="M422.1 279.5c-1 1-2.6 1-3.6-.1-1-1-1-2.6.1-3.6 1-1 2.6-1 3.6.1s.9 2.6-.1 3.6 1-1 0 0zm-3.1-3.3c-.8.7-.8 2 0 2.8s2 .8 2.8 0c.8-.8.8-2 0-2.8s-2.1-.7-2.8 0c-.8.8.7-.7 0 0z"/></g><g><path class="st1" d="M405.5 313.6h12c.8 0 1.9-.4 2.4-1l6.7-6.5"/><ellipse transform="rotate(-44.048 426.518 306.193)" class="st2" cx="426.5" cy="306.2" rx="2.3" ry="2.3"/><path class="st3" d="M428.3 308c-1 1-2.6 1-3.6-.1s-1-2.6.1-3.6c1-1 2.6-1 3.6.1 1 1 .9 2.7-.1 3.6-1 1 1-.9 0 0zm-3.1-3.2c-.8.7-.8 2 0 2.8.7.8 2 .8 2.8 0 .8-.8.8-2 0-2.8s-2-.7-2.8 0c-.8.8.8-.7 0 0z"/></g><g><path class="st1" d="M410.3 313.6l15.7 15.2"/><ellipse transform="rotate(-45.952 425.906 328.739)" class="st2" cx="425.9" cy="328.8" rx="2.3" ry="2.3"/><path class="st3" d="M424.2 330.6c-1-1-1-2.6-.1-3.6s2.6-1 3.6-.1c1 1 1 2.6.1 3.6-1 1-2.6 1.1-3.6.1-1.1-1 1 1 0 0zm3.1-3.2c-.8-.8-2-.7-2.8 0s-.7 2 0 2.8c.8.8 2 .7 2.8 0s.8-2.1 0-2.8c-.8-.8.8.7 0 0z"/></g><g><path class="st1" d="M385 385.7h19.7c.8 0 1.9-.4 2.4-1l24.5-23.7c.6-.5 1-1.6 1-2.4v-4.4c0-.8.5-1.9 1-2.4l4.7-4.5"/><ellipse transform="rotate(-44.053 438.26 347.334)" class="st2" cx="438.3" cy="347.3" rx="2.3" ry="2.3"/><path class="st3" d="M440.1 349.2c-1 1-2.6 1-3.6-.1s-1-2.6.1-3.6c1-1 2.6-1 3.6.1s.9 2.6-.1 3.6c-1 .9 1-1 0 0zm-3.2-3.3c-.8.8-.8 2 0 2.8s2 .8 2.8 0c.8-.8.8-2 0-2.8s-2-.7-2.8 0c-.7.8.8-.7 0 0z"/></g><g><path class="st1" d="M423.9 368.8h8.5c.8 0 1.9-.4 2.4-1l11.9-11.5"/><ellipse transform="rotate(-44.048 446.603 356.382)" class="st2" cx="446.6" cy="356.4" rx="2.3" ry="2.3"/><path class="st3" d="M448.4 358.2c-1 1-2.6 1-3.6-.1s-1-2.6.1-3.6c1-1 2.6-1 3.6.1s.9 2.7-.1 3.6c-1 1 1-.9 0 0zm-3.1-3.2c-.8.8-.8 2 0 2.8s2 .8 2.8 0c.8-.8.8-2 0-2.8s-2.1-.8-2.8 0 .7-.8 0 0z"/></g><g><path class="st1" d="M412.1 380.5h26.2c.8 0 1.9-.4 2.4-1l10-9.7"/><ellipse transform="rotate(-44.048 450.606 369.896)" class="st2" cx="450.6" cy="369.9" rx="2.3" ry="2.3"/><path class="st3" d="M452.4 371.8c-1 1-2.6 1-3.6-.1s-1-2.6.1-3.6c1-1 2.6-1 3.6.1s.9 2.6-.1 3.6c-1 .9 1-1 0 0zm-3.1-3.3c-.8.7-.8 2 0 2.8.8.8 2 .8 2.8 0 .8-.8.8-2 0-2.8s-2.1-.7-2.8 0c-.8.8.7-.7 0 0z"/></g><g><path class="st1" d="M384.6 394.9h27.8c.8 0 1.9-.4 2.4-1l3.3-3.2c.6-.5 1.7-1 2.4-1H465"/><circle class="st2" cx="464.9" cy="389.7" r="2.3"/><path class="st3" d="M464.9 392.2c-1.4 0-2.6-1.1-2.6-2.6s1.1-2.6 2.6-2.6c1.4 0 2.6 1.1 2.6 2.6s-1.1 2.6-2.6 2.6c-1.4 0 1.5 0 0 0zm0-4.5c-1.1 0-2 .9-2 2s.9 2 2 2 2-.9 2-2-.9-2-2-2c-1 0 1.1 0 0 0z"/></g><g><path class="st1" d="M401.4 394.9l10.4 10c.6.5 1.7 1 2.4 1h40.7"/><circle class="st2" cx="454.8" cy="405.9" r="2.3"/><path class="st3" d="M454.8 408.5c-1.4 0-2.6-1.1-2.6-2.6s1.1-2.6 2.6-2.6 2.6 1.1 2.6 2.6-1.2 2.6-2.6 2.6 1.4 0 0 0zm0-4.6c-1.1 0-2 .9-2 2s.9 2 2 2 2-.9 2-2-.9-2-2-2 1.1 0 0 0z"/></g><g><path class="st1" d="M421.2 406l7.6-7.4c.6-.5 1.7-1 2.4-1h19.4"/><circle class="st2" cx="450.6" cy="397.6" r="2.3"/><path class="st3" d="M450.6 400.2c-1.4 0-2.6-1.1-2.6-2.6s1.1-2.6 2.6-2.6c1.4 0 2.6 1.1 2.6 2.6s-1.2 2.6-2.6 2.6c-1.4 0 1.4 0 0 0zm0-4.5c-1.1 0-2 .9-2 2s.9 2 2 2 2-.9 2-2-1-2-2-2c-1.1 0 1 0 0 0z"/></g><g><path class="st1" d="M431.9 405.9l10.9 10.5c.6.5 1.7 1 2.4 1h3"/><circle class="st2" cx="448.1" cy="417.4" r="2.3"/><path class="st3" d="M448.1 420c-1.4 0-2.6-1.1-2.6-2.6s1.1-2.6 2.6-2.6 2.6 1.1 2.6 2.6-1.2 2.6-2.6 2.6 1.4 0 0 0zm0-4.5c-1.1 0-2 .9-2 2s.9 2 2 2 2-.9 2-2-1-2-2-2 1 0 0 0z"/></g><g><path class="st1" d="M349.2 492.6l5.6 5.4c.6.5 1.7 1 2.4 1h43.5c.8 0 1.9.4 2.4 1l7 6.7"/><ellipse transform="rotate(-45.952 410.054 506.64)" class="st2" cx="410.1" cy="506.7" rx="2.3" ry="2.3"/><path class="st3" d="M408.3 508.5c-1-1-1-2.6-.1-3.6 1-1 2.6-1 3.6-.1 1 1 1 2.6.1 3.6s-2.6 1.1-3.6.1 1 1 0 0zm3.1-3.2c-.8-.7-2-.7-2.8 0s-.7 2 0 2.8c.8.8 2 .7 2.8 0 .8-.8.8-2.1 0-2.8-.7-.8.8.7 0 0z"/></g><g><path class="st1" d="M370.2 498.8l11.6-11.2c.6-.5 1.7-1 2.4-1h12.4c.8 0 1.9-.4 2.4-1l5-4.9"/><ellipse transform="rotate(-44.048 404.086 480.784)" class="st2" cx="404.1" cy="480.8" rx="2.3" ry="2.3"/><path class="st3" d="M405.9 482.6c-1 1-2.6 1-3.6-.1-1-1-1-2.6.1-3.6 1-1 2.6-1 3.6.1.9 1 .9 2.7-.1 3.6s1-.9 0 0zm-3.2-3.2c-.8.7-.8 2 0 2.8.8.8 2 .8 2.8 0 .8-.8.8-2 0-2.8s-2-.7-2.8 0c-.7.8.8-.7 0 0z"/></g><g><path class="st1" d="M378.1 491.5h32.6c.8 0 1.9.4 2.4 1l3.9 3.7"/><ellipse transform="rotate(-45.952 416.85 496.078)" class="st2" cx="416.9" cy="496.1" rx="2.3" ry="2.3"/><path class="st3" d="M415.1 497.9c-1-1-1-2.6-.1-3.6s2.6-1 3.6-.1c1 1 1 2.6.1 3.6s-2.6 1.1-3.6.1c-1-.9 1 1 0 0zm3.1-3.2c-.8-.8-2-.7-2.8 0-.8.8-.7 2 0 2.8.8.8 2 .7 2.8 0s.8-2 0-2.8c-.7-.7.8.8 0 0z"/></g><g><path class="st1" d="M344.7 496.9l23.3 22.6c.6.5 1.7 1 2.4 1h44.7c.8 0 1.9.4 2.4 1l.1.1"/><ellipse transform="rotate(-45.952 417.646 521.433)" class="st2" cx="417.7" cy="521.5" rx="2.3" ry="2.3"/><path class="st3" d="M415.9 523.3c-1-1-1-2.6-.1-3.6 1-1 2.6-1 3.6-.1 1 1 1 2.6.1 3.6-1 1.1-2.6 1.1-3.6.1s1 1 0 0zm3.1-3.2c-.8-.8-2-.7-2.8 0-.8.8-.7 2 0 2.8.8.8 2 .7 2.8 0s.8-2.1 0-2.8c-.7-.8.8.7 0 0z"/></g><g><path class="st1" d="M369.9 499v8c0 .8.6 1.4 1.4 1.4h20.3c.8 0 1.9.4 2.4 1l1.3 1.3"/><ellipse transform="rotate(-45.952 395.213 510.626)" class="st2" cx="395.2" cy="510.7" rx="2.3" ry="2.3"/><path class="st3" d="M393.5 512.5c-1-1-1-2.6-.1-3.6 1-1 2.6-1 3.6-.1 1 1 1 2.6.1 3.6-1 1-2.6 1.1-3.6.1s1 1 0 0zm3.1-3.2c-.8-.7-2-.7-2.8 0s-.7 2 0 2.8c.8.8 2 .7 2.8 0s.8-2.1 0-2.8c-.8-.8.8.7 0 0z"/></g><g><path class="st1" d="M373.2 520.6v5.4c0 .8.5 1.9 1 2.4l1.6 1.6"/><ellipse transform="rotate(-45.952 375.74 529.745)" class="st2" cx="375.8" cy="529.8" rx="2.3" ry="2.3"/><path class="st3" d="M374 531.6c-1-1-1-2.6-.1-3.6 1-1 2.6-1 3.6-.1 1 1 1 2.6.1 3.6-1 1.1-2.6 1.1-3.6.1s1 1 0 0zm3.1-3.2c-.8-.7-2-.7-2.8 0s-.7 2 0 2.8c.8.8 2 .7 2.8 0 .8-.8.8-2.1 0-2.8-.8-.8.8.7 0 0z"/></g><g><path class="st1" d="M380.9 520.6l8.2 7.8"/><ellipse transform="rotate(-45.952 388.932 528.316)" class="st2" cx="389" cy="528.4" rx="2.3" ry="2.3"/><path class="st3" d="M387.2 530.2c-1-1-1-2.6-.1-3.6 1-1 2.6-1 3.6-.1 1 1 1 2.6.1 3.6-1 1-2.6 1.1-3.6.1s1 1 0 0zm3.1-3.3c-.8-.8-2-.7-2.8 0s-.7 2 0 2.8c.8.8 2 .7 2.8 0s.8-2 0-2.8c-.8-.7.8.8 0 0z"/></g><g><path class="st1" d="M323.3 540.3l18.7 18.1c.6.5 1 1.6 1 2.4v4"/><circle class="st2" cx="343.1" cy="564.7" r="2.3"/><path class="st3" d="M340.5 564.7c0-1.4 1.1-2.6 2.6-2.6s2.6 1.1 2.6 2.6c0 1.4-1.1 2.6-2.6 2.6s-2.6-1.2-2.6-2.6c0-1.4 0 1.4 0 0zm4.5 0c0-1.1-.9-2-2-2s-2 .9-2 2 .9 2 2 2 2-.9 2-2 0 1.1 0 0z"/></g><g><path class="st1" d="M336.2 552.3h5.4c.8 0 1.9.4 2.4 1l6.4 6.2c.6.5 1 1.6 1 2.4v4.2"/><circle class="st2" cx="351.5" cy="566" r="2.3"/><path class="st3" d="M349 566c0-1.4 1.1-2.6 2.6-2.6s2.6 1.1 2.6 2.6c0 1.4-1.1 2.6-2.6 2.6s-2.6-1.2-2.6-2.6c0-1.4 0 1.4 0 0zm4.5 0c0-1.1-.9-2-2-2s-2 .9-2 2 .9 2 2 2 2-.9 2-2 0 1.1 0 0z"/></g><g><path class="st1" d="M360 562.8h25.5c.8 0 1.9-.4 2.4-1l18.3-17.7"/><ellipse transform="rotate(-44.053 406.085 544.19)" class="st2" cx="406.1" cy="544.2" rx="2.3" ry="2.3"/><path class="st3" d="M407.9 546c-1 1-2.6 1-3.6-.1-1-1-1-2.6.1-3.6s2.6-1 3.6.1c.9 1 .9 2.7-.1 3.6-1 1 1-.9 0 0zm-3.1-3.2c-.8.8-.8 2 0 2.8s2 .8 2.8 0c.8-.8.8-2 0-2.8s-2.1-.8-2.8 0c-.8.7.7-.8 0 0z"/></g><g><path class="st1" d="M391.7 558.2v-8c0-.8.5-1.9 1-2.4l5.1-5"/><ellipse transform="rotate(-44.048 397.706 542.846)" class="st2" cx="397.7" cy="542.9" rx="2.3" ry="2.3"/><path class="st3" d="M399.5 544.7c-1 1-2.6 1-3.6-.1-1-1-1-2.6.1-3.6 1-1 2.6-1 3.6.1.9 1 .9 2.6-.1 3.6s1-1 0 0zm-3.1-3.2c-.8.8-.8 2 0 2.8s2 .8 2.8 0c.8-.8.8-2 0-2.8-.8-.8-2.1-.8-2.8 0-.8.7.7-.8 0 0z"/></g><g><path class="st1" d="M373.8 562.8V548c0-.8.5-1.9 1-2.4l3.9-3.8"/><ellipse transform="rotate(-44.048 378.59 541.92)" class="st2" cx="378.6" cy="541.9" rx="2.3" ry="2.3"/><path class="st3" d="M380.4 543.8c-1 1-2.6 1-3.6-.1s-1-2.6.1-3.6c1-1 2.6-1 3.6.1.9 1 .9 2.6-.1 3.6s1-1 0 0zm-3.2-3.3c-.8.7-.8 2 0 2.8s2 .8 2.8 0c.8-.8.8-2 0-2.8s-2-.7-2.8 0c-.7.8.8-.7 0 0z"/></g><g><path class="st1" d="M374.3 553.7h4.3c.8 0 1.9-.4 2.4-1l8-7.7"/><ellipse transform="rotate(-44.048 388.871 545.07)" class="st2" cx="388.9" cy="545.1" rx="2.3" ry="2.3"/><path class="st3" d="M390.7 546.9c-1 1-2.6 1-3.6-.1-1-1-1-2.6.1-3.6 1-1 2.6-1 3.6.1.9 1 .9 2.7-.1 3.6-1 1 1-.9 0 0zm-3.2-3.2c-.8.8-.8 2 0 2.8s2 .8 2.8 0c.8-.8.8-2 0-2.8s-2-.8-2.8 0c-.7.7.8-.8 0 0z"/></g><g><path class="st1" d="M343.9 577.5v16.9c0 .8.5 1.9 1 2.4l6.4 6.2c.6.5 1 1.6 1 2.4v11.1"/><circle class="st2" cx="352.3" cy="616.4" r="2.3"/><path class="st3" d="M349.8 616.4c0-1.4 1.1-2.6 2.6-2.6 1.4 0 2.6 1.1 2.6 2.6s-1.1 2.6-2.6 2.6-2.6-1.2-2.6-2.6 0 1.4 0 0zm4.5 0c0-1.1-.9-2-2-2s-2 .9-2 2 .9 2 2 2 2-.9 2-2 0 1.1 0 0z"/></g><g><path class="st1" d="M343.9 615.6v9.5c0 .8.5 1.9 1 2.4l.3.3"/><ellipse transform="rotate(-45.952 345.094 627.63)" class="st2" cx="345.1" cy="627.7" rx="2.3" ry="2.3"/><path class="st3" d="M343.3 629.5c-1-1-1-2.6-.1-3.6 1-1 2.6-1 3.6-.1 1 1 1 2.6.1 3.6-.9 1.1-2.5 1.1-3.6.1-1-1 1.1 1 0 0zm3.2-3.2c-.8-.7-2-.7-2.8 0s-.7 2 0 2.8c.8.8 2 .7 2.8 0s.8-2.1 0-2.8c-.8-.8.8.7 0 0z"/></g><g><path class="st1" d="M346.6 598.2l-3.9 3.8"/><ellipse transform="rotate(-44.048 342.815 601.854)" class="st2" cx="342.8" cy="601.9" rx="2.3" ry="2.3"/><path class="st3" d="M341.1 600.1c1-1 2.6-1 3.6.1 1 1 1 2.6-.1 3.6-1 1-2.6 1-3.6-.1-1-1-1-2.7.1-3.6 1-1-1.1.9 0 0zm3.1 3.2c.8-.8.8-2 0-2.8s-2-.8-2.8 0c-.8.8-.8 2 0 2.8.8.7 2 .7 2.8 0 .8-.8-.8.7 0 0z"/></g><g><path class="st1" d="M356 573.2l6.8 6.6c.6.5 1 1.6 1 2.4v.2"/><circle class="st2" cx="363.9" cy="582.3" r="2.3"/><path class="st3" d="M361.3 582.3c0-1.4 1.1-2.6 2.6-2.6s2.6 1.1 2.6 2.6-1.1 2.6-2.6 2.6-2.6-1.2-2.6-2.6 0 1.4 0 0zm4.5 0c0-1.1-.9-2-2-2s-2 .9-2 2 .9 2 2 2 2-.9 2-2 0 1.1 0 0z"/></g><g><path class="st1" d="M357.8 575.1h39c.8 0 1.9.4 2.4 1l2.1 2"/><ellipse transform="rotate(-45.952 401.132 577.926)" class="st2" cx="401.2" cy="578" rx="2.3" ry="2.3"/><path class="st3" d="M399.4 579.8c-1-1-1-2.6-.1-3.6s2.6-1 3.6-.1c1 1 1 2.6.1 3.6-1 1.1-2.6 1.1-3.6.1s1 1 0 0zm3.1-3.2c-.8-.8-2-.7-2.8 0s-.7 2 0 2.8c.8.8 2 .7 2.8 0s.8-2.1 0-2.8c-.8-.8.8.7 0 0z"/></g><g><path class="st1" d="M402.7 576.3h3.2c.8 0 1.9-.4 2.4-1l3.9-3.7"/><ellipse transform="rotate(-44.048 412.105 571.636)" class="st2" cx="412.1" cy="571.7" rx="2.3" ry="2.3"/><path class="st3" d="M413.9 573.5c-1 1-2.6 1-3.6-.1-1-1-1-2.6.1-3.6 1-1 2.6-1 3.6.1s.9 2.6-.1 3.6 1-1 0 0zm-3.1-3.2c-.8.8-.8 2 0 2.8s2 .8 2.8 0c.8-.8.8-2 0-2.8s-2.1-.8-2.8 0c-.8.7.7-.8 0 0z"/></g><g><path class="st1" d="M217 567l-3.9 3.8c-.6.5-1 1.6-1 2.4v7.4"/><circle class="st2" cx="212.1" cy="580.4" r="2.3"/><path class="st3" d="M209.5 580.4c0-1.4 1.1-2.6 2.6-2.6s2.6 1.1 2.6 2.6-1.1 2.6-2.6 2.6-2.6-1.2-2.6-2.6 0 1.4 0 0zm4.5 0c0-1.1-.9-2-2-2s-2 .9-2 2 .9 2 2 2 2-.9 2-2 0 1.1 0 0z"/></g><g><path class="st1" d="M204.8 565.4v16.7"/><circle class="st2" cx="204.8" cy="581.9" r="2.3"/><path class="st3" d="M202.2 581.9c0-1.4 1.1-2.6 2.6-2.6s2.6 1.1 2.6 2.6c0 1.4-1.1 2.6-2.6 2.6s-2.6-1.1-2.6-2.6c0-1.4 0 1.5 0 0zm4.5 0c0-1.1-.9-2-2-2s-2 .9-2 2 .9 2 2 2c1.2 0 2-.9 2-2 0-1 0 1.1 0 0z"/></g><g><path class="st1" d="M249.8 607.4v2.3c0 .8.5 1.9 1 2.4l9 8.7"/><ellipse transform="rotate(-45.952 259.762 620.725)" class="st2" cx="259.8" cy="620.8" rx="2.3" ry="2.3"/><path class="st3" d="M258 622.6c-1-1-1-2.6-.1-3.6 1-1 2.6-1 3.6-.1 1 1 1 2.6.1 3.6-1 1.1-2.6 1.1-3.6.1s1 1 0 0zm3.1-3.2c-.8-.8-2-.7-2.8 0s-.7 2 0 2.8c.8.8 2 .7 2.8 0s.8-2.1 0-2.8c-.7-.8.8.7 0 0z"/></g><g><path class="st1" d="M211.8 536.4v10.8"/><circle class="st2" cx="211.8" cy="547.1" r="2.3"/><path class="st3" d="M209.3 547.1c0-1.4 1.1-2.6 2.6-2.6s2.6 1.1 2.6 2.6c0 1.4-1.1 2.6-2.6 2.6s-2.6-1.2-2.6-2.6c0-1.4 0 1.4 0 0zm4.5 0c0-1.1-.9-2-2-2s-2 .9-2 2 .9 2 2 2 2-.9 2-2 0 1.1 0 0z"/></g><ellipse class="st5" cx="106.1" cy="422.4" rx="4.6" ry="4.4"/><ellipse class="st5" cx="50.7" cy="337.1" rx="4.6" ry="4.4"/><ellipse class="st5" cx="111.9" cy="316.4" rx="4.6" ry="4.4"/><ellipse class="st5" cx="394.8" cy="39.9" rx="4.6" ry="4.4"/><ellipse class="st5" cx="380.1" cy="249.6" rx="4.6" ry="4.4"/><ellipse class="st5" cx="284.6" cy="222.2" rx="4.6" ry="4.4"/><ellipse class="st5" cx="410.9" cy="124.2" rx="4.6" ry="4.4"/><ellipse class="st5" cx="468.8" cy="4.4" rx="4.6" ry="4.4"/><ellipse class="st5" cx="133.1" cy="406" rx="4.6" ry="4.4"/><ellipse class="st5" cx="76.9" cy="441.1" rx="4.6" ry="4.4"/><ellipse class="st5" cx="102.4" cy="518.1" rx="4.6" ry="4.4"/><ellipse class="st5" cx="17.1" cy="545.2" rx="4.6" ry="4.4"/><ellipse class="st5" cx="14.7" cy="593.7" rx="4.6" ry="4.4"/><ellipse class="st5" cx="47.8" cy="615.6" rx="4.6" ry="4.4"/><ellipse class="st5" cx="102.6" cy="595.7" rx="4.6" ry="4.4"/><ellipse class="st5" cx="42.2" cy="532.4" rx="4.6" ry="4.4"/><ellipse class="st5" cx="161.4" cy="525.9" rx="4.6" ry="4.4"/><ellipse class="st5" cx="225.9" cy="524.7" rx="4.6" ry="4.4"/><ellipse class="st5" cx="272.3" cy="360.8" rx="4.6" ry="4.4"/><ellipse class="st5" cx="361" cy="331.1" rx="4.6" ry="4.4"/><ellipse class="st5" cx="393" cy="282" rx="4.6" ry="4.4"/><ellipse class="st5" cx="450.1" cy="262.2" rx="4.6" ry="4.4"/><ellipse class="st5" cx="468.6" cy="362.2" rx="4.6" ry="4.4"/><ellipse class="st5" cx="397.6" cy="414.6" rx="4.6" ry="4.4"/><ellipse class="st5" cx="367.6" cy="443.8" rx="4.6" ry="4.4"/><ellipse class="st5" cx="318.2" cy="450.8" rx="4.6" ry="4.4"/><ellipse class="st5" cx="359.5" cy="461.6" rx="4.6" ry="4.4"/><ellipse class="st5" cx="281" cy="448" rx="4.6" ry="4.4"/><ellipse class="st5" cx="287.5" cy="504.9" rx="4.6" ry="4.4"/><ellipse class="st5" cx="198.8" cy="504.9" rx="4.6" ry="4.4"/><ellipse class="st5" cx="472.2" cy="413.5" rx="4.6" ry="4.4"/><ellipse class="st5" cx="501.8" cy="504.1" rx="4.6" ry="4.4"/><ellipse class="st5" cx="435.1" cy="518.1" rx="4.6" ry="4.4"/><ellipse class="st5" cx="355.4" cy="485.9" rx="4.6" ry="4.4"/><ellipse class="st5" cx="290.3" cy="377.4" rx="4.6" ry="4.4"/><ellipse class="st5" cx="189.7" cy="428.1" rx="4.6" ry="4.4"/><ellipse class="st5" cx="207.1" cy="380.5" rx="4.6" ry="4.4"/><ellipse class="st5" cx="245.7" cy="352.5" rx="4.6" ry="4.4"/><ellipse class="st5" cx="438.4" cy="494.2" rx="4.6" ry="4.4"/><ellipse class="st5" cx="359.5" cy="545.9" rx="4.6" ry="4.4"/><ellipse class="st5" cx="410.9" cy="532.4" rx="4.6" ry="4.4"/><ellipse class="st5" cx="427.1" cy="342.8" rx="4.6" ry="4.4"/><ellipse class="st5" cx="381.3" cy="359.3" rx="4.6" ry="4.4"/><ellipse class="st5" cx="392.3" cy="373.5" rx="4.6" ry="4.4"/><ellipse class="st5" cx="345.4" cy="359.9" rx="4.6" ry="4.4"/><ellipse class="st5" cx="324.6" cy="587.4" rx="4.6" ry="4.4"/><ellipse class="st5" cx="367.6" cy="606.9" rx="4.6" ry="4.4"/><ellipse class="st5" cx="398.2" cy="567.3" rx="4.6" ry="4.4"/><ellipse class="st5" cx="267.8" cy="547.3" rx="4.6" ry="4.4"/><g><path class="st6" d="M157.1 396.7h26.3v25.4h-26.3z"/><path class="st7" d="M159.1 398.7h22.3v21.5h-22.3z"/></g></svg>