<svg id="Layer_1" xmlns="http://www.w3.org/2000/svg" width="1025" height="768" viewBox="0 0 1025 768"><style>.st0{opacity:.15}.st1,.st2{fill:none;stroke:#fff;stroke-linejoin:round}.st1{stroke-miterlimit:10;stroke-width:4.9398}.st2{stroke-width:2.4699}.st3{fill:#fff}.st4,.st5{fill:none}.st5{opacity:.15;stroke:#fff;stroke-miterlimit:10}</style><g class="st0"><path class="st1" d="M79 196.8H1M1 512.4h64.4c1.9 0 4.6-1.1 6-2.4l9.3-9c1.4-1.3 4.1-2.4 6-2.4h28c1.9 0 4.6-1.1 6-2.4l21.2-20.5c1.4-1.3 3.6-3.5 5-4.9l17-16.5c1.4-1.3 4.1-2.4 6-2.4h9.5c1.9 0 4.6 1.1 6 2.4l18.1 17.3"/><path class="st1" d="M194.7 463.2l-4.6 4.5c-1.4 1.3-2.5 4-2.5 5.9V487c0 1.9 1.1 4.6 2.5 5.9l14.1 13.7c1.4 1.3 4.1 2.4 6 2.4h13.1c1.9 0 4.6 1.1 6 2.4l18.7 18.1c1.4 1.3 2.5 4 2.5 5.9v14.4c0 1.9 1.1 4.6 2.5 5.9l80.4 77.7c1.4 1.3 3.6 3.5 5 4.9l5.9 5.7c1.4 1.3 2.5 4 2.5 5.9v6.2c0 1.9-1.1 4.6-2.5 5.9l-23.6 22.9c-1.4 1.3-1.4 3.5 0 4.9l4.6 4.5c1.4 1.3 4.1 2.4 6 2.4h13.1c1.9 0 4.6-1.1 6-2.4l36.5-35.3c1.4-1.3 1.4-3.5 0-4.9l-15.7-15.2c-1.4-1.3-1.4-3.5 0-4.9l19-18.4c1.4-1.3 3.6-1.3 5 0l17 16.5c1.4 1.3 3.6 1.3 5 0l6.4-6.2c1.4-1.3 1.4-3.5 0-4.9l-47.7-46.1c-1.4-1.3-4.1-2.4-6-2.4h-15.1c-1.9 0-4.6-1.1-6-2.4l-26.7-25.7"/><path class="st1" d="M340.9 562.3v-31.7c0-1.9-1.1-4.6-2.5-5.9l-12.5-12.1c-1.4-1.3-4.1-2.6-6-2.8l-7.3-.8c-1.9-.2-4.6-1.5-6-2.8L271.4 472c-1.4-1.3-2.5-4-2.5-5.9v-15.3c0-1.9 1.1-4.6 2.5-5.9l4-3.9c1.4-1.3 2.5-4 2.5-5.9v-3c0-1.9 1.1-4.6 2.5-5.9l5.3-5.1c1.4-1.3 4.1-2.4 6-2.4h8.8c1.9 0 4.6 1.1 6 2.4l28.6 27.6c1.4 1.3 2.5 4 2.5 5.9v12.7c0 1.9 1.1 4.6 2.5 5.9l34 32.8c1.4 1.3 3.6 3.5 5 4.9l68.2 66c1.4 1.3 2.5 4 2.5 5.9v23c0 1.9-1.1 4.6-2.5 5.9l-5 4.9c-1.4 1.3-1.4 3.5 0 4.8l5.8 5.4M449.9 594.6l30.9 29.9c1.4 1.3 2.5 4 2.5 5.9v16c0 1.9-1.1 4.6-2.5 5.9l-1.7 1.6c-1.4 1.3-2.5 4-2.5 5.9v9.8c0 1.9.1 3.4.3 3.2.1-.1 1.4.8 2.8 2.2l9.5 9.2c1.4 1.3 4.1 2.4 6 2.4h16.5c1.9 0 3.5 1.6 3.5 3.5v9.2c0 1.9-1.6 3.5-3.5 3.5h-29.5c-1.9 0-2.4 1.1-1 2.4l9.1 8.8c1.4 1.3 2.5 4 2.5 5.9v14.3c0 1.9 1.1 4.6 2.5 5.9l6.8 6.6c1.4 1.3 4.1 2.4 6 2.4h24.3c1.9 0 2.4-1.1 1-2.4l-13.6-13.1c-1.4-1.3-.9-2.4 1-2.4h13c1.9 0 3.5-1.6 3.5-3.5v-6.9c0-1.9 1.1-4.6 2.5-5.9l4.7-4.6c1.4-1.3 4.1-2.4 6-2.4h7.9c1.9 0 3.5-1.6 3.5-3.5v-11.2M247.8-1.6h20.4c1.9 0 3.5 1.6 3.5 3.5v28.3c0 1.9-1.1 2.4-2.5 1.1l-10.1-9.8c-1.4-1.3-3.6-1.3-5 0l-11 10.7c-1.4 1.3-1.4 3.5 0 4.8l10.2 9.7M90.1 232v-99.2c0-1.9 1.1-4.6 2.5-5.9l32.3-31.2c1.4-1.3 4.1-2.4 6-2.4h59.9c1.9 0 4.6-1.1 6-2.4l26.3-25.5c1.4-1.3 2.5-4 2.5-5.9V22.6c0-1.9-1.1-4.6-2.5-5.9L202-3.8M79 181H20.4c-1.2 0-2.8-.7-3.6-1.5L3.1 166.3M495.7 69.3l-14.4-13.9c-1.4-1.3-4.1-2.4-6-2.4h-41.5c-1.9 0-4.6 1.1-6 2.4l-32.3 31.3c-1.4 1.3-4.1 2.4-6 2.4h-32.6c-1.9 0-4.6 1.1-6 2.4l-5.2 5c-1.4 1.3-4.1 2.4-6 2.4h-47c-1.9 0-4.6-1.1-6-2.4l-9.5-9.2M545.4 12v27.6c0 1.9-1.1 4.6-2.5 5.9l-24.6 23.8"/><path class="st1" d="M91 182.1h84.6c1.9 0 4.6-1.1 6-2.4L287.9 76.8c1.4-1.3 2.5-2.5 2.5-2.6s1.6-.2 3.5-.2h21.6"/><path class="st1" d="M121.1 182.1l18.2-17.6c1.4-1.3 2.5-4 2.5-5.9v-8.7c0-1.9 1.1-4.6 2.5-5.9l13.7-13.1M362.3 399.5l18.3 17.7-7.5 6.9M166.4 328.8h12.9l24.6 23.8H284l30.5-29.5 17.2-16.6-50.6-49 18.7-18.1v-7h52.4l18.9-18.3V126"/><path class="st1" d="M145 393h21.4l9.9-9.5 15.1 14.6 16.4-15.8 15.3 14.8 21.3-20.5H282l23.7 22.9h69.5l45.1-43.6v-44.2h-22.2l-36.2-35.1-5.8 5.5M91 197.6h33.2l21.8 21-15.7 14.7M371.1 214.1h14.6l18.2 17.7v22.4h19.9l31.4 30.3-5.7 5"/><path class="st1" d="M439.9 269h24.6l18.3 17.7 12.3 11.9h48.5l12 11.6-6 5.4M420.3 342.9h19.1l23.7-23h36.6l43 41.6h87.6l27.4-26.5h41.9l37.1 35.9V395M387.7 389.5l28.9 27.9h80.8l27.2-25.8M449.9 419.4v32.9l8.2 7.9v48.3l24.9 24.1 10.7-10.3 30.8 29.8h13.2v40.2H630"/><path class="st1" d="M458.1 481.7l-30.2-29.3h-90.2"/><path class="st1" d="M368.4 452.4v14.7l43.7 42.2v31.9M461.6 509.3l-43.4 42M441.5 571.2v-24.8H467l19.2 18.6v31.8l12.5 12.1h24.9l15.8-15.3"/><path class="st1" d="M492.8 603.1V620l-8.4 8.1M485.7 418.5l66 63.9v17.1l10.1 9.8h78.3l11.9-11.5h5.5"/><path class="st1" d="M537.4 468.6v28.2l-8.7 8.4 17 16.4M513.3 80.7l12.6 11.9h64.4l13.7 13.2v53.6l-4.9 4.7-13.5 13.1h19.3V201l-8.4 8.1v36.7l-27.4 26.3M686.3 13.7l11.6 11.4M686.1 1v59.4L639 106h-4.5M545.7 30.8l24.1 23.4h25.6V60M813.5 213.5L793.1 233h-62.2l-27.4-26.5h-56M673.3 335v39.6l38.1 36.9-16.9 16.3v27l7.1 6.8H718M735.5 454.5l31.5-30.2h42.4l24.3 23.5-18.3 17.6 19.9 19.2-11.9 11.5v16.2h38.1l16.7-16.2H914V484h-36.7l-12.9-12.5v-49.4l29.3-28.4h43.2l21.2 20.6"/><path class="st1" d="M537.3 726.2V674l-7.5-12.3v-39.6l19.3 18.7h18v-26.6h57l15.8 15.3h15.4l20.2-19.6h39v.3l-31.7-30.7h-22.7v-25.6l38.7-37.5v-26.1H740l24-23.3v-38.4M831.7 204.9h40.8l17.5 17v22.9l11.9 11.5v22.2h52l45.7 44.2h17.8v69.6h-36.6l-13.7 13.3-23.7 22.9H905M846.6-.4l-63 62.3v24.6l17.5 16 37.6 36.4V156l-10.2 9.9h-25.7v39h6.2M254.9 689.9c-1.4 1.4-1.3 3.6.1 4.9l45 43.6c1.4 1.3 3.6 1.3 5 0l17.7-17.1c1.4-1.3 1.4-3.5 0-4.9l-17.1-16.6c-1.4-1.3-2.5-4-2.5-5.9v-6.5c0-1.9-1.6-3.5-3.5-3.5h-35.2c-1.9 0-4.6 1.1-6 2.5l-3.5 3.5zM78.6 1v167.6l-.8 52.6v16.5l42.1 40.8h43l16.7 16.1-13.2 12.7v21.5l-43.3 41.9H145V420"/><path class="st2" d="M61.7 218v24.6c0 1.9 1.1 4.6 2.5 5.9L107 290c1.4 1.3 4.1 2.4 6 2.4h32.4"/><circle class="st3" cx="145.1" cy="292.4" r="5.6"/><path class="st3" d="M145.1 298.7c-3.5 0-6.3-2.8-6.3-6.3s2.8-6.3 6.3-6.3 6.3 2.8 6.3 6.3-2.9 6.3-6.3 6.3c-3.5 0 3.4 0 0 0zm0-11.1c-2.7 0-4.8 2.2-4.8 4.8s2.2 4.8 4.8 4.8c2.7 0 4.8-2.2 4.8-4.8s-2.2-4.8-4.8-4.8c-2.7 0 2.6 0 0 0z"/><path class="st2" d="M74.2 258.2v24.2c0 1.9 1.1 4.6 2.5 5.9l24.8 24c1.4 1.3 4.1 2.4 6 2.4h37.8"/><circle class="st3" cx="145.1" cy="314.9" r="5.6"/><path class="st3" d="M145.1 321.2c-3.5 0-6.3-2.8-6.3-6.3s2.8-6.3 6.3-6.3 6.3 2.8 6.3 6.3-2.9 6.3-6.3 6.3c-3.5 0 3.4 0 0 0zm0-11.2c-2.7 0-4.8 2.2-4.8 4.8s2.2 4.8 4.8 4.8c2.7 0 4.8-2.2 4.8-4.8s-2.2-4.8-4.8-4.8c-2.7 0 2.6 0 0 0z"/><path class="st2" d="M13.1 197v91.9c0 1.9-1.1 4.6-2.5 5.9l-8.8 8.5"/><ellipse transform="rotate(-44.048 1.979 303.175)" class="st3" cx="2" cy="303.2" rx="5.6" ry="5.6"/><path class="st3" d="M-2.4 298.7c2.5-2.4 6.5-2.4 8.9.1s2.4 6.5-.1 8.9c-2.5 2.4-6.5 2.4-8.9-.1-2.5-2.5-2.4-6.5.1-8.9 2.5-2.5-2.5 2.4 0 0zm7.7 8c1.9-1.9 2-4.9.1-6.8s-4.9-2-6.8-.1c-1.9 1.9-2 4.9-.1 6.8s4.9 1.9 6.8.1c2-1.9-1.9 1.8 0 0z"/><path class="st2" d="M7.2 326.9l22.9-22.2c1.4-1.3 2.5-4 2.5-5.9v-72.9c0-1.9 1-4.4 2.1-5.6s3.7-2.1 5.6-2.1H78"/><ellipse transform="rotate(-44.048 7.476 326.616)" class="st3" cx="7.5" cy="326.6" rx="5.6" ry="5.6"/><path class="st3" d="M11.9 331.2c2.5-2.4 2.6-6.4.1-8.9s-6.4-2.6-8.9-.1c-2.5 2.4-2.6 6.4-.1 8.9 2.4 2.4 6.4 2.5 8.9.1 2.5-2.5-2.5 2.4 0 0zm-7.8-8c1.9-1.9 5-1.8 6.8.1s1.8 5-.1 6.8c-1.9 1.9-5 1.8-6.8-.1s-1.8-5 .1-6.8c1.9-1.9-1.9 1.8 0 0z"/><path class="st2" d="M84.8 296.3v23.8c0 1.9 1.1 4.6 2.5 5.9L98 336.3c1.4 1.3 4.1 2.4 6 2.4h18.7"/><circle class="st3" cx="122.3" cy="338.7" r="5.6"/><path class="st3" d="M122.3 345c-3.5 0-6.3-2.8-6.3-6.3s2.8-6.3 6.3-6.3 6.3 2.8 6.3 6.3c.1 3.5-2.8 6.3-6.3 6.3-3.4 0 3.5 0 0 0zm0-11.1c-2.7 0-4.8 2.2-4.8 4.8s2.2 4.8 4.8 4.8c2.7 0 4.8-2.2 4.8-4.8s-2.1-4.8-4.8-4.8c-2.6 0 2.7 0 0 0z"/><path class="st2" d="M16.9 317.5v23"/><circle class="st3" cx="16.9" cy="340.2" r="5.6"/><path class="st3" d="M10.6 340.2c0-3.5 2.8-6.3 6.3-6.3s6.3 2.8 6.3 6.3-2.8 6.3-6.3 6.3-6.3-2.8-6.3-6.3 0 3.5 0 0zm11.1 0c0-2.7-2.2-4.8-4.8-4.8s-4.8 2.2-4.8 4.8c0 2.7 2.2 4.8 4.8 4.8s4.8-2.1 4.8-4.8c0-2.6 0 2.7 0 0z"/><path class="st2" d="M32.7 248.5l19.6 19c1.4 1.3 2.5 4 2.5 5.9v69.8"/><circle class="st3" cx="54.8" cy="342.9" r="5.6"/><path class="st3" d="M48.5 342.9c0-3.5 2.8-6.3 6.3-6.3s6.3 2.8 6.3 6.3-2.8 6.3-6.3 6.3-6.3-2.9-6.3-6.3c0-3.5 0 3.4 0 0zm11.1 0c0-2.7-2.2-4.8-4.8-4.8-2.7 0-4.8 2.2-4.8 4.8 0 2.7 2.2 4.8 4.8 4.8 2.7 0 4.8-2.2 4.8-4.8 0-2.7 0 2.6 0 0z"/><path class="st2" d="M108.4 338.7l-20.1 19.5c-1.4 1.3-2.5 4-2.5 5.9v20c0 1.9 1.6 3.5 3.5 3.5h24.4c1.9 0 3.5 1.6 3.5 3.5v7"/><circle class="st3" cx="117.2" cy="397.8" r="5.6"/><path class="st3" d="M110.9 397.8c0-3.5 2.8-6.3 6.3-6.3s6.3 2.8 6.3 6.3-2.8 6.3-6.3 6.3c-3.4 0-6.3-2.8-6.3-6.3s0 3.5 0 0zm11.2 0c0-2.7-2.2-4.8-4.8-4.8-2.7 0-4.8 2.2-4.8 4.8 0 2.7 2.2 4.8 4.8 4.8 2.6 0 4.8-2.1 4.8-4.8 0-2.6 0 2.7 0 0z"/><path class="st2" d="M16.9 347v92.9"/><circle class="st3" cx="16.9" cy="439.6" r="5.6"/><path class="st3" d="M10.6 439.6c0-3.5 2.8-6.3 6.3-6.3s6.3 2.8 6.3 6.3-2.8 6.3-6.3 6.3-6.3-2.8-6.3-6.3 0 3.5 0 0zm11.1 0c0-2.7-2.2-4.8-4.8-4.8s-4.8 2.2-4.8 4.8c0 2.7 2.2 4.8 4.8 4.8s4.8-2.1 4.8-4.8c0-2.7 0 2.7 0 0z"/><path class="st2" d="M15.9 348.1l41.5 40.8c1.4 1.3 2.5 4 2.5 6V436c0 1.9 1.1 4.6 2.5 5.9l26.1 25.3"/><ellipse transform="rotate(-45.952 88.367 467.004)" class="st3" cx="88.4" cy="467" rx="5.6" ry="5.6"/><path class="st3" d="M84 471.6c-2.5-2.4-2.6-6.4-.1-8.9s6.4-2.6 8.9-.1c2.5 2.4 2.6 6.4.1 8.9-2.4 2.4-6.4 2.5-8.9.1s2.5 2.4 0 0zm7.7-8c-1.9-1.9-5-1.8-6.8.1-1.9 1.9-1.8 5 .1 6.8 1.9 1.9 5 1.8 6.8-.1 1.9-1.9 1.8-5-.1-6.8-1.9-1.9 1.9 1.8 0 0z"/><path class="st2" d="M98.8 387.6V436c0 1.9 1.1 4.6 2.5 5.9l12.7 12.3"/><ellipse transform="rotate(-45.952 113.82 454.048)" class="st3" cx="113.8" cy="454.1" rx="5.6" ry="5.6"/><path class="st3" d="M109.4 458.6c-2.5-2.4-2.6-6.4-.1-8.9s6.4-2.6 8.9-.1c2.5 2.4 2.6 6.4.1 8.9-2.4 2.5-6.4 2.5-8.9.1s2.5 2.4 0 0zm7.8-8c-1.9-1.9-5-1.8-6.8.1-1.9 1.9-1.8 5 .1 6.8 1.9 1.9 5 1.8 6.8-.1 1.9-1.9 1.8-4.9-.1-6.8-1.9-1.8 1.9 1.9 0 0z"/><path class="st2" d="M122.7 198.5H186c1.9 0 4.6-1.1 5.9-2.5l51.2-53.2c1.3-1.4 3.6-3.6 5-4.9L267 120c1.4-1.3 4.1-2.4 6-2.4h69.1"/><circle class="st3" cx="341.8" cy="117.6" r="5.6"/><path class="st3" d="M341.8 123.9c-3.5 0-6.3-2.8-6.3-6.3s2.8-6.3 6.3-6.3 6.3 2.8 6.3 6.3-2.8 6.3-6.3 6.3 3.5 0 0 0zm0-11.1c-2.7 0-4.8 2.2-4.8 4.8 0 2.7 2.2 4.8 4.8 4.8 2.7 0 4.8-2.2 4.8-4.8 0-2.7-2.1-4.8-4.8-4.8-2.7 0 2.7 0 0 0z"/><path class="st2" d="M342.1 134.7h-55.9c-1.9 0-4.6 1.1-6 2.4l-8.8 8.5c-1.4 1.3-4.1 2.4-6 2.4H238"/><circle class="st3" cx="341.8" cy="134.7" r="5.6"/><path class="st3" d="M341.8 128.4c-3.5 0-6.3 2.8-6.3 6.3s2.8 6.3 6.3 6.3 6.3-2.8 6.3-6.3-2.8-6.3-6.3-6.3 3.5 0 0 0zm0 11.1c-2.7 0-4.8-2.2-4.8-4.8 0-2.7 2.2-4.8 4.8-4.8 2.7 0 4.8 2.2 4.8 4.8 0 2.6-2.1 4.8-4.8 4.8-2.7 0 2.7 0 0 0z"/><path class="st2" d="M224.8 160.3l22.5 21.7c1.4 1.3 4.1 2.4 6 2.4h15.4c1.9 0 4.6-1.1 6-2.4l27.8-26.9c1.4-1.3 4.1-2.4 6-2.4h33.6"/><circle class="st3" cx="341.8" cy="152.8" r="5.6"/><path class="st3" d="M341.8 159.1c-3.5 0-6.3-2.8-6.3-6.3s2.8-6.3 6.3-6.3 6.3 2.8 6.3 6.3-2.8 6.3-6.3 6.3 3.5 0 0 0zm0-11.2c-2.7 0-4.8 2.2-4.8 4.8s2.2 4.8 4.8 4.8c2.7 0 4.8-2.2 4.8-4.8s-2.1-4.8-4.8-4.8c-2.7 0 2.7 0 0 0z"/><path class="st2" d="M209.1 177.9l34.4 33.2c1.4 1.3 4.1 2.4 6 2.4h92.6"/><circle class="st3" cx="341.8" cy="213.5" r="5.6"/><path class="st3" d="M341.8 219.8c-3.5 0-6.3-2.8-6.3-6.3s2.8-6.3 6.3-6.3 6.3 2.8 6.3 6.3-2.8 6.3-6.3 6.3 3.5 0 0 0zm0-11.1c-2.7 0-4.8 2.2-4.8 4.8s2.2 4.8 4.8 4.8c2.7 0 4.8-2.2 4.8-4.8s-2.1-4.8-4.8-4.8c-2.7 0 2.7 0 0 0z"/><path class="st2" d="M292.9 213l31.3-30.2c1.4-1.3 4.1-2.4 6-2.4h11.9"/><circle class="st3" cx="341.8" cy="180.3" r="5.6"/><path class="st3" d="M341.8 186.7c-3.5 0-6.3-2.8-6.3-6.3s2.8-6.3 6.3-6.3 6.3 2.8 6.3 6.3-2.8 6.3-6.3 6.3 3.5 0 0 0zm0-11.2c-2.7 0-4.8 2.2-4.8 4.8s2.2 4.8 4.8 4.8c2.7 0 4.8-2.2 4.8-4.8s-2.1-4.8-4.8-4.8c-2.7 0 2.7 0 0 0z"/><path class="st2" d="M172.4 198.6l39.3 38c1.4 1.3 4.1 2.4 6 2.4h41.7"/><circle class="st3" cx="259.2" cy="239" r="5.6"/><path class="st3" d="M259.2 245.3c-3.5 0-6.3-2.8-6.3-6.3s2.8-6.3 6.3-6.3 6.3 2.8 6.3 6.3c0 3.4-2.8 6.3-6.3 6.3s3.5 0 0 0zm0-11.2c-2.7 0-4.8 2.2-4.8 4.8 0 2.7 2.2 4.8 4.8 4.8 2.7 0 4.8-2.2 4.8-4.8 0-2.6-2.1-4.8-4.8-4.8-2.7 0 2.7 0 0 0z"/><path class="st2" d="M193.6 219.6v36.2c0 1.9 1.6 3.5 3.5 3.5h49c1.9 0 4.6 1.1 6 2.4l40.3 39"/><ellipse transform="rotate(-45.952 292.179 300.437)" class="st3" cx="292.2" cy="300.5" rx="5.6" ry="5.6"/><path class="st3" d="M287.8 305c-2.5-2.4-2.6-6.4-.1-8.9s6.4-2.6 8.9-.1c2.5 2.4 2.6 6.4.1 8.9-2.4 2.4-6.4 2.5-8.9.1s2.5 2.4 0 0zm7.8-8c-1.9-1.9-5-1.8-6.8.1-1.9 1.9-1.8 5 .1 6.8 1.9 1.9 5 1.8 6.8-.1 1.8-1.9 1.8-5-.1-6.8-2-1.9 1.9 1.8 0 0z"/><path class="st2" d="M223.2 259.2v29.7c0 1.9 1.6 3.5 3.5 3.5h13.5c1.9 0 4.6 1.1 6 2.4l28.1 27.2"/><ellipse transform="rotate(-45.952 274.12 321.81)" class="st3" cx="274.1" cy="321.8" rx="5.6" ry="5.6"/><path class="st3" d="M269.8 326.4c-2.5-2.4-2.6-6.4-.1-8.9s6.4-2.6 8.9-.1c2.5 2.4 2.6 6.4.1 8.9-2.4 2.4-6.4 2.5-8.9.1-2.6-2.5 2.5 2.4 0 0zm7.7-8c-1.9-1.9-5-1.8-6.8.1-1.9 1.9-1.8 5 .1 6.8 1.9 1.9 5 1.8 6.8-.1 1.9-1.9 1.8-5-.1-6.8-1.9-1.9 1.9 1.8 0 0z"/><path class="st2" d="M223.2 271.1L209 284.8c-1.4 1.3-2.5 4-2.5 5.9v18.4c0 1.9 1.1 4.6 2.5 5.9l15.8 15.3"/><ellipse transform="rotate(-45.952 224.68 330.137)" class="st3" cx="224.7" cy="330.2" rx="5.6" ry="5.6"/><path class="st3" d="M220.3 334.7c-2.5-2.4-2.6-6.4-.1-8.9 2.4-2.5 6.4-2.6 8.9-.1 2.5 2.4 2.6 6.4.1 8.9-2.4 2.4-6.4 2.5-8.9.1s2.5 2.4 0 0zm7.8-8c-1.9-1.9-5-1.8-6.8.1s-1.8 5 .1 6.8c1.9 1.9 5 1.8 6.8-.1 1.8-1.9 1.8-5-.1-6.8-2-1.9 1.9 1.8 0 0z"/><path class="st2" d="M179.6 205.4v15.2c0 1.9-1.1 4.6-2.5 5.9l-19.2 18.6"/><ellipse transform="rotate(-44.048 158.06 244.825)" class="st3" cx="158.1" cy="244.8" rx="5.6" ry="5.6"/><path class="st3" d="M153.7 240.3c2.5-2.4 6.5-2.4 8.9.1 2.4 2.5 2.4 6.5-.1 8.9-2.5 2.4-6.5 2.4-8.9-.1-2.5-2.5-2.4-6.5.1-8.9 2.5-2.4-2.5 2.4 0 0zm7.7 8c1.9-1.9 2-4.9.1-6.8s-4.9-2-6.8-.1c-1.9 1.9-2 4.9-.1 6.8 1.8 1.9 4.9 2 6.8.1 1.9-1.8-1.9 1.9 0 0z"/><path class="st2" d="M99 182l22.4-21.9c1.4-1.3 2.5-4 2.5-5.9v-21.8c0-1.9 1.1-4.6 2.5-5.9l7.7-7.5"/><ellipse transform="rotate(-44.048 133.91 119.163)" class="st3" cx="133.9" cy="119.2" rx="5.6" ry="5.6"/><path class="st3" d="M138.3 123.7c-2.5 2.4-6.5 2.4-8.9-.1-2.4-2.5-2.4-6.5.1-8.9 2.5-2.4 6.5-2.4 8.9.1 2.5 2.5 2.4 6.5-.1 8.9-2.5 2.4 2.5-2.4 0 0zm-7.7-8c-1.9 1.9-2 4.9-.1 6.8 1.9 1.9 4.9 2 6.8.1 1.9-1.9 2-4.9.1-6.8-1.9-1.9-4.9-2-6.8-.1-2 1.8 1.9-1.9 0 0z"/><path class="st2" d="M124 142.8h-17.5"/><circle class="st3" cx="106.9" cy="142.8" r="5.6"/><path class="st3" d="M106.9 136.5c3.5 0 6.3 2.8 6.3 6.3s-2.8 6.3-6.3 6.3-6.3-2.8-6.3-6.3c-.1-3.5 2.8-6.3 6.3-6.3 3.4 0-3.5 0 0 0zm0 11.1c2.7 0 4.8-2.2 4.8-4.8 0-2.7-2.2-4.8-4.8-4.8-2.7 0-4.8 2.2-4.8 4.8-.1 2.7 2.1 4.8 4.8 4.8 2.6 0-2.7 0 0 0z"/><path class="st2" d="M142 154.5h34.1c1.9 0 4.6-1.1 6-2.4l64.5-62.4"/><ellipse transform="rotate(-44.048 246.374 89.843)" class="st3" cx="246.4" cy="89.8" rx="5.6" ry="5.6"/><path class="st3" d="M250.8 94.4c-2.5 2.4-6.5 2.4-8.9-.1-2.4-2.5-2.4-6.5.1-8.9 2.5-2.4 6.5-2.4 8.9.1 2.4 2.5 2.4 6.5-.1 8.9-2.5 2.4 2.5-2.4 0 0zm-7.8-8c-1.9 1.9-2 4.9-.1 6.8 1.9 1.9 4.9 2 6.8.1 1.9-1.9 2-4.9.1-6.8-1.8-1.9-4.9-2-6.8-.1-1.9 1.8 1.9-1.9 0 0z"/><path class="st2" d="M203.8 131v-21.5c0-1.9 1.1-4.6 2.5-5.9l29.2-28.3"/><ellipse transform="rotate(-44.048 235.358 75.526)" class="st3" cx="235.4" cy="75.5" rx="5.6" ry="5.6"/><path class="st3" d="M239.8 80.1c-2.5 2.4-6.5 2.4-8.9-.1-2.4-2.5-2.4-6.5.1-8.9 2.5-2.4 6.5-2.4 8.9.1 2.4 2.4 2.4 6.4-.1 8.9-2.5 2.4 2.5-2.5 0 0zm-7.8-8c-1.9 1.9-2 4.9-.1 6.8 1.9 1.9 4.9 2 6.8.1 1.9-1.9 2-4.9.1-6.8-1.8-1.9-4.9-2-6.8-.1-1.9 1.8 1.9-1.9 0 0z"/><path class="st2" d="M371.1 173.8l26.9-26c1.4-1.3 2.5-4 2.5-5.9v-32.3c0-1.9 1.1-4.6 2.5-5.9L432.6 75c1.4-1.3 4.1-2.4 6-2.4h18.1"/><circle class="st3" cx="456.4" cy="72.5" r="5.6"/><path class="st3" d="M456.4 78.8c-3.5 0-6.3-2.8-6.3-6.3s2.8-6.3 6.3-6.3 6.3 2.8 6.3 6.3-2.8 6.3-6.3 6.3 3.5 0 0 0zm0-11.1c-2.7 0-4.8 2.2-4.8 4.8 0 2.7 2.2 4.8 4.8 4.8 2.7 0 4.8-2.2 4.8-4.8 0-2.7-2.1-4.8-4.8-4.8-2.7 0 2.7 0 0 0z"/><path class="st2" d="M371.1 194l45.8-44.3c1.4-1.3 2.5-4 2.5-5.9v-29.6c0-1.9 1.1-4.6 2.5-5.9L436.7 94c1.4-1.3 4.1-2.4 6-2.4h36.9"/><circle class="st3" cx="479.4" cy="91.4" r="5.6"/><path class="st3" d="M479.4 97.7c-3.5 0-6.3-2.8-6.3-6.3s2.8-6.3 6.3-6.3 6.3 2.8 6.3 6.3-2.9 6.3-6.3 6.3c-3.5 0 3.4 0 0 0zm0-11.1c-2.7 0-4.8 2.2-4.8 4.8 0 2.7 2.2 4.8 4.8 4.8 2.7 0 4.8-2.2 4.8-4.8 0-2.6-2.2-4.8-4.8-4.8-2.7 0 2.6 0 0 0z"/><path class="st2" d="M375.4 213l65.9-63.7c1.4-1.3 2.5-4 2.5-5.9v-25.1c0-1.9 1.6-3.5 3.5-3.5h123.9"/><circle class="st3" cx="570.9" cy="114.8" r="5.6"/><path class="st3" d="M570.9 121.1c-3.5 0-6.3-2.8-6.3-6.3s2.8-6.3 6.3-6.3 6.3 2.8 6.3 6.3-2.8 6.3-6.3 6.3c-3.4 0 3.5 0 0 0zm0-11.2c-2.7 0-4.8 2.2-4.8 4.8 0 2.7 2.2 4.8 4.8 4.8 2.7 0 4.8-2.2 4.8-4.8.1-2.6-2.1-4.8-4.8-4.8-2.6 0 2.7 0 0 0z"/><path class="st2" d="M416 173.8h49.7c1.9 0 4.6-1.1 6-2.4l25.6-24.8c1.4-1.3 4.1-2.4 6-2.4h67.8"/><circle class="st3" cx="570.9" cy="144.1" r="5.6"/><path class="st3" d="M570.9 150.4c-3.5 0-6.3-2.8-6.3-6.3s2.8-6.3 6.3-6.3 6.3 2.8 6.3 6.3-2.8 6.3-6.3 6.3c-3.4 0 3.5 0 0 0zm0-11.1c-2.7 0-4.8 2.2-4.8 4.8s2.2 4.8 4.8 4.8c2.7 0 4.8-2.2 4.8-4.8s-2.1-4.8-4.8-4.8c-2.6 0 2.7 0 0 0z"/><path class="st2" d="M480.8 163.9l28.9 28c1.4 1.3 4.1 2.4 6 2.4h59.7"/><circle class="st3" cx="575.1" cy="194.3" r="5.6"/><path class="st3" d="M575.1 200.6c-3.5 0-6.3-2.8-6.3-6.3s2.8-6.3 6.3-6.3 6.3 2.8 6.3 6.3-2.8 6.3-6.3 6.3 3.5 0 0 0zm0-11.1c-2.7 0-4.8 2.2-4.8 4.8 0 2.7 2.2 4.8 4.8 4.8 2.7 0 4.8-2.2 4.8-4.8 0-2.6-2.1-4.8-4.8-4.8-2.7 0 2.7 0 0 0z"/><path class="st2" d="M407.7 182.1l17.8 17.3c1.4 1.3 4.1 2.4 6 2.4h50.6c1.9 0 4.6 1.1 6 2.4l16.1 15.5c1.4 1.3 4.1 2.4 6 2.4h57"/><circle class="st3" cx="567" cy="222.2" r="5.6"/><path class="st3" d="M567 228.5c-3.5 0-6.3-2.8-6.3-6.3s2.8-6.3 6.3-6.3 6.3 2.8 6.3 6.3-2.9 6.3-6.3 6.3c-3.5 0 3.4 0 0 0zm0-11.1c-2.7 0-4.8 2.2-4.8 4.8s2.2 4.8 4.8 4.8c2.7 0 4.8-2.2 4.8-4.8s-2.2-4.8-4.8-4.8c-2.7 0 2.6 0 0 0z"/><path class="st2" d="M455.6 202.2v27.4c0 1.9 1.6 3.5 3.5 3.5h13.7c1.9 0 4.6 1.1 6 2.4l7.2 7c1.4 1.3 4.1 2.4 6 2.4h66.8"/><circle class="st3" cx="558.6" cy="244.9" r="5.6"/><path class="st3" d="M558.6 251.2c-3.5 0-6.3-2.8-6.3-6.3s2.8-6.3 6.3-6.3 6.3 2.8 6.3 6.3-2.8 6.3-6.3 6.3 3.5 0 0 0zm0-11.1c-2.7 0-4.8 2.2-4.8 4.8 0 2.7 2.2 4.8 4.8 4.8 2.7 0 4.8-2.2 4.8-4.8 0-2.7-2.1-4.8-4.8-4.8-2.7 0 2.7 0 0 0z"/><path class="st2" d="M525.5 244.9V278"/><circle class="st3" cx="525.5" cy="277.7" r="5.6"/><path class="st3" d="M519.2 277.7c0-3.5 2.8-6.3 6.3-6.3s6.3 2.8 6.3 6.3-2.8 6.3-6.3 6.3-6.3-2.8-6.3-6.3 0 3.5 0 0zm11.1 0c0-2.7-2.2-4.8-4.8-4.8s-4.8 2.2-4.8 4.8c0 2.7 2.2 4.8 4.8 4.8s4.8-2.2 4.8-4.8c0-2.7 0 2.6 0 0z"/><path class="st2" d="M469.2 233v15.4c0 1.9 1.1 4.6 2.5 5.9l13.4 12.9"/><ellipse transform="rotate(-45.952 484.846 267.075)" class="st3" cx="484.9" cy="267.1" rx="5.6" ry="5.6"/><path class="st3" d="M480.5 271.6c-2.5-2.4-2.6-6.4-.1-8.9 2.4-2.5 6.4-2.6 8.9-.1 2.5 2.4 2.6 6.4.1 8.9-2.4 2.5-6.4 2.5-8.9.1s2.5 2.4 0 0zm7.7-8c-1.9-1.9-5-1.8-6.8.1-1.9 1.9-1.8 5 .1 6.8 1.9 1.9 5 1.8 6.8-.1 1.9-1.9 1.9-4.9-.1-6.8-1.9-1.8 2 1.9 0 0z"/><path class="st2" d="M395.3 195.1l32 30.9"/><ellipse transform="rotate(-45.952 427.015 225.733)" class="st3" cx="427" cy="225.7" rx="5.6" ry="5.6"/><path class="st3" d="M422.7 230.3c-2.5-2.4-2.6-6.4-.1-8.9 2.4-2.5 6.4-2.6 8.9-.1 2.5 2.4 2.6 6.4.1 8.9-2.4 2.4-6.4 2.5-8.9.1s2.5 2.4 0 0zm7.7-8c-1.9-1.9-5-1.8-6.8.1-1.9 1.9-1.8 5 .1 6.8 1.9 1.9 5 1.8 6.8-.1 1.9-1.9 1.8-5-.1-6.8-1.9-1.9 1.9 1.8 0 0z"/><path class="st2" d="M364.1 221.2l19 18.4"/><ellipse transform="rotate(-45.952 382.824 239.343)" class="st3" cx="382.9" cy="239.4" rx="5.6" ry="5.6"/><path class="st3" d="M378.5 243.9c-2.5-2.4-2.6-6.4-.1-8.9 2.4-2.5 6.4-2.6 8.9-.1 2.5 2.4 2.6 6.4.1 8.9-2.4 2.4-6.4 2.5-8.9.1s2.5 2.4 0 0zm7.7-8c-1.9-1.9-5-1.8-6.8.1-1.9 1.9-1.8 5 .1 6.8 1.9 1.9 5 1.8 6.8-.1 1.9-1.9 1.8-5-.1-6.8-1.9-1.9 1.9 1.8 0 0z"/><path class="st2" d="M370.4 226.8V250c0 1.9 1.2 4.6 2.6 5.9l32.7 29.8"/><ellipse transform="rotate(-47.699 405.535 285.386)" class="st3" cx="405.5" cy="285.4" rx="5.6" ry="5.6"/><path class="st3" d="M401.3 290c-2.6-2.3-2.8-6.3-.4-8.9 2.3-2.6 6.3-2.8 8.9-.4 2.6 2.3 2.8 6.3.4 8.9-2.4 2.6-6.4 2.8-8.9.4-2.6-2.3 2.5 2.4 0 0zm7.5-8.2c-2-1.8-5-1.6-6.8.3-1.8 2-1.6 5 .3 6.8 2 1.8 5 1.6 6.8-.3 1.8-1.9 1.6-5-.3-6.8-2-1.8 1.9 1.8 0 0z"/><path class="st2" d="M340 234.7v5.5c0 1.9 1.1 4.6 2.5 5.9l10.5 10.2"/><ellipse transform="rotate(-45.952 352.848 256.144)" class="st3" cx="352.9" cy="256.2" rx="5.6" ry="5.6"/><path class="st3" d="M348.5 260.7c-2.5-2.4-2.6-6.4-.1-8.9 2.4-2.5 6.4-2.6 8.9-.1 2.5 2.4 2.6 6.4.1 8.9-2.4 2.5-6.4 2.5-8.9.1s2.5 2.4 0 0zm7.7-8c-1.9-1.9-5-1.8-6.8.1-1.9 1.9-1.8 5 .1 6.8 1.9 1.9 5 1.8 6.8-.1s1.8-5-.1-6.8c-1.9-1.9 1.9 1.8 0 0z"/><path class="st2" d="M320.5 233v15.7c0 1.9 1.1 4.6 2.5 5.9l11 10.6"/><ellipse transform="rotate(-45.952 333.755 265.077)" class="st3" cx="333.8" cy="265.1" rx="5.6" ry="5.6"/><path class="st3" d="M329.4 269.6c-2.5-2.4-2.6-6.4-.1-8.9 2.4-2.5 6.4-2.6 8.9-.1 2.5 2.4 2.6 6.4.1 8.9-2.4 2.5-6.4 2.6-8.9.1-2.5-2.4 2.5 2.5 0 0zm7.7-8c-1.9-1.9-5-1.8-6.8.1s-1.8 5 .1 6.8c1.9 1.9 5 1.8 6.8-.1s1.9-4.9-.1-6.8c-1.9-1.8 2 1.9 0 0z"/><path class="st2" d="M304.9 233v22.7c0 1.9 1.1 4.6 2.5 5.9l11.4 11"/><ellipse transform="rotate(-45.952 318.52 272.44)" class="st3" cx="318.5" cy="272.5" rx="5.6" ry="5.6"/><path class="st3" d="M314.2 277c-2.5-2.4-2.6-6.4-.1-8.9 2.4-2.5 6.4-2.6 8.9-.1 2.5 2.4 2.6 6.4.1 8.9s-6.4 2.5-8.9.1 2.5 2.4 0 0zm7.7-8c-1.9-1.9-5-1.8-6.8.1-1.9 1.9-1.8 5 .1 6.8 1.9 1.9 5 1.8 6.8-.1s1.8-5-.1-6.8c-1.9-1.9 1.9 1.8 0 0z"/><path class="st2" d="M149.3 346.2l14.7 14.3c1.4 1.3 2.5 4 2.5 5.9v3.6"/><circle class="st3" cx="166.5" cy="369.7" r="5.6"/><path class="st3" d="M160.2 369.7c0-3.5 2.8-6.3 6.3-6.3s6.3 2.8 6.3 6.3-2.8 6.3-6.3 6.3c-3.5.1-6.3-2.8-6.3-6.3 0-3.4 0 3.5 0 0zm11.2 0c0-2.7-2.2-4.8-4.8-4.8s-4.8 2.2-4.8 4.8c0 2.7 2.2 4.8 4.8 4.8s4.8-2.1 4.8-4.8c0-2.6 0 2.7 0 0z"/><path class="st2" d="M155.8 352.6h24.9c1.9 0 4.6 1.1 6 2.4l7.1 6.9c1.4 1.3 4.1 2.4 6 2.4h101.4c1.9 0 4.6 1.1 6 2.4l12.2 11.8"/><ellipse transform="rotate(-45.952 319.352 378.384)" class="st3" cx="319.4" cy="378.4" rx="5.6" ry="5.6"/><path class="st3" d="M315 382.9c-2.5-2.4-2.6-6.4-.1-8.9 2.4-2.5 6.4-2.6 8.9-.1 2.5 2.4 2.6 6.4.1 8.9-2.4 2.5-6.4 2.6-8.9.1-2.5-2.4 2.5 2.5 0 0zm7.7-8c-1.9-1.9-5-1.8-6.8.1-1.9 1.9-1.8 5 .1 6.8 1.9 1.9 5 1.8 6.8-.1 1.9-1.8 1.8-4.9-.1-6.8-1.9-1.8 1.9 1.9 0 0z"/><path class="st2" d="M286.9 364.8l52.4-50.7c1.4-1.3 4.1-2.4 6-2.4h24.5"/><circle class="st3" cx="369.4" cy="311.7" r="5.6"/><path class="st3" d="M369.4 318c-3.5 0-6.3-2.8-6.3-6.3s2.8-6.3 6.3-6.3 6.3 2.8 6.3 6.3c0 3.4-2.8 6.3-6.3 6.3-3.4 0 3.5 0 0 0zm0-11.2c-2.7 0-4.8 2.2-4.8 4.8 0 2.7 2.2 4.8 4.8 4.8 2.7 0 4.8-2.2 4.8-4.8.1-2.6-2.1-4.8-4.8-4.8-2.6 0 2.7 0 0 0z"/><path class="st2" d="M333.1 320.1l11 10.6c1.4 1.3 4.1 2.4 6 2.4h51.6"/><circle class="st3" cx="401.4" cy="333.1" r="5.6"/><path class="st3" d="M401.4 339.4c-3.5 0-6.3-2.8-6.3-6.3s2.8-6.3 6.3-6.3 6.3 2.8 6.3 6.3-2.8 6.3-6.3 6.3 3.5 0 0 0zm0-11.2c-2.7 0-4.8 2.2-4.8 4.8s2.2 4.8 4.8 4.8c2.7 0 4.8-2.2 4.8-4.8s-2.1-4.8-4.8-4.8c-2.7 0 2.7 0 0 0z"/><path class="st2" d="M364.5 333.1l14.3 13.9c1.4 1.3 4.1 2.4 6 2.4h14.1"/><circle class="st3" cx="398.6" cy="349.4" r="5.6"/><path class="st3" d="M398.6 355.7c-3.5 0-6.3-2.8-6.3-6.3s2.8-6.3 6.3-6.3 6.3 2.8 6.3 6.3-2.8 6.3-6.3 6.3 3.5 0 0 0zm0-11.1c-2.7 0-4.8 2.2-4.8 4.8s2.2 4.8 4.8 4.8c2.7 0 4.8-2.2 4.8-4.8s-2.1-4.8-4.8-4.8c-2.7 0 2.7 0 0 0z"/><path class="st2" d="M316.3 336.3l31.8 30.7c1.4 1.3 4.1 2.4 6 2.4h15.6"/><circle class="st3" cx="369.4" cy="369.5" r="5.6"/><path class="st3" d="M369.4 375.8c-3.5 0-6.3-2.8-6.3-6.3s2.8-6.3 6.3-6.3 6.3 2.8 6.3 6.3-2.8 6.3-6.3 6.3c-3.4 0 3.5 0 0 0zm0-11.2c-2.7 0-4.8 2.2-4.8 4.8s2.2 4.8 4.8 4.8c2.7 0 4.8-2.2 4.8-4.8s-2.1-4.8-4.8-4.8c-2.6 0 2.7 0 0 0z"/><path class="st2" d="M203.8 260.5v4.8c0 1.9-1.1 4.6-2.5 5.9l-8.1 7.8"/><ellipse transform="rotate(-44.048 193.454 278.869)" class="st3" cx="193.5" cy="278.9" rx="5.6" ry="5.6"/><path class="st3" d="M189.1 274.3c2.5-2.4 6.5-2.4 8.9.1 2.4 2.5 2.4 6.5-.1 8.9-2.5 2.4-6.5 2.4-8.9-.1-2.5-2.4-2.4-6.4.1-8.9 2.5-2.4-2.5 2.5 0 0zm7.7 8.1c1.9-1.9 2-4.9.1-6.8s-4.9-2-6.8-.1c-1.9 1.9-2 4.9-.1 6.8 1.8 1.9 4.9 1.9 6.8.1 1.9-1.9-1.9 1.8 0 0z"/><path class="st2" d="M146 404.1h39.4c1.9 0 4.6 1.1 6 2.4l43.5 42.1c1.4 1.3 2.5 4 2.5 5.9v12.6c0 1.9 1.1 4.6 2.5 5.9l39.5 38.2"/><ellipse transform="rotate(-45.952 279.2 511.018)" class="st3" cx="279.2" cy="511.1" rx="5.6" ry="5.6"/><path class="st3" d="M274.8 515.6c-2.5-2.4-2.6-6.4-.1-8.9s6.4-2.6 8.9-.1c2.5 2.4 2.6 6.4.1 8.9-2.4 2.4-6.4 2.5-8.9.1s2.5 2.4 0 0zm7.8-8c-1.9-1.9-5-1.8-6.8.1-1.9 1.9-1.8 5 .1 6.8 1.9 1.9 5 1.8 6.8-.1 1.8-1.9 1.8-5-.1-6.8-1.9-1.9 1.9 1.8 0 0z"/><path class="st2" d="M229.2 391.2v20.3c0 1.9 1.1 4.6 2.5 5.9l9.2 8.9"/><ellipse transform="rotate(-45.952 240.657 426.13)" class="st3" cx="240.7" cy="426.2" rx="5.6" ry="5.6"/><path class="st3" d="M236.3 430.7c-2.5-2.4-2.6-6.4-.1-8.9 2.4-2.5 6.4-2.6 8.9-.1 2.5 2.4 2.6 6.4.1 8.9-2.4 2.4-6.4 2.5-8.9.1s2.5 2.4 0 0zm7.7-8c-1.9-1.9-5-1.8-6.8.1-1.9 1.9-1.8 5 .1 6.8 1.9 1.9 5 1.8 6.8-.1s1.8-5-.1-6.8c-1.9-1.9 1.9 1.8 0 0z"/><path class="st2" d="M239.9 520.6h17.5c1.9 0 4.6 1.1 6 2.4l68.2 65.9c1.4 1.3 4.1 2.4 6 2.4h18.7"/><circle class="st3" cx="356" cy="591.3" r="5.6"/><path class="st3" d="M356 597.7c-3.5 0-6.3-2.8-6.3-6.3s2.8-6.3 6.3-6.3 6.3 2.8 6.3 6.3-2.9 6.3-6.3 6.3c-3.5 0 3.4 0 0 0zm0-11.2c-2.7 0-4.8 2.2-4.8 4.8s2.2 4.8 4.8 4.8c2.7 0 4.8-2.2 4.8-4.8s-2.2-4.8-4.8-4.8c-2.7 0 2.6 0 0 0z"/><path class="st2" d="M304.2 562.4v14.1c0 1.9 1.1 4.6 2.5 5.9l49.6 48c1.4 1.3 2.5 4 2.5 5.9V655"/><circle class="st3" cx="358.9" cy="654.7" r="5.6"/><path class="st3" d="M352.5 654.7c0-3.5 2.8-6.3 6.3-6.3s6.3 2.8 6.3 6.3-2.8 6.3-6.3 6.3-6.3-2.8-6.3-6.3 0 3.5 0 0zm11.2 0c0-2.7-2.2-4.8-4.8-4.8s-4.8 2.2-4.8 4.8c0 2.7 2.2 4.8 4.8 4.8s4.8-2.1 4.8-4.8c0-2.7 0 2.7 0 0z"/><path class="st2" d="M201.8 418.5l-11.7 11.3"/><ellipse transform="rotate(-44.048 190.309 429.565)" class="st3" cx="190.3" cy="429.6" rx="5.6" ry="5.6"/><path class="st3" d="M185.9 425c2.5-2.4 6.5-2.4 8.9.1 2.4 2.5 2.4 6.5-.1 8.9-2.5 2.4-6.5 2.4-8.9-.1-2.4-2.4-2.4-6.4.1-8.9 2.5-2.4-2.5 2.5 0 0zm7.8 8.1c1.9-1.9 2-4.9.1-6.8-1.9-1.9-4.9-2-6.8-.1-1.9 1.9-2 4.9-.1 6.8 1.8 1.9 4.9 1.9 6.8.1 1.9-1.9-1.9 1.8 0 0z"/><g><path class="st2" d="M229.2 399.5H252c1.9 0 4.6 1.1 6 2.4l6.3 6.1"/><ellipse transform="rotate(-45.952 264.007 407.711)" class="st3" cx="264" cy="407.7" rx="5.6" ry="5.6"/><path class="st3" d="M259.6 412.3c-2.5-2.4-2.6-6.4-.1-8.9 2.4-2.5 6.4-2.6 8.9-.1 2.5 2.4 2.6 6.4.1 8.9-2.4 2.4-6.4 2.5-8.9.1s2.5 2.4 0 0zm7.8-8c-1.9-1.9-5-1.8-6.8.1-1.9 1.9-1.8 5 .1 6.8 1.9 1.9 5 1.8 6.8-.1 1.9-1.9 1.8-5-.1-6.8-1.9-1.9 1.9 1.8 0 0z"/></g><g><path class="st2" d="M293.4 387.6v8.4c0 1.9 1.1 4.6 2.5 5.9l9.6 9.3c1.4 1.3 4.1 2.4 6 2.4h11.1c1.9 0 4.6 1.1 6 2.4l4.5 4.4"/><ellipse transform="rotate(-45.952 332.919 420.171)" class="st3" cx="332.9" cy="420.2" rx="5.6" ry="5.6"/><path class="st3" d="M328.6 424.7c-2.5-2.4-2.6-6.4-.1-8.9 2.4-2.5 6.4-2.6 8.9-.1 2.5 2.4 2.6 6.4.1 8.9-2.4 2.5-6.4 2.6-8.9.1-2.5-2.4 2.5 2.5 0 0zm7.7-8c-1.9-1.9-5-1.8-6.8.1s-1.8 5 .1 6.8c1.9 1.9 5 1.8 6.8-.1s1.8-4.9-.1-6.8c-1.9-1.8 1.9 1.9 0 0z"/></g><g><path class="st2" d="M378.8 398.3l30.3 29.3c1.4 1.3 4.1 2.4 6 2.4h7.3"/><circle class="st3" cx="422.1" cy="430.1" r="5.6"/><path class="st3" d="M422.1 436.4c-3.5 0-6.3-2.8-6.3-6.3s2.8-6.3 6.3-6.3 6.3 2.8 6.3 6.3-2.8 6.3-6.3 6.3 3.5 0 0 0zm0-11.2c-2.7 0-4.8 2.2-4.8 4.8 0 2.7 2.2 4.8 4.8 4.8 2.7 0 4.8-2.2 4.8-4.8 0-2.6-2.1-4.8-4.8-4.8-2.7 0 2.7 0 0 0z"/></g><g><path class="st2" d="M400.7 419.6v16"/><circle class="st3" cx="400.7" cy="435.3" r="5.6"/><path class="st3" d="M394.4 435.3c0-3.5 2.8-6.3 6.3-6.3s6.3 2.8 6.3 6.3-2.8 6.3-6.3 6.3-6.3-2.9-6.3-6.3c0-3.5 0 3.4 0 0zm11.1 0c0-2.7-2.2-4.8-4.8-4.8-2.7 0-4.8 2.2-4.8 4.8 0 2.7 2.2 4.8 4.8 4.8 2.6 0 4.8-2.2 4.8-4.8 0-2.7 0 2.6 0 0z"/></g><g><path class="st2" d="M352.8 453v10.6c0 1.9 1.1 4.6 2.5 5.9l39.8 38.5"/><ellipse transform="rotate(-45.952 394.855 507.752)" class="st3" cx="394.9" cy="507.8" rx="5.6" ry="5.6"/><path class="st3" d="M390.5 512.3c-2.5-2.4-2.6-6.4-.1-8.9 2.4-2.5 6.4-2.6 8.9-.1 2.5 2.4 2.6 6.4.1 8.9-2.4 2.5-6.4 2.5-8.9.1s2.5 2.4 0 0zm7.7-8c-1.9-1.9-5-1.8-6.8.1-1.9 1.9-1.8 5 .1 6.8 1.9 1.9 5 1.8 6.8-.1 1.9-1.9 1.9-4.9-.1-6.8-1.9-1.8 2 1.9 0 0z"/></g><g><path class="st2" d="M387.4 455.3v8.3c0 1.9 1.1 4.6 2.5 5.9l37.3 36.1c1.4 1.3 2.5 4 2.5 5.9v4.3"/><circle class="st3" cx="429.7" cy="515.5" r="5.6"/><path class="st3" d="M423.4 515.5c0-3.5 2.8-6.3 6.3-6.3s6.3 2.8 6.3 6.3-2.8 6.3-6.3 6.3-6.3-2.8-6.3-6.3 0 3.5 0 0zm11.2 0c0-2.7-2.2-4.8-4.8-4.8s-4.8 2.2-4.8 4.8c0 2.7 2.2 4.8 4.8 4.8s4.8-2.2 4.8-4.8c0-2.7 0 2.6 0 0z"/></g><g><path class="st2" d="M407.7 455.3v8.9c0 1.9 1.1 4.6 2.5 5.9l22.9 22.1"/><ellipse transform="rotate(-45.952 432.862 491.985)" class="st3" cx="432.9" cy="492" rx="5.6" ry="5.6"/><path class="st3" d="M428.5 496.6c-2.5-2.4-2.6-6.4-.1-8.9 2.4-2.5 6.4-2.6 8.9-.1 2.5 2.4 2.6 6.4.1 8.9-2.4 2.4-6.4 2.5-8.9.1-2.5-2.5 2.5 2.4 0 0zm7.8-8.1c-1.9-1.9-5-1.8-6.8.1s-1.8 5 .1 6.8c1.9 1.9 5 1.8 6.8-.1s1.8-4.9-.1-6.8c-2-1.8 1.9 1.9 0 0z"/></g><g><path class="st2" d="M465.2 419.4v23c0 1.9 1.1 4.6 2.5 5.9l6.3 6.1c1.4 1.3 2.5 4 2.5 5.9V499"/><circle class="st3" cx="476.5" cy="498.8" r="5.6"/><path class="st3" d="M470.2 498.8c0-3.5 2.8-6.3 6.3-6.3s6.3 2.8 6.3 6.3-2.8 6.3-6.3 6.3-6.3-2.8-6.3-6.3 0 3.5 0 0zm11.2 0c0-2.7-2.2-4.8-4.8-4.8s-4.8 2.2-4.8 4.8c0 2.7 2.2 4.8 4.8 4.8s4.8-2.2 4.8-4.8c0-2.7 0 2.6 0 0z"/></g><g><path class="st2" d="M476.1 467.7l14.2 13.7c1.4 1.3 2.5 4 2.5 5.9v7.8c0 1.9 1.1 4.6 2.5 5.9l12.3 11.9"/><ellipse transform="rotate(-45.952 507.356 512.728)" class="st3" cx="507.4" cy="512.8" rx="5.6" ry="5.6"/><path class="st3" d="M503 517.3c-2.5-2.4-2.6-6.4-.1-8.9 2.4-2.5 6.4-2.6 8.9-.1 2.5 2.4 2.6 6.4.1 8.9s-6.4 2.5-8.9.1 2.5 2.4 0 0zm7.8-8c-1.9-1.9-5-1.8-6.8.1-1.9 1.9-1.8 5 .1 6.8 1.9 1.9 5 1.8 6.8-.1 1.8-1.9 1.8-5-.1-6.8-2-1.9 1.9 1.8 0 0z"/></g><g><path class="st2" d="M465.2 426.8l42.1 40.7c1.4 1.3 2.5 4 2.5 5.9v9"/><circle class="st3" cx="509.8" cy="482.2" r="5.6"/><path class="st3" d="M503.5 482.2c0-3.5 2.8-6.3 6.3-6.3s6.3 2.8 6.3 6.3-2.8 6.3-6.3 6.3-6.3-2.8-6.3-6.3 0 3.5 0 0zm11.2 0c0-2.7-2.2-4.8-4.8-4.8s-4.8 2.2-4.8 4.8c0 2.7 2.2 4.8 4.8 4.8s4.8-2.1 4.8-4.8c0-2.7 0 2.7 0 0z"/></g><g><path class="st2" d="M399.4 376.1l20.4 19.7c1.4 1.3 4.1 2.4 6 2.4h60.4"/><circle class="st3" cx="485.9" cy="398.2" r="5.6"/><path class="st3" d="M485.9 404.5c-3.5 0-6.3-2.8-6.3-6.3s2.8-6.3 6.3-6.3 6.3 2.8 6.3 6.3-2.8 6.3-6.3 6.3 3.5 0 0 0zm0-11.1c-2.7 0-4.8 2.2-4.8 4.8s2.2 4.8 4.8 4.8c2.7 0 4.8-2.2 4.8-4.8s-2.1-4.8-4.8-4.8c-2.6 0 2.7 0 0 0z"/></g><g><path class="st2" d="M428.6 397.5l49.3-47.7c1.4-1.3 4.1-2.4 6-2.4h11.5"/><circle class="st3" cx="495.1" cy="347.4" r="5.6"/><path class="st3" d="M495.1 353.7c-3.5 0-6.3-2.8-6.3-6.3s2.8-6.3 6.3-6.3 6.3 2.8 6.3 6.3-2.9 6.3-6.3 6.3c-3.5 0 3.4 0 0 0zm0-11.2c-2.7 0-4.8 2.2-4.8 4.8s2.2 4.8 4.8 4.8c2.7 0 4.8-2.2 4.8-4.8s-2.2-4.8-4.8-4.8c-2.7 0 2.6 0 0 0z"/></g><g><path class="st2" d="M462.7 365.3l13.3 12.9c1.4 1.3 4.1 2.4 6 2.4h13.3"/><circle class="st3" cx="495.1" cy="380.6" r="5.6"/><path class="st3" d="M495.1 386.9c-3.5 0-6.3-2.8-6.3-6.3s2.8-6.3 6.3-6.3 6.3 2.8 6.3 6.3-2.9 6.3-6.3 6.3c-3.5 0 3.4 0 0 0zm0-11.1c-2.7 0-4.8 2.2-4.8 4.8 0 2.7 2.2 4.8 4.8 4.8 2.7 0 4.8-2.2 4.8-4.8 0-2.7-2.2-4.8-4.8-4.8-2.7 0 2.6 0 0 0z"/></g><g><path class="st2" d="M412.1 364.8H434c1.9 0 4.6-1.1 6-2.4l21.5-20.8"/><ellipse transform="rotate(-44.048 461.208 341.74)" class="st3" cx="461.2" cy="341.8" rx="5.6" ry="5.6"/><path class="st3" d="M465.6 346.3c-2.5 2.4-6.5 2.4-8.9-.1s-2.4-6.5.1-8.9c2.5-2.4 6.5-2.4 8.9.1 2.5 2.5 2.4 6.5-.1 8.9-2.5 2.4 2.5-2.4 0 0zm-7.7-8c-1.9 1.9-2 4.9-.1 6.8 1.9 1.9 4.9 2 6.8.1 1.9-1.9 2-4.9.1-6.8-1.9-1.9-4.9-2-6.8-.1-1.9 1.8 1.9-1.9 0 0z"/></g><g><path class="st2" d="M455.2 284.5l15.6 15.1"/><ellipse transform="rotate(-45.952 470.526 299.354)" class="st3" cx="470.6" cy="299.4" rx="5.6" ry="5.6"/><path class="st3" d="M466.2 303.9c-2.5-2.4-2.6-6.4-.1-8.9 2.4-2.5 6.4-2.6 8.9-.1 2.5 2.4 2.6 6.4.1 8.9-2.4 2.5-6.4 2.5-8.9.1s2.5 2.4 0 0zm7.7-8c-1.9-1.9-5-1.8-6.8.1-1.9 1.9-1.8 5 .1 6.8 1.9 1.9 5 1.8 6.8-.1s1.8-4.9-.1-6.8c-1.9-1.9 1.9 1.9 0 0z"/></g><g><path class="st2" d="M530.7 346.2h32.4c1.9 0 4.6-1.1 6-2.4l19.2-18.6"/><ellipse transform="rotate(-44.048 588.018 325.437)" class="st3" cx="588" cy="325.5" rx="5.6" ry="5.6"/><path class="st3" d="M592.4 330c-2.5 2.4-6.5 2.4-8.9-.1-2.4-2.5-2.4-6.5.1-8.9 2.5-2.4 6.5-2.4 8.9.1 2.5 2.5 2.4 6.5-.1 8.9-2.5 2.4 2.5-2.4 0 0zm-7.7-8c-1.9 1.9-2 4.9-.1 6.8 1.9 1.9 4.9 2 6.8.1 1.9-1.9 2-4.9.1-6.8-1.8-1.9-4.9-2-6.8-.1-1.9 1.8 1.9-1.9 0 0z"/></g><g><path class="st2" d="M578.5 333.6v-27.3c0-1.9 1.1-4.6 2.5-5.9l34.6-33.5c1.4-1.3 2.5-4 2.5-5.9v-30.9"/><circle class="st3" cx="618.1" cy="230.4" r="5.6"/><path class="st3" d="M624.4 230.4c0 3.5-2.8 6.3-6.3 6.3s-6.3-2.8-6.3-6.3 2.8-6.3 6.3-6.3 6.3 2.8 6.3 6.3c0 3.4 0-3.5 0 0zm-11.1 0c0 2.7 2.2 4.8 4.8 4.8s4.8-2.2 4.8-4.8c0-2.7-2.2-4.8-4.8-4.8s-4.8 2.1-4.8 4.8c0 2.6 0-2.7 0 0z"/></g><g><path class="st2" d="M595.9 286h36.7c1.9 0 4.6-1.1 6-2.4l30.7-29.7c1.4-1.3 2.5-4 2.5-5.9v-18.3"/><circle class="st3" cx="671.8" cy="229.8" r="5.6"/><path class="st3" d="M678.1 229.8c0 3.5-2.8 6.3-6.3 6.3s-6.3-2.8-6.3-6.3 2.8-6.3 6.3-6.3 6.3 2.9 6.3 6.3c0 3.5 0-3.4 0 0zm-11.1 0c0 2.7 2.2 4.8 4.8 4.8s4.8-2.2 4.8-4.8c0-2.7-2.2-4.8-4.8-4.8s-4.8 2.2-4.8 4.8c0 2.7 0-2.6 0 0z"/></g><g><path class="st2" d="M657.1 264.4L641 248.9c-1.4-1.3-2.5-4-2.5-5.9v-11.4"/><circle class="st3" cx="638.5" cy="231.9" r="5.6"/><path class="st3" d="M644.8 231.9c0 3.5-2.8 6.3-6.3 6.3s-6.3-2.8-6.3-6.3 2.8-6.3 6.3-6.3 6.3 2.8 6.3 6.3 0-3.5 0 0zm-11.1 0c0 2.7 2.2 4.8 4.8 4.8s4.8-2.2 4.8-4.8c0-2.7-2.2-4.8-4.8-4.8s-4.8 2.1-4.8 4.8c0 2.7 0-2.7 0 0z"/></g><g><path class="st2" d="M647.4 274.6h35.2c1.9 0 4.6-1.1 6-2.4l25.8-24.9"/><ellipse transform="rotate(-44.048 714.152 247.475)" class="st3" cx="714.2" cy="247.5" rx="5.6" ry="5.6"/><path class="st3" d="M718.6 252c-2.5 2.4-6.5 2.4-8.9-.1-2.4-2.5-2.4-6.5.1-8.9 2.5-2.4 6.5-2.4 8.9.1 2.4 2.5 2.4 6.5-.1 8.9-2.5 2.4 2.5-2.4 0 0zm-7.8-8c-1.9 1.9-2 4.9-.1 6.8s4.9 2 6.8.1c1.9-1.9 2-4.9.1-6.8s-4.9-1.9-6.8-.1c-1.9 1.9 1.9-1.8 0 0z"/></g><g><path class="st2" d="M699 262.2h97.7c1.9 0 4.6-1.1 6-2.4l28.8-27.8c1.4-1.3 4.1-2.4 6-2.4H856"/><circle class="st3" cx="855.6" cy="229.5" r="5.6"/><path class="st3" d="M855.6 235.8c-3.5 0-6.3-2.8-6.3-6.3s2.8-6.3 6.3-6.3 6.3 2.8 6.3 6.3-2.8 6.3-6.3 6.3 3.5 0 0 0zm0-11.1c-2.7 0-4.8 2.2-4.8 4.8s2.2 4.8 4.8 4.8c2.7 0 4.8-2.2 4.8-4.8s-2.1-4.8-4.8-4.8c-2.7 0 2.7 0 0 0z"/></g><g><path class="st2" d="M810.4 252.3h48c1.9 0 4.6 1.1 6 2.4l11.2 10.8"/><ellipse transform="rotate(-45.952 875.343 265.295)" class="st3" cx="875.4" cy="265.3" rx="5.6" ry="5.6"/><path class="st3" d="M871 269.8c-2.5-2.4-2.6-6.4-.1-8.9 2.4-2.5 6.4-2.6 8.9-.1 2.5 2.4 2.6 6.4.1 8.9s-6.4 2.6-8.9.1c-2.5-2.4 2.5 2.5 0 0zm7.8-8c-1.9-1.9-5-1.8-6.8.1-1.9 1.9-1.8 5 .1 6.8 1.9 1.9 5 1.8 6.8-.1 1.8-1.8 1.8-4.9-.1-6.8-2-1.8 1.9 1.9 0 0z"/></g><g><path class="st2" d="M747.1 262.2l22.7 21.9c1.4 1.3 4.1 2.4 6 2.4h102"/><circle class="st3" cx="877.5" cy="286.6" r="5.6"/><path class="st3" d="M877.5 292.9c-3.5 0-6.3-2.8-6.3-6.3s2.8-6.3 6.3-6.3 6.3 2.8 6.3 6.3-2.9 6.3-6.3 6.3c-3.5 0 3.4 0 0 0zm0-11.2c-2.7 0-4.8 2.2-4.8 4.8s2.2 4.8 4.8 4.8c2.7 0 4.8-2.2 4.8-4.8s-2.2-4.8-4.8-4.8c-2.7 0 2.6 0 0 0z"/></g><g><path class="st2" d="M703.8 262.2l39.7 38.4c1.4 1.3 2.5 4 2.5 5.9v13.6c0 1.9-1.1 4.6-2.5 5.9l-9.7 9.4"/><ellipse transform="rotate(-44.048 734.026 335.148)" class="st3" cx="734.1" cy="335.2" rx="5.6" ry="5.6"/><path class="st3" d="M729.7 330.6c2.5-2.4 6.5-2.4 8.9.1 2.4 2.5 2.4 6.5-.1 8.9-2.5 2.4-6.5 2.4-8.9-.1-2.5-2.4-2.4-6.5.1-8.9 2.5-2.4-2.5 2.4 0 0zm7.7 8c1.9-1.9 2-4.9.1-6.8s-4.9-2-6.8-.1c-1.9 1.9-2 4.9-.1 6.8 1.8 1.9 4.9 2 6.8.1 1.9-1.8-1.9 1.9 0 0z"/></g><g><path class="st2" d="M671.8 274.6v24.7c0 1.9 1.6 3.5 3.5 3.5h34.8c1.9 0 4.6 1.1 6 2.4l3.2 3.1"/><ellipse transform="rotate(-45.952 719.073 308.084)" class="st3" cx="719.1" cy="308.1" rx="5.6" ry="5.6"/><path class="st3" d="M714.7 312.6c-2.5-2.4-2.6-6.4-.1-8.9 2.4-2.5 6.4-2.6 8.9-.1 2.5 2.4 2.6 6.4.1 8.9-2.4 2.5-6.4 2.6-8.9.1-2.5-2.4 2.5 2.5 0 0zm7.8-8c-1.9-1.9-5-1.8-6.8.1-1.9 1.9-1.8 5 .1 6.8 1.9 1.9 5 1.8 6.8-.1 1.8-1.9 1.8-4.9-.1-6.8-1.9-1.8 1.9 1.9 0 0z"/></g><g><path class="st2" d="M615.4 286l20.4 19.7c1.4 1.3 2.5 4 2.5 5.9v8.9"/><circle class="st3" cx="638.3" cy="320.3" r="5.6"/><path class="st3" d="M632 320.3c0-3.5 2.8-6.3 6.3-6.3s6.3 2.8 6.3 6.3-2.8 6.3-6.3 6.3-6.3-2.9-6.3-6.3c0-3.5 0 3.4 0 0zm11.1 0c0-2.7-2.2-4.8-4.8-4.8s-4.8 2.2-4.8 4.8c0 2.7 2.2 4.8 4.8 4.8s4.8-2.2 4.8-4.8c0-2.7 0 2.6 0 0z"/></g><g><path class="st2" d="M587.9 292.4l24.8 24c1.4 1.3 2.5 4 2.5 5.9v17.9"/><circle class="st3" cx="615.2" cy="339.9" r="5.6"/><path class="st3" d="M608.9 339.9c0-3.5 2.8-6.3 6.3-6.3s6.3 2.8 6.3 6.3-2.8 6.3-6.3 6.3-6.3-2.8-6.3-6.3 0 3.5 0 0zm11.1 0c0-2.7-2.2-4.8-4.8-4.8s-4.8 2.2-4.8 4.8c0 2.7 2.2 4.8 4.8 4.8s4.8-2.1 4.8-4.8c0-2.6 0 2.7 0 0z"/></g><g><path class="st2" d="M749.8 312.6h46.8c1.9 0 4.6 1.1 6 2.4l60.6 58.6"/><ellipse transform="rotate(-45.952 862.978 373.454)" class="st3" cx="863" cy="373.5" rx="5.6" ry="5.6"/><path class="st3" d="M858.6 378c-2.5-2.4-2.6-6.4-.1-8.9 2.4-2.5 6.4-2.6 8.9-.1 2.5 2.4 2.6 6.4.1 8.9-2.3 2.5-6.4 2.5-8.9.1s2.5 2.4 0 0zm7.8-8c-1.9-1.9-5-1.8-6.8.1s-1.8 5 .1 6.8c1.9 1.9 5 1.8 6.8-.1s1.8-4.9-.1-6.8c-1.9-1.8 1.9 1.9 0 0z"/></g><g><path class="st2" d="M818.6 330.5h100.7c1.9 0 4.6 1.1 6 2.4l41.8 40.4"/><ellipse transform="rotate(-45.952 966.718 373.039)" class="st3" cx="966.8" cy="373.1" rx="5.6" ry="5.6"/><path class="st3" d="M962.4 377.6c-2.5-2.4-2.6-6.4-.1-8.9 2.4-2.5 6.4-2.6 8.9-.1 2.5 2.4 2.6 6.4.1 8.9-2.4 2.5-6.4 2.5-8.9.1s2.5 2.4 0 0zm7.7-8c-1.9-1.9-5-1.8-6.8.1s-1.8 5 .1 6.8c1.9 1.9 5 1.8 6.8-.1s1.9-5-.1-6.8c-1.9-1.9 2 1.8 0 0z"/></g><g><path class="st2" d="M949 355.8v26.5c0 1.9 1.1 4.6 2.5 5.9l.5.5"/><ellipse transform="rotate(-45.952 951.738 388.545)" class="st3" cx="951.8" cy="388.6" rx="5.6" ry="5.6"/><path class="st3" d="M947.4 393.1c-2.5-2.4-2.6-6.4-.1-8.9 2.4-2.5 6.4-2.6 8.9-.1 2.5 2.4 2.6 6.4.1 8.9-2.4 2.5-6.4 2.5-8.9.1s2.5 2.4 0 0zm7.8-8c-1.9-1.9-5-1.8-6.8.1s-1.8 5 .1 6.8c1.9 1.9 5 1.8 6.8-.1 1.8-1.9 1.8-5-.1-6.8-1.9-1.9 1.9 1.8 0 0z"/></g><g><path class="st2" d="M884.3 330.5l27.6 26.7c1.4 1.3 2.5 4 2.5 5.9v7"/><circle class="st3" cx="914.4" cy="369.7" r="5.6"/><path class="st3" d="M908.1 369.7c0-3.5 2.8-6.3 6.3-6.3s6.3 2.8 6.3 6.3-2.8 6.3-6.3 6.3c-3.5.1-6.3-2.8-6.3-6.3 0-3.4 0 3.5 0 0zm11.2 0c0-2.7-2.2-4.8-4.8-4.8-2.7 0-4.8 2.2-4.8 4.8 0 2.7 2.2 4.8 4.8 4.8 2.6.1 4.8-2.1 4.8-4.8 0-2.6 0 2.7 0 0z"/></g><g><path class="st2" d="M847.5 330.5l42.4 41"/><ellipse transform="rotate(-45.952 889.656 371.25)" class="st3" cx="889.7" cy="371.3" rx="5.6" ry="5.6"/><path class="st3" d="M885.3 375.8c-2.5-2.4-2.6-6.4-.1-8.9 2.4-2.5 6.4-2.6 8.9-.1 2.5 2.4 2.6 6.4.1 8.9s-6.4 2.5-8.9.1 2.5 2.4 0 0zm7.8-8c-1.9-1.9-5-1.8-6.8.1-1.9 1.9-1.8 5 .1 6.8 1.9 1.9 5 1.8 6.8-.1 1.8-1.9 1.8-4.9-.1-6.8-1.9-1.9 1.9 1.9 0 0z"/></g><g><path class="st2" d="M873.9 330l28.8-27.9c1.4-1.3 4.1-2.4 6-2.4h41.6"/><circle class="st3" cx="950" cy="299.7" r="5.6"/><path class="st3" d="M950 306c-3.5 0-6.3-2.8-6.3-6.3s2.8-6.3 6.3-6.3 6.3 2.8 6.3 6.3-2.8 6.3-6.3 6.3c-3.4 0 3.5 0 0 0zm0-11.1c-2.7 0-4.8 2.2-4.8 4.8s2.2 4.8 4.8 4.8c2.7 0 4.8-2.2 4.8-4.8s-2.1-4.8-4.8-4.8c-2.6 0 2.7 0 0 0z"/></g><g><path class="st2" d="M932.7 299.7l46.6 45.1c1.4 1.3 4.1 2.4 6 2.4H997"/><circle class="st3" cx="996.7" cy="347.2" r="5.6"/><path class="st3" d="M996.7 353.6c-3.5 0-6.3-2.8-6.3-6.3s2.8-6.3 6.3-6.3 6.3 2.8 6.3 6.3c0 3.4-2.8 6.3-6.3 6.3s3.5 0 0 0zm0-11.2c-2.7 0-4.8 2.2-4.8 4.8 0 2.7 2.2 4.8 4.8 4.8 2.7 0 4.8-2.2 4.8-4.8.1-2.6-2.1-4.8-4.8-4.8-2.6 0 2.7 0 0 0z"/></g><g><path class="st2" d="M969.5 335.4l7.7-7.4"/><ellipse transform="rotate(-44.048 976.92 328.172)" class="st3" cx="977" cy="328.2" rx="5.6" ry="5.6"/><path class="st3" d="M981.4 332.7c-2.5 2.4-6.5 2.4-8.9-.1-2.4-2.5-2.4-6.5.1-8.9 2.5-2.4 6.5-2.4 8.9.1 2.4 2.5 2.4 6.5-.1 8.9-2.6 2.4 2.5-2.4 0 0zm-7.8-8c-1.9 1.9-2 4.9-.1 6.8 1.9 1.9 4.9 2 6.8.1 1.9-1.9 2-4.9.1-6.8-1.8-1.9-4.9-1.9-6.8-.1-1.9 1.9 1.9-1.8 0 0z"/></g><g><path class="st2" d="M944.1 351.1h14.1c1.9 0 4.6 1.1 6 2.4l18.3 17.7c1.4 1.3 4.1 2.4 6 2.4h8.5"/><circle class="st3" cx="996.7" cy="373.6" r="5.6"/><path class="st3" d="M996.7 379.9c-3.5 0-6.3-2.8-6.3-6.3s2.8-6.3 6.3-6.3 6.3 2.8 6.3 6.3-2.8 6.3-6.3 6.3 3.5 0 0 0zm0-11.1c-2.7 0-4.8 2.2-4.8 4.8 0 2.7 2.2 4.8 4.8 4.8 2.7 0 4.8-2.2 4.8-4.8.1-2.6-2.1-4.8-4.8-4.8-2.6 0 2.7 0 0 0z"/></g><g><path class="st2" d="M775.7 312.5v40c0 1.9 1.1 4.6 2.5 5.9l66.2 64c1.4 1.3 2.5 4 2.5 5.9v59.1"/><circle class="st3" cx="846.8" cy="487.1" r="5.6"/><path class="st3" d="M840.5 487.1c0-3.5 2.8-6.3 6.3-6.3s6.3 2.8 6.3 6.3-2.8 6.3-6.3 6.3-6.3-2.8-6.3-6.3c0-3.4 0 3.5 0 0zm11.2 0c0-2.7-2.2-4.8-4.8-4.8s-4.8 2.2-4.8 4.8c0 2.7 2.2 4.8 4.8 4.8s4.8-2.1 4.8-4.8c0-2.6 0 2.7 0 0z"/></g><g><path class="st2" d="M808.7 321.1v31.4c0 1.9 1.1 4.6 2.5 5.9l39 37.7"/><ellipse transform="rotate(-45.952 849.943 395.913)" class="st3" cx="850" cy="395.9" rx="5.6" ry="5.6"/><path class="st3" d="M845.6 400.5c-2.5-2.4-2.6-6.4-.1-8.9 2.4-2.5 6.4-2.6 8.9-.1 2.5 2.4 2.6 6.4.1 8.9-2.4 2.4-6.4 2.5-8.9.1s2.5 2.4 0 0zm7.8-8c-1.9-1.9-5-1.8-6.8.1s-1.8 5 .1 6.8c1.9 1.9 5 1.8 6.8-.1s1.8-5-.1-6.8c-2-1.9 1.9 1.8 0 0z"/></g><g><path class="st2" d="M740 336.3l9.3 9c1.4 1.3 2.5 4 2.5 5.9v28.9c0 1.9 1.1 4.6 2.5 5.9l22.9 22.1"/><ellipse transform="rotate(-45.952 776.93 407.932)" class="st3" cx="777" cy="408" rx="5.6" ry="5.6"/><path class="st3" d="M772.6 412.5c-2.5-2.4-2.6-6.4-.1-8.9 2.4-2.5 6.4-2.6 8.9-.1 2.5 2.4 2.6 6.4.1 8.9-2.4 2.4-6.4 2.5-8.9.1s2.5 2.4 0 0zm7.7-8c-1.9-1.9-5-1.8-6.8.1s-1.8 5 .1 6.8c1.9 1.9 5 1.8 6.8-.1s1.9-5-.1-6.8c-1.9-1.9 2 1.8 0 0z"/></g><g><path class="st2" d="M751.8 369.5H765c1.9 0 4.6 1.1 6 2.4l27.9 27"/><ellipse transform="rotate(-45.952 798.652 398.675)" class="st3" cx="798.7" cy="398.7" rx="5.6" ry="5.6"/><path class="st3" d="M794.3 403.2c-2.5-2.4-2.6-6.4-.1-8.9 2.4-2.5 6.4-2.6 8.9-.1 2.5 2.4 2.6 6.4.1 8.9-2.4 2.5-6.4 2.6-8.9.1-2.5-2.4 2.5 2.5 0 0zm7.8-8c-1.9-1.9-5-1.8-6.8.1s-1.8 5 .1 6.8c1.9 1.9 5 1.8 6.8-.1s1.8-4.9-.1-6.8c-2-1.8 1.9 1.9 0 0z"/></g><g><path class="st2" d="M688.6 336.3v22.3c0 1.9 1.1 4.6 2.5 5.9l18.2 17.6"/><ellipse transform="rotate(-45.952 709.014 381.837)" class="st3" cx="709.1" cy="381.9" rx="5.6" ry="5.6"/><path class="st3" d="M704.7 386.4c-2.5-2.4-2.6-6.4-.1-8.9 2.4-2.5 6.4-2.6 8.9-.1 2.5 2.4 2.6 6.4.1 8.9-2.4 2.5-6.4 2.5-8.9.1s2.5 2.4 0 0zm7.7-8c-1.9-1.9-5-1.8-6.8.1s-1.8 5 .1 6.8c1.9 1.9 5 1.8 6.8-.1s1.8-5-.1-6.8c-1.9-1.9 1.9 1.8 0 0z"/></g><g><path class="st2" d="M525.9 92.6l29-28.1"/><ellipse transform="rotate(-44.048 554.648 64.679)" class="st3" cx="554.7" cy="64.7" rx="5.6" ry="5.6"/><path class="st3" d="M559.1 69.2c-2.5 2.4-6.5 2.4-8.9-.1-2.4-2.5-2.4-6.5.1-8.9 2.5-2.4 6.5-2.4 8.9.1 2.4 2.5 2.4 6.5-.1 8.9-2.5 2.4 2.5-2.4 0 0zm-7.8-8c-1.9 1.9-2 4.9-.1 6.8s4.9 2 6.8.1c1.9-1.9 2-4.9.1-6.8s-4.9-1.9-6.8-.1c-1.9 1.9 1.9-1.8 0 0z"/></g><g><path class="st2" d="M553.3 38.3l24.2-23.5c1.4-1.3 4.1-2.4 6-2.4h56.1c1.9 0 4.6 1.1 6 2.4l12.6 12.1"/><ellipse transform="rotate(-45.952 657.915 26.715)" class="st3" cx="658" cy="26.7" rx="5.6" ry="5.6"/><path class="st3" d="M653.6 31.3c-2.5-2.4-2.6-6.4-.1-8.9 2.4-2.5 6.4-2.6 8.9-.1 2.5 2.4 2.6 6.4.1 8.9s-6.4 2.5-8.9.1c-2.5-2.5 2.5 2.4 0 0zm7.7-8.1c-1.9-1.9-5-1.8-6.8.1-1.9 1.9-1.8 5 .1 6.8 1.9 1.9 5 1.8 6.8-.1 1.9-1.8 1.8-4.9-.1-6.8-1.9-1.8 1.9 1.9 0 0z"/></g><g><path class="st2" d="M581.9 54.2L595.6 41c1.4-1.3 4.1-2.4 6-2.4h26.3"/><circle class="st3" cx="627.5" cy="38.6" r="5.6"/><path class="st3" d="M627.5 44.9c-3.5 0-6.3-2.8-6.3-6.3s2.8-6.3 6.3-6.3 6.3 2.8 6.3 6.3c.1 3.4-2.8 6.3-6.3 6.3-3.4 0 3.5 0 0 0zm0-11.2c-2.7 0-4.8 2.2-4.8 4.8 0 2.7 2.2 4.8 4.8 4.8 2.7 0 4.8-2.2 4.8-4.8.1-2.6-2.1-4.8-4.8-4.8-2.6 0 2.7 0 0 0z"/></g><g><path class="st2" d="M602.6 62.3h30c1.9 0 4.6 1.1 6 2.4l4 3.9"/><ellipse transform="rotate(-45.952 642.325 68.364)" class="st3" cx="642.4" cy="68.4" rx="5.6" ry="5.6"/><path class="st3" d="M638 72.9c-2.5-2.4-2.6-6.4-.1-8.9 2.4-2.5 6.4-2.6 8.9-.1 2.5 2.4 2.6 6.4.1 8.9-2.4 2.5-6.4 2.5-8.9.1s2.5 2.4 0 0zm7.7-8c-1.9-1.9-5-1.8-6.8.1-1.9 1.9-1.8 5 .1 6.8 1.9 1.9 5 1.8 6.8-.1s1.8-5-.1-6.8c-1.9-1.9 1.9 1.8 0 0z"/></g><g><path class="st2" d="M604.9 136.2h48.8c1.9 0 4.6-1.1 6-2.4l60.6-58.6c1.4-1.3 2.5-4 2.5-5.9v-11c0-1.9 1.1-4.6 2.5-5.9l11.5-11.1"/><ellipse transform="rotate(-44.048 736.526 41.454)" class="st3" cx="736.6" cy="41.5" rx="5.6" ry="5.6"/><path class="st3" d="M740.9 46c-2.5 2.4-6.5 2.4-8.9-.1s-2.4-6.5.1-8.9c2.5-2.4 6.5-2.4 8.9.1 2.5 2.5 2.4 6.5-.1 8.9-2.5 2.4 2.5-2.4 0 0zm-7.7-8c-1.9 1.9-2 4.9-.1 6.8 1.9 1.9 4.9 2 6.8.1 1.9-1.9 2-4.9.1-6.8s-4.9-2-6.8-.1c-1.9 1.8 1.9-1.9 0 0z"/></g><g><path class="st2" d="M701.1 94.4h21c1.9 0 4.6-1.1 6-2.4l29.3-28.3"/><ellipse transform="rotate(-44.048 757.098 63.853)" class="st3" cx="757.1" cy="63.9" rx="5.6" ry="5.6"/><path class="st3" d="M761.5 68.4c-2.5 2.4-6.5 2.4-8.9-.1-2.4-2.5-2.4-6.5.1-8.9 2.5-2.4 6.5-2.4 8.9.1 2.5 2.5 2.4 6.5-.1 8.9-2.5 2.4 2.5-2.4 0 0zm-7.7-8c-1.9 1.9-2 4.9-.1 6.8 1.9 1.9 4.9 2 6.8.1 1.9-1.9 2-4.9.1-6.8s-4.9-2-6.8-.1c-1.9 1.8 1.9-1.9 0 0z"/></g><g><path class="st2" d="M671.8 123.4h64.7c1.9 0 4.6-1.1 6-2.4l24.8-24"/><ellipse transform="rotate(-44.048 766.997 97.234)" class="st3" cx="767" cy="97.2" rx="5.6" ry="5.6"/><path class="st3" d="M771.4 101.8c-2.5 2.4-6.5 2.4-8.9-.1-2.4-2.5-2.4-6.5.1-8.9 2.5-2.4 6.5-2.4 8.9.1s2.4 6.5-.1 8.9c-2.5 2.4 2.5-2.4 0 0zm-7.7-8c-1.9 1.9-2 4.9-.1 6.8 1.9 1.9 4.9 2 6.8.1 1.9-1.9 2-4.9.1-6.8-1.8-1.9-4.9-2-6.8-.1-1.9 1.8 1.9-1.9 0 0z"/></g><g><path class="st2" d="M604 158.9h68.6c1.9 0 4.6-1.1 6-2.4l8.3-8c1.4-1.3 4.1-2.4 6-2.4h109.9"/><circle class="st3" cx="802.4" cy="146.1" r="5.6"/><path class="st3" d="M802.4 152.4c-3.5 0-6.3-2.8-6.3-6.3s2.8-6.3 6.3-6.3 6.3 2.8 6.3 6.3-2.8 6.3-6.3 6.3 3.5 0 0 0zm0-11.1c-2.7 0-4.8 2.2-4.8 4.8 0 2.7 2.2 4.8 4.8 4.8 2.7 0 4.8-2.2 4.8-4.8 0-2.7-2.2-4.8-4.8-4.8-2.7 0 2.6 0 0 0z"/></g><g><path class="st2" d="M645.4 158.9l25.6 24.8c1.4 1.3 4.1 2.4 6 2.4h100.6"/><circle class="st3" cx="777.3" cy="186.1" r="5.6"/><path class="st3" d="M777.3 192.4c-3.5 0-6.3-2.8-6.3-6.3s2.8-6.3 6.3-6.3 6.3 2.8 6.3 6.3-2.8 6.3-6.3 6.3 3.5 0 0 0zm0-11.1c-2.7 0-4.8 2.2-4.8 4.8s2.2 4.8 4.8 4.8c2.7 0 4.8-2.2 4.8-4.8s-2.1-4.8-4.8-4.8c-2.6 0 2.7 0 0 0z"/></g><g><path class="st2" d="M694.3 186.3l18.8-18.2c1.4-1.3 4.1-2.4 6-2.4h48"/><circle class="st3" cx="766.9" cy="165.7" r="5.6"/><path class="st3" d="M766.9 172c-3.5 0-6.3-2.8-6.3-6.3s2.8-6.3 6.3-6.3 6.3 2.8 6.3 6.3-2.9 6.3-6.3 6.3c-3.5 0 3.4 0 0 0zm0-11.1c-2.7 0-4.8 2.2-4.8 4.8s2.2 4.8 4.8 4.8c2.7 0 4.8-2.2 4.8-4.8s-2.2-4.8-4.8-4.8c-2.7 0 2.6 0 0 0z"/></g><g><path class="st2" d="M720.7 186.1l26.9 26c1.4 1.3 4.1 2.4 6 2.4h7.4"/><circle class="st3" cx="760.7" cy="214.6" r="5.6"/><path class="st3" d="M760.7 220.9c-3.5 0-6.3-2.8-6.3-6.3s2.8-6.3 6.3-6.3 6.3 2.8 6.3 6.3-2.8 6.3-6.3 6.3 3.5 0 0 0zm0-11.1c-2.7 0-4.8 2.2-4.8 4.8s2.2 4.8 4.8 4.8c2.7 0 4.8-2.2 4.8-4.8s-2.1-4.8-4.8-4.8c-2.7 0 2.7 0 0 0z"/></g><g><path class="st2" d="M516.6 400.3l13.9 13.4c1.4 1.3 4.1 2.4 6 2.4h107.4c1.9 0 4.6 1.1 6 2.4l17.2 16.6"/><ellipse transform="rotate(-45.952 666.835 434.986)" class="st3" cx="666.9" cy="435" rx="5.6" ry="5.6"/><path class="st3" d="M662.5 439.6c-2.5-2.4-2.6-6.4-.1-8.9 2.4-2.5 6.4-2.6 8.9-.1 2.5 2.4 2.6 6.4.1 8.9-2.4 2.4-6.4 2.5-8.9.1-2.5-2.5 2.5 2.4 0 0zm7.7-8.1c-1.9-1.9-5-1.8-6.8.1-1.9 1.9-1.8 5 .1 6.8 1.9 1.9 5 1.8 6.8-.1s1.9-4.9-.1-6.8c-1.9-1.8 2 1.9 0 0z"/></g><g><path class="st2" d="M568.5 415.5l28.7-27.8c1.4-1.3 4.1-2.4 6-2.4h30.7c1.9 0 4.6-1.1 6-2.4l12.4-12"/><ellipse transform="rotate(-44.048 652.094 371.118)" class="st3" cx="652.1" cy="371.1" rx="5.6" ry="5.6"/><path class="st3" d="M656.5 375.7c-2.5 2.4-6.5 2.4-8.9-.1-2.4-2.5-2.4-6.5.1-8.9 2.5-2.4 6.5-2.4 8.9.1 2.5 2.5 2.4 6.5-.1 8.9-2.5 2.4 2.5-2.4 0 0zm-7.7-8c-1.9 1.9-2 4.9-.1 6.8s4.9 2 6.8.1c1.9-1.9 2-4.9.1-6.8s-4.9-2-6.8-.1c-1.9 1.8 1.9-1.9 0 0z"/></g><g><path class="st2" d="M587.9 397.5h80.4c1.9 0 4.6 1.1 6 2.4l9.6 9.2"/><ellipse transform="rotate(-45.952 683.622 408.9)" class="st3" cx="683.7" cy="408.9" rx="5.6" ry="5.6"/><path class="st3" d="M679.3 413.5c-2.5-2.4-2.6-6.4-.1-8.9s6.4-2.6 8.9-.1c2.5 2.4 2.6 6.4.1 8.9-2.4 2.4-6.4 2.5-8.9.1-2.5-2.5 2.5 2.4 0 0zm7.7-8c-1.9-1.9-5-1.8-6.8.1-1.9 1.9-1.8 5 .1 6.8 1.9 1.9 5 1.8 6.8-.1 1.9-1.9 1.8-5-.1-6.8-1.9-1.9 1.9 1.8 0 0z"/></g><g><path class="st2" d="M505.5 410.9l57.6 55.7c1.4 1.3 4.1 2.4 6 2.4h110.4c1.9 0 4.6 1.1 6 2.4l.3.3"/><ellipse transform="rotate(-45.952 685.594 471.528)" class="st3" cx="685.6" cy="471.6" rx="5.6" ry="5.6"/><path class="st3" d="M681.3 476.1c-2.5-2.4-2.6-6.4-.1-8.9 2.4-2.5 6.4-2.6 8.9-.1 2.5 2.4 2.6 6.4.1 8.9-2.4 2.4-6.4 2.5-8.9.1s2.5 2.4 0 0zm7.7-8c-1.9-1.9-5-1.8-6.8.1s-1.8 5 .1 6.8c1.9 1.9 5 1.8 6.8-.1s1.8-5-.1-6.8c-1.9-1.9 1.9 1.8 0 0z"/></g><g><path class="st2" d="M567.7 416.2V436c0 1.9 1.6 3.5 3.5 3.5h50c1.9 0 4.6 1.1 6 2.4l3.2 3.1"/><ellipse transform="rotate(-45.952 630.188 444.835)" class="st3" cx="630.2" cy="444.9" rx="5.6" ry="5.6"/><path class="st3" d="M625.8 449.4c-2.5-2.4-2.6-6.4-.1-8.9 2.4-2.5 6.4-2.6 8.9-.1 2.5 2.4 2.6 6.4.1 8.9-2.3 2.5-6.4 2.5-8.9.1s2.5 2.4 0 0zm7.8-8c-1.9-1.9-5-1.8-6.8.1s-1.8 5 .1 6.8c1.9 1.9 5 1.8 6.8-.1s1.8-5-.1-6.8c-1.9-1.9 1.9 1.8 0 0z"/></g><g><path class="st2" d="M575.9 469.3v13.2c0 1.9 1.1 4.6 2.5 5.9l4 3.8"/><ellipse transform="rotate(-45.952 582.075 492.047)" class="st3" cx="582.1" cy="492.1" rx="5.6" ry="5.6"/><path class="st3" d="M577.7 496.6c-2.5-2.4-2.6-6.4-.1-8.9 2.4-2.5 6.4-2.6 8.9-.1 2.5 2.4 2.6 6.4.1 8.9-2.4 2.5-6.4 2.5-8.9.1s2.5 2.4 0 0zm7.8-8c-1.9-1.9-5-1.8-6.8.1s-1.8 5 .1 6.8c1.9 1.9 5 1.8 6.8-.1s1.8-4.9-.1-6.8c-1.9-1.8 1.9 1.9 0 0z"/></g><g><path class="st2" d="M594.8 469.3l20.1 19.5"/><ellipse transform="rotate(-45.952 614.674 488.527)" class="st3" cx="614.7" cy="488.6" rx="5.6" ry="5.6"/><path class="st3" d="M610.3 493.1c-2.5-2.4-2.6-6.4-.1-8.9s6.4-2.6 8.9-.1c2.5 2.4 2.6 6.4.1 8.9-2.4 2.4-6.4 2.5-8.9.1s2.5 2.4 0 0zm7.8-8c-1.9-1.9-5-1.8-6.8.1-1.9 1.9-1.8 5 .1 6.8 1.9 1.9 5 1.8 6.8-.1s1.8-5-.1-6.8c-1.9-1.9 1.9 1.8 0 0z"/></g><g><path class="st2" d="M452.6 518l46.3 44.8c1.4 1.3 2.5 4 2.5 5.9v9.9"/><circle class="st3" cx="501.4" cy="578.4" r="5.6"/><path class="st3" d="M495.1 578.4c0-3.5 2.8-6.3 6.3-6.3s6.3 2.8 6.3 6.3-2.8 6.3-6.3 6.3-6.3-2.9-6.3-6.3c0-3.5 0 3.4 0 0zm11.1 0c0-2.7-2.2-4.8-4.8-4.8s-4.8 2.2-4.8 4.8c0 2.7 2.2 4.8 4.8 4.8s4.8-2.2 4.8-4.8c0-2.7 0 2.6 0 0z"/></g><g><path class="st2" d="M484.4 547.8h13.4c1.9 0 4.6 1.1 6 2.4l15.9 15.4c1.4 1.3 2.5 4 2.5 5.9v10.4"/><circle class="st3" cx="522.3" cy="581.6" r="5.6"/><path class="st3" d="M516 581.6c0-3.5 2.8-6.3 6.3-6.3s6.3 2.8 6.3 6.3-2.8 6.3-6.3 6.3-6.3-2.9-6.3-6.3c0-3.5 0 3.4 0 0zm11.1 0c0-2.7-2.2-4.8-4.8-4.8s-4.8 2.2-4.8 4.8c0 2.7 2.2 4.8 4.8 4.8s4.8-2.2 4.8-4.8c0-2.7 0 2.6 0 0z"/></g><g><path class="st2" d="M543.2 573.7H606c1.9 0 4.6-1.1 6-2.4l45.3-43.8"/><ellipse transform="rotate(-44.048 657.078 527.675)" class="st3" cx="657.1" cy="527.7" rx="5.6" ry="5.6"/><path class="st3" d="M661.5 532.2c-2.5 2.4-6.5 2.4-8.9-.1-2.4-2.5-2.4-6.5.1-8.9 2.5-2.4 6.5-2.4 8.9.1s2.4 6.5-.1 8.9c-2.5 2.5 2.5-2.4 0 0zm-7.8-8c-1.9 1.9-2 4.9-.1 6.8 1.9 1.9 4.9 2 6.8.1 1.9-1.9 2-4.9.1-6.8-1.8-1.9-4.8-1.9-6.8-.1-1.9 1.9 2-1.8 0 0z"/></g><g><path class="st2" d="M621.4 562.3v-19.8c0-1.9 1.1-4.6 2.5-5.9l12.7-12.3"/><ellipse transform="rotate(-44.053 636.292 524.423)" class="st3" cx="636.4" cy="524.4" rx="5.6" ry="5.6"/><path class="st3" d="M640.7 529c-2.5 2.4-6.5 2.4-8.9-.1s-2.4-6.5.1-8.9c2.5-2.4 6.5-2.4 8.9.1 2.5 2.4 2.4 6.4-.1 8.9-2.5 2.4 2.5-2.5 0 0zm-7.7-8c-1.9 1.9-2 4.9-.1 6.8 1.9 1.9 4.9 2 6.8.1 1.9-1.9 2-4.9.1-6.8-1.8-1.9-4.9-2-6.8-.1-1.9 1.8 1.9-1.9 0 0z"/></g><g><path class="st2" d="M577.2 573.7v-36.6c0-1.9 1.1-4.6 2.5-5.9l9.6-9.3"/><ellipse transform="rotate(-44.048 589.109 522.113)" class="st3" cx="589.1" cy="522.1" rx="5.6" ry="5.6"/><path class="st3" d="M593.5 526.7c-2.5 2.4-6.5 2.4-8.9-.1-2.4-2.5-2.4-6.5.1-8.9 2.5-2.4 6.5-2.4 8.9.1 2.5 2.5 2.4 6.5-.1 8.9-2.5 2.4 2.5-2.4 0 0zm-7.7-8c-1.9 1.9-2 4.9-.1 6.8s4.9 2 6.8.1c1.9-1.9 2-4.9.1-6.8s-4.9-2-6.8-.1c-1.9 1.8 1.9-1.9 0 0z"/></g><g><path class="st2" d="M578.5 551.2h10.6c1.9 0 4.6-1.1 6-2.4l19.7-19"/><ellipse transform="rotate(-44.053 614.489 529.926)" class="st3" cx="614.6" cy="529.9" rx="5.6" ry="5.6"/><path class="st3" d="M618.9 534.5c-2.5 2.4-6.5 2.4-8.9-.1-2.4-2.5-2.4-6.5.1-8.9 2.5-2.4 6.5-2.4 8.9.1 2.5 2.4 2.4 6.4-.1 8.9-2.5 2.4 2.5-2.5 0 0zm-7.7-8c-1.9 1.9-2 4.9-.1 6.8s4.9 2 6.8.1c1.9-1.9 2-4.9.1-6.8s-4.9-2-6.8-.1c-1.9 1.8 1.9-1.9 0 0z"/></g><g><path class="st2" d="M503.5 609.9v41.8c0 1.9 1.1 4.6 2.5 5.9l15.8 15.3c1.4 1.3 2.5 4 2.5 5.9v27.5"/><circle class="st3" cx="524.3" cy="706.1" r="5.6"/><path class="st3" d="M518 706.1c0-3.5 2.8-6.3 6.3-6.3s6.3 2.8 6.3 6.3-2.8 6.3-6.3 6.3-6.3-2.9-6.3-6.3c0-3.5 0 3.4 0 0zm11.1 0c0-2.7-2.2-4.8-4.8-4.8-2.7 0-4.8 2.2-4.8 4.8 0 2.7 2.2 4.8 4.8 4.8 2.6 0 4.8-2.2 4.8-4.8 0-2.7 0 2.6 0 0z"/></g><g><path class="st2" d="M503.5 704v23.5c0 1.9 1.1 4.6 2.5 5.9l.7.7"/><ellipse transform="rotate(-45.952 506.4 733.824)" class="st3" cx="506.4" cy="733.9" rx="5.6" ry="5.6"/><path class="st3" d="M502 738.4c-2.5-2.4-2.6-6.4-.1-8.9 2.4-2.5 6.4-2.6 8.9-.1 2.5 2.4 2.6 6.4.1 8.9-2.3 2.5-6.3 2.5-8.9.1-2.5-2.4 2.6 2.4 0 0zm7.8-8c-1.9-1.9-5-1.8-6.8.1s-1.8 5 .1 6.8c1.9 1.9 5 1.8 6.8-.1 1.9-1.9 1.8-4.9-.1-6.8-1.9-1.9 1.9 1.9 0 0z"/></g><g><path class="st2" d="M510.2 661.1l-9.6 9.3"/><ellipse transform="rotate(-44.048 500.773 670.16)" class="st3" cx="500.8" cy="670.2" rx="5.6" ry="5.6"/><path class="st3" d="M496.4 665.7c2.5-2.4 6.5-2.4 8.9.1 2.4 2.5 2.4 6.5-.1 8.9-2.5 2.4-6.5 2.4-8.9-.1-2.5-2.5-2.4-6.5.1-8.9 2.5-2.5-2.5 2.4 0 0zm7.7 8c1.9-1.9 2-4.9.1-6.8s-4.9-2-6.8-.1c-1.9 1.9-2 4.9-.1 6.8 1.9 1.9 4.9 1.9 6.8.1 2-1.9-1.9 1.8 0 0z"/></g><g><path class="st2" d="M533.3 599.4l16.9 16.3c1.4 1.3 2.5 4 2.5 5.9v.4"/><circle class="st3" cx="552.7" cy="621.7" r="5.6"/><path class="st3" d="M546.4 621.7c0-3.5 2.8-6.3 6.3-6.3s6.3 2.8 6.3 6.3-2.8 6.3-6.3 6.3-6.3-2.8-6.3-6.3c0-3.4 0 3.5 0 0zm11.1 0c0-2.7-2.2-4.8-4.8-4.8s-4.8 2.2-4.8 4.8c0 2.7 2.2 4.8 4.8 4.8s4.8-2.1 4.8-4.8c0-2.6 0 2.7 0 0z"/></g><g><path class="st2" d="M537.7 603.9h96.2c1.9 0 4.6 1.1 6 2.4l5.1 5"/><ellipse transform="rotate(-45.949 644.91 611.136)" class="st3" cx="644.9" cy="611.1" rx="5.6" ry="5.6"/><path class="st3" d="M640.5 615.6c-2.5-2.4-2.6-6.4-.1-8.9 2.4-2.5 6.4-2.6 8.9-.1 2.5 2.4 2.6 6.4.1 8.9-2.4 2.5-6.4 2.6-8.9.1-2.5-2.4 2.5 2.5 0 0zm7.7-8c-1.9-1.9-5-1.8-6.8.1s-1.8 5 .1 6.8c1.9 1.9 5 1.8 6.8-.1s1.8-4.9-.1-6.8c-1.9-1.8 1.9 1.9 0 0z"/></g><g><path class="st2" d="M648.8 607h7.8c1.9 0 4.6-1.1 6-2.4l9.6-9.3"/><ellipse transform="rotate(-44.048 671.887 595.507)" class="st3" cx="671.9" cy="595.5" rx="5.6" ry="5.6"/><path class="st3" d="M676.3 600.1c-2.5 2.4-6.5 2.4-8.9-.1-2.4-2.5-2.4-6.5.1-8.9 2.5-2.4 6.5-2.4 8.9.1 2.5 2.5 2.4 6.5-.1 8.9-2.5 2.4 2.5-2.4 0 0zm-7.7-8c-1.9 1.9-2 4.9-.1 6.8s4.9 2 6.8.1c1.9-1.9 2-4.9.1-6.8s-4.9-2-6.8-.1c-2 1.8 1.9-1.9 0 0z"/></g><g><path class="st2" d="M271.1 683.9v5.7c0 1.9 1.1 4.6 2.5 5.9l22.2 21.5"/><ellipse transform="rotate(-45.952 295.624 716.757)" class="st3" cx="295.6" cy="716.8" rx="5.6" ry="5.6"/><path class="st3" d="M291.3 721.3c-2.5-2.4-2.6-6.4-.1-8.9s6.4-2.6 8.9-.1c2.5 2.4 2.6 6.4.1 8.9-2.4 2.5-6.4 2.6-8.9.1-2.5-2.4 2.5 2.5 0 0zm7.7-8c-1.9-1.9-5-1.8-6.8.1-1.9 1.9-1.8 5 .1 6.8 1.9 1.9 5 1.8 6.8-.1 1.9-1.9 1.8-4.9-.1-6.8-1.9-1.8 1.9 1.9 0 0z"/></g><ellipse class="st1" cx="52.6" cy="482.5" rx="11.3" ry="11"/><ellipse class="st1" cx="211.9" cy="479.5" rx="11.3" ry="11"/><ellipse class="st1" cx="326.5" cy="74.8" rx="11.3" ry="11"/><path class="st1" d="M557 1.3c0 6.1-5.1 11-11.3 11-6.3 0-11.3-4.9-11.3-11"/><ellipse class="st1" cx="811.5" cy="78.3" rx="11.3" ry="11"/><ellipse class="st1" cx="636.1" cy="207.5" rx="11.3" ry="11"/><ellipse class="st1" cx="562" cy="279.8" rx="11.3" ry="11"/><ellipse class="st1" cx="439.9" cy="296.9" rx="11.3" ry="11"/><ellipse class="st1" cx="542" cy="323.6" rx="11.3" ry="11"/><ellipse class="st1" cx="348.1" cy="290" rx="11.3" ry="11"/><ellipse class="st1" cx="364.1" cy="430.6" rx="11.3" ry="11"/><ellipse class="st1" cx="145" cy="430.6" rx="11.3" ry="11"/><ellipse class="st1" cx="820.3" cy="204.9" rx="11.3" ry="11"/><ellipse class="st1" cx="893.3" cy="428.6" rx="11.3" ry="11"/><ellipse class="st1" cx="728.7" cy="463.3" rx="11.3" ry="11"/><ellipse class="st1" cx="531.9" cy="383.6" rx="11.3" ry="11"/><ellipse class="st1" cx="371.1" cy="115.7" rx="11.3" ry="11"/><ellipse class="st1" cx="122.6" cy="241" rx="11.3" ry="11"/><ellipse class="st1" cx="165.6" cy="123.4" rx="11.3" ry="11"/><ellipse class="st1" cx="260.9" cy="54.2" rx="11.3" ry="11"/><ellipse class="st1" cx="736.9" cy="404.1" rx="11.3" ry="11"/><ellipse class="st1" cx="542" cy="531.8" rx="11.3" ry="11"/><ellipse class="st1" cx="668.8" cy="498.6" rx="11.3" ry="11"/><ellipse class="st1" cx="708.9" cy="30.2" rx="11.3" ry="11"/><ellipse class="st1" cx="595.7" cy="70.9" rx="11.3" ry="11"/><ellipse class="st1" cx="623" cy="106" rx="11.3" ry="11"/><ellipse class="st1" cx="507.1" cy="72.5" rx="11.3" ry="11"/><ellipse class="st1" cx="455.7" cy="634.5" rx="11.3" ry="11"/><ellipse class="st1" cx="562" cy="682.6" rx="11.3" ry="11"/><ellipse class="st1" cx="637.4" cy="584.7" rx="11.3" ry="11"/><ellipse class="st1" cx="315.5" cy="535.4" rx="11.3" ry="11"/></g></svg>