<?xml version="1.0" encoding="utf-8"?>
<!-- Generator: Adobe Illustrator 21.1.0, SVG Export Plug-In . SVG Version: 6.00 Build 0)  -->
<svg version="1.1" id="Layer_1" xmlns="http://www.w3.org/2000/svg" xmlns:xlink="http://www.w3.org/1999/xlink" x="0px" y="0px"
	 width="433px" height="306px" viewBox="0 0 433 306" style="enable-background:new 0 0 433 306;" xml:space="preserve">
<style type="text/css">
	.st0{opacity:0.1;}
	.st1{fill:#8FAAC7;}
</style>
<g class="st0">
	<polygon class="st1" points="414.1,256.7 410.2,257.7 414.1,258.8 415.1,262.6 416.1,258.8 420,257.7 416.1,256.7 415.1,252.8 	"/>
	<polygon class="st1" points="212.4,11.5 209.9,12.2 212.4,12.8 213.1,15.4 213.7,12.8 216.3,12.2 213.7,11.5 213.1,9 	"/>
	<polygon class="st1" points="17.6,252.3 15.6,252.8 17.6,253.4 18.1,255.3 18.6,253.4 20.5,252.8 18.6,252.3 18.1,250.4 	"/>
	<polygon class="st1" points="137,238.3 135.1,238.8 137,239.3 137.5,241.3 138.1,239.3 140,238.8 138.1,238.3 137.5,236.4 	"/>
	<polygon class="st1" points="148.2,147.3 144.4,148.3 148.2,149.3 149.3,153.2 150.3,149.3 154.2,148.3 150.3,147.3 149.3,143.4 	
		"/>
	<polygon class="st1" points="319.7,292.2 317.1,292.8 319.7,293.5 320.3,296 321,293.5 323.5,292.8 321,292.2 320.3,289.7 	"/>
	<polygon class="st1" points="343.3,19.3 340.8,19.9 343.3,20.6 344,23.1 344.6,20.6 347.1,19.9 344.6,19.3 344,16.8 	"/>
	<polygon class="st1" points="417.5,58.6 413.7,59.6 417.5,60.6 418.6,64.5 419.6,60.6 423.5,59.6 419.6,58.6 418.6,54.7 	"/>
	<polygon class="st1" points="115.8,287.5 111.9,288.5 115.8,289.5 116.8,293.4 117.8,289.5 121.7,288.5 117.8,287.5 116.8,283.6 	
		"/>
	<polygon class="st1" points="179,195.9 175.1,197 179,198 180,201.8 181.1,198 184.9,197 181.1,195.9 180,192.1 	"/>
	<polygon class="st1" points="18.1,50.7 15.6,51.4 18.1,52 18.8,54.6 19.5,52 22,51.4 19.5,50.7 18.8,48.2 	"/>
	<polygon class="st1" points="255.3,147.3 251.4,148.3 255.3,149.3 256.3,153.2 257.3,149.3 261.2,148.3 257.3,147.3 256.3,143.4 	
		"/>
	<polygon class="st1" points="9.9,130.1 6,131.1 9.9,132.1 10.9,136 11.9,132.1 15.8,131.1 11.9,130.1 10.9,126.2 	"/>
</g>
<g class="st0">
	<polygon class="st1" points="235.1,69.3 231.2,68.3 235.1,67.3 236.1,63.4 237.1,67.3 241,68.3 237.1,69.3 236.1,73.2 	"/>
	<polygon class="st1" points="212.4,293.5 209.9,292.8 212.4,292.2 213.1,289.7 213.7,292.2 216.3,292.8 213.7,293.5 213.1,296 	"/>
	<polygon class="st1" points="17.6,52.7 15.6,52.2 17.6,51.7 18.1,49.7 18.6,51.7 20.5,52.2 18.6,52.7 18.1,54.6 	"/>
	<polygon class="st1" points="137,66.7 135.1,66.2 137,65.7 137.5,63.8 138.1,65.7 140,66.2 138.1,66.7 137.5,68.6 	"/>
	<polygon class="st1" points="107.2,131.7 103.4,130.7 107.2,129.7 108.3,125.8 109.3,129.7 113.2,130.7 109.3,131.7 108.3,135.6 	
		"/>
	<polygon class="st1" points="305.7,33.8 303.1,33.2 305.7,32.5 306.3,30 307,32.5 309.5,33.2 307,33.8 306.3,36.4 	"/>
	<polygon class="st1" points="343.3,285.7 340.8,285.1 343.3,284.4 344,281.9 344.6,284.4 347.1,285.1 344.6,285.7 344,288.2 	"/>
	<polygon class="st1" points="409.5,216.4 405.7,215.4 409.5,214.4 410.6,210.5 411.6,214.4 415.5,215.4 411.6,216.4 410.6,220.3 	
		"/>
	<polygon class="st1" points="115.8,17.5 111.9,16.5 115.8,15.5 116.8,11.6 117.8,15.5 121.7,16.5 117.8,17.5 116.8,21.4 	"/>
	<polygon class="st1" points="179,109.1 175.1,108.1 179,107 180,103.2 181.1,107 184.9,108.1 181.1,109.1 180,112.9 	"/>
	<polygon class="st1" points="18.1,254.3 15.6,253.6 18.1,253 18.8,250.4 19.5,253 22,253.6 19.5,254.3 18.8,256.8 	"/>
	<polygon class="st1" points="46.3,284.7 42.4,283.7 46.3,282.7 47.3,278.8 48.3,282.7 52.2,283.7 48.3,284.7 47.3,288.6 	"/>
	<polygon class="st1" points="9.9,174.9 6,173.9 9.9,172.9 10.9,169 11.9,172.9 15.8,173.9 11.9,174.9 10.9,178.8 	"/>
</g>
<g class="st0">
	<polygon class="st1" points="-32.5,-79.8 -33.5,-76 -34.5,-79.8 -38.4,-80.8 -34.5,-81.9 -33.5,-85.7 -32.5,-81.9 -28.6,-80.8 	"/>
	<polygon class="st1" points="212.7,121.8 212.1,124.3 211.4,121.8 208.9,121.2 211.4,120.5 212.1,118 212.7,120.5 215.2,121.2 	"/>
	<polygon class="st1" points="-28.1,316.7 -28.6,318.6 -29.1,316.7 -31.1,316.2 -29.1,315.7 -28.6,313.7 -28.1,315.7 -26.2,316.2 	
		"/>
	<polygon class="st1" points="-14.1,197.2 -14.6,199.1 -15.1,197.2 -17,196.7 -15.1,196.2 -14.6,194.2 -14.1,196.2 -12.1,196.7 	"/>
	<polygon class="st1" points="77,186 75.9,189.9 74.9,186 71,185 74.9,183.9 75.9,180.1 77,183.9 80.8,185 	"/>
	<polygon class="st1" points="-67.9,14.6 -68.6,17.1 -69.3,14.6 -71.8,13.9 -69.3,13.2 -68.6,10.7 -67.9,13.2 -65.4,13.9 	"/>
	<polygon class="st1" points="204.9,-9.1 204.3,-6.5 203.6,-9.1 201.1,-9.7 203.6,-10.4 204.3,-12.9 204.9,-10.4 207.5,-9.7 	"/>
	<polygon class="st1" points="165.6,-83.3 164.6,-79.4 163.6,-83.3 159.7,-84.3 163.6,-85.3 164.6,-89.2 165.6,-85.3 169.5,-84.3 	
		"/>
	<polygon class="st1" points="-63.2,218.4 -64.2,222.3 -65.3,218.4 -69.1,217.4 -65.3,216.4 -64.2,212.5 -63.2,216.4 -59.4,217.4 	
		"/>
	<polygon class="st1" points="28.3,155.2 27.3,159.1 26.3,155.2 22.4,154.2 26.3,153.2 27.3,149.3 28.3,153.2 32.2,154.2 	"/>
	<polygon class="st1" points="173.5,316.1 172.8,318.6 172.2,316.1 169.7,315.4 172.2,314.8 172.8,312.3 173.5,314.8 176,315.4 	"/>
	<polygon class="st1" points="77,78.9 75.9,82.8 74.9,78.9 71,77.9 74.9,76.9 75.9,73 77,76.9 80.8,77.9 	"/>
	<polygon class="st1" points="94.2,324.4 93.1,328.2 92.1,324.4 88.3,323.3 92.1,322.3 93.1,318.5 94.2,322.3 98,323.3 	"/>
</g>
<g class="st0">
	<polygon class="st1" points="154.9,99.2 156,103 157,99.2 160.8,98.2 157,97.1 156,93.3 154.9,97.1 151.1,98.2 	"/>
	<polygon class="st1" points="-69.3,121.8 -68.6,124.3 -67.9,121.8 -65.4,121.2 -67.9,120.5 -68.6,118 -69.3,120.5 -71.8,121.2 	"/>
	<polygon class="st1" points="171.6,316.7 172.1,318.6 172.6,316.7 174.5,316.2 172.6,315.7 172.1,313.7 171.6,315.7 169.6,316.2 	
		"/>
	<polygon class="st1" points="157.5,197.2 158,199.1 158.5,197.2 160.5,196.7 158.5,196.2 158,194.2 157.5,196.2 155.6,196.7 	"/>
	<polygon class="st1" points="92.5,227 93.5,230.9 94.5,227 98.4,226 94.5,224.9 93.5,221.1 92.5,224.9 88.6,226 	"/>
	<polygon class="st1" points="190.4,28.6 191.1,31.1 191.7,28.6 194.2,27.9 191.7,27.2 191.1,24.7 190.4,27.2 187.9,27.9 	"/>
	<polygon class="st1" points="-61.5,-9.1 -60.8,-6.5 -60.2,-9.1 -57.7,-9.7 -60.2,-10.4 -60.8,-12.9 -61.5,-10.4 -64,-9.7 	"/>
	<polygon class="st1" points="7.8,-75.3 8.8,-71.4 9.8,-75.3 13.7,-76.3 9.8,-77.3 8.8,-81.2 7.8,-77.3 3.9,-76.3 	"/>
	<polygon class="st1" points="206.7,218.4 207.7,222.3 208.7,218.4 212.6,217.4 208.7,216.4 207.7,212.5 206.7,216.4 202.8,217.4 	
		"/>
	<polygon class="st1" points="115.2,155.2 116.2,159.1 117.2,155.2 121.1,154.2 117.2,153.2 116.2,149.3 115.2,153.2 111.3,154.2 	
		"/>
	<polygon class="st1" points="-30.1,316.1 -29.4,318.6 -28.7,316.1 -26.2,315.4 -28.7,314.8 -29.4,312.3 -30.1,314.8 -32.6,315.4 	
		"/>
	<polygon class="st1" points="-60.5,287.9 -59.5,291.8 -58.5,287.9 -54.6,286.9 -58.5,285.9 -59.5,282 -60.5,285.9 -64.4,286.9 	"/>
	<polygon class="st1" points="49.3,324.4 50.3,328.2 51.3,324.4 55.2,323.3 51.3,322.3 50.3,318.5 49.3,322.3 45.4,323.3 	"/>
</g>
<g class="st0">
	<polygon class="st1" points="450.9,384.8 452,381 453,384.8 456.8,385.9 453,386.9 452,390.7 450.9,386.9 447.1,385.9 	"/>
	<polygon class="st1" points="205.7,183.2 206.4,180.7 207.1,183.2 209.6,183.9 207.1,184.5 206.4,187 205.7,184.5 203.2,183.9 	"/>
	<polygon class="st1" points="446.6,-11.7 447.1,-13.6 447.6,-11.7 449.5,-11.2 447.6,-10.7 447.1,-8.7 446.6,-10.7 444.6,-11.2 	
		"/>
	<polygon class="st1" points="432.5,107.8 433,105.9 433.5,107.8 435.5,108.3 433.5,108.8 433,110.8 432.5,108.8 430.6,108.3 	"/>
	<polygon class="st1" points="341.5,119 342.5,115.2 343.5,119 347.4,120 343.5,121.1 342.5,124.9 341.5,121.1 337.6,120 	"/>
	<polygon class="st1" points="486.4,290.4 487.1,287.9 487.7,290.4 490.2,291.1 487.7,291.8 487.1,294.3 486.4,291.8 483.9,291.1 	
		"/>
	<polygon class="st1" points="213.5,314.1 214.2,311.6 214.8,314.1 217.3,314.7 214.8,315.4 214.2,317.9 213.5,315.4 211,314.7 	"/>
	<polygon class="st1" points="252.8,388.3 253.8,384.5 254.8,388.3 258.7,389.3 254.8,390.4 253.8,394.2 252.8,390.4 248.9,389.3 	
		"/>
	<polygon class="st1" points="481.7,86.6 482.7,82.7 483.7,86.6 487.6,87.6 483.7,88.6 482.7,92.5 481.7,88.6 477.8,87.6 	"/>
	<polygon class="st1" points="390.2,149.8 391.2,145.9 392.2,149.8 396.1,150.8 392.2,151.8 391.2,155.7 390.2,151.8 386.3,150.8 	
		"/>
	<polygon class="st1" points="244.9,-11.1 245.6,-13.6 246.3,-11.1 248.8,-10.4 246.3,-9.8 245.6,-7.3 244.9,-9.8 242.4,-10.4 	"/>
	<polygon class="st1" points="341.5,226.1 342.5,222.2 343.5,226.1 347.4,227.1 343.5,228.1 342.5,232 341.5,228.1 337.6,227.1 	"/>
	<polygon class="st1" points="324.3,-19.3 325.3,-23.2 326.3,-19.3 330.2,-18.3 326.3,-17.3 325.3,-13.4 324.3,-17.3 320.4,-18.3 	
		"/>
</g>
<g class="st0">
	<polygon class="st1" points="263.5,205.8 262.5,202 261.5,205.8 257.6,206.9 261.5,207.9 262.5,211.7 263.5,207.9 267.4,206.9 	"/>
	<polygon class="st1" points="487.7,183.2 487.1,180.7 486.4,183.2 483.9,183.9 486.4,184.5 487.1,187 487.7,184.5 490.2,183.9 	"/>
	<polygon class="st1" points="246.9,-11.7 246.4,-13.6 245.9,-11.7 243.9,-11.2 245.9,-10.7 246.4,-8.7 246.9,-10.7 248.8,-11.2 	
		"/>
	<polygon class="st1" points="260.9,107.8 260.4,105.9 259.9,107.8 258,108.3 259.9,108.8 260.4,110.8 260.9,108.8 262.9,108.3 	"/>
	<polygon class="st1" points="326,78 324.9,74.2 323.9,78 320,79 323.9,80.1 324.9,83.9 326,80.1 329.8,79 	"/>
	<polygon class="st1" points="228.1,276.4 227.4,273.9 226.7,276.4 224.2,277.1 226.7,277.8 227.4,280.3 228.1,277.8 230.6,277.1 	
		"/>
	<polygon class="st1" points="479.9,314.1 479.3,311.6 478.6,314.1 476.1,314.7 478.6,315.4 479.3,317.9 479.9,315.4 482.5,314.7 	
		"/>
	<polygon class="st1" points="410.6,380.3 409.6,376.5 408.6,380.3 404.7,381.3 408.6,382.4 409.6,386.2 410.6,382.4 414.5,381.3 	
		"/>
	<polygon class="st1" points="211.8,86.6 210.8,82.7 209.7,86.6 205.9,87.6 209.7,88.6 210.8,92.5 211.8,88.6 215.6,87.6 	"/>
	<polygon class="st1" points="303.3,149.8 302.3,145.9 301.3,149.8 297.4,150.8 301.3,151.8 302.3,155.7 303.3,151.8 307.2,150.8 	
		"/>
	<polygon class="st1" points="448.5,-11.1 447.8,-13.6 447.2,-11.1 444.7,-10.4 447.2,-9.8 447.8,-7.3 448.5,-9.8 451,-10.4 	"/>
	<polygon class="st1" points="479,17.1 477.9,13.2 476.9,17.1 473,18.1 476.9,19.1 477.9,23 479,19.1 482.8,18.1 	"/>
	<polygon class="st1" points="369.2,-19.3 368.1,-23.2 367.1,-19.3 363.3,-18.3 367.1,-17.3 368.1,-13.4 369.2,-17.3 373,-18.3 	"/>
</g>
</svg>
