<!--?xml version="1.0" encoding="utf-8"?-->
<!-- Generator: Adobe Illustrator 21.1.0, SVG Export Plug-In . SVG Version: 6.00 Build 0)  -->
<svg version="1.1" id="Layer_1" xmlns="http://www.w3.org/2000/svg" xmlns:xlink="http://www.w3.org/1999/xlink" x="0px" y="0px" viewBox="0 0 711 186" xml:space="preserve">
<style type="text/css">
	.st00{fill:none;stroke:url(#SVGID0_1_);stroke-width:7;stroke-miterlimit:10;}
	.st01{fill:none;stroke:url(#SVGID0_2_);stroke-width:7;stroke-miterlimit:10;}
	.st02{fill:none;stroke:url(#SVGID0_3_);stroke-width:7;stroke-miterlimit:10;}
	.st03{fill:none;stroke:url(#SVGID0_4_);stroke-width:7;stroke-miterlimit:10;}
	.st04{fill:none;stroke:url(#SVGID0_5_);stroke-width:7;stroke-miterlimit:10;}
	.st05{fill:none;stroke:url(#SVGID0_6_);stroke-width:7;stroke-miterlimit:10;}
	.st06{fill:none;stroke:url(#SVGID0_7_);stroke-width:7;stroke-miterlimit:10;}
	.st07{fill:none;stroke:url(#SVGID0_8_);stroke-width:7;stroke-miterlimit:10;}
</style>
<linearGradient id="SVGID0_1_" gradientUnits="userSpaceOnUse" x1="59.3521" y1="8.8516" x2="59.3521" y2="187.5">
	<stop offset="0" style="stop-color:#FFFFFF"></stop>
	<stop offset="1" style="stop-color:#B3B3B3"></stop>
</linearGradient>
<path class="st00 fwgrkHha_0" d="M3.6,184L3.6,12.4L115.1,12.4L115.1,43.2L38.6,43.2L38.6,79.8L103.1,79.8L103.1,110.8L38.6,110.8L
	38.6,152L115.1,152L115.1,184Z"></path>
<linearGradient id="SVGID0_2_" gradientUnits="userSpaceOnUse" x1="207.769" y1="8.8516" x2="207.769" y2="187.5">
	<stop offset="0" style="stop-color:#FFFFFF"></stop>
	<stop offset="1" style="stop-color:#B3B3B3"></stop>
</linearGradient>
<path class="st01 fwgrkHha_1" d="M275.4,98.2c0,20.7-2.9,37.3-8.6,49.9c-5.7,12.6-14.3,21.7-25.8,27.4c-11.5,5.7-27.7,8.6-48.5,8.6h-52.3V12.4
	H192c20.3,0,36.4,2.9,48.3,8.8c11.9,5.9,20.8,15,26.5,27.5C272.5,61.1,275.4,77.6,275.4,98.2z"></path>
<linearGradient id="SVGID0_3_" gradientUnits="userSpaceOnUse" x1="207.2729" y1="40.8496" x2="207.2729" y2="155.502">
	<stop offset="0" style="stop-color:#FFFFFF"></stop>
	<stop offset="1" style="stop-color:#B3B3B3"></stop>
</linearGradient>
<path class="st02 fwgrkHha_2" d="M239.3,97.9c0-15-1.5-26.1-4.4-33.3c-2.9-7.2-7.9-12.4-14.9-15.6c-7-3.1-17.4-4.7-31.3-4.7h-13.4V152h13.4
	c13.8,0,24.2-1.6,31.2-4.8c7-3.2,12-8.5,14.9-15.9S239.3,112.7,239.3,97.9z"></path>
<linearGradient id="SVGID0_4_" gradientUnits="userSpaceOnUse" x1="315.2461" y1="-1.3184" x2="315.2461" y2="38.1758">
	<stop offset="0" style="stop-color:#FFFFFF"></stop>
	<stop offset="1" style="stop-color:#B3B3B3"></stop>
</linearGradient>
<path class="st03 fwgrkHha_3" d="M333,18.4c0,6-1.5,10.3-4.5,12.7c-3,2.4-7.5,3.6-13.6,3.6c-6.8,0-11.4-1.4-13.8-4.2c-2.4-2.8-3.7-6.8-3.7-12
	c0-5.8,1.3-9.9,4-12.5c2.6-2.5,7.2-3.8,13.5-3.8c6.4,0,11.1,1.2,13.9,3.7C331.6,8.3,333,12.5,333,18.4z"></path>
<linearGradient id="SVGID0_5_" gradientUnits="userSpaceOnUse" x1="315.1841" y1="50.3994" x2="315.1841" y2="187.5">
	<stop offset="0" style="stop-color:#FFFFFF"></stop>
	<stop offset="1" style="stop-color:#B3B3B3"></stop>
</linearGradient>
<path class="st04 fwgrkHha_4" width="32" height="130.1" d="M299.2 53.9 L331.2 53.9 L331.2 184 L299.2 184 Z"></path>
<linearGradient id="SVGID0_6_" gradientUnits="userSpaceOnUse" x1="446.376" y1="8.8516" x2="446.376" y2="187.5">
	<stop offset="0" style="stop-color:#FFFFFF"></stop>
	<stop offset="1" style="stop-color:#B3B3B3"></stop>
</linearGradient>
<path class="st05 fwgrkHha_5" d="M497.3,184L497.3,68.7L456.2,140.3L436,140.3L395.3,68.7L395.3,184L361.5,184L361.5,12.4L401.9,12.4L
	446.6,93.8L491.8,12.4L531.2,12.4L531.2,184Z"></path>
<linearGradient id="SVGID0_7_" gradientUnits="userSpaceOnUse" x1="627.7585" y1="8.8516" x2="627.7585" y2="187.5">
	<stop offset="0" style="stop-color:#FFFFFF"></stop>
	<stop offset="1" style="stop-color:#B3B3B3"></stop>
</linearGradient>
<path class="st06 fwgrkHha_6" d="M548.1,184L604.9,12.4L650.5,12.4L707.4,184L671.5,184L660.1,149.1L594,149.1L582.9,184Z"></path>
<linearGradient id="SVGID0_8_" gradientUnits="userSpaceOnUse" x1="627.0707" y1="36.2835" x2="627.0707" y2="122.0156">
	<stop offset="0" style="stop-color:#FFFFFF"></stop>
	<stop offset="1" style="stop-color:#B3B3B3"></stop>
</linearGradient>
<path class="st07 fwgrkHha_7" d="M603.9,118.5L650.2,118.5L627.1,47.6Z"></path>
<style>.fwgrkHha_0{stroke-dasharray:849 851;stroke-dashoffset:850;animation:fwgrkHha_draw 1500ms ease-out 0ms forwards;}.fwgrkHha_1{stroke-dasharray:554 556;stroke-dashoffset:555;animation:fwgrkHha_draw 1500ms ease-out 0ms forwards;}.fwgrkHha_2{stroke-dasharray:311 313;stroke-dashoffset:312;animation:fwgrkHha_draw 1500ms ease-out 0ms forwards;}.fwgrkHha_3{stroke-dasharray:113 115;stroke-dashoffset:114;animation:fwgrkHha_draw 1500ms ease-out 0ms forwards;}.fwgrkHha_4{stroke-dasharray:325 327;stroke-dashoffset:326;animation:fwgrkHha_draw 1500ms ease-out 0ms forwards;}.fwgrkHha_5{stroke-dasharray:1093 1095;stroke-dashoffset:1094;animation:fwgrkHha_draw 1500ms ease-out 0ms forwards;}.fwgrkHha_6{stroke-dasharray:618 620;stroke-dashoffset:619;animation:fwgrkHha_draw 1500ms ease-out 0ms forwards;}.fwgrkHha_7{stroke-dasharray:196 198;stroke-dashoffset:197;animation:fwgrkHha_draw 1500ms ease-out 0ms forwards;}@keyframes fwgrkHha_draw{100%{stroke-dashoffset:0;}}@keyframes fwgrkHha_fade{0%{stroke-opacity:1;}92.98245614035088%{stroke-opacity:1;}100%{stroke-opacity:0;}}</style></svg>
