<?xml version="1.0" encoding="utf-8"?>
<!-- Generator: Adobe Illustrator 21.1.0, SVG Export Plug-In . SVG Version: 6.00 Build 0)  -->
<svg version="1.1" id="edima-logo" xmlns="http://www.w3.org/2000/svg" xmlns:xlink="http://www.w3.org/1999/xlink" x="0px" y="0px"
	 viewBox="0 0 713.8 185.9" style="enable-background:new 0 0 713.8 185.9;" xml:space="preserve">
<style type="text/css">
	.st000{fill:none;stroke:#000000;stroke-width:5;stroke-miterlimit:10;}
	.st001{fill:url(#SVGID00_1_);}
	.st002{fill:none;stroke:#B3B3B3;stroke-width:5;stroke-miterlimit:10;}
	.st003{fill:url(#SVGID00_2_);}
	.st004{fill:url(#SVGID00_3_);}
	.st005{fill:none;stroke:#B80000;stroke-width:5;stroke-miterlimit:10;}
	.st006{fill:url(#SVGID00_4_);}
	.st007{fill:url(#SVGID00_5_);}
	.st008{fill:url(#SVGID00_6_);}
</style>
<g>
	<g>
		<polygon points="7.5,179.9 7.5,8.3 119,8.3 119,39.2 42.5,39.2 42.5,75.8 107,75.8 107,106.8 42.5,106.8 42.5,147.9 119,147.9 
			119,179.9 		"/>
		<polygon class="st000" points="7.5,179.9 7.5,8.3 119,8.3 119,39.2 42.5,39.2 42.5,75.8 107,75.8 107,106.8 42.5,106.8 42.5,147.9
			119,147.9 119,179.9 		"/>
	</g>
	<g>
		<linearGradient id="SVGID00_1_" gradientUnits="userSpaceOnUse" x1="63.2299" y1="5.3418" x2="63.2299" y2="176.9418">
			<stop  offset="0" style="stop-color:#DEDEDE"/>
			<stop  offset="0.1709" style="stop-color:#FFFFFF"/>
			<stop  offset="0.4899" style="stop-color:#FCFCFC"/>
			<stop  offset="0.6862" style="stop-color:#F4F4F4"/>
			<stop  offset="0.8487" style="stop-color:#E6E6E6"/>
			<stop  offset="0.9928" style="stop-color:#D2D2D1"/>
			<stop  offset="1" style="stop-color:#D1D1D0"/>
		</linearGradient>
		<polygon class="st001" points="7.5,176.9 7.5,5.3 119,5.3 119,36.2 42.5,36.2 42.5,72.8 107,72.8 107,103.8 42.5,103.8 42.5,144.9
			119,144.9 119,176.9 		"/>
		<polygon class="st002" points="7.5,176.9 7.5,5.3 119,5.3 119,36.2 42.5,36.2 42.5,72.8 107,72.8 107,103.8 42.5,103.8 42.5,144.9
			119,144.9 119,176.9 		"/>
	</g>
</g>
<g>
	<g>
		<path d="M274.3,94.1c0,20.7-2.9,37.3-8.6,49.9s-14.3,21.7-25.8,27.4s-27.7,8.6-48.5,8.6h-52.3V8.3h51.8c20.3,0,36.4,2.9,48.3,8.8
			c11.9,5.9,20.8,15,26.5,27.5C271.4,57,274.3,73.5,274.3,94.1z M238.2,93.8c0-15-1.5-26.1-4.4-33.3c-2.9-7.2-7.9-12.4-14.9-15.6
			c-7-3.1-17.4-4.7-31.3-4.7h-13.4v107.7h13.4c13.8,0,24.2-1.6,31.2-4.8s12-8.5,14.9-15.9C236.6,119.8,238.2,108.6,238.2,93.8z"/>
		<path class="st000" d="M274.3,94.1c0,20.7-2.9,37.3-8.6,49.9s-14.3,21.7-25.8,27.4s-27.7,8.6-48.5,8.6h-52.3V8.3h51.8
			c20.3,0,36.4,2.9,48.3,8.8c11.9,5.9,20.8,15,26.5,27.5C271.4,57,274.3,73.5,274.3,94.1z M238.2,93.8c0-15-1.5-26.1-4.4-33.3
			c-2.9-7.2-7.9-12.4-14.9-15.6c-7-3.1-17.4-4.7-31.3-4.7h-13.4v107.7h13.4c13.8,0,24.2-1.6,31.2-4.8s12-8.5,14.9-15.9
			C236.6,119.8,238.2,108.6,238.2,93.8z"/>
	</g>
	<g>
		<linearGradient id="SVGID00_2_" gradientUnits="userSpaceOnUse" x1="206.6796" y1="5.3418" x2="206.6796" y2="177.0418">
			<stop  offset="0" style="stop-color:#DEDEDE"/>
			<stop  offset="0.1709" style="stop-color:#FFFFFF"/>
			<stop  offset="0.4899" style="stop-color:#FCFCFC"/>
			<stop  offset="0.6862" style="stop-color:#F4F4F4"/>
			<stop  offset="0.8487" style="stop-color:#E6E6E6"/>
			<stop  offset="0.9928" style="stop-color:#D2D2D1"/>
			<stop  offset="1" style="stop-color:#D1D1D0"/>
		</linearGradient>
		<path class="st003" d="M274.3,91.1c0,20.7-2.9,37.3-8.6,49.9s-14.3,21.7-25.8,27.4s-27.7,8.6-48.5,8.6h-52.3V5.3h51.8
			c20.3,0,36.4,2.9,48.3,8.8c11.9,5.9,20.8,15,26.5,27.5C271.4,54,274.3,70.5,274.3,91.1z M238.2,90.8c0-15-1.5-26.1-4.4-33.3
			c-2.9-7.2-7.9-12.4-14.9-15.6c-7-3.1-17.4-4.7-31.3-4.7h-13.4v107.7h13.4c13.8,0,24.2-1.6,31.2-4.8s12-8.5,14.9-15.9
			C236.6,116.8,238.2,105.6,238.2,90.8z"/>
		<path class="st002" d="M274.3,91.1c0,20.7-2.9,37.3-8.6,49.9s-14.3,21.7-25.8,27.4s-27.7,8.6-48.5,8.6h-52.3V5.3h51.8
			c20.3,0,36.4,2.9,48.3,8.8c11.9,5.9,20.8,15,26.5,27.5C271.4,54,274.3,70.5,274.3,91.1z M238.2,90.8c0-15-1.5-26.1-4.4-33.3
			c-2.9-7.2-7.9-12.4-14.9-15.6c-7-3.1-17.4-4.7-31.3-4.7h-13.4v107.7h13.4c13.8,0,24.2-1.6,31.2-4.8s12-8.5,14.9-15.9
			C236.6,116.8,238.2,105.6,238.2,90.8z"/>
	</g>
</g>
<g>
	<g>
		<path d="M339.9,24.5c0,6-1.5,10.3-4.5,12.7c-3,2.4-7.5,3.6-13.6,3.6c-6.8,0-11.4-1.4-13.8-4.2s-3.7-6.8-3.7-12
			c0-5.8,1.3-9.9,4-12.5c2.6-2.5,7.2-3.8,13.5-3.8c6.4,0,11.1,1.2,13.9,3.7C338.5,14.4,339.9,18.6,339.9,24.5z"/>
		<path class="st000" d="M339.9,24.5c0,6-1.5,10.3-4.5,12.7c-3,2.4-7.5,3.6-13.6,3.6c-6.8,0-11.4-1.4-13.8-4.2s-3.7-6.8-3.7-12
			c0-5.8,1.3-9.9,4-12.5c2.6-2.5,7.2-3.8,13.5-3.8c6.4,0,11.1,1.2,13.9,3.7C338.5,14.4,339.9,18.6,339.9,24.5z"/>
	</g>
	<g>
		<linearGradient id="SVGID00_3_" gradientUnits="userSpaceOnUse" x1="322.0801" y1="4.376" x2="322.0801" y2="179.1262">
			<stop  offset="0" style="stop-color:#D5153B"/>
			<stop  offset="3.622932e-02" style="stop-color:#E41C44"/>
			<stop  offset="9.152133e-02" style="stop-color:#F3234E"/>
			<stop  offset="0.1556" style="stop-color:#FC2853"/>
			<stop  offset="0.2479" style="stop-color:#FF2955"/>
			<stop  offset="0.4513" style="stop-color:#FB2753"/>
			<stop  offset="0.6575" style="stop-color:#EF214B"/>
			<stop  offset="0.8643" style="stop-color:#DB173F"/>
			<stop  offset="1" style="stop-color:#C90F34"/>
		</linearGradient>
		<path class="st004" d="M339.9,21.5c0,6-1.5,10.3-4.5,12.7c-3,2.4-7.5,3.6-13.6,3.6c-6.8,0-11.4-1.4-13.8-4.2s-3.7-6.8-3.7-12
			c0-5.8,1.3-9.9,4-12.5c2.6-2.5,7.2-3.8,13.5-3.8c6.4,0,11.1,1.2,13.9,3.7C338.5,11.4,339.9,15.6,339.9,21.5z"/>
		<path class="st005" d="M339.9,21.5c0,6-1.5,10.3-4.5,12.7c-3,2.4-7.5,3.6-13.6,3.6c-6.8,0-11.4-1.4-13.8-4.2s-3.7-6.8-3.7-12
			c0-5.8,1.3-9.9,4-12.5c2.6-2.5,7.2-3.8,13.5-3.8c6.4,0,11.1,1.2,13.9,3.7C338.5,11.4,339.9,15.6,339.9,21.5z"/>
	</g>
</g>
<g>
	<g>
		<polygon points="496.2,179.9 496.2,64.6 455,136.3 434.9,136.3 394.2,64.6 394.2,179.9 360.5,179.9 360.5,8.3 400.8,8.3 
			445.6,89.8 490.7,8.3 530.1,8.3 530.1,179.9 		"/>
		<polygon class="st000" points="496.2,179.9 496.2,64.6 455,136.3 434.9,136.3 394.2,64.6 394.2,179.9 360.5,179.9 360.5,8.3
			400.8,8.3 445.6,89.8 490.7,8.3 530.1,8.3 530.1,179.9 		"/>
	</g>
	<g>
		<linearGradient id="SVGID00_4_" gradientUnits="userSpaceOnUse" x1="445.2795" y1="5.3418" x2="445.2795" y2="176.9418">
			<stop  offset="0" style="stop-color:#DEDEDE"/>
			<stop  offset="0.1709" style="stop-color:#FFFFFF"/>
			<stop  offset="0.4899" style="stop-color:#FCFCFC"/>
			<stop  offset="0.6862" style="stop-color:#F4F4F4"/>
			<stop  offset="0.8487" style="stop-color:#E6E6E6"/>
			<stop  offset="0.9928" style="stop-color:#D2D2D1"/>
			<stop  offset="1" style="stop-color:#D1D1D0"/>
		</linearGradient>
		<polygon class="st006" points="496.2,176.9 496.2,61.6 455,133.3 434.9,133.3 394.2,61.6 394.2,176.9 360.5,176.9 360.5,5.3
			400.8,5.3 445.6,86.8 490.7,5.3 530.1,5.3 530.1,176.9 		"/>
		<polygon class="st002" points="496.2,176.9 496.2,61.6 455,133.3 434.9,133.3 394.2,61.6 394.2,176.9 360.5,176.9 360.5,5.3
			400.8,5.3 445.6,86.8 490.7,5.3 530.1,5.3 530.1,176.9 		"/>
	</g>
</g>
<g>
	<g>
		<path d="M547,179.9L603.8,8.3h45.5l57,171.6h-35.8L659.1,145h-66.2l-11.1,34.9H547z M602.8,114.4h46.3L626,43.5L602.8,114.4z"/>
		<path class="st000" d="M547,179.9L603.8,8.3h45.5l57,171.6h-35.8L659.1,145h-66.2l-11.1,34.9H547z M602.8,114.4h46.3L626,43.5
			L602.8,114.4z"/>
	</g>
	<g>
		<linearGradient id="SVGID00_5_" gradientUnits="userSpaceOnUse" x1="626.6296" y1="5.3418" x2="626.6296" y2="176.9418">
			<stop  offset="0" style="stop-color:#DEDEDE"/>
			<stop  offset="0.1709" style="stop-color:#FFFFFF"/>
			<stop  offset="0.4899" style="stop-color:#FCFCFC"/>
			<stop  offset="0.6862" style="stop-color:#F4F4F4"/>
			<stop  offset="0.8487" style="stop-color:#E6E6E6"/>
			<stop  offset="0.9928" style="stop-color:#D2D2D1"/>
			<stop  offset="1" style="stop-color:#D1D1D0"/>
		</linearGradient>
		<path class="st007" d="M547,176.9L603.8,5.3h45.5l57,171.6h-35.8L659.1,142h-66.2l-11.1,34.9H547z M602.8,111.4h46.3L626,40.5
			L602.8,111.4z"/>
		<path class="st002" d="M547,176.9L603.8,5.3h45.5l57,171.6h-35.8L659.1,142h-66.2l-11.1,34.9H547z M602.8,111.4h46.3L626,40.5
			L602.8,111.4z"/>
	</g>
</g>
<g>
	<g>
		<polygon points="335.1,49.8 306.1,49.8 287.4,49.8 287.4,77.2 306.1,77.2 306.1,179.9 338.1,179.9 338.1,49.8 		"/>
		<polygon class="st000" points="335.1,49.8 306.1,49.8 287.4,49.8 287.4,77.2 306.1,77.2 306.1,179.9 338.1,179.9 338.1,49.8 		"/>
	</g>
	<g>
		<linearGradient id="SVGID00_6_" gradientUnits="userSpaceOnUse" x1="312.7437" y1="4.376" x2="312.7437" y2="179.1262">
			<stop  offset="0" style="stop-color:#D5153B"/>
			<stop  offset="3.622932e-02" style="stop-color:#E41C44"/>
			<stop  offset="9.152133e-02" style="stop-color:#F3234E"/>
			<stop  offset="0.1556" style="stop-color:#FC2853"/>
			<stop  offset="0.2479" style="stop-color:#FF2955"/>
			<stop  offset="0.4513" style="stop-color:#FB2753"/>
			<stop  offset="0.6575" style="stop-color:#EF214B"/>
			<stop  offset="0.8643" style="stop-color:#DB173F"/>
			<stop  offset="1" style="stop-color:#C90F34"/>
		</linearGradient>
		<polygon class="st008" points="335.1,46.8 306.1,46.8 287.4,46.8 287.4,74.2 306.1,74.2 306.1,176.9 338.1,176.9 338.1,46.8 		"/>
		<polygon class="st005" points="335.1,46.8 306.1,46.8 287.4,46.8 287.4,74.2 306.1,74.2 306.1,176.9 338.1,176.9 338.1,46.8 		"/>
	</g>
</g>
</svg>
