<!--?xml version="1.0" encoding="utf-8"?-->
<!-- Generator: Adobe Illustrator 21.1.0, SVG Export Plug-In . SVG Version: 6.00 Build 0)  -->
<svg version="1.1" id="edima-logo" xmlns="http://www.w3.org/2000/svg" xmlns:xlink="http://www.w3.org/1999/xlink" x="0px" y="0px" viewBox="0 0 713.8 185.9" xml:space="preserve">
<style type="text/css">
	.st00{fill:none;stroke:#FFFFFF;stroke-width:5;stroke-miterlimit:10;}
</style>
<path class="st00 yfGVLbMg_0" d="M7.5,176.9V5.3H119v30.9H42.5v36.6H107v31H42.5v41.1H119v32H7.5z"></path>
<path class="st00 yfGVLbMg_1" d="M274.3,91.1c0,20.7-2.9,37.3-8.6,49.9s-14.3,21.7-25.8,27.4s-27.7,8.6-48.5,8.6h-52.3V5.3h51.8
	c20.3,0,36.4,2.9,48.3,8.8c11.9,5.9,20.8,15,26.5,27.5C271.4,54,274.3,70.5,274.3,91.1z M238.2,90.8c0-15-1.5-26.1-4.4-33.3
	c-2.9-7.2-7.9-12.4-14.9-15.6c-7-3.1-17.4-4.7-31.3-4.7h-13.4v107.7h13.4c13.8,0,24.2-1.6,31.2-4.8s12-8.5,14.9-15.9
	C236.6,116.8,238.2,105.6,238.2,90.8z"></path>
<path class="st00 yfGVLbMg_2" d="M339.9,21.5c0,6-1.5,10.3-4.5,12.7c-3,2.4-7.5,3.6-13.6,3.6c-6.8,0-11.4-1.4-13.8-4.2s-3.7-6.8-3.7-12
	c0-5.8,1.3-9.9,4-12.5c2.6-2.5,7.2-3.8,13.5-3.8c6.4,0,11.1,1.2,13.9,3.7C338.5,11.4,339.9,15.6,339.9,21.5z"></path>
<path class="st00 yfGVLbMg_3" d="M496.2,176.9V61.6L455,133.3h-20.1l-40.7-71.7v115.3h-33.7V5.3h40.3l44.8,81.5l45.1-81.5h39.4v171.6H496.2z"></path>
<path class="st00 yfGVLbMg_4" d="M547,176.9L603.8,5.3h45.5l57,171.6h-35.8L659.1,142h-66.2l-11.1,34.9H547z M602.8,111.4h46.3L626,40.5
	L602.8,111.4z"></path>
<path class="st00 yfGVLbMg_5" d="M335.1,46.8L306.1,46.8L287.4,46.8L287.4,74.2L306.1,74.2L306.1,176.9L338.1,176.9L338.1,46.8Z"></path>
<style>.yfGVLbMg_0{stroke-dasharray:849 851;stroke-dashoffset:850;animation:yfGVLbMg_draw 2000ms ease-out 0ms forwards;}.yfGVLbMg_1{stroke-dasharray:865 867;stroke-dashoffset:866;animation:yfGVLbMg_draw 2000ms ease-out 0ms forwards;}.yfGVLbMg_2{stroke-dasharray:113 115;stroke-dashoffset:114;animation:yfGVLbMg_draw 2000ms ease-out 0ms forwards;}.yfGVLbMg_3{stroke-dasharray:1093 1095;stroke-dashoffset:1094;animation:yfGVLbMg_draw 2000ms ease-out 0ms forwards;}.yfGVLbMg_4{stroke-dasharray:813 815;stroke-dashoffset:814;animation:yfGVLbMg_draw 2000ms ease-out 0ms forwards;}.yfGVLbMg_5{stroke-dasharray:362 364;stroke-dashoffset:363;animation:yfGVLbMg_draw 2000ms ease-out 0ms forwards;}@keyframes yfGVLbMg_draw{100%{stroke-dashoffset:0;}}@keyframes yfGVLbMg_fade{0%{stroke-opacity:1;}93.54838709677419%{stroke-opacity:1;}100%{stroke-opacity:0;}}</style></svg>
