<?xml version="1.0" encoding="utf-8"?>
<!-- Generator: Adobe Illustrator 21.1.0, SVG Export Plug-In . SVG Version: 6.00 Build 0)  -->
<svg version="1.1" id="Layer_1" xmlns="http://www.w3.org/2000/svg" xmlns:xlink="http://www.w3.org/1999/xlink" x="0px" y="0px"
	 width="1025px" height="768px" viewBox="0 0 1025 768" style="enable-background:new 0 0 1025 768;" xml:space="preserve">
<style type="text/css">
	.st0{opacity:0.15;}
	.st1{fill:none;stroke:#FFFFFF;stroke-width:4.9398;stroke-linejoin:round;stroke-miterlimit:10;}
	.st2{fill:none;stroke:#FFFFFF;stroke-width:2.4699;stroke-linejoin:round;}
	.st3{fill:#FFFFFF;}
	.st4{fill:none;}
	.st5{opacity:0.15;fill:none;stroke:#FFFFFF;stroke-miterlimit:10;}
</style>
<g class="st0">
	<g>
		<line class="st1" x1="79" y1="196.8" x2="1" y2="196.8"/>
	</g>
	<g>
		<path class="st1" d="M1,512.4h64.4c1.9,0,4.6-1.1,6-2.4l9.3-9c1.4-1.3,4.1-2.4,6-2.4h28c1.9,0,4.6-1.1,6-2.4l21.2-20.5
			c1.4-1.3,3.6-3.5,5-4.9l17-16.5c1.4-1.3,4.1-2.4,6-2.4h9.5c1.9,0,4.6,1.1,6,2.4l18.1,17.3"/>
	</g>
	<g>
		<path class="st1" d="M194.7,463.2l-4.6,4.5c-1.4,1.3-2.5,4-2.5,5.9V487c0,1.9,1.1,4.6,2.5,5.9l14.1,13.7c1.4,1.3,4.1,2.4,6,2.4
			h13.1c1.9,0,4.6,1.1,6,2.4l18.7,18.1c1.4,1.3,2.5,4,2.5,5.9v14.4c0,1.9,1.1,4.6,2.5,5.9l80.4,77.7c1.4,1.3,3.6,3.5,5,4.9l5.9,5.7
			c1.4,1.3,2.5,4,2.5,5.9v6.2c0,1.9-1.1,4.6-2.5,5.9l-23.6,22.9c-1.4,1.3-1.4,3.5,0,4.9l4.6,4.5c1.4,1.3,4.1,2.4,6,2.4h13.1
			c1.9,0,4.6-1.1,6-2.4l36.5-35.3c1.4-1.3,1.4-3.5,0-4.9l-15.7-15.2c-1.4-1.3-1.4-3.5,0-4.9l19-18.4c1.4-1.3,3.6-1.3,5,0l17,16.5
			c1.4,1.3,3.6,1.3,5,0l6.4-6.2c1.4-1.3,1.4-3.5,0-4.9l-47.7-46.1c-1.4-1.3-4.1-2.4-6-2.4h-15.1c-1.9,0-4.6-1.1-6-2.4l-26.7-25.7"/>
	</g>
	<g>
		<path class="st1" d="M340.9,562.3v-31.7c0-1.9-1.1-4.6-2.5-5.9l-12.5-12.1c-1.4-1.3-4.1-2.6-6-2.8l-7.3-0.8
			c-1.9-0.2-4.6-1.5-6-2.8L271.4,472c-1.4-1.3-2.5-4-2.5-5.9v-15.3c0-1.9,1.1-4.6,2.5-5.9l4-3.9c1.4-1.3,2.5-4,2.5-5.9v-3
			c0-1.9,1.1-4.6,2.5-5.9l5.3-5.1c1.4-1.3,4.1-2.4,6-2.4h8.8c1.9,0,4.6,1.1,6,2.4l28.6,27.6c1.4,1.3,2.5,4,2.5,5.9v12.7
			c0,1.9,1.1,4.6,2.5,5.9l34,32.8c1.4,1.3,3.6,3.5,5,4.9l68.2,66c1.4,1.3,2.5,4,2.5,5.9v23c0,1.9-1.1,4.6-2.5,5.9l-5,4.9
			c-1.4,1.3-1.4,3.5,0,4.8l5.8,5.4"/>
	</g>
	<g>
		<path class="st1" d="M449.9,594.6l30.9,29.9c1.4,1.3,2.5,4,2.5,5.9v16c0,1.9-1.1,4.6-2.5,5.9l-1.7,1.6c-1.4,1.3-2.5,4-2.5,5.9v9.8
			c0,1.9,0.1,3.4,0.3,3.2c0.1-0.1,1.4,0.8,2.8,2.2l9.5,9.2c1.4,1.3,4.1,2.4,6,2.4h16.5c1.9,0,3.5,1.6,3.5,3.5v9.2
			c0,1.9-1.6,3.5-3.5,3.5h-11.3c-1.9,0-5.1,0-7,0h-11.2c-1.9,0-2.4,1.1-1,2.4l9.1,8.8c1.4,1.3,2.5,4,2.5,5.9v14.3
			c0,1.9,1.1,4.6,2.5,5.9l6.8,6.6c1.4,1.3,4.1,2.4,6,2.4h24.3c1.9,0,2.4-1.1,1-2.4l-13.6-13.1c-1.4-1.3-0.9-2.4,1-2.4h13
			c1.9,0,3.5-1.6,3.5-3.5v-6.9c0-1.9,1.1-4.6,2.5-5.9l4.7-4.6c1.4-1.3,4.1-2.4,6-2.4h7.9c1.9,0,3.5-1.6,3.5-3.5v-11.2"/>
	</g>
	<g>
		<path class="st1" d="M247.8-1.6h20.4c1.9,0,3.5,1.6,3.5,3.5v28.3c0,1.9-1.1,2.4-2.5,1.1l-10.1-9.8c-1.4-1.3-3.6-1.3-5,0l-11,10.7
			c-1.4,1.3-1.4,3.5,0,4.8l10.2,9.7"/>
	</g>
	<g>
		<path class="st1" d="M90.1,232v-99.2c0-1.9,1.1-4.6,2.5-5.9l32.3-31.2c1.4-1.3,4.1-2.4,6-2.4h33.3c1.9,0,5.1,0,7,0h19.6
			c1.9,0,4.6-1.1,6-2.4l26.3-25.5c1.4-1.3,2.5-4,2.5-5.9V22.6c0-1.9-1.1-4.6-2.5-5.9L202-3.8"/>
	</g>
	<g>
		<path class="st1" d="M79,181H20.4c-1.2,0-2.8-0.7-3.6-1.5L3.1,166.3"/>
	</g>
	<g>
		<path class="st1" d="M495.7,69.3l-14.4-13.9c-1.4-1.3-4.1-2.4-6-2.4h-41.5c-1.9,0-4.6,1.1-6,2.4l-32.3,31.3
			c-1.4,1.3-4.1,2.4-6,2.4h-32.6c-1.9,0-4.6,1.1-6,2.4l-5.2,5c-1.4,1.3-4.1,2.4-6,2.4h-47c-1.9,0-4.6-1.1-6-2.4l-9.5-9.2"/>
	</g>
	<g>
		<path class="st1" d="M545.4,12v27.6c0,1.9-1.1,4.6-2.5,5.9l-24.6,23.8"/>
	</g>
	<g>
		<path class="st1" d="M91,182.1h84.6c1.9,0,4.6-1.1,6-2.4L287.9,76.8c1.4-1.3,2.5-2.5,2.5-2.6s1.6-0.2,3.5-0.2h21.6"/>
	</g>
	<g>
		<path class="st1" d="M121.1,182.1l18.2-17.6c1.4-1.3,2.5-4,2.5-5.9v-8.7c0-1.9,1.1-4.6,2.5-5.9l13.7-13.1"/>
	</g>
	<polyline class="st1" points="362.3,399.5 380.6,417.2 373.1,424.1 	"/>
	<polyline class="st1" points="166.4,328.8 179.3,328.8 203.9,352.6 284,352.6 314.5,323.1 331.7,306.5 281.1,257.5 299.8,239.4 
		299.8,232.4 352.2,232.4 371.1,214.1 371.1,126 	"/>
	<polyline class="st1" points="145,393 166.4,393 176.3,383.5 191.4,398.1 207.8,382.3 223.1,397.1 244.4,376.6 282,376.6 
		305.7,399.5 375.2,399.5 420.3,355.9 420.3,311.7 398.1,311.7 361.9,276.6 356.1,282.1 	"/>
	<polyline class="st1" points="91,197.6 124.2,197.6 146,218.6 130.3,233.3 	"/>
	<polyline class="st1" points="371.1,214.1 385.7,214.1 403.9,231.8 403.9,254.2 423.8,254.2 455.2,284.5 449.5,289.5 	"/>
	<polyline class="st1" points="439.9,269 464.5,269 482.8,286.7 495.1,298.6 543.6,298.6 555.6,310.2 549.6,315.6 	"/>
	<polyline class="st1" points="420.3,342.9 439.4,342.9 463.1,319.9 499.7,319.9 542.7,361.5 567.1,361.5 630.3,361.5 657.7,335 
		699.6,335 736.7,370.9 736.7,395 	"/>
	<polyline class="st1" points="387.7,389.5 416.6,417.4 497.4,417.4 524.6,391.6 	"/>
	<polyline class="st1" points="449.9,419.4 449.9,452.3 458.1,460.2 458.1,474.2 458.1,508.5 483,532.6 493.7,522.3 524.5,552.1 
		537.7,552.1 537.7,592.3 630,592.3 	"/>
	<polyline class="st1" points="458.1,481.7 427.9,452.4 337.7,452.4 	"/>
	<polyline class="st1" points="368.4,452.4 368.4,467.1 412.1,509.3 412.1,541.2 	"/>
	<line class="st1" x1="461.6" y1="509.3" x2="418.2" y2="551.3"/>
	<polyline class="st1" points="441.5,571.2 441.5,546.4 467,546.4 486.2,565 486.2,596.8 498.7,608.9 523.6,608.9 539.4,593.6 	"/>
	<polyline class="st1" points="492.8,603.1 492.8,620 484.4,628.1 	"/>
	<polyline class="st1" points="485.7,418.5 551.7,482.4 551.7,499.5 561.8,509.3 640.1,509.3 652,497.8 657.5,497.8 	"/>
	<polyline class="st1" points="537.4,468.6 537.4,496.8 528.7,505.2 545.7,521.6 	"/>
	<polyline class="st1" points="513.3,80.7 525.9,92.6 590.3,92.6 604,105.8 604,159.4 599.1,164.1 585.6,177.2 604.9,177.2 
		604.9,201 596.5,209.1 596.5,245.8 569.1,272.1 	"/>
	<line class="st1" x1="686.3" y1="13.7" x2="697.9" y2="25.1"/>
	<path class="st1" d="M543.6,7.7"/>
	<polyline class="st1" points="686.1,1 686.1,60.4 639,106 634.5,106 	"/>
	<polyline class="st1" points="545.7,30.8 569.8,54.2 595.4,54.2 595.4,60 	"/>
	<polyline class="st1" points="813.5,213.5 793.1,233 730.9,233 703.5,206.5 647.5,206.5 	"/>
	<polyline class="st1" points="673.3,335 673.3,374.6 711.4,411.5 694.5,427.8 694.5,454.8 701.6,461.6 718,461.6 	"/>
	<polyline class="st1" points="735.5,454.5 767,424.3 809.4,424.3 833.7,447.8 815.4,465.4 835.3,484.6 823.4,496.1 823.4,512.3 
		861.5,512.3 878.2,496.1 914,496.1 914,484 877.3,484 864.4,471.5 864.4,451.1 864.4,422.1 893.7,393.7 936.9,393.7 958.1,414.3 	
		"/>
	<polyline class="st1" points="537.3,726.2 537.3,674 529.8,661.7 529.8,622.1 549.1,640.8 567.1,640.8 567.1,614.2 593.8,614.2 
		624.1,614.2 639.9,629.5 655.3,629.5 675.5,609.9 714.5,609.9 714.5,610.2 682.8,579.5 660.1,579.5 660.1,553.9 698.8,516.4 
		698.8,490.3 740,490.3 764,467 764,428.6 	"/>
	<polyline class="st1" points="831.7,204.9 838.7,204.9 872.5,204.9 890,221.9 890,244.8 901.9,256.3 901.9,278.5 953.9,278.5 
		999.6,322.7 1017.4,322.7 1017.4,392.3 980.8,392.3 967.1,405.6 943.4,428.5 905,428.5 	"/>
	<polyline class="st1" points="846.6,-0.4 783.6,61.9 783.6,86.5 801.1,102.5 838.7,138.9 838.7,156 828.5,165.9 802.8,165.9 
		802.8,204.9 809,204.9 	"/>
	<g>
		<path class="st1" d="M254.9,689.9c-1.4,1.4-1.3,3.6,0.1,4.9l45,43.6c1.4,1.3,3.6,1.3,5,0l17.7-17.1c1.4-1.3,1.4-3.5,0-4.9
			l-17.1-16.6c-1.4-1.3-2.5-4-2.5-5.9v-6.5c0-1.9-1.6-3.5-3.5-3.5h-11.9c-1.9,0-5.1,0-7,0h-16.3c-1.9,0-4.6,1.1-6,2.5L254.9,689.9z"
			/>
	</g>
	<polyline class="st1" points="78.6,1 78.6,168.6 77.8,221.2 77.8,237.7 119.9,278.5 162.9,278.5 179.6,294.6 166.4,307.3 
		166.4,328.8 123.1,370.7 145,370.7 145,420 	"/>
	<g>
		<g>
			<path class="st2" d="M61.7,218v24.6c0,1.9,1.1,4.6,2.5,5.9L107,290c1.4,1.3,4.1,2.4,6,2.4h32.4"/>
			<g>
				<g>
					<circle class="st3" cx="145.1" cy="292.4" r="5.6"/>
					<path class="st3" d="M145.1,298.7c-3.5,0-6.3-2.8-6.3-6.3s2.8-6.3,6.3-6.3c3.5,0,6.3,2.8,6.3,6.3S148.5,298.7,145.1,298.7
						C141.6,298.7,148.5,298.7,145.1,298.7z M145.1,287.6c-2.7,0-4.8,2.2-4.8,4.8s2.2,4.8,4.8,4.8c2.7,0,4.8-2.2,4.8-4.8
						S147.7,287.6,145.1,287.6C142.4,287.6,147.7,287.6,145.1,287.6z"/>
				</g>
			</g>
		</g>
	</g>
	<g>
		<g>
			<path class="st2" d="M74.2,258.2v24.2c0,1.9,1.1,4.6,2.5,5.9l24.8,24c1.4,1.3,4.1,2.4,6,2.4h37.8"/>
			<g>
				<g>
					<circle class="st3" cx="145.1" cy="314.9" r="5.6"/>
					<path class="st3" d="M145.1,321.2c-3.5,0-6.3-2.8-6.3-6.3s2.8-6.3,6.3-6.3c3.5,0,6.3,2.8,6.3,6.3S148.5,321.2,145.1,321.2
						C141.6,321.2,148.5,321.2,145.1,321.2z M145.1,310c-2.7,0-4.8,2.2-4.8,4.8s2.2,4.8,4.8,4.8c2.7,0,4.8-2.2,4.8-4.8
						S147.7,310,145.1,310C142.4,310,147.7,310,145.1,310z"/>
				</g>
			</g>
		</g>
	</g>
	<g>
		<g>
			<path class="st2" d="M13.1,197v91.9c0,1.9-1.1,4.6-2.5,5.9l-8.8,8.5"/>
			<g>
				<g>
					
						<ellipse transform="matrix(0.7188 -0.6953 0.6953 0.7188 -210.2413 86.6461)" class="st3" cx="2" cy="303.2" rx="5.6" ry="5.6"/>
					<path class="st3" d="M-2.4,298.7c2.5-2.4,6.5-2.4,8.9,0.1s2.4,6.5-0.1,8.9c-2.5,2.4-6.5,2.4-8.9-0.1
						C-5,305.1-4.9,301.1-2.4,298.7C0.1,296.2-4.9,301.1-2.4,298.7z M5.3,306.7c1.9-1.9,2-4.9,0.1-6.8s-4.9-2-6.8-0.1
						c-1.9,1.9-2,4.9-0.1,6.8S3.4,308.5,5.3,306.7C7.3,304.8,3.4,308.5,5.3,306.7z"/>
				</g>
			</g>
		</g>
	</g>
	<g>
		<g>
			<path class="st2" d="M7.2,326.9l22.9-22.2c1.4-1.3,2.5-4,2.5-5.9v-72.9c0-1.9,1-4.4,2.1-5.6s3.7-2.1,5.6-2.1H78"/>
			<g>
				<g>
					
						<ellipse transform="matrix(0.7188 -0.6953 0.6953 0.7188 -224.9935 97.0617)" class="st3" cx="7.5" cy="326.6" rx="5.6" ry="5.6"/>
					<path class="st3" d="M11.9,331.2c2.5-2.4,2.6-6.4,0.1-8.9s-6.4-2.6-8.9-0.1c-2.5,2.4-2.6,6.4-0.1,8.9
						C5.4,333.5,9.4,333.6,11.9,331.2C14.4,328.7,9.4,333.6,11.9,331.2z M4.1,323.2c1.9-1.9,5-1.8,6.8,0.1s1.8,5-0.1,6.8
						c-1.9,1.9-5,1.8-6.8-0.1S2.2,325,4.1,323.2C6,321.3,2.2,325,4.1,323.2z"/>
				</g>
			</g>
		</g>
	</g>
	<g>
		<g>
			<path class="st2" d="M84.8,296.3v23.8c0,1.9,1.1,4.6,2.5,5.9L98,336.3c1.4,1.3,4.1,2.4,6,2.4h18.7"/>
			<g>
				<g>
					<circle class="st3" cx="122.3" cy="338.7" r="5.6"/>
					<path class="st3" d="M122.3,345c-3.5,0-6.3-2.8-6.3-6.3c0-3.5,2.8-6.3,6.3-6.3c3.5,0,6.3,2.8,6.3,6.3
						C128.7,342.2,125.8,345,122.3,345C118.9,345,125.8,345,122.3,345z M122.3,333.9c-2.7,0-4.8,2.2-4.8,4.8s2.2,4.8,4.8,4.8
						c2.7,0,4.8-2.2,4.8-4.8S125,333.9,122.3,333.9C119.7,333.9,125,333.9,122.3,333.9z"/>
				</g>
			</g>
		</g>
	</g>
	<g>
		<g>
			<line class="st2" x1="16.9" y1="317.5" x2="16.9" y2="340.5"/>
			<g>
				<g>
					<circle class="st3" cx="16.9" cy="340.2" r="5.6"/>
					<path class="st3" d="M10.6,340.2c0-3.5,2.8-6.3,6.3-6.3s6.3,2.8,6.3,6.3c0,3.5-2.8,6.3-6.3,6.3S10.6,343.7,10.6,340.2
						C10.6,336.7,10.6,343.7,10.6,340.2z M21.7,340.2c0-2.7-2.2-4.8-4.8-4.8s-4.8,2.2-4.8,4.8c0,2.7,2.2,4.8,4.8,4.8
						S21.7,342.9,21.7,340.2C21.7,337.6,21.7,342.9,21.7,340.2z"/>
				</g>
			</g>
		</g>
	</g>
	<g>
		<path class="st4" d="M-4.6,477.4"/>
	</g>
	<g>
		<g>
			<path class="st2" d="M32.7,248.5l19.6,19c1.4,1.3,2.5,4,2.5,5.9v69.8"/>
			<g>
				<g>
					<circle class="st3" cx="54.8" cy="342.9" r="5.6"/>
					<path class="st3" d="M48.5,342.9c0-3.5,2.8-6.3,6.3-6.3c3.5,0,6.3,2.8,6.3,6.3c0,3.5-2.8,6.3-6.3,6.3
						C51.3,349.2,48.5,346.3,48.5,342.9C48.5,339.4,48.5,346.3,48.5,342.9z M59.6,342.9c0-2.7-2.2-4.8-4.8-4.8
						c-2.7,0-4.8,2.2-4.8,4.8c0,2.7,2.2,4.8,4.8,4.8C57.5,347.7,59.6,345.5,59.6,342.9C59.6,340.2,59.6,345.5,59.6,342.9z"/>
				</g>
			</g>
		</g>
	</g>
	<g>
		<g>
			<path class="st2" d="M108.4,338.7l-20.1,19.5c-1.4,1.3-2.5,4-2.5,5.9v20c0,1.9,1.6,3.5,3.5,3.5h24.4c1.9,0,3.5,1.6,3.5,3.5v7"/>
			<g>
				<g>
					<circle class="st3" cx="117.2" cy="397.8" r="5.6"/>
					<path class="st3" d="M110.9,397.8c0-3.5,2.8-6.3,6.3-6.3c3.5,0,6.3,2.8,6.3,6.3c0,3.5-2.8,6.3-6.3,6.3
						C113.8,404.1,110.9,401.3,110.9,397.8C110.9,394.3,110.9,401.3,110.9,397.8z M122.1,397.8c0-2.7-2.2-4.8-4.8-4.8
						c-2.7,0-4.8,2.2-4.8,4.8c0,2.7,2.2,4.8,4.8,4.8C119.9,402.6,122.1,400.5,122.1,397.8C122.1,395.2,122.1,400.5,122.1,397.8z"/>
				</g>
			</g>
		</g>
	</g>
	<g>
		<g>
			<line class="st2" x1="16.9" y1="347" x2="16.9" y2="439.9"/>
			<g>
				<g>
					<circle class="st3" cx="16.9" cy="439.6" r="5.6"/>
					<path class="st3" d="M10.6,439.6c0-3.5,2.8-6.3,6.3-6.3s6.3,2.8,6.3,6.3c0,3.5-2.8,6.3-6.3,6.3S10.6,443.1,10.6,439.6
						C10.6,436.1,10.6,443.1,10.6,439.6z M21.7,439.6c0-2.7-2.2-4.8-4.8-4.8s-4.8,2.2-4.8,4.8c0,2.7,2.2,4.8,4.8,4.8
						S21.7,442.3,21.7,439.6C21.7,436.9,21.7,442.3,21.7,439.6z"/>
				</g>
			</g>
		</g>
	</g>
	<g>
		<g>
			<path class="st2" d="M15.9,348.1l41.5,40.8c1.4,1.3,2.5,4,2.5,6V436c0,1.9,1.1,4.6,2.5,5.9l26.1,25.3"/>
			<g>
				<g>
					
						<ellipse transform="matrix(0.6953 -0.7188 0.7188 0.6953 -308.752 205.841)" class="st3" cx="88.4" cy="467" rx="5.6" ry="5.6"/>
					<path class="st3" d="M84,471.6c-2.5-2.4-2.6-6.4-0.1-8.9s6.4-2.6,8.9-0.1c2.5,2.4,2.6,6.4,0.1,8.9
						C90.5,473.9,86.5,474,84,471.6C81.5,469.2,86.5,474,84,471.6z M91.7,463.6c-1.9-1.9-5-1.8-6.8,0.1c-1.9,1.9-1.8,5,0.1,6.8
						c1.9,1.9,5,1.8,6.8-0.1C93.7,468.5,93.6,465.4,91.7,463.6C89.8,461.7,93.6,465.4,91.7,463.6z"/>
				</g>
			</g>
		</g>
	</g>
	<g>
		<g>
			<path class="st2" d="M98.8,387.6V436c0,1.9,1.1,4.6,2.5,5.9l12.7,12.3"/>
			<g>
				<g>
					
						<ellipse transform="matrix(0.6953 -0.7188 0.7188 0.6953 -291.6826 220.1884)" class="st3" cx="113.8" cy="454.1" rx="5.6" ry="5.6"/>
					<path class="st3" d="M109.4,458.6c-2.5-2.4-2.6-6.4-0.1-8.9s6.4-2.6,8.9-0.1c2.5,2.4,2.6,6.4,0.1,8.9
						C115.9,461,111.9,461,109.4,458.6C106.9,456.2,111.9,461,109.4,458.6z M117.2,450.6c-1.9-1.9-5-1.8-6.8,0.1
						c-1.9,1.9-1.8,5,0.1,6.8c1.9,1.9,5,1.8,6.8-0.1C119.2,455.5,119.1,452.5,117.2,450.6C115.3,448.8,119.1,452.5,117.2,450.6z"/>
				</g>
			</g>
		</g>
	</g>
	<g>
		<g>
			<path class="st2" d="M122.7,198.5H186c1.9,0,4.6-1.1,5.9-2.5l51.2-53.2c1.3-1.4,3.6-3.6,5-4.9L267,120c1.4-1.3,4.1-2.4,6-2.4
				h69.1"/>
			<g>
				<g>
					<circle class="st3" cx="341.8" cy="117.6" r="5.6"/>
					<path class="st3" d="M341.8,123.9c-3.5,0-6.3-2.8-6.3-6.3c0-3.5,2.8-6.3,6.3-6.3c3.5,0,6.3,2.8,6.3,6.3
						C348.1,121.1,345.3,123.9,341.8,123.9C338.3,123.9,345.3,123.9,341.8,123.9z M341.8,112.8c-2.7,0-4.8,2.2-4.8,4.8
						c0,2.7,2.2,4.8,4.8,4.8c2.7,0,4.8-2.2,4.8-4.8C346.6,114.9,344.5,112.8,341.8,112.8C339.1,112.8,344.5,112.8,341.8,112.8z"/>
				</g>
			</g>
		</g>
	</g>
	<g>
		<g>
			<path class="st2" d="M342.1,134.7h-55.9c-1.9,0-4.6,1.1-6,2.4l-8.8,8.5c-1.4,1.3-4.1,2.4-6,2.4H238"/>
			<g>
				<g>
					<circle class="st3" cx="341.8" cy="134.7" r="5.6"/>
					<path class="st3" d="M341.8,128.4c-3.5,0-6.3,2.8-6.3,6.3c0,3.5,2.8,6.3,6.3,6.3c3.5,0,6.3-2.8,6.3-6.3
						C348.1,131.2,345.3,128.4,341.8,128.4C338.3,128.4,345.3,128.4,341.8,128.4z M341.8,139.5c-2.7,0-4.8-2.2-4.8-4.8
						c0-2.7,2.2-4.8,4.8-4.8c2.7,0,4.8,2.2,4.8,4.8C346.6,137.3,344.5,139.5,341.8,139.5C339.1,139.5,344.5,139.5,341.8,139.5z"/>
				</g>
			</g>
		</g>
	</g>
	<g>
		<path class="st4" d="M6.4,110.6"/>
	</g>
	<g>
		<g>
			<path class="st2" d="M224.8,160.3l22.5,21.7c1.4,1.3,4.1,2.4,6,2.4h15.4c1.9,0,4.6-1.1,6-2.4l27.8-26.9c1.4-1.3,4.1-2.4,6-2.4
				h33.6"/>
			<g>
				<g>
					<circle class="st3" cx="341.8" cy="152.8" r="5.6"/>
					<path class="st3" d="M341.8,159.1c-3.5,0-6.3-2.8-6.3-6.3s2.8-6.3,6.3-6.3c3.5,0,6.3,2.8,6.3,6.3S345.3,159.1,341.8,159.1
						C338.3,159.1,345.3,159.1,341.8,159.1z M341.8,147.9c-2.7,0-4.8,2.2-4.8,4.8s2.2,4.8,4.8,4.8c2.7,0,4.8-2.2,4.8-4.8
						S344.5,147.9,341.8,147.9C339.1,147.9,344.5,147.9,341.8,147.9z"/>
				</g>
			</g>
		</g>
	</g>
	<g>
		<g>
			<path class="st2" d="M209.1,177.9l34.4,33.2c1.4,1.3,4.1,2.4,6,2.4h92.6"/>
			<g>
				<g>
					<circle class="st3" cx="341.8" cy="213.5" r="5.6"/>
					<path class="st3" d="M341.8,219.8c-3.5,0-6.3-2.8-6.3-6.3s2.8-6.3,6.3-6.3c3.5,0,6.3,2.8,6.3,6.3S345.3,219.8,341.8,219.8
						C338.3,219.8,345.3,219.8,341.8,219.8z M341.8,208.7c-2.7,0-4.8,2.2-4.8,4.8s2.2,4.8,4.8,4.8c2.7,0,4.8-2.2,4.8-4.8
						S344.5,208.7,341.8,208.7C339.1,208.7,344.5,208.7,341.8,208.7z"/>
				</g>
			</g>
		</g>
	</g>
	<g>
		<g>
			<path class="st2" d="M292.9,213l31.3-30.2c1.4-1.3,4.1-2.4,6-2.4h11.9"/>
			<g>
				<g>
					<circle class="st3" cx="341.8" cy="180.3" r="5.6"/>
					<path class="st3" d="M341.8,186.7c-3.5,0-6.3-2.8-6.3-6.3s2.8-6.3,6.3-6.3c3.5,0,6.3,2.8,6.3,6.3S345.3,186.7,341.8,186.7
						C338.3,186.7,345.3,186.7,341.8,186.7z M341.8,175.5c-2.7,0-4.8,2.2-4.8,4.8s2.2,4.8,4.8,4.8c2.7,0,4.8-2.2,4.8-4.8
						S344.5,175.5,341.8,175.5C339.1,175.5,344.5,175.5,341.8,175.5z"/>
				</g>
			</g>
		</g>
	</g>
	<g>
		<g>
			<path class="st2" d="M172.4,198.6l39.3,38c1.4,1.3,4.1,2.4,6,2.4h41.7"/>
			<g>
				<g>
					<circle class="st3" cx="259.2" cy="239" r="5.6"/>
					<path class="st3" d="M259.2,245.3c-3.5,0-6.3-2.8-6.3-6.3c0-3.5,2.8-6.3,6.3-6.3c3.5,0,6.3,2.8,6.3,6.3
						C265.5,242.4,262.7,245.3,259.2,245.3C255.7,245.3,262.7,245.3,259.2,245.3z M259.2,234.1c-2.7,0-4.8,2.2-4.8,4.8
						c0,2.7,2.2,4.8,4.8,4.8c2.7,0,4.8-2.2,4.8-4.8C264,236.3,261.9,234.1,259.2,234.1C256.5,234.1,261.9,234.1,259.2,234.1z"/>
				</g>
			</g>
		</g>
	</g>
	<g>
		<g>
			<path class="st2" d="M193.6,219.6v36.2c0,1.9,1.6,3.5,3.5,3.5h49c1.9,0,4.6,1.1,6,2.4l40.3,39"/>
			<g>
				<g>
					
						<ellipse transform="matrix(0.6953 -0.7188 0.7188 0.6953 -126.9105 301.5786)" class="st3" cx="292.2" cy="300.5" rx="5.6" ry="5.6"/>
					<path class="st3" d="M287.8,305c-2.5-2.4-2.6-6.4-0.1-8.9s6.4-2.6,8.9-0.1c2.5,2.4,2.6,6.4,0.1,8.9
						C294.3,307.3,290.3,307.4,287.8,305C285.3,302.6,290.3,307.4,287.8,305z M295.6,297c-1.9-1.9-5-1.8-6.8,0.1
						c-1.9,1.9-1.8,5,0.1,6.8c1.9,1.9,5,1.8,6.8-0.1C297.5,301.9,297.5,298.8,295.6,297C293.6,295.1,297.5,298.8,295.6,297z"/>
				</g>
			</g>
		</g>
	</g>
	<g>
		<g>
			<path class="st2" d="M223.2,259.2v29.7c0,1.9,1.6,3.5,3.5,3.5h13.5c1.9,0,4.6,1.1,6,2.4l28.1,27.2"/>
			<g>
				<g>
					
						<ellipse transform="matrix(0.6953 -0.7188 0.7188 0.6953 -147.777 295.1121)" class="st3" cx="274.1" cy="321.8" rx="5.6" ry="5.6"/>
					<path class="st3" d="M269.8,326.4c-2.5-2.4-2.6-6.4-0.1-8.9s6.4-2.6,8.9-0.1c2.5,2.4,2.6,6.4,0.1,8.9
						C276.3,328.7,272.3,328.8,269.8,326.4C267.2,323.9,272.3,328.8,269.8,326.4z M277.5,318.4c-1.9-1.9-5-1.8-6.8,0.1
						c-1.9,1.9-1.8,5,0.1,6.8c1.9,1.9,5,1.8,6.8-0.1C279.5,323.3,279.4,320.2,277.5,318.4C275.6,316.5,279.4,320.2,277.5,318.4z"/>
				</g>
			</g>
		</g>
	</g>
	<g>
		<g>
			<path class="st2" d="M223.2,271.1l-14.2,13.7c-1.4,1.3-2.5,4-2.5,5.9v18.4c0,1.9,1.1,4.6,2.5,5.9l15.8,15.3"/>
			<g>
				<g>
					
						<ellipse transform="matrix(0.6953 -0.7188 0.7188 0.6953 -168.83 262.1113)" class="st3" cx="224.7" cy="330.2" rx="5.6" ry="5.6"/>
					<path class="st3" d="M220.3,334.7c-2.5-2.4-2.6-6.4-0.1-8.9c2.4-2.5,6.4-2.6,8.9-0.1c2.5,2.4,2.6,6.4,0.1,8.9
						C226.8,337,222.8,337.1,220.3,334.7C217.8,332.3,222.8,337.1,220.3,334.7z M228.1,326.7c-1.9-1.9-5-1.8-6.8,0.1s-1.8,5,0.1,6.8
						c1.9,1.9,5,1.8,6.8-0.1C230,331.6,230,328.5,228.1,326.7C226.1,324.8,230,328.5,228.1,326.7z"/>
				</g>
			</g>
		</g>
	</g>
	<g>
		<g>
			<path class="st2" d="M179.6,205.4v15.2c0,1.9-1.1,4.6-2.5,5.9l-19.2,18.6"/>
			<g>
				<g>
					
						<ellipse transform="matrix(0.7188 -0.6953 0.6953 0.7188 -125.7711 178.7586)" class="st3" cx="158.1" cy="244.8" rx="5.6" ry="5.6"/>
					<path class="st3" d="M153.7,240.3c2.5-2.4,6.5-2.4,8.9,0.1c2.4,2.5,2.4,6.5-0.1,8.9c-2.5,2.4-6.5,2.4-8.9-0.1
						C151.1,246.7,151.2,242.7,153.7,240.3C156.2,237.9,151.2,242.7,153.7,240.3z M161.4,248.3c1.9-1.9,2-4.9,0.1-6.8
						s-4.9-2-6.8-0.1c-1.9,1.9-2,4.9-0.1,6.8C156.4,250.1,159.5,250.2,161.4,248.3C163.3,246.5,159.5,250.2,161.4,248.3z"/>
				</g>
			</g>
		</g>
	</g>
	<g>
		<g>
			<path class="st2" d="M99,182l22.4-21.9c1.4-1.3,2.5-4,2.5-5.9v-21.8c0-1.9,1.1-4.6,2.5-5.9l7.7-7.5"/>
			<g>
				<g>
					
						<ellipse transform="matrix(0.7188 -0.6953 0.6953 0.7188 -45.191 126.6227)" class="st3" cx="133.9" cy="119.2" rx="5.6" ry="5.6"/>
					<path class="st3" d="M138.3,123.7c-2.5,2.4-6.5,2.4-8.9-0.1c-2.4-2.5-2.4-6.5,0.1-8.9c2.5-2.4,6.5-2.4,8.9,0.1
						C140.9,117.3,140.8,121.3,138.3,123.7C135.8,126.1,140.8,121.3,138.3,123.7z M130.6,115.7c-1.9,1.9-2,4.9-0.1,6.8
						c1.9,1.9,4.9,2,6.8,0.1c1.9-1.9,2-4.9,0.1-6.8C135.5,113.9,132.5,113.8,130.6,115.7C128.6,117.5,132.5,113.8,130.6,115.7z"/>
				</g>
			</g>
		</g>
	</g>
	<g>
		<g>
			<line class="st2" x1="124" y1="142.8" x2="106.5" y2="142.8"/>
			<g>
				<g>
					<circle class="st3" cx="106.9" cy="142.8" r="5.6"/>
					<path class="st3" d="M106.9,136.5c3.5,0,6.3,2.8,6.3,6.3c0,3.5-2.8,6.3-6.3,6.3c-3.5,0-6.3-2.8-6.3-6.3
						C100.5,139.3,103.4,136.5,106.9,136.5C110.3,136.5,103.4,136.5,106.9,136.5z M106.9,147.6c2.7,0,4.8-2.2,4.8-4.8
						c0-2.7-2.2-4.8-4.8-4.8c-2.7,0-4.8,2.2-4.8,4.8C102,145.5,104.2,147.6,106.9,147.6C109.5,147.6,104.2,147.6,106.9,147.6z"/>
				</g>
			</g>
		</g>
	</g>
	<g>
		<g>
			<path class="st2" d="M142,154.5h34.1c1.9,0,4.6-1.1,6-2.4l64.5-62.4"/>
			<g>
				<g>
					
						<ellipse transform="matrix(0.7188 -0.6953 0.6953 0.7188 6.8269 196.5732)" class="st3" cx="246.4" cy="89.8" rx="5.6" ry="5.6"/>
					<path class="st3" d="M250.8,94.4c-2.5,2.4-6.5,2.4-8.9-0.1c-2.4-2.5-2.4-6.5,0.1-8.9c2.5-2.4,6.5-2.4,8.9,0.1
						C253.3,88,253.3,92,250.8,94.4C248.3,96.8,253.3,92,250.8,94.4z M243,86.4c-1.9,1.9-2,4.9-0.1,6.8c1.9,1.9,4.9,2,6.8,0.1
						c1.9-1.9,2-4.9,0.1-6.8C248,84.6,244.9,84.5,243,86.4C241.1,88.2,244.9,84.5,243,86.4z"/>
				</g>
			</g>
		</g>
	</g>
	<g>
		<g>
			<path class="st2" d="M203.8,131v-21.5c0-1.9,1.1-4.6,2.5-5.9l29.2-28.3"/>
			<g>
				<g>
					
						<ellipse transform="matrix(0.7188 -0.6953 0.6953 0.7188 13.6831 184.8869)" class="st3" cx="235.4" cy="75.5" rx="5.6" ry="5.6"/>
					<path class="st3" d="M239.8,80.1c-2.5,2.4-6.5,2.4-8.9-0.1c-2.4-2.5-2.4-6.5,0.1-8.9c2.5-2.4,6.5-2.4,8.9,0.1
						C242.3,73.6,242.3,77.6,239.8,80.1C237.3,82.5,242.3,77.6,239.8,80.1z M232,72.1c-1.9,1.9-2,4.9-0.1,6.8c1.9,1.9,4.9,2,6.8,0.1
						c1.9-1.9,2-4.9,0.1-6.8C237,70.3,233.9,70.2,232,72.1C230.1,73.9,233.9,70.2,232,72.1z"/>
				</g>
			</g>
		</g>
	</g>
	<g>
		<g>
			<path class="st2" d="M371.1,173.8l26.9-26c1.4-1.3,2.5-4,2.5-5.9v-32.3c0-1.9,1.1-4.6,2.5-5.9l29.6-28.7c1.4-1.3,4.1-2.4,6-2.4
				h18.1"/>
			<g>
				<g>
					<circle class="st3" cx="456.4" cy="72.5" r="5.6"/>
					<path class="st3" d="M456.4,78.8c-3.5,0-6.3-2.8-6.3-6.3c0-3.5,2.8-6.3,6.3-6.3c3.5,0,6.3,2.8,6.3,6.3
						C462.7,76,459.9,78.8,456.4,78.8C452.9,78.8,459.9,78.8,456.4,78.8z M456.4,67.7c-2.7,0-4.8,2.2-4.8,4.8c0,2.7,2.2,4.8,4.8,4.8
						c2.7,0,4.8-2.2,4.8-4.8C461.2,69.8,459.1,67.7,456.4,67.7C453.7,67.7,459.1,67.7,456.4,67.7z"/>
				</g>
			</g>
		</g>
	</g>
	<g>
		<g>
			<path class="st2" d="M371.1,194l45.8-44.3c1.4-1.3,2.5-4,2.5-5.9v-29.6c0-1.9,1.1-4.6,2.5-5.9l14.8-14.3c1.4-1.3,4.1-2.4,6-2.4
				h36.9"/>
			<g>
				<g>
					<circle class="st3" cx="479.4" cy="91.4" r="5.6"/>
					<path class="st3" d="M479.4,97.7c-3.5,0-6.3-2.8-6.3-6.3c0-3.5,2.8-6.3,6.3-6.3c3.5,0,6.3,2.8,6.3,6.3
						C485.7,94.9,482.8,97.7,479.4,97.7C475.9,97.7,482.8,97.7,479.4,97.7z M479.4,86.6c-2.7,0-4.8,2.2-4.8,4.8
						c0,2.7,2.2,4.8,4.8,4.8c2.7,0,4.8-2.2,4.8-4.8C484.2,88.8,482,86.6,479.4,86.6C476.7,86.6,482,86.6,479.4,86.6z"/>
				</g>
			</g>
		</g>
	</g>
	<g>
		<g>
			<path class="st2" d="M375.4,213l65.9-63.7c1.4-1.3,2.5-4,2.5-5.9v-25.1c0-1.9,1.6-3.5,3.5-3.5h123.9"/>
			<g>
				<g>
					<circle class="st3" cx="570.9" cy="114.8" r="5.6"/>
					<path class="st3" d="M570.9,121.1c-3.5,0-6.3-2.8-6.3-6.3c0-3.5,2.8-6.3,6.3-6.3c3.5,0,6.3,2.8,6.3,6.3
						C577.2,118.3,574.4,121.1,570.9,121.1C567.5,121.1,574.4,121.1,570.9,121.1z M570.9,109.9c-2.7,0-4.8,2.2-4.8,4.8
						c0,2.7,2.2,4.8,4.8,4.8c2.7,0,4.8-2.2,4.8-4.8C575.8,112.1,573.6,109.9,570.9,109.9C568.3,109.9,573.6,109.9,570.9,109.9z"/>
				</g>
			</g>
		</g>
	</g>
	<g>
		<g>
			<path class="st2" d="M416,173.8h49.7c1.9,0,4.6-1.1,6-2.4l25.6-24.8c1.4-1.3,4.1-2.4,6-2.4h67.8"/>
			<g>
				<g>
					<circle class="st3" cx="570.9" cy="144.1" r="5.6"/>
					<path class="st3" d="M570.9,150.4c-3.5,0-6.3-2.8-6.3-6.3c0-3.5,2.8-6.3,6.3-6.3c3.5,0,6.3,2.8,6.3,6.3
						C577.2,147.6,574.4,150.4,570.9,150.4C567.5,150.4,574.4,150.4,570.9,150.4z M570.9,139.3c-2.7,0-4.8,2.2-4.8,4.8
						s2.2,4.8,4.8,4.8c2.7,0,4.8-2.2,4.8-4.8S573.6,139.3,570.9,139.3C568.3,139.3,573.6,139.3,570.9,139.3z"/>
				</g>
			</g>
		</g>
	</g>
	<g>
		<g>
			<path class="st2" d="M480.8,163.9l28.9,28c1.4,1.3,4.1,2.4,6,2.4h59.7"/>
			<g>
				<g>
					<circle class="st3" cx="575.1" cy="194.3" r="5.6"/>
					<path class="st3" d="M575.1,200.6c-3.5,0-6.3-2.8-6.3-6.3c0-3.5,2.8-6.3,6.3-6.3c3.5,0,6.3,2.8,6.3,6.3
						C581.4,197.8,578.6,200.6,575.1,200.6C571.6,200.6,578.6,200.6,575.1,200.6z M575.1,189.5c-2.7,0-4.8,2.2-4.8,4.8
						c0,2.7,2.2,4.8,4.8,4.8c2.7,0,4.8-2.2,4.8-4.8C579.9,191.7,577.8,189.5,575.1,189.5C572.4,189.5,577.8,189.5,575.1,189.5z"/>
				</g>
			</g>
		</g>
	</g>
	<g>
		<g>
			<path class="st2" d="M407.7,182.1l17.8,17.3c1.4,1.3,4.1,2.4,6,2.4h50.6c1.9,0,4.6,1.1,6,2.4l16.1,15.5c1.4,1.3,4.1,2.4,6,2.4h57
				"/>
			<g>
				<g>
					<circle class="st3" cx="567" cy="222.2" r="5.6"/>
					<path class="st3" d="M567,228.5c-3.5,0-6.3-2.8-6.3-6.3c0-3.5,2.8-6.3,6.3-6.3c3.5,0,6.3,2.8,6.3,6.3
						C573.3,225.7,570.4,228.5,567,228.5C563.5,228.5,570.4,228.5,567,228.5z M567,217.4c-2.7,0-4.8,2.2-4.8,4.8s2.2,4.8,4.8,4.8
						c2.7,0,4.8-2.2,4.8-4.8S569.6,217.4,567,217.4C564.3,217.4,569.6,217.4,567,217.4z"/>
				</g>
			</g>
		</g>
	</g>
	<g>
		<g>
			<path class="st2" d="M455.6,202.2v27.4c0,1.9,1.6,3.5,3.5,3.5h13.7c1.9,0,4.6,1.1,6,2.4l7.2,7c1.4,1.3,4.1,2.4,6,2.4h66.8"/>
			<g>
				<g>
					<circle class="st3" cx="558.6" cy="244.9" r="5.6"/>
					<path class="st3" d="M558.6,251.2c-3.5,0-6.3-2.8-6.3-6.3c0-3.5,2.8-6.3,6.3-6.3c3.5,0,6.3,2.8,6.3,6.3
						C564.9,248.4,562.1,251.2,558.6,251.2C555.1,251.2,562.1,251.2,558.6,251.2z M558.6,240.1c-2.7,0-4.8,2.2-4.8,4.8
						c0,2.7,2.2,4.8,4.8,4.8c2.7,0,4.8-2.2,4.8-4.8C563.4,242.2,561.3,240.1,558.6,240.1C555.9,240.1,561.3,240.1,558.6,240.1z"/>
				</g>
			</g>
		</g>
	</g>
	<g>
		<g>
			<line class="st2" x1="525.5" y1="244.9" x2="525.5" y2="278"/>
			<g>
				<g>
					<circle class="st3" cx="525.5" cy="277.7" r="5.6"/>
					<path class="st3" d="M519.2,277.7c0-3.5,2.8-6.3,6.3-6.3s6.3,2.8,6.3,6.3c0,3.5-2.8,6.3-6.3,6.3S519.2,281.2,519.2,277.7
						C519.2,274.2,519.2,281.2,519.2,277.7z M530.3,277.7c0-2.7-2.2-4.8-4.8-4.8s-4.8,2.2-4.8,4.8c0,2.7,2.2,4.8,4.8,4.8
						S530.3,280.3,530.3,277.7C530.3,275,530.3,280.3,530.3,277.7z"/>
				</g>
			</g>
		</g>
	</g>
	<g>
		<g>
			<path class="st2" d="M469.2,233v15.4c0,1.9,1.1,4.6,2.5,5.9l13.4,12.9"/>
			<g>
				<g>
					
						<ellipse transform="matrix(0.6953 -0.7188 0.7188 0.6953 -44.2125 429.9006)" class="st3" cx="484.9" cy="267.1" rx="5.6" ry="5.6"/>
					<path class="st3" d="M480.5,271.6c-2.5-2.4-2.6-6.4-0.1-8.9c2.4-2.5,6.4-2.6,8.9-0.1c2.5,2.4,2.6,6.4,0.1,8.9
						C487,274,483,274,480.5,271.6C478,269.2,483,274,480.5,271.6z M488.2,263.6c-1.9-1.9-5-1.8-6.8,0.1c-1.9,1.9-1.8,5,0.1,6.8
						c1.9,1.9,5,1.8,6.8-0.1C490.2,268.5,490.2,265.5,488.2,263.6C486.3,261.8,490.2,265.5,488.2,263.6z"/>
				</g>
			</g>
		</g>
	</g>
	<g>
		<g>
			<line class="st2" x1="395.3" y1="195.1" x2="427.3" y2="226"/>
			<g>
				<g>
					
						<ellipse transform="matrix(0.6953 -0.7188 0.7188 0.6953 -32.1207 375.732)" class="st3" cx="427" cy="225.7" rx="5.6" ry="5.6"/>
					<path class="st3" d="M422.7,230.3c-2.5-2.4-2.6-6.4-0.1-8.9c2.4-2.5,6.4-2.6,8.9-0.1c2.5,2.4,2.6,6.4,0.1,8.9
						C429.2,232.6,425.2,232.7,422.7,230.3C420.2,227.9,425.2,232.7,422.7,230.3z M430.4,222.3c-1.9-1.9-5-1.8-6.8,0.1
						c-1.9,1.9-1.8,5,0.1,6.8c1.9,1.9,5,1.8,6.8-0.1C432.4,227.2,432.3,224.1,430.4,222.3C428.5,220.4,432.3,224.1,430.4,222.3z"/>
				</g>
			</g>
		</g>
	</g>
	<g>
		<g>
			<line class="st2" x1="364.1" y1="221.2" x2="383.1" y2="239.6"/>
			<g>
				<g>
					
						<ellipse transform="matrix(0.6953 -0.7188 0.7188 0.6953 -55.3711 348.1151)" class="st3" cx="382.9" cy="239.4" rx="5.6" ry="5.6"/>
					<path class="st3" d="M378.5,243.9c-2.5-2.4-2.6-6.4-0.1-8.9c2.4-2.5,6.4-2.6,8.9-0.1c2.5,2.4,2.6,6.4,0.1,8.9
						C385,246.2,381,246.3,378.5,243.9C376,241.5,381,246.3,378.5,243.9z M386.2,235.9c-1.9-1.9-5-1.8-6.8,0.1
						c-1.9,1.9-1.8,5,0.1,6.8c1.9,1.9,5,1.8,6.8-0.1C388.2,240.8,388.1,237.7,386.2,235.9C384.3,234,388.1,237.7,386.2,235.9z"/>
				</g>
			</g>
		</g>
	</g>
	<g>
		<g>
			<path class="st2" d="M370.4,226.8v23.2c0,1.9,1.2,4.6,2.6,5.9l32.7,29.8"/>
			<g>
				<g>
					
						<ellipse transform="matrix(0.673 -0.7396 0.7396 0.673 -78.4738 393.2461)" class="st3" cx="405.5" cy="285.4" rx="5.6" ry="5.6"/>
					<path class="st3" d="M401.3,290c-2.6-2.3-2.8-6.3-0.4-8.9c2.3-2.6,6.3-2.8,8.9-0.4c2.6,2.3,2.8,6.3,0.4,8.9
						C407.8,292.2,403.8,292.4,401.3,290C398.7,287.7,403.8,292.4,401.3,290z M408.8,281.8c-2-1.8-5-1.6-6.8,0.3
						c-1.8,2-1.6,5,0.3,6.8c2,1.8,5,1.6,6.8-0.3C410.9,286.7,410.7,283.6,408.8,281.8C406.8,280,410.7,283.6,408.8,281.8z"/>
				</g>
			</g>
		</g>
	</g>
	<g>
		<g>
			<path class="st2" d="M340,234.7v5.5c0,1.9,1.1,4.6,2.5,5.9l10.5,10.2"/>
			<g>
				<g>
					
						<ellipse transform="matrix(0.6953 -0.7188 0.7188 0.6953 -76.5829 331.6889)" class="st3" cx="352.9" cy="256.2" rx="5.6" ry="5.6"/>
					<path class="st3" d="M348.5,260.7c-2.5-2.4-2.6-6.4-0.1-8.9c2.4-2.5,6.4-2.6,8.9-0.1c2.5,2.4,2.6,6.4,0.1,8.9
						C355,263.1,351,263.1,348.5,260.7C346,258.3,351,263.1,348.5,260.7z M356.2,252.7c-1.9-1.9-5-1.8-6.8,0.1
						c-1.9,1.9-1.8,5,0.1,6.8c1.9,1.9,5,1.8,6.8-0.1S358.1,254.5,356.2,252.7C354.3,250.8,358.1,254.5,356.2,252.7z"/>
				</g>
			</g>
		</g>
	</g>
	<g>
		<g>
			<path class="st2" d="M320.5,233v15.7c0,1.9,1.1,4.6,2.5,5.9l11,10.6"/>
			<g>
				<g>
					
						<ellipse transform="matrix(0.6953 -0.7188 0.7188 0.6953 -88.823 320.6877)" class="st3" cx="333.8" cy="265.1" rx="5.6" ry="5.6"/>
					<path class="st3" d="M329.4,269.6c-2.5-2.4-2.6-6.4-0.1-8.9c2.4-2.5,6.4-2.6,8.9-0.1c2.5,2.4,2.6,6.4,0.1,8.9
						C335.9,272,331.9,272.1,329.4,269.6C326.9,267.2,331.9,272.1,329.4,269.6z M337.1,261.6c-1.9-1.9-5-1.8-6.8,0.1s-1.8,5,0.1,6.8
						c1.9,1.9,5,1.8,6.8-0.1S339.1,263.5,337.1,261.6C335.2,259.8,339.1,263.5,337.1,261.6z"/>
				</g>
			</g>
		</g>
	</g>
	<g>
		<g>
			<path class="st2" d="M304.9,233v22.7c0,1.9,1.1,4.6,2.5,5.9l11.4,11"/>
			<g>
				<g>
					
						<ellipse transform="matrix(0.6953 -0.7188 0.7188 0.6953 -98.7588 311.9806)" class="st3" cx="318.5" cy="272.5" rx="5.6" ry="5.6"/>
					<path class="st3" d="M314.2,277c-2.5-2.4-2.6-6.4-0.1-8.9c2.4-2.5,6.4-2.6,8.9-0.1c2.5,2.4,2.6,6.4,0.1,8.9
						S316.7,279.4,314.2,277C311.7,274.6,316.7,279.4,314.2,277z M321.9,269c-1.9-1.9-5-1.8-6.8,0.1c-1.9,1.9-1.8,5,0.1,6.8
						c1.9,1.9,5,1.8,6.8-0.1S323.8,270.8,321.9,269C320,267.1,323.8,270.8,321.9,269z"/>
				</g>
			</g>
		</g>
	</g>
	<g>
		<g>
			<path class="st2" d="M149.3,346.2l14.7,14.3c1.4,1.3,2.5,4,2.5,5.9v3.6"/>
			<g>
				<g>
					<circle class="st3" cx="166.5" cy="369.7" r="5.6"/>
					<path class="st3" d="M160.2,369.7c0-3.5,2.8-6.3,6.3-6.3c3.5,0,6.3,2.8,6.3,6.3c0,3.5-2.8,6.3-6.3,6.3
						C163,376.1,160.2,373.2,160.2,369.7C160.2,366.3,160.2,373.2,160.2,369.7z M171.4,369.7c0-2.7-2.2-4.8-4.8-4.8
						s-4.8,2.2-4.8,4.8c0,2.7,2.2,4.8,4.8,4.8S171.4,372.4,171.4,369.7C171.4,367.1,171.4,372.4,171.4,369.7z"/>
				</g>
			</g>
		</g>
	</g>
	<g>
		<g>
			<path class="st2" d="M155.8,352.6h24.9c1.9,0,4.6,1.1,6,2.4l7.1,6.9c1.4,1.3,4.1,2.4,6,2.4h101.4c1.9,0,4.6,1.1,6,2.4l12.2,11.8"
				/>
			<g>
				<g>
					
						<ellipse transform="matrix(0.6953 -0.7188 0.7188 0.6953 -174.657 344.8658)" class="st3" cx="319.4" cy="378.4" rx="5.6" ry="5.6"/>
					<path class="st3" d="M315,382.9c-2.5-2.4-2.6-6.4-0.1-8.9c2.4-2.5,6.4-2.6,8.9-0.1c2.5,2.4,2.6,6.4,0.1,8.9
						C321.5,385.3,317.5,385.4,315,382.9C312.5,380.5,317.5,385.4,315,382.9z M322.7,374.9c-1.9-1.9-5-1.8-6.8,0.1
						c-1.9,1.9-1.8,5,0.1,6.8c1.9,1.9,5,1.8,6.8-0.1C324.7,379.9,324.6,376.8,322.7,374.9C320.8,373.1,324.6,376.8,322.7,374.9z"/>
				</g>
			</g>
		</g>
	</g>
	<g>
		<g>
			<path class="st2" d="M286.9,364.8l52.4-50.7c1.4-1.3,4.1-2.4,6-2.4h24.5"/>
			<g>
				<g>
					<circle class="st3" cx="369.4" cy="311.7" r="5.6"/>
					<path class="st3" d="M369.4,318c-3.5,0-6.3-2.8-6.3-6.3c0-3.5,2.8-6.3,6.3-6.3c3.5,0,6.3,2.8,6.3,6.3
						C375.7,315.1,372.9,318,369.4,318C366,318,372.9,318,369.4,318z M369.4,306.8c-2.7,0-4.8,2.2-4.8,4.8c0,2.7,2.2,4.8,4.8,4.8
						c2.7,0,4.8-2.2,4.8-4.8C374.3,309,372.1,306.8,369.4,306.8C366.8,306.8,372.1,306.8,369.4,306.8z"/>
				</g>
			</g>
		</g>
	</g>
	<g>
		<g>
			<path class="st2" d="M333.1,320.1l11,10.6c1.4,1.3,4.1,2.4,6,2.4h51.6"/>
			<g>
				<g>
					<circle class="st3" cx="401.4" cy="333.1" r="5.6"/>
					<path class="st3" d="M401.4,339.4c-3.5,0-6.3-2.8-6.3-6.3s2.8-6.3,6.3-6.3c3.5,0,6.3,2.8,6.3,6.3S404.9,339.4,401.4,339.4
						C397.9,339.4,404.9,339.4,401.4,339.4z M401.4,328.2c-2.7,0-4.8,2.2-4.8,4.8s2.2,4.8,4.8,4.8c2.7,0,4.8-2.2,4.8-4.8
						S404.1,328.2,401.4,328.2C398.7,328.2,404.1,328.2,401.4,328.2z"/>
				</g>
			</g>
		</g>
	</g>
	<g>
		<g>
			<path class="st2" d="M364.5,333.1l14.3,13.9c1.4,1.3,4.1,2.4,6,2.4h14.1"/>
			<g>
				<g>
					<circle class="st3" cx="398.6" cy="349.4" r="5.6"/>
					<path class="st3" d="M398.6,355.7c-3.5,0-6.3-2.8-6.3-6.3s2.8-6.3,6.3-6.3c3.5,0,6.3,2.8,6.3,6.3S402.1,355.7,398.6,355.7
						C395.1,355.7,402.1,355.7,398.6,355.7z M398.6,344.6c-2.7,0-4.8,2.2-4.8,4.8s2.2,4.8,4.8,4.8c2.7,0,4.8-2.2,4.8-4.8
						S401.3,344.6,398.6,344.6C395.9,344.6,401.3,344.6,398.6,344.6z"/>
				</g>
			</g>
		</g>
	</g>
	<g>
		<g>
			<path class="st2" d="M316.3,336.3l31.8,30.7c1.4,1.3,4.1,2.4,6,2.4h15.6"/>
			<g>
				<g>
					<circle class="st3" cx="369.4" cy="369.5" r="5.6"/>
					<path class="st3" d="M369.4,375.8c-3.5,0-6.3-2.8-6.3-6.3s2.8-6.3,6.3-6.3c3.5,0,6.3,2.8,6.3,6.3S372.9,375.8,369.4,375.8
						C366,375.8,372.9,375.8,369.4,375.8z M369.4,364.6c-2.7,0-4.8,2.2-4.8,4.8s2.2,4.8,4.8,4.8c2.7,0,4.8-2.2,4.8-4.8
						S372.1,364.6,369.4,364.6C366.8,364.6,372.1,364.6,369.4,364.6z"/>
				</g>
			</g>
		</g>
	</g>
	<g>
		<g>
			<path class="st2" d="M203.8,260.5v4.8c0,1.9-1.1,4.6-2.5,5.9l-8.1,7.8"/>
			<g>
				<g>
					
						<ellipse transform="matrix(0.7188 -0.6953 0.6953 0.7188 -139.487 212.9423)" class="st3" cx="193.5" cy="278.9" rx="5.6" ry="5.6"/>
					<path class="st3" d="M189.1,274.3c2.5-2.4,6.5-2.4,8.9,0.1c2.4,2.5,2.4,6.5-0.1,8.9c-2.5,2.4-6.5,2.4-8.9-0.1
						C186.5,280.8,186.6,276.8,189.1,274.3C191.6,271.9,186.6,276.8,189.1,274.3z M196.8,282.4c1.9-1.9,2-4.9,0.1-6.8
						s-4.9-2-6.8-0.1c-1.9,1.9-2,4.9-0.1,6.8C191.8,284.2,194.9,284.2,196.8,282.4C198.7,280.5,194.9,284.2,196.8,282.4z"/>
				</g>
			</g>
		</g>
	</g>
	<g>
		<g>
			<path class="st2" d="M146,404.1h39.4c1.9,0,4.6,1.1,6,2.4l43.5,42.1c1.4,1.3,2.5,4,2.5,5.9v12.6c0,1.9,1.1,4.6,2.5,5.9l39.5,38.2
				"/>
			<g>
				<g>
					
						<ellipse transform="matrix(0.6953 -0.7188 0.7188 0.6953 -282.2316 356.4255)" class="st3" cx="279.2" cy="511.1" rx="5.6" ry="5.6"/>
					<path class="st3" d="M274.8,515.6c-2.5-2.4-2.6-6.4-0.1-8.9s6.4-2.6,8.9-0.1c2.5,2.4,2.6,6.4,0.1,8.9
						C281.3,517.9,277.3,518,274.8,515.6C272.3,513.2,277.3,518,274.8,515.6z M282.6,507.6c-1.9-1.9-5-1.8-6.8,0.1
						c-1.9,1.9-1.8,5,0.1,6.8c1.9,1.9,5,1.8,6.8-0.1C284.5,512.5,284.5,509.4,282.6,507.6C280.7,505.7,284.5,509.4,282.6,507.6z"/>
				</g>
			</g>
		</g>
	</g>
	<g>
		<g>
			<path class="st2" d="M229.2,391.2v20.3c0,1.9,1.1,4.6,2.5,5.9l9.2,8.9"/>
			<g>
				<g>
					
						<ellipse transform="matrix(0.6953 -0.7188 0.7188 0.6953 -232.9597 302.8505)" class="st3" cx="240.7" cy="426.2" rx="5.6" ry="5.6"/>
					<path class="st3" d="M236.3,430.7c-2.5-2.4-2.6-6.4-0.1-8.9c2.4-2.5,6.4-2.6,8.9-0.1c2.5,2.4,2.6,6.4,0.1,8.9
						C242.8,433,238.8,433.1,236.3,430.7C233.8,428.3,238.8,433.1,236.3,430.7z M244,422.7c-1.9-1.9-5-1.8-6.8,0.1
						c-1.9,1.9-1.8,5,0.1,6.8c1.9,1.9,5,1.8,6.8-0.1S245.9,424.5,244,422.7C242.1,420.8,245.9,424.5,244,422.7z"/>
				</g>
			</g>
		</g>
	</g>
	<g>
		<g>
			<path class="st2" d="M239.9,520.6h17.5c1.9,0,4.6,1.1,6,2.4l68.2,65.9c1.4,1.3,4.1,2.4,6,2.4h18.7"/>
			<g>
				<g>
					<circle class="st3" cx="356" cy="591.3" r="5.6"/>
					<path class="st3" d="M356,597.7c-3.5,0-6.3-2.8-6.3-6.3s2.8-6.3,6.3-6.3c3.5,0,6.3,2.8,6.3,6.3S359.4,597.7,356,597.7
						C352.5,597.7,359.4,597.7,356,597.7z M356,586.5c-2.7,0-4.8,2.2-4.8,4.8s2.2,4.8,4.8,4.8c2.7,0,4.8-2.2,4.8-4.8
						S358.6,586.5,356,586.5C353.3,586.5,358.6,586.5,356,586.5z"/>
				</g>
			</g>
		</g>
	</g>
	<g>
		<g>
			<path class="st2" d="M304.2,562.4v14.1c0,1.9,1.1,4.6,2.5,5.9l49.6,48c1.4,1.3,2.5,4,2.5,5.9V655"/>
			<g>
				<g>
					<circle class="st3" cx="358.9" cy="654.7" r="5.6"/>
					<path class="st3" d="M352.5,654.7c0-3.5,2.8-6.3,6.3-6.3s6.3,2.8,6.3,6.3c0,3.5-2.8,6.3-6.3,6.3S352.5,658.2,352.5,654.7
						C352.5,651.2,352.5,658.2,352.5,654.7z M363.7,654.7c0-2.7-2.2-4.8-4.8-4.8s-4.8,2.2-4.8,4.8c0,2.7,2.2,4.8,4.8,4.8
						S363.7,657.4,363.7,654.7C363.7,652,363.7,657.4,363.7,654.7z"/>
				</g>
			</g>
		</g>
	</g>
	<g>
		<g>
			<line class="st2" x1="201.8" y1="418.5" x2="190.1" y2="429.8"/>
			<g>
				<g>
					
						<ellipse transform="matrix(0.7188 -0.6953 0.6953 0.7188 -245.1506 253.1401)" class="st3" cx="190.3" cy="429.6" rx="5.6" ry="5.6"/>
					<path class="st3" d="M185.9,425c2.5-2.4,6.5-2.4,8.9,0.1c2.4,2.5,2.4,6.5-0.1,8.9c-2.5,2.4-6.5,2.4-8.9-0.1
						C183.4,431.5,183.4,427.5,185.9,425C188.4,422.6,183.4,427.5,185.9,425z M193.7,433.1c1.9-1.9,2-4.9,0.1-6.8
						c-1.9-1.9-4.9-2-6.8-0.1c-1.9,1.9-2,4.9-0.1,6.8C188.7,434.9,191.8,434.9,193.7,433.1C195.6,431.2,191.8,434.9,193.7,433.1z"/>
				</g>
			</g>
		</g>
	</g>
	<g>
		<g>
			<path class="st2" d="M229.2,399.5H252c1.9,0,4.6,1.1,6,2.4l6.3,6.1"/>
			<g>
				<g>
					
						<ellipse transform="matrix(0.6953 -0.7188 0.7188 0.6953 -212.6045 314.0214)" class="st3" cx="264" cy="407.7" rx="5.6" ry="5.6"/>
					<path class="st3" d="M259.6,412.3c-2.5-2.4-2.6-6.4-0.1-8.9c2.4-2.5,6.4-2.6,8.9-0.1c2.5,2.4,2.6,6.4,0.1,8.9
						C266.1,414.6,262.1,414.7,259.6,412.3C257.1,409.9,262.1,414.7,259.6,412.3z M267.4,404.3c-1.9-1.9-5-1.8-6.8,0.1
						c-1.9,1.9-1.8,5,0.1,6.8c1.9,1.9,5,1.8,6.8-0.1C269.4,409.2,269.3,406.1,267.4,404.3C265.5,402.4,269.3,406.1,267.4,404.3z"/>
				</g>
			</g>
		</g>
	</g>
	<g>
		<g>
			<path class="st2" d="M293.4,387.6v8.4c0,1.9,1.1,4.6,2.5,5.9l9.6,9.3c1.4,1.3,4.1,2.4,6,2.4h11.1c1.9,0,4.6,1.1,6,2.4l4.5,4.4"/>
			<g>
				<g>
					
						<ellipse transform="matrix(0.6953 -0.7188 0.7188 0.6953 -200.5596 367.3525)" class="st3" cx="332.9" cy="420.2" rx="5.6" ry="5.6"/>
					<path class="st3" d="M328.6,424.7c-2.5-2.4-2.6-6.4-0.1-8.9c2.4-2.5,6.4-2.6,8.9-0.1c2.5,2.4,2.6,6.4,0.1,8.9
						C335.1,427.1,331.1,427.2,328.6,424.7C326.1,422.3,331.1,427.2,328.6,424.7z M336.3,416.7c-1.9-1.9-5-1.8-6.8,0.1
						s-1.8,5,0.1,6.8c1.9,1.9,5,1.8,6.8-0.1S338.2,418.6,336.3,416.7C334.4,414.9,338.2,418.6,336.3,416.7z"/>
				</g>
			</g>
		</g>
	</g>
	<g>
		<g>
			<path class="st2" d="M378.8,398.3l30.3,29.3c1.4,1.3,4.1,2.4,6,2.4h7.3"/>
			<g>
				<g>
					<circle class="st3" cx="422.1" cy="430.1" r="5.6"/>
					<path class="st3" d="M422.1,436.4c-3.5,0-6.3-2.8-6.3-6.3c0-3.5,2.8-6.3,6.3-6.3c3.5,0,6.3,2.8,6.3,6.3
						C428.4,433.6,425.6,436.4,422.1,436.4C418.6,436.4,425.6,436.4,422.1,436.4z M422.1,425.2c-2.7,0-4.8,2.2-4.8,4.8
						c0,2.7,2.2,4.8,4.8,4.8c2.7,0,4.8-2.2,4.8-4.8C426.9,427.4,424.8,425.2,422.1,425.2C419.4,425.2,424.8,425.2,422.1,425.2z"/>
				</g>
			</g>
		</g>
	</g>
	<g>
		<g>
			<line class="st2" x1="400.7" y1="419.6" x2="400.7" y2="435.6"/>
			<g>
				<g>
					<circle class="st3" cx="400.7" cy="435.3" r="5.6"/>
					<path class="st3" d="M394.4,435.3c0-3.5,2.8-6.3,6.3-6.3c3.5,0,6.3,2.8,6.3,6.3c0,3.5-2.8,6.3-6.3,6.3
						C397.2,441.6,394.4,438.7,394.4,435.3C394.4,431.8,394.4,438.7,394.4,435.3z M405.5,435.3c0-2.7-2.2-4.8-4.8-4.8
						c-2.7,0-4.8,2.2-4.8,4.8c0,2.7,2.2,4.8,4.8,4.8C403.3,440.1,405.5,437.9,405.5,435.3C405.5,432.6,405.5,437.9,405.5,435.3z"/>
				</g>
			</g>
		</g>
	</g>
	<g>
		<g>
			<path class="st2" d="M352.8,453v10.6c0,1.9,1.1,4.6,2.5,5.9l39.8,38.5"/>
			<g>
				<g>
					
						<ellipse transform="matrix(0.6953 -0.7188 0.7188 0.6953 -244.6368 438.5632)" class="st3" cx="394.9" cy="507.8" rx="5.6" ry="5.6"/>
					<path class="st3" d="M390.5,512.3c-2.5-2.4-2.6-6.4-0.1-8.9c2.4-2.5,6.4-2.6,8.9-0.1c2.5,2.4,2.6,6.4,0.1,8.9
						C397,514.7,393,514.7,390.5,512.3C388,509.9,393,514.7,390.5,512.3z M398.2,504.3c-1.9-1.9-5-1.8-6.8,0.1
						c-1.9,1.9-1.8,5,0.1,6.8c1.9,1.9,5,1.8,6.8-0.1C400.2,509.2,400.2,506.2,398.2,504.3C396.3,502.5,400.2,506.2,398.2,504.3z"/>
				</g>
			</g>
		</g>
	</g>
	<g>
		<g>
			<path class="st2" d="M387.4,455.3v8.3c0,1.9,1.1,4.6,2.5,5.9l37.3,36.1c1.4,1.3,2.5,4,2.5,5.9v4.3"/>
			<g>
				<g>
					<circle class="st3" cx="429.7" cy="515.5" r="5.6"/>
					<path class="st3" d="M423.4,515.5c0-3.5,2.8-6.3,6.3-6.3s6.3,2.8,6.3,6.3c0,3.5-2.8,6.3-6.3,6.3S423.4,519,423.4,515.5
						C423.4,512,423.4,519,423.4,515.5z M434.6,515.5c0-2.7-2.2-4.8-4.8-4.8s-4.8,2.2-4.8,4.8c0,2.7,2.2,4.8,4.8,4.8
						S434.6,518.1,434.6,515.5C434.6,512.8,434.6,518.1,434.6,515.5z"/>
				</g>
			</g>
		</g>
	</g>
	<g>
		<g>
			<path class="st2" d="M407.7,455.3v8.9c0,1.9,1.1,4.6,2.5,5.9l22.9,22.1"/>
			<g>
				<g>
					
						<ellipse transform="matrix(0.6953 -0.7188 0.7188 0.6953 -221.7208 461.0775)" class="st3" cx="432.9" cy="492" rx="5.6" ry="5.6"/>
					<path class="st3" d="M428.5,496.6c-2.5-2.4-2.6-6.4-0.1-8.9c2.4-2.5,6.4-2.6,8.9-0.1c2.5,2.4,2.6,6.4,0.1,8.9
						C435,498.9,431,499,428.5,496.6C426,494.1,431,499,428.5,496.6z M436.3,488.5c-1.9-1.9-5-1.8-6.8,0.1s-1.8,5,0.1,6.8
						c1.9,1.9,5,1.8,6.8-0.1S438.2,490.4,436.3,488.5C434.3,486.7,438.2,490.4,436.3,488.5z"/>
				</g>
			</g>
		</g>
	</g>
	<g>
		<g>
			<path class="st2" d="M465.2,419.4v23c0,1.9,1.1,4.6,2.5,5.9l6.3,6.1c1.4,1.3,2.5,4,2.5,5.9v38.7"/>
			<g>
				<g>
					<circle class="st3" cx="476.5" cy="498.8" r="5.6"/>
					<path class="st3" d="M470.2,498.8c0-3.5,2.8-6.3,6.3-6.3s6.3,2.8,6.3,6.3c0,3.5-2.8,6.3-6.3,6.3S470.2,502.3,470.2,498.8
						C470.2,495.3,470.2,502.3,470.2,498.8z M481.4,498.8c0-2.7-2.2-4.8-4.8-4.8s-4.8,2.2-4.8,4.8c0,2.7,2.2,4.8,4.8,4.8
						S481.4,501.4,481.4,498.8C481.4,496.1,481.4,501.4,481.4,498.8z"/>
				</g>
			</g>
		</g>
	</g>
	<g>
		<g>
			<path class="st2" d="M476.1,467.7l14.2,13.7c1.4,1.3,2.5,4,2.5,5.9v7.8c0,1.9,1.1,4.6,2.5,5.9l12.3,11.9"/>
			<g>
				<g>
					
						<ellipse transform="matrix(0.6953 -0.7188 0.7188 0.6953 -213.9285 520.9456)" class="st3" cx="507.4" cy="512.8" rx="5.6" ry="5.6"/>
					<path class="st3" d="M503,517.3c-2.5-2.4-2.6-6.4-0.1-8.9c2.4-2.5,6.4-2.6,8.9-0.1c2.5,2.4,2.6,6.4,0.1,8.9
						S505.5,519.7,503,517.3C500.5,514.9,505.5,519.7,503,517.3z M510.8,509.3c-1.9-1.9-5-1.8-6.8,0.1c-1.9,1.9-1.8,5,0.1,6.8
						c1.9,1.9,5,1.8,6.8-0.1C512.7,514.2,512.7,511.1,510.8,509.3C508.8,507.4,512.7,511.1,510.8,509.3z"/>
				</g>
			</g>
		</g>
	</g>
	<g>
		<g>
			<path class="st2" d="M465.2,426.8l42.1,40.7c1.4,1.3,2.5,4,2.5,5.9v9"/>
			<g>
				<g>
					<circle class="st3" cx="509.8" cy="482.2" r="5.6"/>
					<path class="st3" d="M503.5,482.2c0-3.5,2.8-6.3,6.3-6.3s6.3,2.8,6.3,6.3c0,3.5-2.8,6.3-6.3,6.3S503.5,485.7,503.5,482.2
						C503.5,478.7,503.5,485.7,503.5,482.2z M514.7,482.2c0-2.7-2.2-4.8-4.8-4.8s-4.8,2.2-4.8,4.8c0,2.7,2.2,4.8,4.8,4.8
						S514.7,484.9,514.7,482.2C514.7,479.5,514.7,484.9,514.7,482.2z"/>
				</g>
			</g>
		</g>
	</g>
	<g>
		<g>
			<path class="st2" d="M399.4,376.1l20.4,19.7c1.4,1.3,4.1,2.4,6,2.4h60.4"/>
			<g>
				<g>
					<circle class="st3" cx="485.9" cy="398.2" r="5.6"/>
					<path class="st3" d="M485.9,404.5c-3.5,0-6.3-2.8-6.3-6.3s2.8-6.3,6.3-6.3c3.5,0,6.3,2.8,6.3,6.3S489.4,404.5,485.9,404.5
						C482.4,404.5,489.4,404.5,485.9,404.5z M485.9,393.4c-2.7,0-4.8,2.2-4.8,4.8s2.2,4.8,4.8,4.8c2.7,0,4.8-2.2,4.8-4.8
						S488.6,393.4,485.9,393.4C483.3,393.4,488.6,393.4,485.9,393.4z"/>
				</g>
			</g>
		</g>
	</g>
	<g>
		<g>
			<path class="st2" d="M428.6,397.5l49.3-47.7c1.4-1.3,4.1-2.4,6-2.4h11.5"/>
			<g>
				<g>
					<circle class="st3" cx="495.1" cy="347.4" r="5.6"/>
					<path class="st3" d="M495.1,353.7c-3.5,0-6.3-2.8-6.3-6.3s2.8-6.3,6.3-6.3c3.5,0,6.3,2.8,6.3,6.3S498.5,353.7,495.1,353.7
						C491.6,353.7,498.5,353.7,495.1,353.7z M495.1,342.5c-2.7,0-4.8,2.2-4.8,4.8s2.2,4.8,4.8,4.8c2.7,0,4.8-2.2,4.8-4.8
						S497.7,342.5,495.1,342.5C492.4,342.5,497.7,342.5,495.1,342.5z"/>
				</g>
			</g>
		</g>
	</g>
	<g>
		<g>
			<path class="st2" d="M462.7,365.3l13.3,12.9c1.4,1.3,4.1,2.4,6,2.4h13.3"/>
			<g>
				<g>
					<circle class="st3" cx="495.1" cy="380.6" r="5.6"/>
					<path class="st3" d="M495.1,386.9c-3.5,0-6.3-2.8-6.3-6.3c0-3.5,2.8-6.3,6.3-6.3c3.5,0,6.3,2.8,6.3,6.3
						C501.4,384.1,498.5,386.9,495.1,386.9C491.6,386.9,498.5,386.9,495.1,386.9z M495.1,375.8c-2.7,0-4.8,2.2-4.8,4.8
						c0,2.7,2.2,4.8,4.8,4.8c2.7,0,4.8-2.2,4.8-4.8C499.9,377.9,497.7,375.8,495.1,375.8C492.4,375.8,497.7,375.8,495.1,375.8z"/>
				</g>
			</g>
		</g>
	</g>
	<g>
		<g>
			<path class="st2" d="M412.1,364.8h21.9c1.9,0,4.6-1.1,6-2.4l21.5-20.8"/>
			<g>
				<g>
					
						<ellipse transform="matrix(0.7188 -0.6953 0.6953 0.7188 -107.8935 416.7947)" class="st3" cx="461.2" cy="341.8" rx="5.6" ry="5.6"/>
					<path class="st3" d="M465.6,346.3c-2.5,2.4-6.5,2.4-8.9-0.1s-2.4-6.5,0.1-8.9c2.5-2.4,6.5-2.4,8.9,0.1
						C468.2,339.9,468.1,343.9,465.6,346.3C463.1,348.7,468.1,343.9,465.6,346.3z M457.9,338.3c-1.9,1.9-2,4.9-0.1,6.8
						c1.9,1.9,4.9,2,6.8,0.1c1.9-1.9,2-4.9,0.1-6.8C462.8,336.5,459.8,336.4,457.9,338.3C456,340.1,459.8,336.4,457.9,338.3z"/>
				</g>
			</g>
		</g>
	</g>
	<g>
		<g>
			<line class="st2" x1="455.2" y1="284.5" x2="470.8" y2="299.6"/>
			<g>
				<g>
					
						<ellipse transform="matrix(0.6953 -0.7188 0.7188 0.6953 -71.779 429.4442)" class="st3" cx="470.6" cy="299.4" rx="5.6" ry="5.6"/>
					<path class="st3" d="M466.2,303.9c-2.5-2.4-2.6-6.4-0.1-8.9c2.4-2.5,6.4-2.6,8.9-0.1c2.5,2.4,2.6,6.4,0.1,8.9
						C472.7,306.3,468.7,306.3,466.2,303.9C463.7,301.5,468.7,306.3,466.2,303.9z M473.9,295.9c-1.9-1.9-5-1.8-6.8,0.1
						c-1.9,1.9-1.8,5,0.1,6.8c1.9,1.9,5,1.8,6.8-0.1S475.8,297.8,473.9,295.9C472,294,475.8,297.8,473.9,295.9z"/>
				</g>
			</g>
		</g>
	</g>
	<g>
		<g>
			<path class="st2" d="M530.7,346.2h32.4c1.9,0,4.6-1.1,6-2.4l19.2-18.6"/>
			<g>
				<g>
					
						<ellipse transform="matrix(0.7188 -0.6953 0.6953 0.7188 -60.892 500.3806)" class="st3" cx="588" cy="325.5" rx="5.6" ry="5.6"/>
					<path class="st3" d="M592.4,330c-2.5,2.4-6.5,2.4-8.9-0.1c-2.4-2.5-2.4-6.5,0.1-8.9c2.5-2.4,6.5-2.4,8.9,0.1
						C595,323.6,594.9,327.6,592.4,330C589.9,332.4,594.9,327.6,592.4,330z M584.7,322c-1.9,1.9-2,4.9-0.1,6.8
						c1.9,1.9,4.9,2,6.8,0.1c1.9-1.9,2-4.9,0.1-6.8C589.7,320.2,586.6,320.1,584.7,322C582.8,323.8,586.6,320.1,584.7,322z"/>
				</g>
			</g>
		</g>
	</g>
	<g>
		<g>
			<path class="st2" d="M578.5,333.6v-27.3c0-1.9,1.1-4.6,2.5-5.9l34.6-33.5c1.4-1.3,2.5-4,2.5-5.9v-30.9"/>
			<g>
				<g>
					<circle class="st3" cx="618.1" cy="230.4" r="5.6"/>
					<path class="st3" d="M624.4,230.4c0,3.5-2.8,6.3-6.3,6.3s-6.3-2.8-6.3-6.3c0-3.5,2.8-6.3,6.3-6.3S624.4,226.9,624.4,230.4
						C624.4,233.8,624.4,226.9,624.4,230.4z M613.3,230.4c0,2.7,2.2,4.8,4.8,4.8s4.8-2.2,4.8-4.8c0-2.7-2.2-4.8-4.8-4.8
						S613.3,227.7,613.3,230.4C613.3,233,613.3,227.7,613.3,230.4z"/>
				</g>
			</g>
		</g>
	</g>
	<g>
		<g>
			<path class="st2" d="M595.9,286h36.7c1.9,0,4.6-1.1,6-2.4l30.7-29.7c1.4-1.3,2.5-4,2.5-5.9v-18.3"/>
			<g>
				<g>
					<circle class="st3" cx="671.8" cy="229.8" r="5.6"/>
					<path class="st3" d="M678.1,229.8c0,3.5-2.8,6.3-6.3,6.3s-6.3-2.8-6.3-6.3c0-3.5,2.8-6.3,6.3-6.3S678.1,226.4,678.1,229.8
						C678.1,233.3,678.1,226.4,678.1,229.8z M667,229.8c0,2.7,2.2,4.8,4.8,4.8s4.8-2.2,4.8-4.8c0-2.7-2.2-4.8-4.8-4.8
						S667,227.2,667,229.8C667,232.5,667,227.2,667,229.8z"/>
				</g>
			</g>
		</g>
	</g>
	<g>
		<g>
			<path class="st2" d="M657.1,264.4L641,248.9c-1.4-1.3-2.5-4-2.5-5.9v-11.4"/>
			<g>
				<g>
					<circle class="st3" cx="638.5" cy="231.9" r="5.6"/>
					<path class="st3" d="M644.8,231.9c0,3.5-2.8,6.3-6.3,6.3s-6.3-2.8-6.3-6.3c0-3.5,2.8-6.3,6.3-6.3S644.8,228.4,644.8,231.9
						C644.8,235.4,644.8,228.4,644.8,231.9z M633.7,231.9c0,2.7,2.2,4.8,4.8,4.8s4.8-2.2,4.8-4.8c0-2.7-2.2-4.8-4.8-4.8
						S633.7,229.2,633.7,231.9C633.7,234.6,633.7,229.2,633.7,231.9z"/>
				</g>
			</g>
		</g>
	</g>
	<g>
		<g>
			<path class="st2" d="M647.4,274.6h35.2c1.9,0,4.6-1.1,6-2.4l25.8-24.9"/>
			<g>
				<g>
					
						<ellipse transform="matrix(0.7188 -0.6953 0.6953 0.7188 28.7917 566.1544)" class="st3" cx="714.2" cy="247.5" rx="5.6" ry="5.6"/>
					<path class="st3" d="M718.6,252c-2.5,2.4-6.5,2.4-8.9-0.1c-2.4-2.5-2.4-6.5,0.1-8.9c2.5-2.4,6.5-2.4,8.9,0.1
						C721.1,245.6,721.1,249.6,718.6,252C716.1,254.4,721.1,249.6,718.6,252z M710.8,244c-1.9,1.9-2,4.9-0.1,6.8s4.9,2,6.8,0.1
						c1.9-1.9,2-4.9,0.1-6.8S712.7,242.2,710.8,244C708.9,245.9,712.7,242.2,710.8,244z"/>
				</g>
			</g>
		</g>
	</g>
	<g>
		<g>
			<path class="st2" d="M699,262.2h97.7c1.9,0,4.6-1.1,6-2.4l28.8-27.8c1.4-1.3,4.1-2.4,6-2.4h18.5"/>
			<g>
				<g>
					<circle class="st3" cx="855.6" cy="229.5" r="5.6"/>
					<path class="st3" d="M855.6,235.8c-3.5,0-6.3-2.8-6.3-6.3s2.8-6.3,6.3-6.3c3.5,0,6.3,2.8,6.3,6.3S859.1,235.8,855.6,235.8
						C852.1,235.8,859.1,235.8,855.6,235.8z M855.6,224.7c-2.7,0-4.8,2.2-4.8,4.8s2.2,4.8,4.8,4.8c2.7,0,4.8-2.2,4.8-4.8
						S858.3,224.7,855.6,224.7C852.9,224.7,858.3,224.7,855.6,224.7z"/>
				</g>
			</g>
		</g>
	</g>
	<g>
		<g>
			<path class="st2" d="M810.4,252.3h48c1.9,0,4.6,1.1,6,2.4l11.2,10.8"/>
			<g>
				<g>
					
						<ellipse transform="matrix(0.6953 -0.7188 0.7188 0.6953 76.0732 710.0471)" class="st3" cx="875.4" cy="265.3" rx="5.6" ry="5.6"/>
					<path class="st3" d="M871,269.8c-2.5-2.4-2.6-6.4-0.1-8.9c2.4-2.5,6.4-2.6,8.9-0.1c2.5,2.4,2.6,6.4,0.1,8.9
						S873.5,272.3,871,269.8C868.5,267.4,873.5,272.3,871,269.8z M878.8,261.8c-1.9-1.9-5-1.8-6.8,0.1c-1.9,1.9-1.8,5,0.1,6.8
						c1.9,1.9,5,1.8,6.8-0.1C880.7,266.8,880.7,263.7,878.8,261.8C876.8,260,880.7,263.7,878.8,261.8z"/>
				</g>
			</g>
		</g>
	</g>
	<g>
		<g>
			<path class="st2" d="M747.1,262.2l22.7,21.9c1.4,1.3,4.1,2.4,6,2.4h102"/>
			<g>
				<g>
					<circle class="st3" cx="877.5" cy="286.6" r="5.6"/>
					<path class="st3" d="M877.5,292.9c-3.5,0-6.3-2.8-6.3-6.3s2.8-6.3,6.3-6.3c3.5,0,6.3,2.8,6.3,6.3S880.9,292.9,877.5,292.9
						C874,292.9,880.9,292.9,877.5,292.9z M877.5,281.7c-2.7,0-4.8,2.2-4.8,4.8s2.2,4.8,4.8,4.8c2.7,0,4.8-2.2,4.8-4.8
						S880.1,281.7,877.5,281.7C874.8,281.7,880.1,281.7,877.5,281.7z"/>
				</g>
			</g>
		</g>
	</g>
	<g>
		<g>
			<path class="st2" d="M703.8,262.2l39.7,38.4c1.4,1.3,2.5,4,2.5,5.9v13.6c0,1.9-1.1,4.6-2.5,5.9l-9.7,9.4"/>
			<g>
				<g>
					
						<ellipse transform="matrix(0.7188 -0.6953 0.6953 0.7188 -26.5775 604.6313)" class="st3" cx="734.1" cy="335.2" rx="5.6" ry="5.6"/>
					<path class="st3" d="M729.7,330.6c2.5-2.4,6.5-2.4,8.9,0.1c2.4,2.5,2.4,6.5-0.1,8.9c-2.5,2.4-6.5,2.4-8.9-0.1
						C727.1,337.1,727.2,333,729.7,330.6C732.2,328.2,727.2,333,729.7,330.6z M737.4,338.6c1.9-1.9,2-4.9,0.1-6.8s-4.9-2-6.8-0.1
						c-1.9,1.9-2,4.9-0.1,6.8C732.4,340.4,735.5,340.5,737.4,338.6C739.3,336.8,735.5,340.5,737.4,338.6z"/>
				</g>
			</g>
		</g>
	</g>
	<g>
		<g>
			<path class="st2" d="M671.8,274.6v24.7c0,1.9,1.6,3.5,3.5,3.5h34.8c1.9,0,4.6,1.1,6,2.4l3.2,3.1"/>
			<g>
				<g>
					
						<ellipse transform="matrix(0.6953 -0.7188 0.7188 0.6953 -2.3079 610.7607)" class="st3" cx="719.1" cy="308.1" rx="5.6" ry="5.6"/>
					<path class="st3" d="M714.7,312.6c-2.5-2.4-2.6-6.4-0.1-8.9c2.4-2.5,6.4-2.6,8.9-0.1c2.5,2.4,2.6,6.4,0.1,8.9
						C721.2,315,717.2,315.1,714.7,312.6C712.2,310.2,717.2,315.1,714.7,312.6z M722.5,304.6c-1.9-1.9-5-1.8-6.8,0.1
						c-1.9,1.9-1.8,5,0.1,6.8c1.9,1.9,5,1.8,6.8-0.1C724.4,309.5,724.4,306.5,722.5,304.6C720.6,302.8,724.4,306.5,722.5,304.6z"/>
				</g>
			</g>
		</g>
	</g>
	<g>
		<g>
			<path class="st2" d="M615.4,286l20.4,19.7c1.4,1.3,2.5,4,2.5,5.9v8.9"/>
			<g>
				<g>
					<circle class="st3" cx="638.3" cy="320.3" r="5.6"/>
					<path class="st3" d="M632,320.3c0-3.5,2.8-6.3,6.3-6.3s6.3,2.8,6.3,6.3c0,3.5-2.8,6.3-6.3,6.3S632,323.7,632,320.3
						C632,316.8,632,323.7,632,320.3z M643.1,320.3c0-2.7-2.2-4.8-4.8-4.8s-4.8,2.2-4.8,4.8c0,2.7,2.2,4.8,4.8,4.8
						S643.1,322.9,643.1,320.3C643.1,317.6,643.1,322.9,643.1,320.3z"/>
				</g>
			</g>
		</g>
	</g>
	<g>
		<g>
			<path class="st2" d="M587.9,292.4l24.8,24c1.4,1.3,2.5,4,2.5,5.9v17.9"/>
			<g>
				<g>
					<circle class="st3" cx="615.2" cy="339.9" r="5.6"/>
					<path class="st3" d="M608.9,339.9c0-3.5,2.8-6.3,6.3-6.3s6.3,2.8,6.3,6.3c0,3.5-2.8,6.3-6.3,6.3S608.9,343.4,608.9,339.9
						C608.9,336.4,608.9,343.4,608.9,339.9z M620,339.9c0-2.7-2.2-4.8-4.8-4.8s-4.8,2.2-4.8,4.8c0,2.7,2.2,4.8,4.8,4.8
						S620,342.6,620,339.9C620,337.3,620,342.6,620,339.9z"/>
				</g>
			</g>
		</g>
	</g>
	<g>
		<g>
			<path class="st2" d="M749.8,312.6h46.8c1.9,0,4.6,1.1,6,2.4l60.6,58.6"/>
			<g>
				<g>
					
						<ellipse transform="matrix(0.6953 -0.7188 0.7188 0.6953 -5.4398 734.1216)" class="st3" cx="863" cy="373.5" rx="5.6" ry="5.6"/>
					<path class="st3" d="M858.6,378c-2.5-2.4-2.6-6.4-0.1-8.9c2.4-2.5,6.4-2.6,8.9-0.1c2.5,2.4,2.6,6.4,0.1,8.9
						C865.2,380.4,861.1,380.4,858.6,378C856.1,375.6,861.1,380.4,858.6,378z M866.4,370c-1.9-1.9-5-1.8-6.8,0.1s-1.8,5,0.1,6.8
						c1.9,1.9,5,1.8,6.8-0.1S868.3,371.9,866.4,370C864.5,368.2,868.3,371.9,866.4,370z"/>
				</g>
			</g>
		</g>
	</g>
	<g>
		<g>
			<path class="st2" d="M818.6,330.5h100.7c1.9,0,4.6,1.1,6,2.4l41.8,40.4"/>
			<g>
				<g>
					
						<ellipse transform="matrix(0.6953 -0.7188 0.7188 0.6953 26.4746 808.563)" class="st3" cx="966.8" cy="373.1" rx="5.6" ry="5.6"/>
					<path class="st3" d="M962.4,377.6c-2.5-2.4-2.6-6.4-0.1-8.9c2.4-2.5,6.4-2.6,8.9-0.1c2.5,2.4,2.6,6.4,0.1,8.9
						C968.9,380,964.9,380,962.4,377.6C959.9,375.2,964.9,380,962.4,377.6z M970.1,369.6c-1.9-1.9-5-1.8-6.8,0.1s-1.8,5,0.1,6.8
						c1.9,1.9,5,1.8,6.8-0.1S972.1,371.4,970.1,369.6C968.2,367.7,972.1,371.4,970.1,369.6z"/>
				</g>
			</g>
		</g>
	</g>
	<g>
		<g>
			<path class="st2" d="M949,355.8v26.5c0,1.9,1.1,4.6,2.5,5.9l0.5,0.5"/>
			<g>
				<g>
					
						<ellipse transform="matrix(0.6953 -0.7188 0.7188 0.6953 10.7636 802.5214)" class="st3" cx="951.8" cy="388.6" rx="5.6" ry="5.6"/>
					<path class="st3" d="M947.4,393.1c-2.5-2.4-2.6-6.4-0.1-8.9c2.4-2.5,6.4-2.6,8.9-0.1c2.5,2.4,2.6,6.4,0.1,8.9
						C953.9,395.5,949.9,395.5,947.4,393.1C944.9,390.7,949.9,395.5,947.4,393.1z M955.2,385.1c-1.9-1.9-5-1.8-6.8,0.1
						s-1.8,5,0.1,6.8c1.9,1.9,5,1.8,6.8-0.1C957.1,390,957.1,386.9,955.2,385.1C953.3,383.2,957.1,386.9,955.2,385.1z"/>
				</g>
			</g>
		</g>
	</g>
	<g>
		<g>
			<path class="st2" d="M884.3,330.5l27.6,26.7c1.4,1.3,2.5,4,2.5,5.9v7"/>
			<g>
				<g>
					<circle class="st3" cx="914.4" cy="369.7" r="5.6"/>
					<path class="st3" d="M908.1,369.7c0-3.5,2.8-6.3,6.3-6.3c3.5,0,6.3,2.8,6.3,6.3c0,3.5-2.8,6.3-6.3,6.3
						C910.9,376.1,908.1,373.2,908.1,369.7C908.1,366.3,908.1,373.2,908.1,369.7z M919.3,369.7c0-2.7-2.2-4.8-4.8-4.8
						c-2.7,0-4.8,2.2-4.8,4.8c0,2.7,2.2,4.8,4.8,4.8C917.1,374.6,919.3,372.4,919.3,369.7C919.3,367.1,919.3,372.4,919.3,369.7z"/>
				</g>
			</g>
		</g>
	</g>
	<g>
		<g>
			<line class="st2" x1="847.5" y1="330.5" x2="889.9" y2="371.5"/>
			<g>
				<g>
					
						<ellipse transform="matrix(0.6953 -0.7188 0.7188 0.6953 4.2745 752.6263)" class="st3" cx="889.7" cy="371.3" rx="5.6" ry="5.6"/>
					<path class="st3" d="M885.3,375.8c-2.5-2.4-2.6-6.4-0.1-8.9c2.4-2.5,6.4-2.6,8.9-0.1c2.5,2.4,2.6,6.4,0.1,8.9
						S887.8,378.2,885.3,375.8C882.8,373.4,887.8,378.2,885.3,375.8z M893.1,367.8c-1.9-1.9-5-1.8-6.8,0.1c-1.9,1.9-1.8,5,0.1,6.8
						c1.9,1.9,5,1.8,6.8-0.1C895,372.7,895,369.7,893.1,367.8C891.2,365.9,895,369.7,893.1,367.8z"/>
				</g>
			</g>
		</g>
	</g>
	<g>
		<g>
			<path class="st2" d="M873.9,330l28.8-27.9c1.4-1.3,4.1-2.4,6-2.4h41.6"/>
			<g>
				<g>
					<circle class="st3" cx="950" cy="299.7" r="5.6"/>
					<path class="st3" d="M950,306c-3.5,0-6.3-2.8-6.3-6.3s2.8-6.3,6.3-6.3c3.5,0,6.3,2.8,6.3,6.3S953.5,306,950,306
						C946.6,306,953.5,306,950,306z M950,294.9c-2.7,0-4.8,2.2-4.8,4.8s2.2,4.8,4.8,4.8c2.7,0,4.8-2.2,4.8-4.8
						S952.7,294.9,950,294.9C947.4,294.9,952.7,294.9,950,294.9z"/>
				</g>
			</g>
		</g>
	</g>
	<g>
		<g>
			<path class="st2" d="M932.7,299.7l46.6,45.1c1.4,1.3,4.1,2.4,6,2.4H997"/>
			<g>
				<g>
					<circle class="st3" cx="996.7" cy="347.2" r="5.6"/>
					<path class="st3" d="M996.7,353.6c-3.5,0-6.3-2.8-6.3-6.3c0-3.5,2.8-6.3,6.3-6.3c3.5,0,6.3,2.8,6.3,6.3
						C1003,350.7,1000.2,353.6,996.7,353.6C993.2,353.6,1000.2,353.6,996.7,353.6z M996.7,342.4c-2.7,0-4.8,2.2-4.8,4.8
						c0,2.7,2.2,4.8,4.8,4.8c2.7,0,4.8-2.2,4.8-4.8C1001.6,344.6,999.4,342.4,996.7,342.4C994.1,342.4,999.4,342.4,996.7,342.4z"/>
				</g>
			</g>
		</g>
	</g>
	<g>
		<g>
			<line class="st2" x1="969.5" y1="335.4" x2="977.2" y2="328"/>
			<g>
				<g>
					
						<ellipse transform="matrix(0.7188 -0.6953 0.6953 0.7188 46.5887 771.5533)" class="st3" cx="977" cy="328.2" rx="5.6" ry="5.6"/>
					<path class="st3" d="M981.4,332.7c-2.5,2.4-6.5,2.4-8.9-0.1c-2.4-2.5-2.4-6.5,0.1-8.9c2.5-2.4,6.5-2.4,8.9,0.1
						C983.9,326.3,983.9,330.3,981.4,332.7C978.8,335.1,983.9,330.3,981.4,332.7z M973.6,324.7c-1.9,1.9-2,4.9-0.1,6.8
						c1.9,1.9,4.9,2,6.8,0.1c1.9-1.9,2-4.9,0.1-6.8C978.6,322.9,975.5,322.9,973.6,324.7C971.7,326.6,975.5,322.9,973.6,324.7z"/>
				</g>
			</g>
		</g>
	</g>
	<g>
		<g>
			<path class="st2" d="M944.1,351.1h14.1c1.9,0,4.6,1.1,6,2.4l18.3,17.7c1.4,1.3,4.1,2.4,6,2.4h8.5"/>
			<g>
				<g>
					<circle class="st3" cx="996.7" cy="373.6" r="5.6"/>
					<path class="st3" d="M996.7,379.9c-3.5,0-6.3-2.8-6.3-6.3c0-3.5,2.8-6.3,6.3-6.3c3.5,0,6.3,2.8,6.3,6.3
						C1003,377.1,1000.2,379.9,996.7,379.9C993.2,379.9,1000.2,379.9,996.7,379.9z M996.7,368.8c-2.7,0-4.8,2.2-4.8,4.8
						c0,2.7,2.2,4.8,4.8,4.8c2.7,0,4.8-2.2,4.8-4.8C1001.6,371,999.4,368.8,996.7,368.8C994.1,368.8,999.4,368.8,996.7,368.8z"/>
				</g>
			</g>
		</g>
	</g>
	<g>
		<g>
			<path class="st2" d="M775.7,312.5v40c0,1.9,1.1,4.6,2.5,5.9l66.2,64c1.4,1.3,2.5,4,2.5,5.9v59.1"/>
			<g>
				<g>
					<circle class="st3" cx="846.8" cy="487.1" r="5.6"/>
					<path class="st3" d="M840.5,487.1c0-3.5,2.8-6.3,6.3-6.3s6.3,2.8,6.3,6.3c0,3.5-2.8,6.3-6.3,6.3S840.5,490.6,840.5,487.1
						C840.5,483.7,840.5,490.6,840.5,487.1z M851.7,487.1c0-2.7-2.2-4.8-4.8-4.8s-4.8,2.2-4.8,4.8c0,2.7,2.2,4.8,4.8,4.8
						S851.7,489.8,851.7,487.1C851.7,484.5,851.7,489.8,851.7,487.1z"/>
				</g>
			</g>
		</g>
	</g>
	<g>
		<g>
			<path class="st2" d="M808.7,321.1v31.4c0,1.9,1.1,4.6,2.5,5.9l39,37.7"/>
			<g>
				<g>
					
						<ellipse transform="matrix(0.6953 -0.7188 0.7188 0.6953 -25.5557 731.5963)" class="st3" cx="850" cy="395.9" rx="5.6" ry="5.6"/>
					<path class="st3" d="M845.6,400.5c-2.5-2.4-2.6-6.4-0.1-8.9c2.4-2.5,6.4-2.6,8.9-0.1c2.5,2.4,2.6,6.4,0.1,8.9
						C852.1,402.8,848.1,402.9,845.6,400.5C843.1,398.1,848.1,402.9,845.6,400.5z M853.4,392.5c-1.9-1.9-5-1.8-6.8,0.1
						s-1.8,5,0.1,6.8c1.9,1.9,5,1.8,6.8-0.1S855.3,394.3,853.4,392.5C851.4,390.6,855.3,394.3,853.4,392.5z"/>
				</g>
			</g>
		</g>
	</g>
	<g>
		<g>
			<path class="st2" d="M740,336.3l9.3,9c1.4,1.3,2.5,4,2.5,5.9v28.9c0,1.9,1.1,4.6,2.5,5.9l22.9,22.1"/>
			<g>
				<g>
					
						<ellipse transform="matrix(0.6953 -0.7188 0.7188 0.6953 -56.4459 682.7783)" class="st3" cx="777" cy="408" rx="5.6" ry="5.6"/>
					<path class="st3" d="M772.6,412.5c-2.5-2.4-2.6-6.4-0.1-8.9c2.4-2.5,6.4-2.6,8.9-0.1c2.5,2.4,2.6,6.4,0.1,8.9
						C779.1,414.8,775.1,414.9,772.6,412.5C770.1,410.1,775.1,414.9,772.6,412.5z M780.3,404.5c-1.9-1.9-5-1.8-6.8,0.1
						s-1.8,5,0.1,6.8c1.9,1.9,5,1.8,6.8-0.1S782.3,406.3,780.3,404.5C778.4,402.6,782.3,406.3,780.3,404.5z"/>
				</g>
			</g>
		</g>
	</g>
	<g>
		<g>
			<path class="st2" d="M751.8,369.5H765c1.9,0,4.6,1.1,6,2.4l27.9,27"/>
			<g>
				<g>
					
						<ellipse transform="matrix(0.6953 -0.7188 0.7188 0.6953 -43.1721 695.5705)" class="st3" cx="798.7" cy="398.7" rx="5.6" ry="5.6"/>
					<path class="st3" d="M794.3,403.2c-2.5-2.4-2.6-6.4-0.1-8.9c2.4-2.5,6.4-2.6,8.9-0.1c2.5,2.4,2.6,6.4,0.1,8.9
						C800.8,405.6,796.8,405.7,794.3,403.2C791.8,400.8,796.8,405.7,794.3,403.2z M802.1,395.2c-1.9-1.9-5-1.8-6.8,0.1
						s-1.8,5,0.1,6.8c1.9,1.9,5,1.8,6.8-0.1S804,397.1,802.1,395.2C800.1,393.4,804,397.1,802.1,395.2z"/>
				</g>
			</g>
		</g>
	</g>
	<g>
		<g>
			<path class="st2" d="M688.6,336.3v22.3c0,1.9,1.1,4.6,2.5,5.9l18.2,17.6"/>
			<g>
				<g>
					
						<ellipse transform="matrix(0.6953 -0.7188 0.7188 0.6953 -58.3871 626.007)" class="st3" cx="709.1" cy="381.9" rx="5.6" ry="5.6"/>
					<path class="st3" d="M704.7,386.4c-2.5-2.4-2.6-6.4-0.1-8.9c2.4-2.5,6.4-2.6,8.9-0.1c2.5,2.4,2.6,6.4,0.1,8.9
						C711.2,388.8,707.2,388.8,704.7,386.4C702.2,384,707.2,388.8,704.7,386.4z M712.4,378.4c-1.9-1.9-5-1.8-6.8,0.1s-1.8,5,0.1,6.8
						c1.9,1.9,5,1.8,6.8-0.1S714.3,380.2,712.4,378.4C710.5,376.5,714.3,380.2,712.4,378.4z"/>
				</g>
			</g>
		</g>
	</g>
	<g>
		<g>
			<line class="st2" x1="525.9" y1="92.6" x2="554.9" y2="64.5"/>
			<g>
				<g>
					
						<ellipse transform="matrix(0.7188 -0.6953 0.6953 0.7188 111.0279 403.8382)" class="st3" cx="554.7" cy="64.7" rx="5.6" ry="5.6"/>
					<path class="st3" d="M559.1,69.2c-2.5,2.4-6.5,2.4-8.9-0.1c-2.4-2.5-2.4-6.5,0.1-8.9c2.5-2.4,6.5-2.4,8.9,0.1
						C561.6,62.8,561.6,66.8,559.1,69.2C556.6,71.6,561.6,66.8,559.1,69.2z M551.3,61.2c-1.9,1.9-2,4.9-0.1,6.8s4.9,2,6.8,0.1
						c1.9-1.9,2-4.9,0.1-6.8S553.2,59.4,551.3,61.2C549.4,63.1,553.2,59.4,551.3,61.2z"/>
				</g>
			</g>
		</g>
	</g>
	<g>
		<g>
			<path class="st2" d="M553.3,38.3l24.2-23.5c1.4-1.3,4.1-2.4,6-2.4h56.1c1.9,0,4.6,1.1,6,2.4l12.6,12.1"/>
			<g>
				<g>
					
						<ellipse transform="matrix(0.6953 -0.7188 0.7188 0.6953 181.3016 481.0507)" class="st3" cx="658" cy="26.7" rx="5.6" ry="5.6"/>
					<path class="st3" d="M653.6,31.3c-2.5-2.4-2.6-6.4-0.1-8.9c2.4-2.5,6.4-2.6,8.9-0.1c2.5,2.4,2.6,6.4,0.1,8.9
						S656.1,33.7,653.6,31.3C651.1,28.8,656.1,33.7,653.6,31.3z M661.3,23.2c-1.9-1.9-5-1.8-6.8,0.1c-1.9,1.9-1.8,5,0.1,6.8
						c1.9,1.9,5,1.8,6.8-0.1C663.3,28.2,663.2,25.1,661.3,23.2C659.4,21.4,663.2,25.1,661.3,23.2z"/>
				</g>
			</g>
		</g>
	</g>
	<g>
		<g>
			<path class="st2" d="M581.9,54.2L595.6,41c1.4-1.3,4.1-2.4,6-2.4h26.3"/>
			<g>
				<g>
					<circle class="st3" cx="627.5" cy="38.6" r="5.6"/>
					<path class="st3" d="M627.5,44.9c-3.5,0-6.3-2.8-6.3-6.3c0-3.5,2.8-6.3,6.3-6.3c3.5,0,6.3,2.8,6.3,6.3
						C633.9,42,631,44.9,627.5,44.9C624.1,44.9,631,44.9,627.5,44.9z M627.5,33.7c-2.7,0-4.8,2.2-4.8,4.8c0,2.7,2.2,4.8,4.8,4.8
						c2.7,0,4.8-2.2,4.8-4.8C632.4,35.9,630.2,33.7,627.5,33.7C624.9,33.7,630.2,33.7,627.5,33.7z"/>
				</g>
			</g>
		</g>
	</g>
	<g>
		<g>
			<path class="st2" d="M602.6,62.3h30c1.9,0,4.6,1.1,6,2.4l4,3.9"/>
			<g>
				<g>
					
						<ellipse transform="matrix(0.6953 -0.7188 0.7188 0.6953 146.6137 482.5377)" class="st3" cx="642.4" cy="68.4" rx="5.6" ry="5.6"/>
					<path class="st3" d="M638,72.9c-2.5-2.4-2.6-6.4-0.1-8.9c2.4-2.5,6.4-2.6,8.9-0.1c2.5,2.4,2.6,6.4,0.1,8.9
						C644.5,75.3,640.5,75.3,638,72.9C635.5,70.5,640.5,75.3,638,72.9z M645.7,64.9c-1.9-1.9-5-1.8-6.8,0.1c-1.9,1.9-1.8,5,0.1,6.8
						c1.9,1.9,5,1.8,6.8-0.1S647.6,66.7,645.7,64.9C643.8,63,647.6,66.7,645.7,64.9z"/>
				</g>
			</g>
		</g>
	</g>
	<g>
		<path class="st4" d="M710.6,0"/>
	</g>
	<g>
		<g>
			<path class="st2" d="M604.9,136.2h48.8c1.9,0,4.6-1.1,6-2.4l60.6-58.6c1.4-1.3,2.5-4,2.5-5.9V58.3c0-1.9,1.1-4.6,2.5-5.9
				l11.5-11.1"/>
			<g>
				<g>
					
						<ellipse transform="matrix(0.7188 -0.6953 0.6953 0.7188 178.3306 523.7662)" class="st3" cx="736.6" cy="41.5" rx="5.6" ry="5.6"/>
					<path class="st3" d="M740.9,46c-2.5,2.4-6.5,2.4-8.9-0.1s-2.4-6.5,0.1-8.9c2.5-2.4,6.5-2.4,8.9,0.1
						C743.5,39.6,743.4,43.6,740.9,46C738.4,48.4,743.4,43.6,740.9,46z M733.2,38c-1.9,1.9-2,4.9-0.1,6.8c1.9,1.9,4.9,2,6.8,0.1
						c1.9-1.9,2-4.9,0.1-6.8S735.1,36.1,733.2,38C731.3,39.8,735.1,36.1,733.2,38z"/>
				</g>
			</g>
		</g>
	</g>
	<g>
		<g>
			<path class="st2" d="M701.1,94.4h21c1.9,0,4.6-1.1,6-2.4l29.3-28.3"/>
			<g>
				<g>
					
						<ellipse transform="matrix(0.7188 -0.6953 0.6953 0.7188 168.5429 544.3693)" class="st3" cx="757.1" cy="63.9" rx="5.6" ry="5.6"/>
					<path class="st3" d="M761.5,68.4c-2.5,2.4-6.5,2.4-8.9-0.1c-2.4-2.5-2.4-6.5,0.1-8.9c2.5-2.4,6.5-2.4,8.9,0.1
						C764.1,62,764,66,761.5,68.4C759,70.8,764,66,761.5,68.4z M753.8,60.4c-1.9,1.9-2,4.9-0.1,6.8c1.9,1.9,4.9,2,6.8,0.1
						c1.9-1.9,2-4.9,0.1-6.8S755.7,58.5,753.8,60.4C751.9,62.2,755.7,58.5,753.8,60.4z"/>
				</g>
			</g>
		</g>
	</g>
	<g>
		<g>
			<path class="st2" d="M671.8,123.4h64.7c1.9,0,4.6-1.1,6-2.4L767.3,97"/>
			<g>
				<g>
					
						<ellipse transform="matrix(0.7188 -0.6953 0.6953 0.7188 148.1169 560.6407)" class="st3" cx="767" cy="97.2" rx="5.6" ry="5.6"/>
					<path class="st3" d="M771.4,101.8c-2.5,2.4-6.5,2.4-8.9-0.1c-2.4-2.5-2.4-6.5,0.1-8.9c2.5-2.4,6.5-2.4,8.9,0.1
						S773.9,99.4,771.4,101.8C768.9,104.2,773.9,99.4,771.4,101.8z M763.7,93.8c-1.9,1.9-2,4.9-0.1,6.8c1.9,1.9,4.9,2,6.8,0.1
						c1.9-1.9,2-4.9,0.1-6.8C768.7,92,765.6,91.9,763.7,93.8C761.8,95.6,765.6,91.9,763.7,93.8z"/>
				</g>
			</g>
		</g>
	</g>
	<g>
		<g>
			<path class="st2" d="M604,158.9h68.6c1.9,0,4.6-1.1,6-2.4l8.3-8c1.4-1.3,4.1-2.4,6-2.4h109.9"/>
			<g>
				<g>
					<circle class="st3" cx="802.4" cy="146.1" r="5.6"/>
					<path class="st3" d="M802.4,152.4c-3.5,0-6.3-2.8-6.3-6.3c0-3.5,2.8-6.3,6.3-6.3c3.5,0,6.3,2.8,6.3,6.3
						C808.7,149.6,805.9,152.4,802.4,152.4C798.9,152.4,805.9,152.4,802.4,152.4z M802.4,141.3c-2.7,0-4.8,2.2-4.8,4.8
						c0,2.7,2.2,4.8,4.8,4.8c2.7,0,4.8-2.2,4.8-4.8C807.2,143.4,805,141.3,802.4,141.3C799.7,141.3,805,141.3,802.4,141.3z"/>
				</g>
			</g>
		</g>
	</g>
	<g>
		<g>
			<path class="st2" d="M645.4,158.9l25.6,24.8c1.4,1.3,4.1,2.4,6,2.4h100.6"/>
			<g>
				<g>
					<circle class="st3" cx="777.3" cy="186.1" r="5.6"/>
					<path class="st3" d="M777.3,192.4c-3.5,0-6.3-2.8-6.3-6.3s2.8-6.3,6.3-6.3c3.5,0,6.3,2.8,6.3,6.3S780.8,192.4,777.3,192.4
						C773.8,192.4,780.8,192.4,777.3,192.4z M777.3,181.3c-2.7,0-4.8,2.2-4.8,4.8s2.2,4.8,4.8,4.8c2.7,0,4.8-2.2,4.8-4.8
						S780,181.3,777.3,181.3C774.7,181.3,780,181.3,777.3,181.3z"/>
				</g>
			</g>
		</g>
	</g>
	<g>
		<g>
			<path class="st2" d="M694.3,186.3l18.8-18.2c1.4-1.3,4.1-2.4,6-2.4h48"/>
			<g>
				<g>
					<circle class="st3" cx="766.9" cy="165.7" r="5.6"/>
					<path class="st3" d="M766.9,172c-3.5,0-6.3-2.8-6.3-6.3c0-3.5,2.8-6.3,6.3-6.3c3.5,0,6.3,2.8,6.3,6.3
						C773.2,169.2,770.3,172,766.9,172C763.4,172,770.3,172,766.9,172z M766.9,160.9c-2.7,0-4.8,2.2-4.8,4.8s2.2,4.8,4.8,4.8
						c2.7,0,4.8-2.2,4.8-4.8S769.5,160.9,766.9,160.9C764.2,160.9,769.5,160.9,766.9,160.9z"/>
				</g>
			</g>
		</g>
	</g>
	<g>
		<g>
			<path class="st2" d="M720.7,186.1l26.9,26c1.4,1.3,4.1,2.4,6,2.4h7.4"/>
			<g>
				<g>
					<circle class="st3" cx="760.7" cy="214.6" r="5.6"/>
					<path class="st3" d="M760.7,220.9c-3.5,0-6.3-2.8-6.3-6.3s2.8-6.3,6.3-6.3c3.5,0,6.3,2.8,6.3,6.3S764.2,220.9,760.7,220.9
						C757.2,220.9,764.2,220.9,760.7,220.9z M760.7,209.8c-2.7,0-4.8,2.2-4.8,4.8s2.2,4.8,4.8,4.8c2.7,0,4.8-2.2,4.8-4.8
						S763.4,209.8,760.7,209.8C758,209.8,763.4,209.8,760.7,209.8z"/>
				</g>
			</g>
		</g>
	</g>
	<g>
		<g>
			<path class="st2" d="M516.6,400.3l13.9,13.4c1.4,1.3,4.1,2.4,6,2.4h107.4c1.9,0,4.6,1.1,6,2.4l17.2,16.6"/>
			<g>
				<g>
					
						<ellipse transform="matrix(0.6953 -0.7188 0.7188 0.6953 -109.445 611.8861)" class="st3" cx="666.9" cy="435" rx="5.6" ry="5.6"/>
					<path class="st3" d="M662.5,439.6c-2.5-2.4-2.6-6.4-0.1-8.9c2.4-2.5,6.4-2.6,8.9-0.1c2.5,2.4,2.6,6.4,0.1,8.9
						C669,441.9,665,442,662.5,439.6C660,437.1,665,442,662.5,439.6z M670.2,431.5c-1.9-1.9-5-1.8-6.8,0.1c-1.9,1.9-1.8,5,0.1,6.8
						c1.9,1.9,5,1.8,6.8-0.1S672.2,433.4,670.2,431.5C668.3,429.7,672.2,433.4,670.2,431.5z"/>
				</g>
			</g>
		</g>
	</g>
	<g>
		<g>
			<path class="st2" d="M568.5,415.5l28.7-27.8c1.4-1.3,4.1-2.4,6-2.4h30.7c1.9,0,4.6-1.1,6-2.4l12.4-12"/>
			<g>
				<g>
					
						<ellipse transform="matrix(0.7188 -0.6953 0.6953 0.7188 -74.632 557.7811)" class="st3" cx="652.1" cy="371.1" rx="5.6" ry="5.6"/>
					<path class="st3" d="M656.5,375.7c-2.5,2.4-6.5,2.4-8.9-0.1c-2.4-2.5-2.4-6.5,0.1-8.9c2.5-2.4,6.5-2.4,8.9,0.1
						C659.1,369.3,659,373.3,656.5,375.7C654,378.1,659,373.3,656.5,375.7z M648.8,367.7c-1.9,1.9-2,4.9-0.1,6.8s4.9,2,6.8,0.1
						c1.9-1.9,2-4.9,0.1-6.8S650.7,365.8,648.8,367.7C646.9,369.5,650.7,365.8,648.8,367.7z"/>
				</g>
			</g>
		</g>
	</g>
	<g>
		<g>
			<path class="st2" d="M587.9,397.5h80.4c1.9,0,4.6,1.1,6,2.4l9.6,9.2"/>
			<g>
				<g>
					
						<ellipse transform="matrix(0.6953 -0.7188 0.7188 0.6953 -85.5779 616.0031)" class="st3" cx="683.7" cy="408.9" rx="5.6" ry="5.6"/>
					<path class="st3" d="M679.3,413.5c-2.5-2.4-2.6-6.4-0.1-8.9s6.4-2.6,8.9-0.1c2.5,2.4,2.6,6.4,0.1,8.9
						C685.8,415.8,681.8,415.9,679.3,413.5C676.8,411,681.8,415.9,679.3,413.5z M687,405.5c-1.9-1.9-5-1.8-6.8,0.1
						c-1.9,1.9-1.8,5,0.1,6.8c1.9,1.9,5,1.8,6.8-0.1C689,410.4,688.9,407.3,687,405.5C685.1,403.6,688.9,407.3,687,405.5z"/>
				</g>
			</g>
		</g>
	</g>
	<g>
		<g>
			<path class="st2" d="M505.5,410.9l57.6,55.7c1.4,1.3,4.1,2.4,6,2.4h110.4c1.9,0,4.6,1.1,6,2.4l0.3,0.3"/>
			<g>
				<g>
					
						<ellipse transform="matrix(0.6953 -0.7188 0.7188 0.6953 -129.9941 636.5065)" class="st3" cx="685.6" cy="471.6" rx="5.6" ry="5.6"/>
					<path class="st3" d="M681.3,476.1c-2.5-2.4-2.6-6.4-0.1-8.9c2.4-2.5,6.4-2.6,8.9-0.1c2.5,2.4,2.6,6.4,0.1,8.9
						C687.8,478.4,683.8,478.5,681.3,476.1C678.8,473.7,683.8,478.5,681.3,476.1z M689,468.1c-1.9-1.9-5-1.8-6.8,0.1s-1.8,5,0.1,6.8
						c1.9,1.9,5,1.8,6.8-0.1S690.9,469.9,689,468.1C687.1,466.2,690.9,469.9,689,468.1z"/>
				</g>
			</g>
		</g>
	</g>
	<g>
		<g>
			<path class="st2" d="M567.7,416.2V436c0,1.9,1.6,3.5,3.5,3.5h50c1.9,0,4.6,1.1,6,2.4l3.2,3.1"/>
			<g>
				<g>
					
						<ellipse transform="matrix(0.6953 -0.7188 0.7188 0.6953 -127.6926 588.5461)" class="st3" cx="630.2" cy="444.9" rx="5.6" ry="5.6"/>
					<path class="st3" d="M625.8,449.4c-2.5-2.4-2.6-6.4-0.1-8.9c2.4-2.5,6.4-2.6,8.9-0.1c2.5,2.4,2.6,6.4,0.1,8.9
						C632.4,451.8,628.3,451.8,625.8,449.4C623.3,447,628.3,451.8,625.8,449.4z M633.6,441.4c-1.9-1.9-5-1.8-6.8,0.1s-1.8,5,0.1,6.8
						c1.9,1.9,5,1.8,6.8-0.1S635.5,443.2,633.6,441.4C631.7,439.5,635.5,443.2,633.6,441.4z"/>
				</g>
			</g>
		</g>
	</g>
	<g>
		<g>
			<path class="st2" d="M575.9,469.3v13.2c0,1.9,1.1,4.6,2.5,5.9l4,3.8"/>
			<g>
				<g>
					
						<ellipse transform="matrix(0.6953 -0.7188 0.7188 0.6953 -176.2917 568.3511)" class="st3" cx="582.1" cy="492.1" rx="5.6" ry="5.6"/>
					<path class="st3" d="M577.7,496.6c-2.5-2.4-2.6-6.4-0.1-8.9c2.4-2.5,6.4-2.6,8.9-0.1c2.5,2.4,2.6,6.4,0.1,8.9
						C584.2,499,580.2,499,577.7,496.6C575.2,494.2,580.2,499,577.7,496.6z M585.5,488.6c-1.9-1.9-5-1.8-6.8,0.1s-1.8,5,0.1,6.8
						c1.9,1.9,5,1.8,6.8-0.1S587.4,490.5,585.5,488.6C583.6,486.8,587.4,490.5,585.5,488.6z"/>
				</g>
			</g>
		</g>
	</g>
	<g>
		<g>
			<line class="st2" x1="594.8" y1="469.3" x2="614.9" y2="488.8"/>
			<g>
				<g>
					
						<ellipse transform="matrix(0.6953 -0.7188 0.7188 0.6953 -163.8266 590.7098)" class="st3" cx="614.7" cy="488.6" rx="5.6" ry="5.6"/>
					<path class="st3" d="M610.3,493.1c-2.5-2.4-2.6-6.4-0.1-8.9s6.4-2.6,8.9-0.1c2.5,2.4,2.6,6.4,0.1,8.9
						C616.8,495.4,612.8,495.5,610.3,493.1C607.8,490.7,612.8,495.5,610.3,493.1z M618.1,485.1c-1.9-1.9-5-1.8-6.8,0.1
						c-1.9,1.9-1.8,5,0.1,6.8c1.9,1.9,5,1.8,6.8-0.1S620,486.9,618.1,485.1C616.2,483.2,620,486.9,618.1,485.1z"/>
				</g>
			</g>
		</g>
	</g>
	<g>
		<g>
			<path class="st2" d="M452.6,518l46.3,44.8c1.4,1.3,2.5,4,2.5,5.9v9.9"/>
			<g>
				<g>
					<circle class="st3" cx="501.4" cy="578.4" r="5.6"/>
					<path class="st3" d="M495.1,578.4c0-3.5,2.8-6.3,6.3-6.3s6.3,2.8,6.3,6.3c0,3.5-2.8,6.3-6.3,6.3S495.1,581.8,495.1,578.4
						C495.1,574.9,495.1,581.8,495.1,578.4z M506.2,578.4c0-2.7-2.2-4.8-4.8-4.8s-4.8,2.2-4.8,4.8c0,2.7,2.2,4.8,4.8,4.8
						S506.2,581,506.2,578.4C506.2,575.7,506.2,581,506.2,578.4z"/>
				</g>
			</g>
		</g>
	</g>
	<g>
		<g>
			<path class="st2" d="M484.4,547.8h13.4c1.9,0,4.6,1.1,6,2.4l15.9,15.4c1.4,1.3,2.5,4,2.5,5.9v10.4"/>
			<g>
				<g>
					<circle class="st3" cx="522.3" cy="581.6" r="5.6"/>
					<path class="st3" d="M516,581.6c0-3.5,2.8-6.3,6.3-6.3s6.3,2.8,6.3,6.3c0,3.5-2.8,6.3-6.3,6.3S516,585,516,581.6
						C516,578.1,516,585,516,581.6z M527.1,581.6c0-2.7-2.2-4.8-4.8-4.8s-4.8,2.2-4.8,4.8c0,2.7,2.2,4.8,4.8,4.8
						S527.1,584.2,527.1,581.6C527.1,578.9,527.1,584.2,527.1,581.6z"/>
				</g>
			</g>
		</g>
	</g>
	<g>
		<g>
			<path class="st2" d="M543.2,573.7H606c1.9,0,4.6-1.1,6-2.4l45.3-43.8"/>
			<g>
				<g>
					
						<ellipse transform="matrix(0.7188 -0.6953 0.6953 0.7188 -182.0841 605.2793)" class="st3" cx="657.1" cy="527.7" rx="5.6" ry="5.6"/>
					<path class="st3" d="M661.5,532.2c-2.5,2.4-6.5,2.4-8.9-0.1c-2.4-2.5-2.4-6.5,0.1-8.9c2.5-2.4,6.5-2.4,8.9,0.1
						S664,529.8,661.5,532.2C659,534.7,664,529.8,661.5,532.2z M653.7,524.2c-1.9,1.9-2,4.9-0.1,6.8c1.9,1.9,4.9,2,6.8,0.1
						c1.9-1.9,2-4.9,0.1-6.8C658.7,522.4,655.7,522.4,653.7,524.2C651.8,526.1,655.7,522.4,653.7,524.2z"/>
				</g>
			</g>
		</g>
	</g>
	<g>
		<g>
			<path class="st2" d="M621.4,562.3v-19.8c0-1.9,1.1-4.6,2.5-5.9l12.7-12.3"/>
			<g>
				<g>
					
						<ellipse transform="matrix(0.7187 -0.6953 0.6953 0.7187 -185.6423 589.9338)" class="st3" cx="636.4" cy="524.4" rx="5.6" ry="5.6"/>
					<path class="st3" d="M640.7,529c-2.5,2.4-6.5,2.4-8.9-0.1s-2.4-6.5,0.1-8.9c2.5-2.4,6.5-2.4,8.9,0.1
						C643.3,522.5,643.2,526.5,640.7,529C638.2,531.4,643.2,526.5,640.7,529z M633,521c-1.9,1.9-2,4.9-0.1,6.8
						c1.9,1.9,4.9,2,6.8,0.1c1.9-1.9,2-4.9,0.1-6.8C638,519.2,634.9,519.1,633,521C631.1,522.8,634.9,519.1,633,521z"/>
				</g>
			</g>
		</g>
	</g>
	<g>
		<g>
			<path class="st2" d="M577.2,573.7v-36.6c0-1.9,1.1-4.6,2.5-5.9l9.6-9.3"/>
			<g>
				<g>
					
						<ellipse transform="matrix(0.7188 -0.6953 0.6953 0.7188 -197.3339 556.4557)" class="st3" cx="589.1" cy="522.1" rx="5.6" ry="5.6"/>
					<path class="st3" d="M593.5,526.7c-2.5,2.4-6.5,2.4-8.9-0.1c-2.4-2.5-2.4-6.5,0.1-8.9c2.5-2.4,6.5-2.4,8.9,0.1
						C596.1,520.3,596,524.3,593.5,526.7C591,529.1,596,524.3,593.5,526.7z M585.8,518.7c-1.9,1.9-2,4.9-0.1,6.8s4.9,2,6.8,0.1
						c1.9-1.9,2-4.9,0.1-6.8S587.7,516.8,585.8,518.7C583.9,520.5,587.7,516.8,585.8,518.7z"/>
				</g>
			</g>
		</g>
	</g>
	<g>
		<g>
			<path class="st2" d="M578.5,551.2h10.6c1.9,0,4.6-1.1,6-2.4l19.7-19"/>
			<g>
				<g>
					
						<ellipse transform="matrix(0.7187 -0.6953 0.6953 0.7187 -195.6017 576.3222)" class="st3" cx="614.6" cy="529.9" rx="5.6" ry="5.6"/>
					<path class="st3" d="M618.9,534.5c-2.5,2.4-6.5,2.4-8.9-0.1c-2.4-2.5-2.4-6.5,0.1-8.9c2.5-2.4,6.5-2.4,8.9,0.1
						C621.5,528,621.4,532,618.9,534.5C616.4,536.9,621.4,532,618.9,534.5z M611.2,526.5c-1.9,1.9-2,4.9-0.1,6.8s4.9,2,6.8,0.1
						c1.9-1.9,2-4.9,0.1-6.8S613.1,524.6,611.2,526.5C609.3,528.3,613.1,524.6,611.2,526.5z"/>
				</g>
			</g>
		</g>
	</g>
	<g>
		<g>
			<path class="st2" d="M503.5,609.9v41.8c0,1.9,1.1,4.6,2.5,5.9l15.8,15.3c1.4,1.3,2.5,4,2.5,5.9v27.5"/>
			<g>
				<g>
					<circle class="st3" cx="524.3" cy="706.1" r="5.6"/>
					<path class="st3" d="M518,706.1c0-3.5,2.8-6.3,6.3-6.3c3.5,0,6.3,2.8,6.3,6.3c0,3.5-2.8,6.3-6.3,6.3
						C520.8,712.4,518,709.5,518,706.1C518,702.6,518,709.5,518,706.1z M529.1,706.1c0-2.7-2.2-4.8-4.8-4.8c-2.7,0-4.8,2.2-4.8,4.8
						c0,2.7,2.2,4.8,4.8,4.8C526.9,710.9,529.1,708.7,529.1,706.1C529.1,703.4,529.1,708.7,529.1,706.1z"/>
				</g>
			</g>
		</g>
	</g>
	<g>
		<g>
			<path class="st2" d="M503.5,704v23.5c0,1.9,1.1,4.6,2.5,5.9l0.7,0.7"/>
			<g>
				<g>
					
						<ellipse transform="matrix(0.6953 -0.7188 0.7188 0.6953 -373.1436 587.6384)" class="st3" cx="506.4" cy="733.9" rx="5.6" ry="5.6"/>
					<path class="st3" d="M502,738.4c-2.5-2.4-2.6-6.4-0.1-8.9c2.4-2.5,6.4-2.6,8.9-0.1c2.5,2.4,2.6,6.4,0.1,8.9
						C508.6,740.8,504.6,740.8,502,738.4C499.5,736,504.6,740.8,502,738.4z M509.8,730.4c-1.9-1.9-5-1.8-6.8,0.1s-1.8,5,0.1,6.8
						c1.9,1.9,5,1.8,6.8-0.1C511.8,735.3,511.7,732.3,509.8,730.4C507.9,728.5,511.7,732.3,509.8,730.4z"/>
				</g>
			</g>
		</g>
	</g>
	<g>
		<g>
			<line class="st2" x1="510.2" y1="661.1" x2="500.6" y2="670.4"/>
			<g>
				<g>
					
						<ellipse transform="matrix(0.7188 -0.6953 0.6953 0.7188 -325.1156 536.6747)" class="st3" cx="500.8" cy="670.2" rx="5.6" ry="5.6"/>
					<path class="st3" d="M496.4,665.7c2.5-2.4,6.5-2.4,8.9,0.1c2.4,2.5,2.4,6.5-0.1,8.9c-2.5,2.4-6.5,2.4-8.9-0.1
						C493.8,672.1,493.9,668.1,496.4,665.7C498.9,663.2,493.9,668.1,496.4,665.7z M504.1,673.7c1.9-1.9,2-4.9,0.1-6.8
						s-4.9-2-6.8-0.1c-1.9,1.9-2,4.9-0.1,6.8C499.2,675.5,502.2,675.5,504.1,673.7C506.1,671.8,502.2,675.5,504.1,673.7z"/>
				</g>
			</g>
		</g>
	</g>
	<g>
		<g>
			<path class="st2" d="M533.3,599.4l16.9,16.3c1.4,1.3,2.5,4,2.5,5.9v0.4"/>
			<g>
				<g>
					<circle class="st3" cx="552.7" cy="621.7" r="5.6"/>
					<path class="st3" d="M546.4,621.7c0-3.5,2.8-6.3,6.3-6.3s6.3,2.8,6.3,6.3c0,3.5-2.8,6.3-6.3,6.3S546.4,625.2,546.4,621.7
						C546.4,618.3,546.4,625.2,546.4,621.7z M557.5,621.7c0-2.7-2.2-4.8-4.8-4.8s-4.8,2.2-4.8,4.8c0,2.7,2.2,4.8,4.8,4.8
						S557.5,624.4,557.5,621.7C557.5,619.1,557.5,624.4,557.5,621.7z"/>
				</g>
			</g>
		</g>
	</g>
	<g>
		<g>
			<path class="st2" d="M537.7,603.9h96.2c1.9,0,4.6,1.1,6,2.4l5.1,5"/>
			<g>
				<g>
					
						<ellipse transform="matrix(0.6953 -0.7187 0.7187 0.6953 -242.7194 649.7107)" class="st3" cx="644.9" cy="611.1" rx="5.6" ry="5.6"/>
					<path class="st3" d="M640.5,615.6c-2.5-2.4-2.6-6.4-0.1-8.9c2.4-2.5,6.4-2.6,8.9-0.1c2.5,2.4,2.6,6.4,0.1,8.9
						C647,618,643,618.1,640.5,615.6C638,613.2,643,618.1,640.5,615.6z M648.2,607.6c-1.9-1.9-5-1.8-6.8,0.1s-1.8,5,0.1,6.8
						c1.9,1.9,5,1.8,6.8-0.1S650.1,609.5,648.2,607.6C646.3,605.8,650.1,609.5,648.2,607.6z"/>
				</g>
			</g>
		</g>
	</g>
	<g>
		<g>
			<path class="st2" d="M648.8,607h7.8c1.9,0,4.6-1.1,6-2.4l9.6-9.3"/>
			<g>
				<g>
					
						<ellipse transform="matrix(0.7188 -0.6953 0.6953 0.7188 -225.0828 634.6544)" class="st3" cx="671.9" cy="595.5" rx="5.6" ry="5.6"/>
					<path class="st3" d="M676.3,600.1c-2.5,2.4-6.5,2.4-8.9-0.1c-2.4-2.5-2.4-6.5,0.1-8.9c2.5-2.4,6.5-2.4,8.9,0.1
						C678.9,593.7,678.8,597.7,676.3,600.1C673.8,602.5,678.8,597.7,676.3,600.1z M668.6,592.1c-1.9,1.9-2,4.9-0.1,6.8
						s4.9,2,6.8,0.1c1.9-1.9,2-4.9,0.1-6.8S670.5,590.2,668.6,592.1C666.6,593.9,670.5,590.2,668.6,592.1z"/>
				</g>
			</g>
		</g>
	</g>
	<g>
		<g>
			<path class="st2" d="M271.1,683.9v5.7c0,1.9,1.1,4.6,2.5,5.9l22.2,21.5"/>
			<g>
				<g>
					
						<ellipse transform="matrix(0.6953 -0.7188 0.7188 0.6953 -425.1111 430.932)" class="st3" cx="295.6" cy="716.8" rx="5.6" ry="5.6"/>
					<path class="st3" d="M291.3,721.3c-2.5-2.4-2.6-6.4-0.1-8.9s6.4-2.6,8.9-0.1c2.5,2.4,2.6,6.4,0.1,8.9
						C297.8,723.7,293.8,723.8,291.3,721.3C288.8,718.9,293.8,723.8,291.3,721.3z M299,713.3c-1.9-1.9-5-1.8-6.8,0.1
						c-1.9,1.9-1.8,5,0.1,6.8c1.9,1.9,5,1.8,6.8-0.1C301,718.2,300.9,715.2,299,713.3C297.1,711.5,300.9,715.2,299,713.3z"/>
				</g>
			</g>
		</g>
	</g>
	<path class="st1" d="M-5.9,186.3"/>
	<ellipse class="st1" cx="52.6" cy="482.5" rx="11.3" ry="11"/>
	<ellipse class="st1" cx="211.9" cy="479.5" rx="11.3" ry="11"/>
	<ellipse class="st1" cx="326.5" cy="74.8" rx="11.3" ry="11"/>
	<path class="st1" d="M557,1.3c0,6.1-5.1,11-11.3,11c-6.3,0-11.3-4.9-11.3-11"/>
	<ellipse class="st1" cx="811.5" cy="78.3" rx="11.3" ry="11"/>
	<ellipse class="st1" cx="636.1" cy="207.5" rx="11.3" ry="11"/>
	<ellipse class="st1" cx="562" cy="279.8" rx="11.3" ry="11"/>
	<ellipse class="st1" cx="439.9" cy="296.9" rx="11.3" ry="11"/>
	<ellipse class="st1" cx="542" cy="323.6" rx="11.3" ry="11"/>
	<ellipse class="st1" cx="348.1" cy="290" rx="11.3" ry="11"/>
	<ellipse class="st1" cx="364.1" cy="430.6" rx="11.3" ry="11"/>
	<ellipse class="st1" cx="145" cy="430.6" rx="11.3" ry="11"/>
	<ellipse class="st1" cx="820.3" cy="204.9" rx="11.3" ry="11"/>
	<ellipse class="st1" cx="893.3" cy="428.6" rx="11.3" ry="11"/>
	<ellipse class="st1" cx="728.7" cy="463.3" rx="11.3" ry="11"/>
	<ellipse class="st1" cx="531.9" cy="383.6" rx="11.3" ry="11"/>
	<ellipse class="st1" cx="371.1" cy="115.7" rx="11.3" ry="11"/>
	<ellipse class="st1" cx="122.6" cy="241" rx="11.3" ry="11"/>
	<ellipse class="st1" cx="165.6" cy="123.4" rx="11.3" ry="11"/>
	<ellipse class="st1" cx="260.9" cy="54.2" rx="11.3" ry="11"/>
	<ellipse class="st1" cx="736.9" cy="404.1" rx="11.3" ry="11"/>
	<ellipse class="st1" cx="542" cy="531.8" rx="11.3" ry="11"/>
	<ellipse class="st1" cx="668.8" cy="498.6" rx="11.3" ry="11"/>
	<ellipse class="st1" cx="708.9" cy="30.2" rx="11.3" ry="11"/>
	<ellipse class="st1" cx="595.7" cy="70.9" rx="11.3" ry="11"/>
	<ellipse class="st1" cx="623" cy="106" rx="11.3" ry="11"/>
	<ellipse class="st1" cx="507.1" cy="72.5" rx="11.3" ry="11"/>
	<ellipse class="st1" cx="455.7" cy="634.5" rx="11.3" ry="11"/>
	<ellipse class="st1" cx="562" cy="682.6" rx="11.3" ry="11"/>
	<ellipse class="st1" cx="637.4" cy="584.7" rx="11.3" ry="11"/>
	<ellipse class="st1" cx="315.5" cy="535.4" rx="11.3" ry="11"/>
</g>
<path class="st5" d="M4,1"/>
</svg>
