<?xml version="1.0" encoding="utf-8"?>
<!-- Generator: Adobe Illustrator 24.0.1, SVG Export Plug-In . SVG Version: 6.00 Build 0)  -->
<svg version="1.1" id="homeblock1svg" xmlns="http://www.w3.org/2000/svg" xmlns:xlink="http://www.w3.org/1999/xlink" x="0px"
	 y="0px" viewBox="0 0 417.5 400.9" style="enable-background:new 0 0 417.5 400.9;" xml:space="preserve">
<style type="text/css">
	.voice-for-companies-st0{fill:#FFFFFF;}
	.voice-for-companies-st1{fill:none;stroke:#00A0A3;stroke-miterlimit:10;}
	.voice-for-companies-st2{fill:#00A0A3;}
	.voice-for-companies-st3{opacity:0.15;}
	.voice-for-companies-st4{fill:#ABABAB;}
	.voice-for-companies-st5{fill:#484C5C;}
	.voice-for-companies-st6{fill:#111C36;}
	.voice-for-companies-st7{fill:#003B77;}
	.voice-for-companies-st8{fill:#CD0F36;}
	.voice-for-companies-st9{opacity:0.25;}
	.voice-for-companies-st10{fill:#8FAAC7;}
	.voice-for-companies-st11{fill:#FFFFFF;stroke:#00A0A3;stroke-width:2;stroke-miterlimit:10;}
	.voice-for-companies-st12{fill:#547DBF;}
	.voice-for-companies-st13{fill:#EA4335;}
	.voice-for-companies-st14{fill:#F9BC15;}
	.voice-for-companies-st15{fill:#33A851;}
	.voice-for-companies-st16{fill:#3A66A5;}
	.voice-for-companies-st17{fill:#FFFFFF;stroke:#00A0A3;stroke-width:1.7451;stroke-miterlimit:10.0001;}
	.voice-for-companies-st18{fill:#FF5A5F;}
	.voice-for-companies-st19{fill:#231F20;}
	.voice-for-companies-st20{fill:#FFD400;}
	.voice-for-companies-st21{fill:#FFFFFF;stroke:#00A0A3;stroke-width:2.3234;stroke-miterlimit:10;}
	.voice-for-companies-st22{fill:#EF3A3F;}
	.voice-for-companies-st23{fill:#0067B3;}
	.voice-for-companies-st24{fill:#FBAD18;}
	.voice-for-companies-st25{fill:#6AB945;}
	.voice-for-companies-st26{fill:#F49004;}
	.voice-for-companies-st27{fill:#F25022;}
	.voice-for-companies-st28{fill:#80BA01;}
	.voice-for-companies-st29{fill:#777777;}
	.voice-for-companies-st30{fill:#02A4EF;}
	.voice-for-companies-st31{fill:#FFB902;}
	.voice-for-companies-st32{fill:#FFFFFF;stroke:#00A0A3;stroke-width:1.7854;stroke-miterlimit:10;}
	.voice-for-companies-st33{fill:#53B95F;}
	.voice-for-companies-st34{fill:#FFDE9D;stroke:#FFDE9D;stroke-width:0.1837;stroke-miterlimit:10;}
	.voice-for-companies-st35{fill:#EC2227;}
	.voice-for-companies-st36{fill:#01A64F;}
	.voice-for-companies-st37{fill:#2CAAE1;}
	.voice-for-companies-st38{fill:#FFFFFF;stroke:#00A0A3;stroke-width:2;stroke-miterlimit:9.9999;}
	.voice-for-companies-st39{fill:#CA3C27;}
	.voice-for-companies-st40{fill:#2D297D;stroke:#00A0A3;stroke-width:2;stroke-miterlimit:10;}
	.voice-for-companies-st41{fill:#FFFFFF;stroke:#00A0A3;stroke-width:2.1435;stroke-miterlimit:10;}
	.voice-for-companies-st42{fill:#010101;}
	.voice-for-companies-st43{fill:#D4291F;}
	.voice-for-companies-st44{fill:#FB7806;}
	.voice-for-companies-st45{fill:#642485;}
	.voice-for-companies-st46{fill:#A9B806;}
	.voice-for-companies-st47{fill:#F58220;}
</style>
<g id="stars">
	<polygon id="star_12_" class="voice-for-companies-st0" points="9.4,257.7 13.3,258.7 9.4,259.8 8.4,263.6 7.4,259.8 3.5,258.7 7.4,257.7 8.4,253.9 	
		"/>
	<polygon id="star_11_" class="voice-for-companies-st0" points="211,12.5 213.6,13.2 211,13.8 210.4,16.4 209.7,13.8 207.2,13.2 209.7,12.5 210.4,10 	
		"/>
	<polygon id="star_10_" class="voice-for-companies-st0" points="405.9,253.3 407.8,253.9 405.9,254.4 405.4,256.3 404.9,254.4 402.9,253.9 404.9,253.3 
		405.4,251.4 	"/>
	<polygon id="star_9_" class="voice-for-companies-st0" points="286.4,239.3 288.4,239.8 286.4,240.3 285.9,242.3 285.4,240.3 283.5,239.8 285.4,239.3 
		285.9,237.4 	"/>
	<polygon id="star_8_" class="voice-for-companies-st0" points="275.2,148.3 279.1,149.3 275.2,150.3 274.2,154.2 273.2,150.3 269.3,149.3 273.2,148.3 
		274.2,144.4 	"/>
	<polygon id="star_7_" class="voice-for-companies-st0" points="103.8,293.2 106.3,293.8 103.8,294.5 103.1,297 102.5,294.5 100,293.8 102.5,293.2 
		103.1,290.7 	"/>
	<polygon id="star_6_" class="voice-for-companies-st0" points="80.2,20.3 82.7,20.9 80.2,21.6 79.5,24.1 78.8,21.6 76.3,20.9 78.8,20.3 79.5,17.8 	"/>
	<polygon id="star_5_" class="voice-for-companies-st0" points="5.9,59.6 9.8,60.6 5.9,61.6 4.9,65.5 3.9,61.6 0,60.6 3.9,59.6 4.9,55.7 	"/>
	<polygon id="star_4_" class="voice-for-companies-st0" points="307.6,288.5 311.5,289.5 307.6,290.5 306.6,294.4 305.6,290.5 301.7,289.5 305.6,288.5 
		306.6,284.6 	"/>
	<polygon id="star_3_" class="voice-for-companies-st0" points="244.4,196.9 248.3,198 244.4,199 243.4,202.8 242.4,199 238.5,198 242.4,196.9 
		243.4,193.1 	"/>
	<polygon id="star_2_" class="voice-for-companies-st0" points="405.3,51.7 407.8,52.4 405.3,53 404.7,55.6 404,53 401.5,52.4 404,51.7 404.7,49.2 	"/>
	<polygon id="star_1_" class="voice-for-companies-st0" points="168.2,148.3 172,149.3 168.2,150.3 167.1,154.2 166.1,150.3 162.3,149.3 166.1,148.3 
		167.1,144.4 	"/>
	<polygon id="star" class="voice-for-companies-st0" points="413.6,131.1 417.5,132.1 413.6,133.1 412.6,137 411.5,133.1 407.7,132.1 411.5,131.1 
		412.6,127.2 	"/>
</g>
<g id="lines">
	<g>
		<g>
			<line class="voice-for-companies-st1" x1="269.3" y1="273" x2="316.2" y2="273"/>
			<g>
				<g>
					<circle class="voice-for-companies-st0" cx="316.1" cy="273" r="2.6"/>
					<path class="voice-for-companies-st2" d="M316.1,275.9c-1.6,0-3-1.3-3-3s1.3-3,3-3c1.6,0,3,1.3,3,3S317.7,275.9,316.1,275.9
						C314.4,275.9,317.7,275.9,316.1,275.9z M316.1,270.7c-1.3,0-2.3,1-2.3,2.3s1,2.3,2.3,2.3s2.3-1,2.3-2.3
						S317.3,270.7,316.1,270.7C314.8,270.7,317.3,270.7,316.1,270.7z"/>
				</g>
			</g>
		</g>
	</g>
	<g>
		<g>
			<line class="voice-for-companies-st1" x1="269.3" y1="264" x2="306.2" y2="264"/>
			<g>
				<g>
					<circle class="voice-for-companies-st0" cx="306.1" cy="264" r="2.6"/>
					<path class="voice-for-companies-st2" d="M306.1,266.9c-1.6,0-3-1.3-3-3s1.3-3,3-3c1.6,0,3,1.3,3,3S307.7,266.9,306.1,266.9
						C304.4,266.9,307.7,266.9,306.1,266.9z M306.1,261.7c-1.3,0-2.3,1-2.3,2.3s1,2.3,2.3,2.3s2.3-1,2.3-2.3
						S307.3,261.7,306.1,261.7C304.8,261.7,307.3,261.7,306.1,261.7z"/>
				</g>
			</g>
		</g>
	</g>
	<g>
		<g>
			<path class="voice-for-companies-st1" d="M270.8,257.8h21.6c0.6,0,1.3-0.3,1.7-0.7l11.1-11.1c0.4-0.4,0.7-1.2,0.7-1.7v-7.2"/>
			<g>
				<g>
					<circle class="voice-for-companies-st0" cx="305.8" cy="237.2" r="2.6"/>
					<path class="voice-for-companies-st2" d="M308.8,237.2c0,1.6-1.3,3-3,3s-3-1.3-3-3c0-1.6,1.3-3,3-3S308.8,235.6,308.8,237.2
						C308.8,238.9,308.8,235.6,308.8,237.2z M303.6,237.2c0,1.3,1,2.3,2.3,2.3s2.3-1,2.3-2.3s-1-2.3-2.3-2.3
						C304.6,235,303.6,236,303.6,237.2C303.6,238.5,303.6,236,303.6,237.2z"/>
				</g>
			</g>
		</g>
	</g>
	<g>
		<g>
			<line class="voice-for-companies-st1" x1="259.7" y1="246" x2="259.7" y2="118.2"/>
			<g>
				<g>
					<circle class="voice-for-companies-st0" cx="259.7" cy="118.4" r="2.6"/>
					<path class="voice-for-companies-st2" d="M262.7,118.4c0,1.6-1.3,3-3,3s-3-1.3-3-3c0-1.6,1.3-3,3-3S262.7,116.7,262.7,118.4
						C262.7,120,262.7,116.7,262.7,118.4z M257.4,118.4c0,1.3,1,2.3,2.3,2.3s2.3-1,2.3-2.3s-1-2.3-2.3-2.3S257.4,117.1,257.4,118.4
						C257.4,119.6,257.4,117.1,257.4,118.4z"/>
				</g>
			</g>
		</g>
	</g>
	<g>
		<g>
			<line class="voice-for-companies-st1" x1="225.7" y1="246" x2="225.7" y2="189.4"/>
			<g>
				<g>
					<circle class="voice-for-companies-st0" cx="225.7" cy="189.6" r="2.6"/>
					<path class="voice-for-companies-st2" d="M228.7,189.6c0,1.6-1.3,3-3,3s-3-1.3-3-3c0-1.6,1.3-3,3-3S228.7,187.9,228.7,189.6
						C228.7,191.2,228.7,187.9,228.7,189.6z M223.4,189.6c0,1.3,1,2.3,2.3,2.3s2.3-1,2.3-2.3s-1-2.3-2.3-2.3
						C224.5,187.3,223.4,188.3,223.4,189.6C223.4,190.8,223.4,188.3,223.4,189.6z"/>
				</g>
			</g>
		</g>
	</g>
	<g>
		<g>
			<line class="voice-for-companies-st1" x1="192" y1="246" x2="192" y2="149.4"/>
			<g>
				<g>
					<circle class="voice-for-companies-st0" cx="192" cy="149.5" r="2.6"/>
					<path class="voice-for-companies-st2" d="M195,149.5c0,1.6-1.3,3-3,3s-3-1.3-3-3c0-1.6,1.3-3,3-3S195,147.9,195,149.5
						C195,151.2,195,147.9,195,149.5z M189.8,149.5c0,1.3,1,2.3,2.3,2.3s2.3-1,2.3-2.3s-1-2.3-2.3-2.3S189.8,148.3,189.8,149.5
						C189.8,150.8,189.8,148.3,189.8,149.5z"/>
				</g>
			</g>
		</g>
	</g>
	<g>
		<g>
			<line class="voice-for-companies-st1" x1="172" y1="246" x2="172" y2="219.7"/>
			<g>
				<g>
					<circle class="voice-for-companies-st0" cx="172" cy="219.9" r="2.6"/>
					<path class="voice-for-companies-st2" d="M175,219.9c0,1.6-1.3,3-3,3c-1.6,0-3-1.3-3-3c0-1.6,1.3-3,3-3S175,218.2,175,219.9
						C175,221.5,175,218.2,175,219.9z M169.8,219.9c0,1.3,1,2.3,2.3,2.3s2.3-1,2.3-2.3s-1-2.3-2.3-2.3
						C170.8,217.6,169.8,218.6,169.8,219.9C169.8,221.1,169.8,218.6,169.8,219.9z"/>
				</g>
			</g>
		</g>
	</g>
	<g>
		<g>
			<line class="voice-for-companies-st1" x1="162.3" y1="246" x2="162.3" y2="228.7"/>
			<g>
				<g>
					<circle class="voice-for-companies-st0" cx="162.3" cy="228.9" r="2.6"/>
					<path class="voice-for-companies-st2" d="M165.2,228.9c0,1.6-1.3,3-3,3s-3-1.3-3-3c0-1.6,1.3-3,3-3S165.2,227.2,165.2,228.9
						C165.2,230.5,165.2,227.2,165.2,228.9z M160,228.9c0,1.3,1,2.3,2.3,2.3s2.3-1,2.3-2.3s-1-2.3-2.3-2.3
						C161,226.6,160,227.6,160,228.9C160,230.1,160,227.6,160,228.9z"/>
				</g>
			</g>
		</g>
	</g>
	<g>
		<g>
			<line class="voice-for-companies-st1" x1="182.8" y1="246" x2="182.8" y2="225.7"/>
			<g>
				<g>
					<circle class="voice-for-companies-st0" cx="182.8" cy="225.9" r="2.6"/>
					<path class="voice-for-companies-st2" d="M185.8,225.9c0,1.6-1.3,3-3,3c-1.6,0-3-1.3-3-3c0-1.6,1.3-3,3-3S185.8,224.2,185.8,225.9
						C185.8,227.5,185.8,224.2,185.8,225.9z M180.6,225.9c0,1.3,1,2.3,2.3,2.3s2.3-1,2.3-2.3s-1-2.3-2.3-2.3
						C181.6,223.6,180.6,224.6,180.6,225.9C180.6,227.1,180.6,224.6,180.6,225.9z"/>
				</g>
			</g>
		</g>
	</g>
	<g>
		<g>
			<line class="voice-for-companies-st1" x1="204.4" y1="246" x2="204.4" y2="219.7"/>
			<g>
				<g>
					<circle class="voice-for-companies-st0" cx="204.4" cy="219.9" r="2.6"/>
					<path class="voice-for-companies-st2" d="M207.4,219.9c0,1.6-1.3,3-3,3s-3-1.3-3-3c0-1.6,1.3-3,3-3S207.4,218.2,207.4,219.9
						C207.4,221.5,207.4,218.2,207.4,219.9z M202.2,219.9c0,1.3,1,2.3,2.3,2.3s2.3-1,2.3-2.3s-1-2.3-2.3-2.3
						C203.2,217.6,202.2,218.6,202.2,219.9C202.2,221.1,202.2,218.6,202.2,219.9z"/>
				</g>
			</g>
		</g>
	</g>
	<g>
		<g>
			<line class="voice-for-companies-st1" x1="215.2" y1="246" x2="215.2" y2="226.7"/>
			<g>
				<g>
					<circle class="voice-for-companies-st0" cx="215.2" cy="226.9" r="2.6"/>
					<path class="voice-for-companies-st2" d="M218.2,226.9c0,1.6-1.3,3-3,3s-3-1.3-3-3c0-1.6,1.3-3,3-3S218.2,225.2,218.2,226.9
						C218.2,228.5,218.2,225.2,218.2,226.9z M213,226.9c0,1.3,1,2.3,2.3,2.3s2.3-1,2.3-2.3s-1-2.3-2.3-2.3
						C214,224.6,213,225.6,213,226.9C213,228.1,213,225.6,213,226.9z"/>
				</g>
			</g>
		</g>
	</g>
	<g>
		<g>
			<line class="voice-for-companies-st1" x1="236.8" y1="246" x2="236.8" y2="209.7"/>
			<g>
				<g>
					<circle class="voice-for-companies-st0" cx="236.8" cy="209.9" r="2.6"/>
					<path class="voice-for-companies-st2" d="M239.8,209.9c0,1.6-1.3,3-3,3s-3-1.3-3-3c0-1.6,1.3-3,3-3S239.8,208.2,239.8,209.9
						C239.8,211.5,239.8,208.2,239.8,209.9z M234.6,209.9c0,1.3,1,2.3,2.3,2.3s2.3-1,2.3-2.3s-1-2.3-2.3-2.3
						C235.6,207.6,234.6,208.6,234.6,209.9C234.6,211.1,234.6,208.6,234.6,209.9z"/>
				</g>
			</g>
		</g>
	</g>
	<g>
		<g>
			<line class="voice-for-companies-st1" x1="247.6" y1="246" x2="247.6" y2="219.7"/>
			<g>
				<g>
					<circle class="voice-for-companies-st0" cx="247.6" cy="219.9" r="2.6"/>
					<path class="voice-for-companies-st2" d="M250.6,219.9c0,1.6-1.3,3-3,3s-3-1.3-3-3c0-1.6,1.3-3,3-3S250.6,218.2,250.6,219.9
						C250.6,221.5,250.6,218.2,250.6,219.9z M245.4,219.9c0,1.3,1,2.3,2.3,2.3s2.3-1,2.3-2.3s-1-2.3-2.3-2.3
						C246.4,217.6,245.4,218.6,245.4,219.9C245.4,221.1,245.4,218.6,245.4,219.9z"/>
				</g>
			</g>
		</g>
	</g>
	<g>
		<g>
			<path class="voice-for-companies-st1" d="M153,216.6l-7.6-7.6c-0.4-0.4-1.2-0.7-1.7-0.7h-10"/>
			<g>
				<g>
					<circle class="voice-for-companies-st0" cx="133.9" cy="208.3" r="2.6"/>
					<path class="voice-for-companies-st2" d="M133.9,205.3c1.6,0,3,1.3,3,3c0,1.6-1.3,3-3,3c-1.6,0-3-1.3-3-3S132.3,205.3,133.9,205.3
						C135.6,205.3,132.3,205.3,133.9,205.3z M133.9,210.6c1.3,0,2.3-1,2.3-2.3s-1-2.3-2.3-2.3s-2.3,1-2.3,2.3
						S132.7,210.6,133.9,210.6C135.2,210.6,132.7,210.6,133.9,210.6z"/>
				</g>
			</g>
		</g>
	</g>
	<g>
		<g>
			<line class="voice-for-companies-st1" x1="153" y1="246" x2="153" y2="93"/>
			<g>
				<g>
					<circle class="voice-for-companies-st0" cx="153" cy="93.1" r="2.6"/>
					<path class="voice-for-companies-st2" d="M156,93.1c0,1.6-1.3,3-3,3s-3-1.3-3-3c0-1.6,1.3-3,3-3S156,91.5,156,93.1C156,94.8,156,91.5,156,93.1z
						 M150.7,93.1c0,1.3,1,2.3,2.3,2.3s2.3-1,2.3-2.3s-1-2.3-2.3-2.3S150.7,91.9,150.7,93.1C150.7,94.4,150.7,91.9,150.7,93.1z"/>
				</g>
			</g>
		</g>
	</g>
	<g>
		<g>
			<path class="voice-for-companies-st1" d="M142.9,257.8h-32.8c-0.6,0-1.3-0.3-1.7-0.7l-28.6-28.6c-0.4-0.4-1.2-0.7-1.7-0.7H50.8
				c-0.6,0-1.3-0.3-1.7-0.7L37,215c-0.4-0.4-0.7-1.2-0.7-1.7v-25.8"/>
			<g>
				<g>
					<circle class="voice-for-companies-st0" cx="36.3" cy="187.7" r="2.6"/>
					<path class="voice-for-companies-st2" d="M39.2,187.7c0,1.6-1.3,3-3,3c-1.6,0-3-1.3-3-3c0-1.6,1.3-3,3-3S39.2,186.1,39.2,187.7
						C39.2,189.3,39.2,186.1,39.2,187.7z M34,187.7c0,1.3,1,2.3,2.3,2.3s2.3-1,2.3-2.3s-1-2.3-2.3-2.3S34,186.4,34,187.7
						S34,186.4,34,187.7z"/>
				</g>
			</g>
		</g>
	</g>
	<g>
		<g>
			<path class="voice-for-companies-st1" d="M140.9,208.3v-20.8c0-0.6-0.3-1.3-0.7-1.7l-9.1-9.1c-0.4-0.4-1.2-0.7-1.7-0.7H77.8c-0.5,0-1.3-0.3-1.7-0.7
				L63.8,163c-0.4-0.4-0.7-1.2-0.7-1.7v-43.1"/>
			<g>
				<g>
					<circle class="voice-for-companies-st0" cx="63.1" cy="118.4" r="2.6"/>
					<path class="voice-for-companies-st2" d="M66.1,118.4c0,1.6-1.3,3-3,3c-1.6,0-3-1.3-3-3c0-1.6,1.3-3,3-3C64.8,115.4,66.1,116.7,66.1,118.4
						C66.1,120,66.1,116.7,66.1,118.4z M60.8,118.4c0,1.3,1,2.3,2.3,2.3c1.3,0,2.3-1,2.3-2.3s-1-2.3-2.3-2.3
						C61.9,116.1,60.8,117.1,60.8,118.4C60.8,119.6,60.8,117.1,60.8,118.4z"/>
				</g>
			</g>
		</g>
	</g>
	<g>
		<g>
			<path class="voice-for-companies-st1" d="M259.7,175.1l22.1-22.1c0.4-0.4,1.2-0.7,1.7-0.7h54.9c0.5,0,1.3-0.3,1.7-0.7l15.4-15.4
				c0.4-0.4,0.7-1.2,0.7-1.7v-22.9"/>
			<g>
				<g>
					<circle class="voice-for-companies-st0" cx="356.1" cy="111.8" r="2.6"/>
					<path class="voice-for-companies-st2" d="M359.1,111.8c0,1.6-1.3,3-3,3s-3-1.3-3-3c0-1.6,1.3-3,3-3S359.1,110.2,359.1,111.8
						C359.1,113.4,359.1,110.2,359.1,111.8z M353.8,111.8c0,1.3,1,2.3,2.3,2.3s2.3-1,2.3-2.3s-1-2.3-2.3-2.3
						S353.8,110.5,353.8,111.8C353.8,113.1,353.8,110.5,353.8,111.8z"/>
				</g>
			</g>
		</g>
	</g>
	<g>
		<g>
			<path class="voice-for-companies-st1" d="M259.2,139.8l6.9-6.9c0.4-0.4,1.2-0.7,1.7-0.7h16"/>
			<g>
				<g>
					<circle class="voice-for-companies-st0" cx="283.7" cy="132.2" r="2.6"/>
					<path class="voice-for-companies-st2" d="M283.7,135.2c-1.6,0-3-1.3-3-3s1.3-3,3-3c1.6,0,3,1.3,3,3S285.3,135.2,283.7,135.2
						C282,135.2,285.3,135.2,283.7,135.2z M283.7,129.9c-1.3,0-2.3,1-2.3,2.3s1,2.3,2.3,2.3s2.3-1,2.3-2.3S284.9,129.9,283.7,129.9
						C282.4,129.9,284.9,129.9,283.7,129.9z"/>
				</g>
			</g>
		</g>
	</g>
	<g>
		<g>
			<path class="voice-for-companies-st1" d="M260.2,225.6l15.6-15.6c0.4-0.4,1.2-0.7,1.7-0.7h89.2c0.5,0,1.3-0.3,1.7-0.7l9.6-9.6
				c0.4-0.4,0.7-1.2,0.7-1.7v-2.9"/>
			<g>
				<g>
					<circle class="voice-for-companies-st0" cx="378.7" cy="194.5" r="2.6"/>
					<path class="voice-for-companies-st2" d="M381.7,194.5c0,1.6-1.3,3-3,3s-3-1.3-3-3c0-1.6,1.3-3,3-3S381.7,192.9,381.7,194.5
						C381.7,196.2,381.7,192.9,381.7,194.5z M376.4,194.5c0,1.3,1,2.3,2.3,2.3s2.3-1,2.3-2.3s-1-2.3-2.3-2.3
						C377.4,192.3,376.4,193.3,376.4,194.5C376.4,195.8,376.4,193.3,376.4,194.5z"/>
				</g>
			</g>
		</g>
	</g>
	<g>
		<g>
			<line class="voice-for-companies-st1" x1="142.9" y1="273.5" x2="104.7" y2="273.5"/>
			<g>
				<g>
					<circle class="voice-for-companies-st0" cx="104.8" cy="273.5" r="2.6"/>
					<path class="voice-for-companies-st2" d="M104.8,270.5c1.6,0,3,1.3,3,3s-1.3,3-3,3c-1.6,0-3-1.3-3-3S103.2,270.5,104.8,270.5
						C106.5,270.5,103.2,270.5,104.8,270.5z M104.8,275.7c1.3,0,2.3-1,2.3-2.3s-1-2.3-2.3-2.3s-2.3,1-2.3,2.3
						C102.6,274.7,103.6,275.7,104.8,275.7C106.1,275.7,103.6,275.7,104.8,275.7z"/>
				</g>
			</g>
		</g>
	</g>
	<g>
		<g>
			<line class="voice-for-companies-st1" x1="142.9" y1="265.5" x2="114.7" y2="265.5"/>
			<g>
				<g>
					<circle class="voice-for-companies-st0" cx="114.8" cy="265.5" r="2.6"/>
					<path class="voice-for-companies-st2" d="M114.8,262.5c1.6,0,3,1.3,3,3s-1.3,3-3,3c-1.6,0-3-1.3-3-3S113.2,262.5,114.8,262.5
						C116.5,262.5,113.2,262.5,114.8,262.5z M114.8,267.7c1.3,0,2.3-1,2.3-2.3s-1-2.3-2.3-2.3s-2.3,1-2.3,2.3
						C112.6,266.7,113.6,267.7,114.8,267.7C116.1,267.7,113.6,267.7,114.8,267.7z"/>
				</g>
			</g>
		</g>
	</g>
	<g>
		<path class="voice-for-companies-st1" d="M294.2,273.5l5.8,5.8c0.8,0.8,2.3,1.4,3.4,1.4h10.4c1.1,0,2.6,0.6,3.4,1.4l8.4,8.4c0.8,0.8,2.3,1.4,3.4,1.4
			h10.3"/>
	</g>
	<g>
		<path class="voice-for-companies-st1" d="M192,212.4l11.1-11.1c0.8-0.8,1.4-2.3,1.4-3.4v-6.6c0-1.1,0.6-2.6,1.4-3.4l29.9-29.9"/>
	</g>
	<g>
		<path class="voice-for-companies-st1" d="M192,162.1l-6.7-6.7c-0.4-0.4-0.7-1.2-0.7-1.7V117"/>
	</g>
	<g>
		<path class="voice-for-companies-st1" d="M153,103.6l14.3-14.3c0.4-0.4,0.7-1.2,0.7-1.7v-9.4"/>
	</g>
	<g>
		<path class="voice-for-companies-st1" d="M259.7,153.3l-5.7-5.7c-0.4-0.4-0.7-1.2-0.7-1.7v-45.6"/>
	</g>
	<g>
		<path class="voice-for-companies-st1" d="M356.1,124.3l11.7-11.7c0.4-0.4,0.7-1.2,0.7-1.7V93.2"/>
	</g>
	<g>
		<line class="voice-for-companies-st1" x1="295.9" y1="152.3" x2="308.2" y2="140.1"/>
	</g>
	<g>
		<path class="voice-for-companies-st1" d="M373.1,203.9l-7-7c-0.4-0.4-0.7-1.2-0.7-1.7v-14.5"/>
	</g>
	<g>
		<line class="voice-for-companies-st1" x1="92.7" y1="241.3" x2="86.1" y2="247.9"/>
	</g>
	<g>
		<line class="voice-for-companies-st1" x1="100.6" y1="249.2" x2="100.6" y2="221.3"/>
	</g>
	<g>
		<path class="voice-for-companies-st1" d="M63.1,132.2l-9.3-9.3c-0.4-0.4-0.7-1.2-0.7-1.7v-28"/>
	</g>
	<g>
		<line class="voice-for-companies-st1" x1="72" y1="171.2" x2="44.2" y2="171.2"/>
	</g>
	<g>
		<path class="voice-for-companies-st1" d="M153,112.7l-26.2-26.2c-0.4-0.4-0.7-1.2-0.7-1.7V69.2c0-0.6-0.3-1.3-0.7-1.7l-11.3-11.3"/>
	</g>
	<g>
		<path class="voice-for-companies-st1" d="M260.2,127.2l36.4-36.4c0.4-0.4,0.7-1.2,0.7-1.7V56.8"/>
	</g>
</g>
<g id="devices">
	<g id="shadow" class="voice-for-companies-st3">
		<g>
			<ellipse cx="206.4" cy="390.3" rx="75.1" ry="9.1"/>
		</g>
	</g>
	<g id="laptop">
		<path class="voice-for-companies-st4" d="M272.2,326.2V252c0-5-3.9-9.1-8.7-9.1H149.3c-4.8,0-8.7,4.1-8.7,9.1v74.1h131.6V326.2z"/>
		<rect x="145.6" y="249.2" class="voice-for-companies-st0" width="121.7" height="72.3"/>
		<path class="voice-for-companies-st5" d="M283.6,352.5h-77.1l0,0h-77.1c-1.7,0-3,0-3,0s0.3,1.6,1.1,2.3c1.4,1.2,3.9,2.3,6.7,2.3h72.3l0,0h72.3
			c2.8,0,5.3-1.1,6.7-2.3c0.9-0.7,1.1-2.3,1.1-2.3S285.2,352.5,283.6,352.5z"/>
		<path class="voice-for-companies-st4" d="M273.7,328.4c-1.5-2.5-4.9-4.6-7.6-4.6H146.8c-2.7,0-6.2,2.1-7.6,4.6l-12.7,21.5c-1.5,2.5-0.5,4.6,2.3,4.6
			h155.3c2.7,0,3.7-2.1,2.3-4.6L273.7,328.4z"/>
		<polygon class="voice-for-companies-st6" points="217.8,351.4 195.1,351.4 197.5,345.8 215.3,345.8 		"/>
		<g>
			<path class="voice-for-companies-st6" d="M158.3,331.2c-3.8,0-5.7,0-9.4,0c0.5-1.1,0.7-1.7,1.2-2.8c3.7,0,5.6,0,9.3,0
				C159,329.5,158.8,330.1,158.3,331.2z"/>
			<path class="voice-for-companies-st6" d="M170.3,331.2c-3.8,0-5.7,0-9.5,0c0.4-1.1,0.7-1.7,1.1-2.9c3.7,0,5.6,0,9.3,0
				C170.8,329.5,170.6,330.1,170.3,331.2z"/>
			<path class="voice-for-companies-st6" d="M182.3,331.2c-3.8,0-5.8,0-9.6,0c0.4-1.1,0.5-1.7,0.8-2.9c3.7,0,5.6,0,9.3,0
				C182.7,329.5,182.6,330.1,182.3,331.2z"/>
			<path class="voice-for-companies-st6" d="M194.4,331.2c-3.9,0-5.8,0-9.6,0c0.2-1.1,0.3-1.7,0.5-2.9c3.7,0,5.6,0,9.3,0
				C194.6,329.5,194.6,330.1,194.4,331.2z"/>
			<path class="voice-for-companies-st6" d="M206.6,331.3c-3.9,0-5.8,0-9.7,0c0.1-1.1,0.1-1.7,0.1-2.9c3.7,0,5.6,0,9.3,0
				C206.5,329.6,206.6,330.1,206.6,331.3z"/>
			<path class="voice-for-companies-st6" d="M218.8,331.3c-3.9,0-5.8,0-9.7,0c-0.1-1.1-0.1-1.7-0.3-2.9c3.7,0,5.6,0,9.3,0
				C218.4,329.6,218.5,330.2,218.8,331.3z"/>
			<path class="voice-for-companies-st6" d="M230.9,331.3c-3.8,0-5.8,0-9.6,0c-0.2-1.1-0.4-1.7-0.7-3c3.7,0,5.6,0,9.3,0
				C230.3,329.6,230.5,330.2,230.9,331.3z"/>
			<path class="voice-for-companies-st6" d="M246.6,331.3c-2.5,0-3.8,0-6.3,0c-0.4-1.1-0.7-1.7-1.2-3c2.5,0,3.7,0,6.2,0
				C245.9,329.6,246.1,330.2,246.6,331.3z"/>
			<path class="voice-for-companies-st6" d="M255.4,331.4c-2.5,0-3.8,0-6.3,0c-0.5-1.1-0.8-1.7-1.4-3c2.5,0,3.7,0,6.2,0
				C254.6,329.6,254.9,330.2,255.4,331.4z"/>
			<path class="voice-for-companies-st6" d="M264.2,331.4c-2.5,0-3.7,0-6.2,0c-0.6-1.1-0.8-1.7-1.5-3c2.5,0,3.7,0,6.2,0
				C263.3,329.6,263.6,330.2,264.2,331.4z"/>
			<path class="voice-for-companies-st6" d="M248.5,335.6c-2.6,0-3.9,0-6.6,0c-0.4-1-0.5-1.5-0.9-2.5c2.6,0,3.9,0,6.4,0
				C247.9,334.2,248.1,334.6,248.5,335.6z"/>
			<path class="voice-for-companies-st6" d="M257.5,335.6c-2.6,0-3.8,0-6.4,0c-0.4-1-0.6-1.5-1.1-2.5c2.6,0,3.8,0,6.4,0
				C256.8,334.2,257,334.7,257.5,335.6z"/>
			<path class="voice-for-companies-st6" d="M266.3,335.6c-2.5,0-3.8,0-6.3,0c-0.5-1-0.7-1.5-1.2-2.5c2.5,0,3.8,0,6.3,0
				C265.6,334.2,265.8,334.7,266.3,335.6z"/>
			<path class="voice-for-companies-st6" d="M250,339.5c-2.7,0-4,0-6.7,0c-0.3-0.9-0.5-1.4-0.8-2.4c2.7,0,4,0,6.6,0C249.5,338.1,249.7,338.6,250,339.5z"
				/>
			<path class="voice-for-companies-st6" d="M259.2,339.5c-2.6,0-3.9,0-6.5,0c-0.4-0.9-0.6-1.4-1-2.4c2.6,0,3.9,0,6.5,0
				C258.6,338.1,258.8,338.6,259.2,339.5z"/>
			<path class="voice-for-companies-st6" d="M268.1,339.5c-2.5,0-3.8,0-6.3,0c-0.4-0.9-0.6-1.4-1.1-2.3c2.5,0,3.8,0,6.3,0
				C267.4,338.1,267.7,338.5,268.1,339.5z"/>
			<path class="voice-for-companies-st6" d="M251.7,343.6c-2.7,0-4.1,0-6.9,0c-0.4-1-0.6-1.5-0.9-2.5c2.8,0,4.1,0,6.8,0
				C251.1,342,251.3,342.5,251.7,343.6z"/>
			<path class="voice-for-companies-st6" d="M261,343.6c-2.6,0-4,0-6.7,0c-0.4-1.1-0.7-1.6-1.1-2.5c2.7,0,4,0,6.6,0C260.4,342,260.6,342.5,261,343.6z"/>
			<path class="voice-for-companies-st6" d="M270,343.6c-2.5,0-3.8,0-6.3,0c-0.5-1.1-0.7-1.6-1.1-2.6c2.6,0,3.8,0,6.3,0C269.3,342,269.5,342.5,270,343.6
				z"/>
			<path class="voice-for-companies-st6" d="M156.3,335.6c-3.8,0-5.7,0-9.5,0c0.5-1,0.8-1.6,1.3-2.6c3.7,0,5.6,0,9.4,0
				C157.1,334,156.8,334.5,156.3,335.6z"/>
			<path class="voice-for-companies-st6" d="M168.6,335.6c-3.9,0-5.9,0-9.8,0c0.5-1,0.7-1.6,1.2-2.6c3.8,0,5.7,0,9.6,0C169.2,334,169,334.6,168.6,335.6z
				"/>
			<path class="voice-for-companies-st6" d="M181.1,335.6c-4,0-6,0-10,0c0.4-1,0.6-1.5,1-2.6c3.9,0,5.8,0,9.7,0C181.6,334.1,181.4,334.6,181.1,335.6z"/>
			<path class="voice-for-companies-st6" d="M193.8,335.6c-4.1,0-6.1,0-10.1,0c0.3-1,0.4-1.5,0.7-2.6c3.9,0,5.9,0,9.8,0
				C194.1,334.1,194,334.6,193.8,335.6z"/>
			<path class="voice-for-companies-st6" d="M206.6,335.6c-4.1,0-6.1,0-10.2,0c0.1-1,0.2-1.5,0.3-2.6c3.9,0,5.9,0,9.9,0
				C206.7,334.1,206.6,334.6,206.6,335.6z"/>
			<path class="voice-for-companies-st6" d="M219.4,335.6c-4.1,0-6.1,0-10.2,0c0-1,0-1.5-0.1-2.6c3.9,0,5.9,0,9.9,0C219.2,334.1,219.3,334.6,219.4,335.6
				z"/>
			<path class="voice-for-companies-st6" d="M232.1,335.6c-4,0-6,0-10.1,0c-0.2-1-0.2-1.5-0.4-2.6c3.9,0,5.9,0,9.8,0
				C231.7,334.1,231.8,334.6,232.1,335.6z"/>
			<path class="voice-for-companies-st6" d="M154.3,339.7c-3.9,0-5.8,0-9.6,0c0.5-1,0.7-1.5,1.2-2.5c3.7,0,5.7,0,9.5,0
				C155.1,338.2,154.8,338.7,154.3,339.7z"/>
			<path class="voice-for-companies-st6" d="M166.9,339.7c-4.1,0-6.1,0-10,0c0.5-1,0.7-1.5,1.2-2.5c3.9,0,5.9,0,9.9,0
				C167.5,338.2,167.3,338.7,166.9,339.7z"/>
			<path class="voice-for-companies-st6" d="M179.9,339.6c-4.2,0-6.2,0-10.3,0c0.4-1,0.6-1.5,1-2.5c4,0,6,0,10.1,0C180.3,338.2,180.2,338.7,179.9,339.6z
				"/>
			<path class="voice-for-companies-st6" d="M193.1,339.6c-4.2,0-6.4,0-10.5,0c0.3-1,0.4-1.4,0.7-2.4c4.1,0,6.1,0,10.3,0
				C193.4,338.2,193.3,338.7,193.1,339.6z"/>
			<path class="voice-for-companies-st6" d="M206.5,339.6c-4.3,0-6.4,0-10.6,0c0.1-1,0.2-1.4,0.4-2.4c4.1,0,6.2,0,10.4,0
				C206.5,338.2,206.5,338.6,206.5,339.6z"/>
			<path class="voice-for-companies-st6" d="M219.9,339.6c-4.2,0-6.4,0-10.6,0c0-1,0-1.4,0-2.4c4.1,0,6.2,0,10.3,0C219.7,338.1,219.8,338.6,219.9,339.6z
				"/>
			<path class="voice-for-companies-st6" d="M233.1,339.6c-4.2,0-6.3,0-10.5,0c-0.1-1-0.2-1.4-0.4-2.4c4.1,0,6.2,0,10.2,0
				C232.8,338.1,232.9,338.6,233.1,339.6z"/>
			<path class="voice-for-companies-st6" d="M152.5,343.6c-4,0-5.9,0-9.6,0c0.4-0.9,0.6-1.4,1.1-2.3c3.7,0,5.7,0,9.6,0
				C153.1,342.2,152.9,342.7,152.5,343.6z"/>
			<path class="voice-for-companies-st6" d="M165.3,343.6c-4.2,0-6.2,0-10.2,0c0.4-0.9,0.6-1.4,1-2.4c4,0,6,0,10.1,0
				C165.9,342.2,165.7,342.7,165.3,343.6z"/>
			<path class="voice-for-companies-st6" d="M206.4,343.6c-12.7,0-25.7,0-38.4,0c0.3-0.9,0.5-1.4,0.9-2.4c12.4,0,25.1,0,37.5-0.1
				C206.4,342.1,206.4,342.6,206.4,343.6z"/>
			<path class="voice-for-companies-st6" d="M220.5,343.6c-4.4,0-6.6,0-11.1,0c-0.1-1-0.1-1.5-0.1-2.5c4.3,0,6.5,0,10.8,0
				C220.2,342.1,220.3,342.6,220.5,343.6z"/>
			<path class="voice-for-companies-st6" d="M234.3,343.6c-4.3,0-6.5,0-10.9,0c-0.2-1-0.3-1.5-0.5-2.5c4.3,0,6.4,0,10.7,0
				C233.8,342.1,234,342.6,234.3,343.6z"/>
		</g>
		<g>
			<path class="voice-for-companies-st7" d="M197.8,285.3c0,2.5-0.4,4.5-1,6.1s-1.7,2.6-3.1,3.3c-1.4,0.7-3.4,1-5.9,1h-6.4v-20.9h6.3
				c2.5,0,4.4,0.4,5.9,1.1s2.5,1.8,3.2,3.3C197.4,280.8,197.8,282.8,197.8,285.3z M193.4,285.3c0-1.8-0.2-3.2-0.5-4.1
				c-0.4-0.9-1-1.5-1.8-1.9c-0.9-0.4-2.1-0.6-3.8-0.6h-1.6v13.1h1.6c1.7,0,2.9-0.2,3.8-0.6s1.5-1,1.8-1.9S193.4,287.1,193.4,285.3z"
				/>
			<g>
				<path class="voice-for-companies-st8" d="M205.8,276.8c0,0.7-0.2,1.3-0.5,1.5c-0.4,0.3-0.9,0.4-1.7,0.4s-1.4-0.2-1.7-0.5s-0.5-0.8-0.5-1.5
					s0.2-1.2,0.5-1.5s0.9-0.5,1.6-0.5c0.8,0,1.4,0.1,1.7,0.5C205.6,275.6,205.8,276.1,205.8,276.8z"/>
				<polygon class="voice-for-companies-st8" points="205.2,279.9 201.7,279.9 199.4,279.9 199.4,283.2 201.7,283.2 201.7,295.8 205.6,295.8 
					205.6,279.9 				"/>
			</g>
		</g>
	</g>
	<g id="mobile">
		<path class="voice-for-companies-st4" d="M154.8,304.1c0,1.5,1.2,2.8,2.7,2.8l19.9,0.1c1.5,0,2.8-1.2,2.8-2.6l0.2-34.8c0-1.5-1.2-2.7-2.8-2.7
			l-19.9-0.1c-1.5,0-2.8,1.2-2.8,2.7L154.8,304.1z"/>
		
			<rect x="151.5" y="275.9" transform="matrix(4.390777e-03 -1 1 4.390777e-03 -119.056 452.4246)" class="voice-for-companies-st0" width="32.4" height="20.2"/>
		<circle class="voice-for-companies-st0" cx="167.6" cy="304.6" r="1.3"/>
		<path class="voice-for-companies-st7" d="M162.8,295.8v-20.9h13.6v3.8h-9.3v4.5h7.9v3.8h-7.9v5h9.3v3.9L162.8,295.8L162.8,295.8z"/>
		<g id="shadow_1_" class="voice-for-companies-st9">
			<g>
				<ellipse cx="168.7" cy="334.6" rx="19.1" ry="2.3"/>
			</g>
		</g>
	</g>
	<g id="tablet">
		<g>
			<path class="voice-for-companies-st4" d="M283.9,314.2c3.1,0,5.7-2.5,5.7-5.6l0.2-41c0-3.2-2.4-5.7-5.4-5.8l-71.8-0.3c-3,0-5.5,2.5-5.5,5.7l-0.2,41
				c0,3.1,2.5,5.7,5.6,5.7L283.9,314.2z"/>
			
				<rect x="224.4" y="250.6" transform="matrix(4.390794e-03 -1 1 4.390794e-03 -41.7056 533.6927)" class="voice-for-companies-st0" width="45.5" height="74.3"/>
			<circle class="voice-for-companies-st0" cx="287" cy="287.8" r="1.3"/>
		</g>
		<path class="voice-for-companies-st7" d="M228.4,295.8v-14l-5,8.7H221l-5-8.7v14h-4.1v-20.9h4.9l5.5,9.9l5.5-9.9h4.8v20.9H228.4z"/>
		<path class="voice-for-companies-st7" d="M234.5,295.8l6.9-20.9h5.5l6.9,20.9h-4.4l-1.4-4.3h-8.1l-1.4,4.3H234.5z M241.3,287.8h5.6l-2.8-8.6
			L241.3,287.8z"/>
		<g id="shadow_2_" class="voice-for-companies-st9">
			<g>
				<ellipse cx="241.4" cy="334.6" rx="37.7" ry="2.3"/>
			</g>
		</g>
	</g>
</g>
<g id="icons">
	<path id="bubble_23_" class="voice-for-companies-st10" d="M233.3,104.2c-1.3-1.3-3.1-2.1-5-2.1s-3.7,0.7-5,2.1c-2.6,2.6-2.8,6.7-0.5,9.5
		c-0.3,0.6-0.7,1.1-1.1,1.3c-0.3,0.1-0.4,0.4-0.4,0.7c0,0.3,0.3,0.5,0.6,0.6c0.2,0,0.3,0,0.5,0c0.9,0,1.8-0.3,2.5-0.8
		c1,0.6,2.2,0.8,3.3,0.8c1.9,0,3.7-0.7,5-2.1c1.3-1.3,2.1-3.1,2.1-5C235.3,107.3,234.6,105.5,233.3,104.2L233.3,104.2z M232.7,113.6
		c-1.2,1.2-2.8,1.8-4.4,1.8c-1.1,0-2.2-0.3-3.2-0.9c-0.1,0-0.1-0.1-0.2-0.1c-0.1,0-0.2,0-0.2,0.1c-0.9,0.7-1.8,0.8-2.2,0.8
		c0.5-0.4,0.9-0.9,1.2-1.7c0.1-0.1,0-0.3-0.1-0.4c-2.2-2.5-2.1-6.2,0.3-8.6c1.2-1.2,2.8-1.8,4.4-1.8c1.7,0,3.2,0.7,4.4,1.8
		C235.1,107.2,235.1,111.1,232.7,113.6L232.7,113.6z M231.2,106.8h-5.9c-0.2,0-0.4,0.2-0.4,0.4s0.2,0.4,0.4,0.4h5.9
		c0.2,0,0.4-0.2,0.4-0.4S231.4,106.8,231.2,106.8L231.2,106.8z M231.2,108.8h-5.9c-0.2,0-0.4,0.2-0.4,0.4s0.2,0.4,0.4,0.4h5.9
		c0.2,0,0.4-0.2,0.4-0.4S231.4,108.8,231.2,108.8L231.2,108.8z M231.2,110.7h-5.9c-0.2,0-0.4,0.2-0.4,0.4c0,0.2,0.2,0.4,0.4,0.4h5.9
		c0.2,0,0.4-0.2,0.4-0.4C231.6,110.9,231.4,110.7,231.2,110.7L231.2,110.7z"/>
	<path id="bubble_22_" class="voice-for-companies-st10" d="M53.4,33.2c-1.3-1.3-3.1-2.1-5-2.1s-3.7,0.7-5,2.1c-2.6,2.6-2.8,6.7-0.5,9.5
		c-0.3,0.6-0.7,1.1-1.1,1.3c-0.3,0.1-0.4,0.4-0.4,0.7s0.3,0.5,0.6,0.6c0.2,0,0.3,0,0.5,0c0.9,0,1.8-0.3,2.5-0.8
		c1,0.6,2.2,0.8,3.3,0.8c1.9,0,3.7-0.7,5-2.1c1.3-1.3,2.1-3.1,2.1-5C55.4,36.3,54.7,34.6,53.4,33.2L53.4,33.2z M52.8,42.7
		c-1.2,1.2-2.8,1.8-4.4,1.8c-1.1,0-2.2-0.3-3.2-0.9c-0.1,0-0.1-0.1-0.2-0.1c-0.1,0-0.2,0-0.2,0.1c-0.9,0.7-1.8,0.8-2.2,0.8
		c0.5-0.4,0.9-0.9,1.2-1.7c0.1-0.1,0-0.3-0.1-0.4c-2.2-2.5-2.1-6.2,0.3-8.6c1.2-1.2,2.8-1.8,4.4-1.8c1.7,0,3.2,0.7,4.4,1.8
		C55.2,36.2,55.2,40.2,52.8,42.7L52.8,42.7z M51.3,35.9h-5.9c-0.2,0-0.4,0.2-0.4,0.4s0.2,0.4,0.4,0.4h5.9c0.2,0,0.4-0.2,0.4-0.4
		C51.7,36.1,51.5,35.9,51.3,35.9L51.3,35.9z M51.3,37.8h-5.9c-0.2,0-0.4,0.2-0.4,0.4s0.2,0.4,0.4,0.4h5.9c0.2,0,0.4-0.2,0.4-0.4
		S51.5,37.8,51.3,37.8L51.3,37.8z M51.3,39.8h-5.9c-0.2,0-0.4,0.2-0.4,0.4s0.2,0.4,0.4,0.4h5.9c0.2,0,0.4-0.2,0.4-0.4
		C51.7,39.9,51.5,39.8,51.3,39.8L51.3,39.8z"/>
	<path id="bubble_21_" class="voice-for-companies-st10" d="M255,23.9c-1.3-1.3-3.1-2.1-5-2.1s-3.7,0.7-5,2.1c-2.6,2.6-2.8,6.7-0.5,9.5
		c-0.3,0.6-0.7,1.1-1.1,1.3c-0.3,0.1-0.4,0.4-0.4,0.7s0.3,0.5,0.6,0.6c0.2,0,0.3,0,0.5,0c0.9,0,1.8-0.3,2.5-0.8
		c1,0.6,2.2,0.8,3.3,0.8c1.9,0,3.7-0.7,5-2.1c1.3-1.3,2.1-3.1,2.1-5C257,27,256.3,25.2,255,23.9L255,23.9z M254.4,33.3
		c-1.2,1.2-2.8,1.8-4.4,1.8c-1.1,0-2.2-0.3-3.2-0.9c-0.1,0-0.1-0.1-0.2-0.1c-0.1,0-0.2,0-0.2,0.1c-0.9,0.7-1.8,0.8-2.2,0.8
		c0.5-0.4,0.9-0.9,1.2-1.7c0.1-0.1,0-0.3-0.1-0.4c-2.2-2.5-2.1-6.2,0.3-8.6c1.2-1.2,2.8-1.8,4.4-1.8c1.7,0,3.2,0.7,4.4,1.8
		C256.8,26.9,256.8,30.9,254.4,33.3L254.4,33.3z M252.9,26.5H247c-0.2,0-0.4,0.2-0.4,0.4s0.2,0.4,0.4,0.4h5.9c0.2,0,0.4-0.2,0.4-0.4
		S253.1,26.5,252.9,26.5L252.9,26.5z M252.9,28.5H247c-0.2,0-0.4,0.2-0.4,0.4c0,0.2,0.2,0.4,0.4,0.4h5.9c0.2,0,0.4-0.2,0.4-0.4
		C253.3,28.7,253.1,28.5,252.9,28.5L252.9,28.5z M252.9,30.4H247c-0.2,0-0.4,0.2-0.4,0.4c0,0.2,0.2,0.4,0.4,0.4h5.9
		c0.2,0,0.4-0.2,0.4-0.4C253.3,30.6,253.1,30.4,252.9,30.4L252.9,30.4z"/>
	<path id="bubble_19_" class="voice-for-companies-st10" d="M380.1,117.2c-0.8-0.8-1.9-1.3-3.1-1.3s-2.3,0.5-3.1,1.3c-1.6,1.6-1.7,4.2-0.3,5.9
		c-0.2,0.4-0.4,0.7-0.7,0.8c-0.2,0.1-0.3,0.3-0.2,0.4c0,0.2,0.2,0.3,0.3,0.3c0.1,0,0.2,0,0.3,0c0.5,0,1.1-0.2,1.6-0.5
		c0.6,0.3,1.4,0.5,2.1,0.5c1.2,0,2.3-0.5,3.1-1.3c0.8-0.8,1.3-2,1.3-3.1C381.4,119.2,380.9,118.1,380.1,117.2L380.1,117.2z
		 M379.7,123.1c-0.7,0.7-1.7,1.2-2.8,1.2c-0.7,0-1.4-0.2-2-0.5h-0.1c-0.1,0-0.1,0-0.2,0.1c-0.6,0.4-1.1,0.5-1.4,0.5
		c0.3-0.2,0.5-0.6,0.8-1c0-0.1,0-0.2,0-0.3c-1.4-1.6-1.3-3.9,0.2-5.4c0.7-0.7,1.7-1.2,2.8-1.2s2,0.4,2.8,1.2
		C381.3,119.1,381.3,121.6,379.7,123.1L379.7,123.1z M378.8,118.9h-3.7c-0.1,0-0.3,0.1-0.3,0.3s0.1,0.3,0.3,0.3h3.7
		c0.1,0,0.3-0.1,0.3-0.3S378.9,118.9,378.8,118.9L378.8,118.9z M378.8,120.1h-3.7c-0.1,0-0.3,0.1-0.3,0.3s0.1,0.3,0.3,0.3h3.7
		c0.1,0,0.3-0.1,0.3-0.3S378.9,120.1,378.8,120.1L378.8,120.1z M378.8,121.3h-3.7c-0.1,0-0.3,0.1-0.3,0.3s0.1,0.3,0.3,0.3h3.7
		c0.1,0,0.3-0.1,0.3-0.3S378.9,121.3,378.8,121.3L378.8,121.3z"/>
	<path id="bubble_18_" class="voice-for-companies-st10" d="M217,202.1c-0.9-0.9-2.1-1.4-3.4-1.4s-2.5,0.5-3.4,1.4c-1.8,1.8-1.9,4.6-0.3,6.5
		c-0.2,0.4-0.5,0.7-0.8,0.9c-0.2,0.1-0.3,0.3-0.2,0.5c0,0.2,0.2,0.3,0.4,0.4c0.1,0,0.2,0,0.3,0c0.6,0,1.2-0.2,1.7-0.6
		c0.7,0.4,1.5,0.6,2.3,0.6c1.3,0,2.5-0.5,3.4-1.4s1.4-2.1,1.4-3.4C218.4,204.2,217.9,203,217,202.1L217,202.1z M216.7,208.5
		c-0.8,0.8-1.9,1.2-3,1.2c-0.8,0-1.5-0.2-2.2-0.6h-0.1c-0.1,0-0.1,0-0.2,0.1c-0.6,0.5-1.2,0.5-1.5,0.6c0.3-0.2,0.6-0.6,0.8-1.1
		c0-0.1,0-0.2,0-0.3c-1.5-1.7-1.4-4.3,0.2-5.8c0.8-0.8,1.9-1.2,3-1.2s2.2,0.4,3,1.2C218.3,204.1,218.3,206.8,216.7,208.5
		L216.7,208.5z M215.6,203.9h-4c-0.2,0-0.3,0.1-0.3,0.3s0.1,0.3,0.3,0.3h4c0.2,0,0.3-0.1,0.3-0.3S215.8,203.9,215.6,203.9
		L215.6,203.9z M215.6,205.2h-4c-0.2,0-0.3,0.1-0.3,0.3s0.1,0.3,0.3,0.3h4c0.2,0,0.3-0.1,0.3-0.3S215.8,205.2,215.6,205.2
		L215.6,205.2z M215.6,206.5h-4c-0.2,0-0.3,0.1-0.3,0.3s0.1,0.3,0.3,0.3h4c0.2,0,0.3-0.1,0.3-0.3S215.8,206.5,215.6,206.5
		L215.6,206.5z"/>
	<path id="bubble_17_" class="voice-for-companies-st10" d="M17.4,187.5c-1.3-1.3-3.1-2.1-5-2.1s-3.7,0.7-5,2.1c-2.6,2.6-2.8,6.7-0.5,9.5
		c-0.3,0.6-0.7,1.1-1.1,1.3c-0.3,0.1-0.4,0.4-0.4,0.7s0.3,0.5,0.6,0.6c0.2,0,0.3,0,0.5,0c0.9,0,1.8-0.3,2.5-0.8
		c1,0.6,2.2,0.8,3.3,0.8c1.9,0,3.7-0.7,5-2.1c1.3-1.3,2.1-3.1,2.1-5S18.7,188.9,17.4,187.5L17.4,187.5z M16.8,197
		c-1.2,1.2-2.8,1.8-4.4,1.8c-1.1,0-2.2-0.3-3.2-0.9c-0.1,0-0.1-0.1-0.2-0.1c-0.1,0-0.2,0-0.2,0.1c-0.9,0.7-1.8,0.8-2.2,0.8
		c0.5-0.4,0.9-0.9,1.2-1.7c0.1-0.1,0-0.3-0.1-0.4c-2.2-2.5-2.1-6.2,0.3-8.6c1.2-1.2,2.8-1.8,4.4-1.8c1.7,0,3.2,0.7,4.4,1.8
		C19.3,190.5,19.3,194.5,16.8,197L16.8,197z M15.3,190.2H9.4c-0.2,0-0.4,0.2-0.4,0.4s0.2,0.4,0.4,0.4h5.9c0.2,0,0.4-0.2,0.4-0.4
		S15.6,190.2,15.3,190.2L15.3,190.2z M15.3,192.1H9.4c-0.2,0-0.4,0.2-0.4,0.4s0.2,0.4,0.4,0.4h5.9c0.2,0,0.4-0.2,0.4-0.4
		S15.6,192.1,15.3,192.1L15.3,192.1z M15.3,194.1H9.4c-0.2,0-0.4,0.2-0.4,0.4s0.2,0.4,0.4,0.4h5.9c0.2,0,0.4-0.2,0.4-0.4
		S15.6,194.1,15.3,194.1L15.3,194.1z"/>
	<path id="bubble_16_" class="voice-for-companies-st10" d="M17.2,101.4c-2,2-3.1,4.6-3.1,7.4s1.1,5.4,3.1,7.4s4.6,3.1,7.4,3.1c1.7,0,3.4-0.4,4.9-1.2
		c1.1,0.8,2.5,1.2,3.8,1.2c0.3,0,0.5,0,0.7-0.1c0.4-0.1,0.7-0.4,0.8-0.8s-0.2-0.8-0.5-1c-0.6-0.3-1.2-0.9-1.6-1.9
		c3.4-4.1,3.1-10.2-0.7-14c-2-2-4.6-3.1-7.4-3.1S19.2,99.4,17.2,101.4L17.2,101.4z M18,115.3c-3.6-3.6-3.6-9.5,0-13.1
		c1.7-1.7,4.1-2.7,6.5-2.7c2.5,0,4.8,1,6.5,2.7c3.5,3.5,3.6,9,0.4,12.7c-0.2,0.2-0.2,0.4-0.1,0.6c0.5,1.1,1.1,1.9,1.8,2.5
		c-0.6,0-1.9-0.2-3.3-1.2c-0.1-0.1-0.2-0.1-0.4-0.1c-0.1,0-0.2,0-0.3,0.1c-1.4,0.8-3,1.3-4.7,1.3C22.1,118.1,19.8,117.1,18,115.3
		L18,115.3z M20.2,105.3c-0.3,0-0.6,0.3-0.6,0.6s0.3,0.6,0.6,0.6H29c0.3,0,0.6-0.3,0.6-0.6s-0.3-0.6-0.6-0.6H20.2L20.2,105.3z
		 M20.2,108.2c-0.3,0-0.6,0.3-0.6,0.6s0.3,0.6,0.6,0.6H29c0.3,0,0.6-0.3,0.6-0.6s-0.3-0.6-0.6-0.6H20.2L20.2,108.2z M20.2,111.1
		c-0.3,0-0.6,0.3-0.6,0.6s0.3,0.6,0.6,0.6H29c0.3,0,0.6-0.3,0.6-0.6s-0.3-0.6-0.6-0.6H20.2L20.2,111.1z"/>
	<path id="bubble_15_" class="voice-for-companies-st10" d="M209.1,50.4c-2,2-3.1,4.6-3.1,7.4c0,2.8,1.1,5.4,3.1,7.4s4.6,3.1,7.4,3.1
		c1.7,0,3.4-0.4,4.9-1.2c1.1,0.8,2.5,1.2,3.8,1.2c0.3,0,0.5,0,0.7-0.1c0.4-0.1,0.7-0.4,0.8-0.8s-0.2-0.8-0.5-1
		c-0.6-0.3-1.2-0.9-1.6-1.9c3.4-4.1,3.1-10.2-0.7-14c-2-2-4.6-3.1-7.4-3.1S211,48.4,209.1,50.4L209.1,50.4z M209.9,64.3
		c-3.6-3.6-3.6-9.5,0-13.1c1.7-1.7,4.1-2.7,6.5-2.7c2.5,0,4.8,1,6.5,2.7c3.5,3.5,3.6,9,0.4,12.7c-0.2,0.2-0.2,0.4-0.1,0.6
		c0.5,1.1,1.1,1.9,1.8,2.5c-0.6,0-1.9-0.2-3.3-1.2c-0.1-0.1-0.2-0.1-0.4-0.1c-0.1,0-0.2,0-0.3,0.1c-1.4,0.8-3,1.3-4.7,1.3
		C214,67.1,211.6,66.1,209.9,64.3L209.9,64.3z M212.1,54.3c-0.3,0-0.6,0.3-0.6,0.6s0.3,0.6,0.6,0.6h8.7c0.3,0,0.6-0.3,0.6-0.6
		s-0.3-0.6-0.6-0.6H212.1L212.1,54.3z M212.1,57.2c-0.3,0-0.6,0.3-0.6,0.6s0.3,0.6,0.6,0.6h8.7c0.3,0,0.6-0.3,0.6-0.6
		s-0.3-0.6-0.6-0.6H212.1L212.1,57.2z M212.1,60.1c-0.3,0-0.6,0.3-0.6,0.6s0.3,0.6,0.6,0.6h8.7c0.3,0,0.6-0.3,0.6-0.6
		s-0.3-0.6-0.6-0.6H212.1L212.1,60.1z"/>
	<path id="bubble_14_" class="voice-for-companies-st10" d="M385.9,209.2c-2,2-3.1,4.6-3.1,7.4c0,2.8,1.1,5.4,3.1,7.4s4.6,3.1,7.4,3.1
		c1.7,0,3.4-0.4,4.9-1.2c1.1,0.8,2.5,1.2,3.8,1.2c0.3,0,0.5,0,0.7-0.1c0.4-0.1,0.7-0.4,0.8-0.8c0.1-0.4-0.2-0.8-0.5-1
		c-0.6-0.3-1.2-0.9-1.6-1.9c3.4-4.1,3.1-10.2-0.7-14c-2-2-4.6-3.1-7.4-3.1C390.5,206.1,387.8,207.2,385.9,209.2L385.9,209.2z
		 M386.7,223.1c-3.6-3.6-3.6-9.5,0-13.1c1.7-1.7,4.1-2.7,6.5-2.7c2.5,0,4.8,1,6.5,2.7c3.5,3.5,3.6,9,0.4,12.7
		c-0.2,0.2-0.2,0.4-0.1,0.6c0.5,1.1,1.1,1.9,1.8,2.5c-0.6,0-1.9-0.2-3.3-1.2c-0.1-0.1-0.2-0.1-0.4-0.1c-0.1,0-0.2,0-0.3,0.1
		c-1.4,0.8-3,1.3-4.7,1.3C390.8,225.8,388.4,224.9,386.7,223.1L386.7,223.1z M388.9,213.1c-0.3,0-0.6,0.3-0.6,0.6s0.3,0.6,0.6,0.6
		h8.7c0.3,0,0.6-0.3,0.6-0.6s-0.3-0.6-0.6-0.6H388.9L388.9,213.1z M388.9,216c-0.3,0-0.6,0.3-0.6,0.6s0.3,0.6,0.6,0.6h8.7
		c0.3,0,0.6-0.3,0.6-0.6s-0.3-0.6-0.6-0.6H388.9L388.9,216z M388.9,218.8c-0.3,0-0.6,0.3-0.6,0.6s0.3,0.6,0.6,0.6h8.7
		c0.3,0,0.6-0.3,0.6-0.6s-0.3-0.6-0.6-0.6H388.9L388.9,218.8z"/>
	<path id="bubble_13_" class="voice-for-companies-st10" d="M8.8,220.5c-2,2-3.1,4.6-3.1,7.4c0,2.8,1.1,5.4,3.1,7.4s4.6,3.1,7.4,3.1
		c1.7,0,3.4-0.4,4.9-1.2c1.1,0.8,2.5,1.2,3.8,1.2c0.3,0,0.5,0,0.7-0.1c0.4-0.1,0.7-0.4,0.8-0.8c0.1-0.4-0.2-0.8-0.5-1
		c-0.6-0.3-1.2-0.9-1.6-1.9c3.4-4.1,3.1-10.2-0.7-14c-2-2-4.6-3.1-7.4-3.1S10.7,218.5,8.8,220.5L8.8,220.5z M9.6,234.4
		c-3.6-3.6-3.6-9.5,0-13.1c1.7-1.7,4.1-2.7,6.5-2.7c2.5,0,4.8,1,6.5,2.7c3.5,3.5,3.6,9,0.4,12.7c-0.2,0.2-0.2,0.4-0.1,0.6
		c0.5,1.1,1.1,1.9,1.8,2.5c-0.6,0-1.9-0.2-3.3-1.2c-0.1-0.1-0.2-0.1-0.4-0.1c-0.1,0-0.2,0-0.3,0.1c-1.4,0.8-3,1.3-4.7,1.3
		C13.7,237.2,11.4,236.2,9.6,234.4L9.6,234.4z M11.8,224.5c-0.3,0-0.6,0.3-0.6,0.6s0.3,0.6,0.6,0.6h8.7c0.3,0,0.6-0.3,0.6-0.6
		s-0.3-0.6-0.6-0.6H11.8L11.8,224.5z M11.8,227.3c-0.3,0-0.6,0.3-0.6,0.6s0.3,0.6,0.6,0.6h8.7c0.3,0,0.6-0.3,0.6-0.6
		s-0.3-0.6-0.6-0.6H11.8L11.8,227.3z M11.8,230.2c-0.3,0-0.6,0.3-0.6,0.6s0.3,0.6,0.6,0.6h8.7c0.3,0,0.6-0.3,0.6-0.6
		s-0.3-0.6-0.6-0.6H11.8L11.8,230.2z"/>
	<path id="bubble_4_" class="voice-for-companies-st10" d="M121.4,228.3c-1.3,1.3-2,3.1-2,4.9c0,1.9,0.7,3.6,2,4.9c1.3,1.3,3.1,2,4.9,2
		c1.2,0,2.3-0.3,3.3-0.8c0.7,0.5,1.6,0.8,2.5,0.8c0.2,0,0.3,0,0.5,0c0.3,0,0.5-0.3,0.5-0.5c0-0.3-0.1-0.6-0.4-0.7
		c-0.4-0.2-0.8-0.6-1.1-1.3c2.3-2.7,2.1-6.8-0.5-9.3c-1.3-1.3-3.1-2-4.9-2C124.5,226.3,122.7,227,121.4,228.3L121.4,228.3z
		 M122,237.6c-2.4-2.4-2.4-6.3,0-8.7c1.2-1.2,2.7-1.8,4.4-1.8c1.6,0,3.2,0.6,4.4,1.8c2.3,2.3,2.4,6,0.3,8.4
		c-0.1,0.1-0.1,0.3-0.1,0.4c0.3,0.8,0.7,1.3,1.2,1.6c-0.4,0-1.3-0.1-2.2-0.8c-0.1-0.1-0.2-0.1-0.2-0.1c-0.1,0-0.1,0-0.2,0.1
		c-0.9,0.6-2,0.8-3.1,0.8C124.7,239.4,123.1,238.7,122,237.6L122,237.6z M123.4,230.9c-0.2,0-0.4,0.2-0.4,0.4s0.2,0.4,0.4,0.4h5.8
		c0.2,0,0.4-0.2,0.4-0.4s-0.2-0.4-0.4-0.4H123.4L123.4,230.9z M123.4,232.8c-0.2,0-0.4,0.2-0.4,0.4s0.2,0.4,0.4,0.4h5.8
		c0.2,0,0.4-0.2,0.4-0.4s-0.2-0.4-0.4-0.4H123.4L123.4,232.8z M123.4,234.7c-0.2,0-0.4,0.2-0.4,0.4s0.2,0.4,0.4,0.4h5.8
		c0.2,0,0.4-0.2,0.4-0.4s-0.2-0.4-0.4-0.4H123.4L123.4,234.7z"/>
	<g id="mail_9_">
		<g>
			<path class="voice-for-companies-st10" d="M387.7,98.5v10.3h15.1V98.5H387.7z M400.8,99.5l-4.4,4.6h-2.3l-4.3-4.6H400.8z M388.6,107.9v-8.4l4.6,5
				L388.6,107.9L388.6,107.9z M390.9,107.9l2.8-2.5h3.2l2.7,2.5H390.9z M401.9,107.9l-4.5-3.4l4.5-4.8V107.9z"/>
		</g>
	</g>
	<g id="mail_8_">
		<g>
			<path class="voice-for-companies-st10" d="M212.5,16.9v10.3h15.1V16.9H212.5z M225.6,17.9l-4.4,4.6H219l-4.3-4.6H225.6z M213.4,26.3v-8.4l4.6,5
				L213.4,26.3L213.4,26.3z M215.7,26.3l2.8-2.5h3.2l2.7,2.5H215.7z M226.7,26.3l-4.5-3.4l4.5-4.8V26.3z"/>
		</g>
	</g>
	<g id="mail_7_">
		<g>
			<path class="voice-for-companies-st10" d="M91.3,75.7V86h15.1V75.7H91.3z M104.4,76.7l-4.4,4.6h-2.3l-4.3-4.6H104.4z M92.2,85.1v-8.4l4.6,5L92.2,85.1
				L92.2,85.1z M94.5,85.1l2.8-2.5h3.2l2.7,2.5H94.5z M105.5,85.1l-4.5-3.4l4.5-4.8V85.1z"/>
		</g>
	</g>
	<g id="mail_6_">
		<g>
			<path class="voice-for-companies-st10" d="M47.9,201.7V212H63v-10.3H47.9z M61,202.8l-4.4,4.6h-2.3l-4.3-4.6H61z M48.8,211.2v-8.4l4.6,5L48.8,211.2
				L48.8,211.2z M51.1,211.1l2.8-2.5h3.2l2.7,2.5H51.1z M62.1,211.2l-4.5-3.4l4.5-4.8V211.2z"/>
		</g>
	</g>
	<g id="mail_5_">
		<g>
			<path class="voice-for-companies-st10" d="M294.2,35v10.3h15.1V35H294.2z M307.3,36l-4.4,4.6h-2.3l-4.3-4.6H307.3z M295.1,44.4V36l4.6,5L295.1,44.4
				L295.1,44.4z M297.4,44.4l2.8-2.5h3.2l2.7,2.5H297.4z M308.4,44.4l-4.5-3.4l4.5-4.8V44.4z"/>
		</g>
	</g>
</g>
<g id="logocircles">
	<g>
		<circle class="voice-for-companies-st11" cx="167.1" cy="48.5" r="35.3"/>
		<g>
			<path class="voice-for-companies-st12" d="M152.2,46.2h-6.6v1.9h4.7c-0.2,2.7-2.5,3.9-4.6,3.9c-2.7,0-5.1-2.1-5.1-5.1c0-2.9,2.3-5.2,5.1-5.2
				c2.2,0,3.5,1.4,3.5,1.4l1.4-1.4c0,0-1.7-1.9-4.9-1.9c-4,0-7.1,3.4-7.1,7.1c0,3.6,2.9,7.1,7.2,7.1c3.8,0,6.6-2.6,6.6-6.4
				C152.3,46.6,152.2,46.2,152.2,46.2L152.2,46.2L152.2,46.2z"/>
			<path class="voice-for-companies-st13" d="M157.7,44.8c-2.7,0-4.6,2.1-4.6,4.5c0,2.5,1.9,4.6,4.6,4.6c2.5,0,4.5-1.9,4.5-4.5
				C162.3,46.3,159.9,44.8,157.7,44.8L157.7,44.8L157.7,44.8z M157.8,46.5c1.3,0,2.6,1.1,2.6,2.8s-1.2,2.8-2.6,2.8
				c-1.5,0-2.6-1.2-2.6-2.8C155.1,47.7,156.3,46.5,157.8,46.5L157.8,46.5L157.8,46.5z"/>
			<path class="voice-for-companies-st14" d="M167.6,44.8c-2.7,0-4.6,2.1-4.6,4.5c0,2.5,1.9,4.6,4.6,4.6c2.5,0,4.5-1.9,4.5-4.5
				C172.2,46.3,169.8,44.8,167.6,44.8L167.6,44.8L167.6,44.8z M167.7,46.5c1.3,0,2.6,1.1,2.6,2.8s-1.2,2.8-2.6,2.8
				c-1.5,0-2.6-1.2-2.6-2.8C165.1,47.7,166.2,46.5,167.7,46.5L167.7,46.5L167.7,46.5z"/>
			<path class="voice-for-companies-st12" d="M177.4,44.8c-2.5,0-4.4,2.1-4.4,4.6c0,2.7,2.2,4.6,4.3,4.6c1.3,0,2-0.5,2.5-1.1v0.9c0,1.6-1,2.5-2.4,2.5
				s-2.1-1-2.3-1.6l-1.8,0.7c0.6,1.3,1.9,2.7,4.1,2.7c2.4,0,4.3-1.5,4.3-4.8V45h-1.9v0.9C179.3,45.2,178.5,44.8,177.4,44.8
				L177.4,44.8L177.4,44.8z M177.6,46.5c1.2,0,2.4,1,2.4,2.8s-1.2,2.8-2.5,2.8S175,51,175,49.4C175,47.6,176.3,46.5,177.6,46.5
				L177.6,46.5L177.6,46.5z"/>
			<path class="voice-for-companies-st13" d="M190.1,44.8c-2.3,0-4.3,1.8-4.3,4.6c0,2.9,2.2,4.6,4.5,4.6c1.9,0,3.1-1.1,3.8-2l-1.6-1
				c-0.4,0.6-1.1,1.3-2.2,1.3c-1.3,0-1.9-0.7-2.2-1.4l6.1-2.5l-0.3-0.7C193.3,46,191.9,44.8,190.1,44.8L190.1,44.8L190.1,44.8z
				 M190.2,46.5c0.8,0,1.4,0.4,1.7,1l-4.1,1.7C187.6,47.9,188.9,46.5,190.2,46.5L190.2,46.5L190.2,46.5z"/>
			<polygon class="voice-for-companies-st15" points="183.1,53.6 184.9,53.6 184.9,40.2 183.1,40.2 			"/>
		</g>
	</g>
	<g>
		<circle class="voice-for-companies-st11" cx="303" cy="191.6" r="35.3"/>
		<g>
			<path class="voice-for-companies-st16" d="M280.5,185.5v1.7h-1c0,0-0.9-0.1-0.9,0.7v1.3h1.8l-0.2,1.9h-1.6v5.2h-2.1v-5.2h-1.4v-1.8h1.5v-1.6
				c0,0-0.2-0.9,0.6-1.6c0.8-0.7,1.8-0.6,1.8-0.6L280.5,185.5L280.5,185.5z"/>
			<path class="voice-for-companies-st16" d="M285.5,189.3v0.9c-0.5-0.7-1.3-1.1-2.1-1.1c-1.6,0-2.9,1.4-2.9,3.7s1.3,3.7,2.9,3.7c0.8,0,1.6-0.4,2.1-1.2
				v0.9h2v-7.1h-2V189.3z M285.4,193.5c0,0.7-0.6,1.4-1.4,1.4s-1.4-0.7-1.4-1.4v-1.3c0-0.7,0.6-1.4,1.4-1.4s1.4,0.7,1.4,1.4V193.5z"
				/>
			<path class="voice-for-companies-st16" d="M303.9,196.4v-0.9c0.5,0.7,1.3,1.1,2.1,1.1c1.6,0,2.9-1.4,2.9-3.7s-1.3-3.7-2.9-3.7c-0.8,0-1.6,0.4-2.1,1.2
				v-4.7l-2.1,0.2v10.5L303.9,196.4z M304,192.1c0-0.7,0.6-1.4,1.4-1.4s1.4,0.7,1.4,1.4v1.3c0,0.7-0.6,1.4-1.4,1.4s-1.4-0.7-1.4-1.4
				V192.1z"/>
			<path class="voice-for-companies-st16" d="M292.1,194.8c0,0-1.6,0.1-1.6-2v-0.1c0-2.1,1.6-2,1.6-2c1.1,0,1.5,0.4,1.5,0.4l0.5-1.5
				c-0.9-0.6-3.5-0.8-4.7,0.3c-1,0.9-1,2.5-1,2.9s0,1.9,1,2.9c1.2,1.1,3.8,1,4.7,0.3l-0.5-1.5C293.5,194.5,293.1,194.9,292.1,194.8z
				"/>
			<path class="voice-for-companies-st16" d="M301,193.6c0,0,0.8-4.4-3.2-4.4s-3.5,4-3.5,4c0.1,2.4,1.2,3.1,3.1,3.4c1.9,0.2,3.4-0.5,3.4-0.5l-0.4-1.4
				c0,0-1.5,0.5-2.8,0.4c-1.2-0.1-1.1-1.4-1.1-1.4h4.5V193.6z M296.4,192.1c0,0-0.1-1.6,1.3-1.6s1.3,1.6,1.3,1.6H296.4z"/>
			<path class="voice-for-companies-st16" d="M313.1,189.2c-2.6,0-3.5,1.6-3.5,3.7c0,2.2,1.1,3.7,3.5,3.7c1.9,0,3.5-1.3,3.5-3.7
				C316.6,190.8,315.6,189.2,313.1,189.2z M314.5,193.5c0,0.7-0.6,1.4-1.4,1.4s-1.4-0.7-1.4-1.4v-1.3c0-0.7,0.6-1.4,1.4-1.4
				s1.4,0.7,1.4,1.4V193.5z"/>
			<path class="voice-for-companies-st16" d="M320.9,189.2c-2.6,0-3.5,1.6-3.5,3.7c0,2.2,1.1,3.7,3.5,3.7c1.9,0,3.5-1.3,3.5-3.7
				C324.4,190.8,323.4,189.2,320.9,189.2z M322.2,193.5c0,0.7-0.6,1.4-1.4,1.4s-1.4-0.7-1.4-1.4v-1.3c0-0.7,0.6-1.4,1.4-1.4
				s1.4,0.7,1.4,1.4V193.5z"/>
			<polygon class="voice-for-companies-st16" points="331.7,196.3 329.4,192.8 331.6,189.2 329.4,189.2 327.2,192.4 327.2,185.5 325.1,185.7 
				325.1,196.3 327.2,196.3 327.2,192.7 329.6,196.3 			"/>
		</g>
	</g>
	<g>
		
			<ellipse transform="matrix(0.4641 -0.8858 0.8858 0.4641 -54.7797 310.8441)" class="voice-for-companies-st17" cx="229.5" cy="200.7" rx="30.8" ry="30.8"/>
		<g>
			<path d="M226.6,199.1c0.9-0.5,1.7-0.8,2.7-0.3c0.8,0.4,1.3,1,1.4,1.8c0.1,0.7,0.1,1.5-0.2,2.3c-0.5,1.2-2.1,2.3-3.7,1.6
				c0,0-0.1,0-0.2,0c0,0.6,0,1.3,0,1.9c0,0.3,0.1,0.4,0.4,0.5c0.1,0.1,0.2,0.3,0.2,0.4c0,0.1-0.2,0.2-0.4,0.2c-0.9,0-1.8,0-2.8,0
				c-0.1,0-0.3-0.2-0.3-0.2c0-0.1,0.1-0.4,0.2-0.4c0.4-0.1,0.4-0.4,0.4-0.7c0-1.9,0-3.7,0-5.6c0-0.3-0.1-0.6-0.4-0.8
				c-0.1-0.1-0.2-0.4-0.2-0.5s0.3-0.2,0.4-0.3c0.5-0.1,1-0.2,1.5-0.3C226.3,198.4,226.3,198.4,226.6,199.1z M226.5,201.2
				c0,0.7,0.1,1.3,0.1,1.9c0.1,0.5,0.4,0.8,0.9,0.6c0.2-0.1,0.5-0.3,0.6-0.5c0.5-0.9,0.5-1.9,0.1-2.8c-0.1-0.2-0.3-0.4-0.4-0.5
				c-0.5-0.3-1-0.1-1.1,0.5C226.5,200.6,226.5,200.9,226.5,201.2z"/>
			<path d="M208.1,195.7c0.2-0.3,0.4-0.5,0.9-0.3c0.1,0.7,0.2,1.5,0.2,2.2c0,0.2,0,0.4-0.3,0.5c-0.3,0-0.3-0.2-0.4-0.4
				c-0.2-0.3-0.4-0.7-0.6-1c-0.4-0.5-0.9-0.7-1.5-0.6c-0.6,0.1-1,0.4-1.1,1c-0.1,0.5,0,0.9,0.6,1.2s1.2,0.5,1.8,0.8
				c0.1,0,0.2,0.1,0.3,0.1c1.3,0.5,1.9,1.4,1.8,2.7c-0.1,1.3-0.9,2.4-2.2,2.7c-1.2,0.3-2.3,0.2-3.4-0.4c-0.3,0.1-0.4,0.7-1,0.3
				c-0.1-0.8-0.1-1.7-0.2-2.6c0-0.4,0-0.4,0.6-0.4c0.1,0.3,0.3,0.7,0.4,1c0.3,0.7,0.8,1.1,1.6,1.4c0.9,0.3,1.9-0.3,2-1.1
				c0.1-0.6-0.1-1-0.7-1.3c-0.7-0.4-1.5-0.6-2.2-1c-0.5-0.2-1-0.6-1.3-1.1c-0.9-1.6,0.2-3.2,1.3-3.7c1-0.4,1.9-0.5,2.9-0.1
				C207.8,195.6,207.9,195.6,208.1,195.7z"/>
			<path d="M243.2,204.5c-1.3,0-2.3,0-3.4,0c-0.1-0.3-0.2-0.5,0.2-0.7c0.3-0.1,0.4-0.4,0.4-0.7c0-0.8,0-1.6,0-2.5
				c0-0.3-0.1-0.5-0.4-0.7c-0.4-0.3-0.4-0.6,0.2-0.8c0.7-0.2,1.4-0.4,2.1-0.5c0.1,0.1,0.2,0.3,0.4,0.4c0.1,0,0.2-0.1,0.3-0.1
				c0.8-0.4,1.6-0.5,2.4-0.1c0.5,0.3,0.9,0.6,0.9,1.2c0.1,0.9,0.1,1.8,0.1,2.8c0,0.4-0.1,0.9,0.5,1.1c0.1,0,0.1,0.3,0.2,0.5
				c-1.2,0-2.2,0-3.3,0c-0.1-0.2-0.2-0.4,0-0.6c0.2-0.2,0.3-0.4,0.3-0.6c0-1,0-1.9,0-2.9c0-0.6-0.5-0.9-1-0.7
				c-0.3,0.1-0.5,0.3-0.5,0.6c0,1,0,2,0,2.9c0,0.2,0.2,0.4,0.3,0.6C243.1,204,243.1,204.2,243.2,204.5z"/>
			<path d="M213.3,204.5c-1,0-1.9,0-2.9,0c-0.1,0-0.4-0.2-0.4-0.3s0.1-0.3,0.3-0.4c0.3-0.1,0.3-0.3,0.3-0.6c0-0.9,0-1.8,0-2.7
				c0-0.2-0.2-0.4-0.3-0.7c-0.1-0.1-0.3-0.3-0.2-0.4c0.1-0.2,0.3-0.3,0.5-0.3c0.7-0.2,1.3-0.3,2-0.5c0.1,0.2,0.2,0.3,0.3,0.5
				c0.5-0.3,1.1-0.6,1.8-0.6c1.1,0,1.8,0.6,2,1.7c0.1,0.8,0.1,1.6,0.1,2.4c0,0.5-0.2,1,0.5,1.2c0.1,0,0.1,0.3,0.1,0.3
				c-0.1,0.1-0.2,0.2-0.4,0.2c-0.7,0-1.4,0-2.1,0c-0.3,0-0.5,0-0.7,0c-0.2-0.3-0.2-0.5,0.1-0.7s0.3-0.4,0.3-0.7c0-0.9,0-1.8,0-2.7
				c0-0.7-0.5-1-1.1-0.7c-0.2,0.1-0.4,0.3-0.4,0.5c0,1,0,2,0,3c0,0.2,0.1,0.4,0.3,0.5C213.4,204,213.4,204.2,213.3,204.5z"/>
			<path d="M221,204.1c-0.5,0.2-1,0.4-1.5,0.6c-0.9,0.2-1.6-0.1-1.9-0.7c-0.3-0.7,0-1.5,0.7-1.9c0.8-0.4,1.6-0.7,2.5-1.1
				c0-0.1,0-0.4,0-0.6c0-0.4-0.2-0.7-0.6-0.7c-0.4,0-0.6,0.1-0.7,0.5c-0.1,0.2-0.1,0.4-0.2,0.5c-0.2,0.5-0.7,0.6-1.1,0.4
				c-0.4-0.2-0.5-0.7-0.3-1.1c0.1-0.2,0.2-0.4,0.4-0.5c1.1-0.7,2.3-1.1,3.6-0.7c0.8,0.2,1,0.6,1.1,1.4c0,0.9,0,1.7,0,2.6
				c0,0.2,0,0.5,0,0.7c0.3,0,0.6,0.1,0.9,0.1C223.3,204.9,222,205,221,204.1z M220.8,203.2c0-0.5,0-0.9,0-1.3
				c-0.6,0-0.9,0.3-1.1,0.7c-0.1,0.3,0,0.5,0.2,0.7C220.3,203.6,220.5,203.5,220.8,203.2z"/>
			<path d="M235.2,204.5c0-0.2,0-0.4-0.1-0.6c0.1-0.1,0.3-0.1,0.4-0.2c0.4-0.1,0.5-0.3,0.5-0.7c0-0.6,0.1-1.2,0.1-1.8
				c0-1.1,0-2.2,0-3.2c0-0.2,0-0.5,0-0.7c-0.1-0.9-0.1-0.9-0.9-1.2c0-0.2,0-0.4,0-0.6c1.4,0,2.7,0,4.1,0c0,0.2,0.1,0.4,0.1,0.6
				c-0.1,0.1-0.2,0.1-0.3,0.2c-0.5,0-0.6,0.4-0.7,0.8c0,0.2,0,0.4,0,0.6c0,1.5,0,2.9,0,4.4c0,0.4,0.1,0.7,0.1,1.1
				c0,0.3,0.1,0.6,0.5,0.6c0.4,0.1,0.4,0.4,0.3,0.8C237.9,204.5,236.6,204.5,235.2,204.5z"/>
			<path d="M253.1,203.3c-1,1.3-3,1.8-4.4,0.9c-1.1-0.6-1.6-1.8-1.4-3.2c0.1-1,1.1-2,2.2-2.3c0.8-0.2,1.5-0.3,2.3,0
				c0.4,0.2,0.8,0.4,1.1,0.7c0.3,0.2,0.3,0.6,0.2,1c-0.1,0.3-0.4,0.5-0.7,0.5c-0.4,0-0.6-0.2-0.8-0.5c-0.1-0.2-0.2-0.5-0.4-0.7
				c-0.4-0.5-0.8-0.5-1,0c-0.4,0.8-0.4,2.4,0.3,3.1c0.6,0.7,1.1,0.7,2,0.1C252.7,202.8,252.7,202.8,253.1,203.3z"/>
			<path d="M253.6,203.5c0-0.7,0.5-1.2,1.1-1.2c0.7,0,1.2,0.5,1.2,1.2c0,0.6-0.5,1.2-1.1,1.2C254,204.6,253.5,204.3,253.6,203.5z"/>
		</g>
	</g>
	<g>
		<ellipse class="voice-for-companies-st11" cx="187.5" cy="108" rx="23.5" ry="23.5"/>
		<g>
			<path class="voice-for-companies-st18" d="M188.5,105c0,0.4-0.4,0.8-0.8,0.8c-0.4,0-0.8-0.4-0.8-0.8s0.4-0.8,0.8-0.8
				C188.2,104.2,188.5,104.5,188.5,105L188.5,105z M185.3,106.5c0,0.1,0,0.2,0,0.2s-0.4-0.5-1.1-0.5c-1.3,0-2.3,1-2.3,2.4
				c0,1.3,1,2.4,2.3,2.4c0.8,0,1.1-0.5,1.1-0.5v0.2c0,0.1,0.1,0.1,0.1,0.1h1v-4.5c0,0-0.9,0-1,0
				C185.4,106.4,185.3,106.4,185.3,106.5L185.3,106.5z M185.3,109.4c-0.2,0.3-0.6,0.5-1,0.5c-0.8,0-1.3-0.5-1.3-1.3s0.6-1.3,1.3-1.3
				c0.4,0,0.8,0.2,1,0.5V109.4L185.3,109.4z M187.2,106.4h1.1v4.5h-1.1V106.4L187.2,106.4z M204.3,106.2c-0.8,0-1.1,0.5-1.1,0.5
				v-2.5h-1.1v6.6c0,0,0.9,0,1,0s0.1-0.1,0.1-0.1v-0.2l0,0c0,0,0.4,0.5,1.1,0.5c1.3,0,2.3-1,2.3-2.4S205.6,106.2,204.3,106.2
				L204.3,106.2z M204.1,109.9c-0.4,0-0.8-0.2-1-0.5v-1.6c0.2-0.2,0.6-0.5,1-0.5c0.8,0,1.3,0.5,1.3,1.3
				C205.5,109.3,204.9,109.9,204.1,109.9L204.1,109.9z M201.4,108.2v2.7h-1.1v-2.5c0-0.7-0.2-1.1-0.9-1.1c-0.4,0-0.7,0.2-0.9,0.4
				v3.1h-1.1v-4.5h0.9c0.1,0,0.1,0.1,0.1,0.1v0.2c0.4-0.4,0.8-0.5,1.2-0.5c0.5,0,0.9,0.1,1.3,0.4C201.3,107,201.4,107.4,201.4,108.2
				L201.4,108.2z M194.5,106.2c-0.8,0-1.1,0.5-1.1,0.5v-2.5h-1.1v6.6c0,0,0.9,0,1,0s0.1-0.1,0.1-0.1v-0.2l0,0c0,0,0.4,0.5,1.1,0.5
				c1.3,0,2.3-1,2.3-2.4S195.9,106.2,194.5,106.2L194.5,106.2z M194.4,109.9c-0.4,0-0.8-0.2-1-0.5v-1.6c0.2-0.2,0.6-0.5,1-0.5
				c0.8,0,1.3,0.5,1.3,1.3C195.7,109.3,195.1,109.9,194.4,109.9L194.4,109.9z M191.3,106.2c0.4,0,0.5,0.1,0.5,0.1v1.1
				c0,0-1-0.4-1.6,0.4v3.2h-1.1v-4.5c0,0,0.9,0,1,0s0.1,0.1,0.1,0.1v0.2C190.4,106.4,190.8,106.2,191.3,106.2L191.3,106.2z
				 M179.3,110.5c-0.1-0.1-0.1-0.3-0.2-0.4c-0.1-0.2-0.2-0.4-0.3-0.6l0,0c-0.8-1.8-1.7-3.6-2.6-5.4l-0.1-0.1
				c-0.1-0.2-0.2-0.4-0.3-0.6s-0.2-0.4-0.4-0.6c-0.4-0.5-0.9-0.7-1.5-0.7s-1.1,0.3-1.6,0.7c-0.2,0.2-0.3,0.4-0.4,0.6
				c-0.1,0.2-0.2,0.4-0.3,0.6l-0.1,0.1c-0.9,1.8-1.8,3.6-2.6,5.4l0,0c-0.1,0.2-0.2,0.4-0.3,0.6c-0.1,0.1-0.1,0.3-0.2,0.4
				c-0.1,0.4-0.2,0.8-0.1,1.3c0.1,0.9,0.7,1.6,1.6,2c0.3,0.1,0.6,0.2,1,0.2c0.1,0,0.2,0,0.3,0c0.4-0.1,0.8-0.2,1.2-0.4
				c0.5-0.3,1-0.6,1.5-1.3c0.5,0.6,1,1,1.5,1.3c0.4,0.2,0.8,0.4,1.2,0.4c0.1,0,0.2,0,0.3,0c0.4,0,0.6-0.1,1-0.2
				c0.8-0.4,1.4-1.1,1.6-2C179.5,111.3,179.5,110.9,179.3,110.5L179.3,110.5z M173.9,111c-0.6-0.8-1.1-1.6-1.2-2.2
				c-0.1-0.3-0.1-0.5-0.1-0.7s0.1-0.4,0.2-0.5c0.2-0.4,0.6-0.5,1.1-0.5s0.8,0.2,1.1,0.5c0.1,0.1,0.1,0.3,0.2,0.5
				c0.1,0.2,0,0.5-0.1,0.7C175,109.5,174.6,110.3,173.9,111L173.9,111z M178.7,111.6c-0.1,0.6-0.5,1.1-1.1,1.4
				c-0.3,0.1-0.6,0.1-0.9,0.1c-0.3-0.1-0.6-0.1-0.9-0.3c-0.4-0.2-0.8-0.6-1.3-1.1c0.8-1,1.3-1.8,1.4-2.6c0.1-0.4,0.1-0.7,0.1-1
				c-0.1-0.3-0.1-0.6-0.4-0.8c-0.4-0.6-1-0.8-1.7-0.8s-1.3,0.4-1.7,0.8c-0.1,0.2-0.3,0.5-0.4,0.8c-0.1,0.3-0.1,0.6,0.1,1
				c0.2,0.8,0.6,1.7,1.4,2.7c-0.5,0.6-0.9,0.9-1.3,1.1c-0.3,0.2-0.6,0.3-0.9,0.3c-0.4,0.1-0.6,0-0.9-0.1c-0.6-0.2-1-0.8-1.1-1.4
				c-0.1-0.3,0-0.6,0.1-0.9c0.1-0.1,0.1-0.2,0.1-0.4c0.1-0.2,0.2-0.4,0.3-0.6l0,0c0.8-1.8,1.7-3.6,2.6-5.4l0.1-0.1
				c0.1-0.2,0.2-0.4,0.3-0.6s0.2-0.4,0.4-0.5c0.3-0.3,0.6-0.4,1-0.4s0.7,0.1,1,0.4c0.1,0.1,0.2,0.4,0.4,0.5c0.1,0.2,0.2,0.4,0.3,0.6
				l0.1,0.1c0.9,1.8,1.8,3.6,2.6,5.4l0,0c0.1,0.2,0.2,0.4,0.3,0.6c0.1,0.1,0.1,0.3,0.1,0.4C178.7,111,178.7,111.3,178.7,111.6
				L178.7,111.6z"/>
		</g>
	</g>
	<g>
		<circle class="voice-for-companies-st11" cx="106.2" cy="132.1" r="35.3"/>
		<g>
			<path d="M118.4,133.5c0-5.8,4.6-8.4,5-8.6c-2.6-4-6.8-4.5-8.3-4.5c-3.5-0.3-6.9,2.1-8.6,2.1c-1.8,0-4.6-2-7.4-2
				c-3.8,0-7.4,2.3-9.4,5.6c-4,6.9-1,17.2,3,22.8c2,2.8,4.1,5.8,7.1,5.8c2.8-0.2,4-1.8,7.4-1.8s4.5,1.8,7.4,1.8c3.1,0,5-2.8,6.9-5.6
				c2.1-3.1,3.1-6.3,3.1-6.4C124.5,142.6,118.5,140.3,118.4,133.5"/>
			<path d="M112.7,116.7c1.7-2,2.6-4.6,2.3-7.3c-2.3,0.2-5,1.5-6.6,3.5c-1.5,1.7-2.8,4.5-2.5,6.9
				C108.6,120.1,111.1,118.6,112.7,116.7"/>
		</g>
	</g>
	<g>
		<ellipse class="voice-for-companies-st11" cx="356.4" cy="63.5" rx="35.2" ry="35.3"/>
		<g>
			<circle class="voice-for-companies-st19" cx="372" cy="66.5" r="0.6"/>
			<path class="voice-for-companies-st19" d="M360.8,59.5c-2,0-3,1.7-3,3.8c0,2.1,1,3.9,3,3.8c1.8,0,3-1.7,3-3.8C363.8,61.2,362.7,59.5,360.8,59.5z
				 M360.9,65.8c-1,0-1.1-1.1-1.1-2.5s0.1-2.5,1.1-2.5c0.9,0,1.1,1.1,1.1,2.5C362,64.7,361.9,65.8,360.9,65.8z"/>
			<path class="voice-for-companies-st19" d="M367.8,61.1c-0.7,0-1,1-1,1.7s0,4,0,4c0,0.1-0.1,0.2-0.2,0.2h-1.4c-0.1,0-0.2-0.1-0.2-0.2v-7
				c0-0.1,0.1-0.2,0.2-0.2h1.3c0.1,0,0.2,0.1,0.2,0.2c0,0,0,0.7,0,0.9c0,0.8,0.2-1.3,1.9-1.3c1.4,0,2,1.1,2,2.2c0,1.1,0,5.2,0,5.2
				c0,0.1-0.1,0.2-0.2,0.2H369c-0.1,0-0.2-0.1-0.2-0.2c0,0,0-4.1,0-4.6C368.7,61.8,368.5,61.1,367.8,61.1z"/>
			<path class="voice-for-companies-st19" d="M354.4,64.5c-0.2,0.3,0.2-0.1,1.5,0.2c1.3,0.3,1.3,0.7,1.3,0.8s0,0.2,0,1s-0.5-0.3-2.7-0.3
				c-1.5,0-2.1,0.5-2.2,0.6c-0.2,0.1-0.3-0.1-0.3-0.3c0-0.2,0-0.9,0-1.1s0.1-0.4,0.2-0.6s2.4-3.5,2.5-3.7s0.1-0.2-0.1-0.2
				s-2.1,0-2.1,0c-0.1,0-0.1-0.1-0.1-0.1v-1.2c0-0.1,0.1-0.1,0.1-0.1h4.6c0.1,0,0.1,0.1,0.1,0.1v0.8c0,0.1,0,0.2-0.2,0.4
				C356.7,61.3,354.4,64.5,354.4,64.5z"/>
			<path class="voice-for-companies-st19" d="M348.7,63.4c0,0-2-0.1-2,1.3c0,1,0.6,1,0.9,1c0.6,0,1.1-0.7,1.1-1.4V63.4z M348.7,62.3v-0.5
				c0-0.3-0.1-1-0.9-1c-0.9,0-1,0.6-1.1,0.8s-0.1,0.3-0.4,0.3c-0.1,0-1.1-0.1-1.2-0.1s-0.3-0.1-0.2-0.3c0.1-0.3,0.6-2,2.9-2
				s2.8,1.2,2.8,2.2V65c0,0.4,0.6,1,0.6,1.1c0,0,0,0.1-0.1,0.1c-0.1,0.1-1,0.9-1.1,0.9c-0.1,0.1-0.2,0.1-0.3,0
				c-0.1-0.1-0.7-0.9-0.7-0.9s-0.8,1-2.1,1c-1.3,0-2.2-0.8-2.2-1.9C344.7,62,348.7,62.3,348.7,62.3z"/>
			<path class="voice-for-companies-st19" d="M331.1,63.4c0,0-2-0.1-2,1.3c0,1,0.6,1,0.9,1c0.6,0,1.1-0.7,1.1-1.4V63.4z M331.1,62.3v-0.5
				c0-0.3-0.1-1-0.9-1c-0.9,0-1,0.6-1.1,0.8s-0.1,0.3-0.4,0.3c-0.1,0-1.1-0.1-1.2-0.1s-0.3-0.1-0.2-0.3c0.1-0.3,0.6-2,2.9-2
				s2.8,1.2,2.8,2.2V65c0,0.4,0.6,1,0.6,1.1c0,0,0,0.1-0.1,0.1c-0.1,0.1-1,0.9-1.1,0.9c-0.1,0.1-0.2,0.1-0.3,0
				c-0.1-0.1-0.7-0.9-0.7-0.9s-0.8,1-2.1,1c-1.3,0-2.2-0.8-2.2-1.9C327.1,62,331.1,62.3,331.1,62.3z"/>
			<path class="voice-for-companies-st19" d="M339.7,60.9c0.1-0.1,0.5-1.5,1.8-1.5s1.9,1.1,1.9,2.2v5.2c0,0.1-0.1,0.2-0.2,0.2h-1.4
				c-0.1,0-0.2-0.1-0.2-0.2v-4.6c0-0.5-0.2-1.1-0.9-1.1c-0.7,0-1,1-1,1.7v4c0,0.1-0.1,0.2-0.2,0.2h-1.4c-0.1,0-0.2-0.1-0.2-0.2v-4.6
				c0-0.5-0.2-1.1-0.9-1.1c-0.7,0-1,1-1,1.7v4c0,0.1-0.1,0.2-0.2,0.2h-1.4c-0.1,0-0.2-0.1-0.2-0.2v-7c0-0.1,0.1-0.2,0.2-0.2h1.3
				c0.1,0,0.2,0.1,0.2,0.2v0.9c0,0.8,0.2-1.3,1.8-1.3C338.9,59.4,339.5,60.1,339.7,60.9z"/>
			<path class="voice-for-companies-st20" d="M333.2,67.8c-0.3,0.5,5.5,4.7,10.8,4.7c6,0,10.4-2.9,10.1-3.4s-2.9,1.6-10.2,1.6
				C337.5,70.7,333.5,67.3,333.2,67.8z"/>
			<path class="voice-for-companies-st20" d="M356.1,67.5c-0.8-0.8-4.4,0.1-4.2,0.7c0.2,0.5,2.5-0.6,3.2,0.2c0.5,0.6-1,2.8-0.7,3.1
				C354.9,71.9,356.9,68.3,356.1,67.5z"/>
			<path class="voice-for-companies-st19" d="M386.1,60.3h0.1v-0.1v-0.1h-0.1h-0.2v0.3h0.2V60.3z M385.8,59.9h0.4c0.1,0,0.1,0,0.2,0.1l0.1,0.1v0.1
				c0,0,0,0-0.1,0.1l0,0c0,0,0,0.1,0.1,0.1v0.1v0.1h-0.1v-0.1c0-0.1,0-0.1,0-0.1l-0.1-0.1h-0.2v0.3H386v-0.7
				C386,59.9,385.8,59.9,385.8,59.9z"/>
			<path class="voice-for-companies-st19" d="M386.1,59.6c0.4,0,0.7,0.3,0.7,0.7s-0.3,0.7-0.7,0.7c-0.4,0-0.7-0.3-0.7-0.7
				C385.4,59.9,385.7,59.6,386.1,59.6z M386.1,59.7c-0.3,0-0.6,0.3-0.6,0.6s0.3,0.6,0.6,0.6c0.3,0,0.6-0.3,0.6-0.6
				S386.4,59.7,386.1,59.7z"/>
			<g>
				<path class="voice-for-companies-st19" d="M374.6,63.2c0,2.3,0.9,2.8,1.8,2.8c0.5,0,1-0.1,1.3-0.3l0.2,0.9c-0.4,0.2-1.1,0.4-1.7,0.4
					c-1.8,0-2.8-1.5-2.8-3.8c0-2.5,1-4,2.6-4s2.2,1.6,2.2,3.4c0,0.3,0,0.5,0,0.7h-3.6V63.2z M377,62.3c0-1.5-0.5-2.2-1.1-2.2
					c-0.8,0-1.2,1.2-1.2,2.2H377z"/>
				<path class="voice-for-companies-st19" d="M384,64.8c0,0.8,0,1.5,0.1,2.1h-1l-0.1-0.8l0,0c-0.2,0.4-0.8,0.9-1.6,0.9c-1.3,0-1.8-1-1.8-2.9v-4.8h1.2
					v4.6c0,1.2,0.2,2.1,1,2.1c0.7,0,1-0.7,1.1-1c0-0.2,0.1-0.4,0.1-0.7v-5h1.2v5.5H384z"/>
			</g>
		</g>
	</g>
	<g>
		<circle class="voice-for-companies-st21" cx="100.6" cy="199.3" r="27.3"/>
		<g>
			<path class="voice-for-companies-st22" d="M79.6,198.8c0,0,0.1-2.9,3.4-2.9s3.3,2.9,3.3,2.9H79.6L79.6,198.8z M83.1,194.5c-5.6,0-5.8,4.4-5.8,5.5
				c0,0-0.2,5.1,5.7,5.1c5.1,0,5.3-3.3,5.3-3.3H86c0,0-0.5,1.7-3,1.7c-3.3-0.1-3.4-3.3-3.4-3.3h9.1
				C88.5,200.3,89.2,194.5,83.1,194.5L83.1,194.5z"/>
			<path class="voice-for-companies-st23" d="M94.3,203.6c-3.6,0-3.5-3.8-3.5-3.8s-0.1-3.7,3.5-3.8s3.5,3.8,3.5,3.8S97.9,203.6,94.3,203.6L94.3,203.6z
				 M94.8,194.5c-2.8,0-4.1,1.6-4.1,1.6v-5.7h-2.3v12c0,0,0,1.4-0.1,2.3h2.2l0.1-1.4c0,0,1,1.7,4.1,1.7s5.3-1.9,5.5-5.2
				C100.3,196.4,97.7,194.5,94.8,194.5L94.8,194.5z"/>
			<path class="voice-for-companies-st24" d="M104.8,203.7c0,0-2.3,0-2.4-1.9c-0.1-2,3.5-1.9,3.5-1.9h2.6C108.4,200,108.8,203.7,104.8,203.7L104.8,203.7
				z M110.7,202.4c0-1.5,0-2.9,0-3.9c-0.1-1.2,0-3.8-4.9-4.1c0,0-4.6-0.5-5.1,3h2.4c0,0,0.2-1.6,2.7-1.5c2.3,0,2.7,1.2,2.7,2.6
				c0,0-2,0-2.7,0c-1.2,0-5.3,0.1-5.7,2.7c-0.5,3,2.2,3.9,4.3,3.9s3.3-0.7,4.2-1.7l0.1,1.4h2.1C110.7,204.8,110.7,203.9,110.7,202.4
				L110.7,202.4z"/>
			<polygon class="voice-for-companies-st25" points="109.4,194.9 112.1,194.9 115.9,202.6 119.8,194.9 122.2,194.9 115.2,208.6 112.7,208.6 
				114.7,204.8 			"/>
			<path class="voice-for-companies-st19" d="M123,195.5v-0.2h-0.1v-0.1h0.1V195h0.1v0.1h0.2v0.1h-0.2L123,195.5c0.1,0,0.1,0.1,0.2,0.1h0.1v0.1h-0.1
				C123.1,195.6,123,195.6,123,195.5L123,195.5z"/>
			<path class="voice-for-companies-st19" d="M123.6,195L123.6,195l0.1,0.1c0,0,0.1-0.1,0.2-0.1s0.1,0,0.2,0.1c0,0,0.1-0.1,0.2-0.1s0.2,0.1,0.2,0.2v0.3
				h-0.1v-0.3c0-0.1,0-0.1-0.1-0.1s-0.1,0-0.1,0.1v0.3h-0.1v-0.3c0-0.1,0-0.1-0.1-0.1s-0.1,0-0.1,0.1v0.3h-0.1V195H123.6z"/>
		</g>
	</g>
	<g>
		<circle class="voice-for-companies-st11" cx="59.9" cy="269" r="35.3"/>
		<g id="XMLID_2_">
			<path id="XMLID_66_" d="M82.3,271.5c0,0.6,0.3,1,1,1c0.8,0,1.7-0.6,1.8-1.9c-0.4,0-0.8-0.1-1.1-0.1
				C83,270.4,82.3,270.7,82.3,271.5z"/>
			<path id="XMLID_69_" d="M29.5,259.2v19.5h60.8v-19.5H29.5z M46.7,274h-3.3v-4.5c0-1.4-0.4-1.9-1.4-1.9c-1.1,0-1.5,0.8-1.5,1.9
				v2.8h1.1v1.8h-3.3v-4.5c0-1.4-0.4-1.9-1.4-1.9c-1.1,0-1.5,0.8-1.5,1.9v2.8h1.5v1.8h-5v-1.8H33v-4.5h-1v-1.8h3.4v1.2
				c0.4-0.8,1.4-1.4,2.5-1.4s2.2,0.6,2.6,1.8c0.4-1.1,1.4-1.8,2.6-1.8c1.4,0,2.8,0.8,2.8,2.8v3.7H47L46.7,274z M51.8,274.1
				c-2.5,0-4.1-1.5-4.1-4.1c0-2.3,1.4-4.3,4.3-4.3s4.3,1.9,4.3,4.1C56.2,272.4,54.3,274.1,51.8,274.1L51.8,274.1z M64.6,274h-7
				l-0.3-1.2l4.4-5.1h-2.5l-0.4,1.2l-1.7-0.1l0.3-2.8h7l0.1,1.2l-4.4,5.1h2.6l0.4-1.2l1.8,0.1L64.6,274z M68.8,274h-2.3v-2.9h2.3
				V274z M68.8,268.7h-2.3v-2.9h2.3V268.7z M70.2,274l3.4-12.2h2.2L72.4,274H70.2z M74.8,274l3.4-12.2h2.2L77,274H74.8z M86.7,274.1
				c-1.1,0-1.7-0.7-1.8-1.7c-0.4,0.8-1.2,1.7-2.6,1.7c-1.1,0-2.5-0.7-2.5-2.3c0-1.9,1.9-2.5,3.7-2.5c0.4,0,0.8,0,1.4,0.1v-0.3
				c0-0.8,0-1.8-1.4-1.8c-0.4,0-0.8,0-1.2,0.3l-0.3,1.1l-1.8-0.1l0.4-2.1c1.4-0.6,2.1-0.7,3.4-0.7c1.8,0,3.2,0.8,3.2,2.8v3.4
				c0,0.4,0.1,0.7,0.6,0.7c0.1,0,0.3,0,0.3,0v1.2C87.8,274,87.3,274.1,86.7,274.1L86.7,274.1z"/>
			<path id="XMLID_1_" d="M51.8,267.5c-1.2,0-1.9,0.8-1.9,2.3c0,1.4,0.7,2.5,1.9,2.5s1.9-1,1.9-2.5
				C53.8,268.2,52.9,267.5,51.8,267.5L51.8,267.5z"/>
		</g>
	</g>
	<g>
		<circle class="voice-for-companies-st11" cx="33.7" cy="153.3" r="23.5"/>
		<g>
			<title>king-2</title>
			<g>
				<path class="voice-for-companies-st26" d="M23.7,165.4c0,0-1.3-0.5-2.3-3.6c-0.9-3.1-1.5-8-2.4-10.5c-0.6-1.5-2.1-2.9-3.3-2.9c0,0-1.8,0-2.1,1.9
					c-0.3,1.7,1.2,3.3,3.2,2.5c0,0,0.9,1.9,1.1,6.8C18.2,164.5,19.6,166,23.7,165.4 M48.4,150.8c0,0-1-1.6-2.6-1.6s-3,1.7-3.4,3.6
					c-0.4,1.9-0.4,3.3-0.5,4.1c-0.1,0.7-1,2.3-1.1,0.6s0.2-4.7,0-5.7c-0.2-1.1-0.9-2.3-2.1-2.3c-1.1,0-2.2,1.3-2.7,3
					c0,0,0.2-3.5-3-0.5c0,0,0.2,3.1,0,5c-0.3,1.9-1.3,2.1-1.5,0.3s-0.2-4.3-0.2-4.3l-3.2,1.6c0,0,0.7,5-0.7,5.2
					c-1.4,0.2-3.2-4.7-3.4-5.2c0,0,12.6-2.3,12.1-12.1c0,0-0.2-3.2-3-3.4c-2.9-0.2-4,4-1.2,5.4c0,0,1.5,0.6,2.5,0v0.1
					c0,0,0,5.6-14.1,8.3c0,0,2.4,10.2,5.7,10.2c0,0,1.6,0.1,2.5-3.2c0,0,0.3,1.9,2,1.9s2.6-3,2.6-3s-0.5,2.9,2.9,2.1
					c0,0-0.1-5,0.1-6.5c0.2-1.5,2-2.6,1.9,1.2c-0.2,3.9-0.4,5.3,1.3,5.3s2.9-1.8,2.9-2.7c0.1-0.9-0.1,2.5,2.1,2.5c0,0,1.8,0,2.7-1.7
					c0,0,0.1,4.3-3.2,4.3s-10.1-2.6-16.3,1.5c0,0,1.8-0.8,6.6-0.8s9.3,1.7,11.3,1.7s3.8-0.8,3.9-6.8c0.1-5.9,0.8-6.7,0.8-6.7
					s2.7,0.8,3-2C53.5,148,50.1,146.1,48.4,150.8z M47.4,156.8c0,0-0.4,1-1.4,1s-1.5-1-1.2-3.7c0.4-2.7,1.9-3.7,3.1-1.9
					C47.9,152.3,47.4,154.9,47.4,156.8z"/>
			</g>
		</g>
	</g>
	<g>
		<ellipse class="voice-for-companies-st11" cx="357.5" cy="262.8" rx="35.2" ry="35.3"/>
	</g>
	<g>
		<ellipse class="voice-for-companies-st11" cx="171.9" cy="164.6" rx="27.9" ry="28"/>
		<g>
			<path class="voice-for-companies-st27" d="M147.3,159.5h4.9c0,1.6,0,3.3,0,4.9c-1.6,0-3.3,0-4.9,0V159.5L147.3,159.5z"/>
			<path class="voice-for-companies-st28" d="M152.7,159.5h4.9c0,1.6,0,3.3,0,4.9c-1.6,0-3.3,0-4.9,0C152.7,162.8,152.7,161.2,152.7,159.5L152.7,159.5z"
				/>
			<path class="voice-for-companies-st29" d="M191.7,161.4c0.5-0.3,1-0.3,1.6-0.2c0,0.3,0,0.6,0,0.9c-0.2-0.1-0.5-0.2-0.8-0.1c-0.2,0.1-0.3,0.3-0.4,0.5
				c0,0.3,0,0.5,0,0.8c0.5,0,1,0,1.6,0c0-0.3,0-0.7,0-1c0.4-0.1,0.7-0.2,1.1-0.3c0,0.4,0,0.9,0,1.3c0.4,0,0.7,0,1.1,0v0.9
				c-0.4,0-0.7,0-1.1,0c0,0.5,0,1,0,1.5c0,0.3,0,0.6,0,0.8s0.1,0.3,0.2,0.4c0.3,0.1,0.6,0.1,0.8-0.1v0.9c-0.3,0.1-0.6,0.2-1,0.1
				c-0.3,0-0.6-0.1-0.8-0.4c-0.2-0.3-0.3-0.7-0.3-1c0-0.8,0-1.5,0-2.3c-0.5,0-1,0-1.6,0c0,1.2,0,2.4,0,3.6c-0.4,0-0.7,0-1.1,0
				c0-1.2,0-2.4,0-3.6c-0.2,0-0.5,0-0.7,0c0-0.3,0-0.6,0-0.9c0.2,0,0.5,0,0.7,0c0-0.4,0-0.8,0.1-1.1
				C191.2,161.9,191.4,161.6,191.7,161.4L191.7,161.4z"/>
			<path class="voice-for-companies-st29" d="M168.9,161.5c0.2,0,0.4,0,0.6,0.2c0.2,0.2,0.2,0.5,0.1,0.7c-0.1,0.2-0.4,0.4-0.7,0.3
				c-0.3,0-0.5-0.3-0.5-0.6C168.3,161.8,168.6,161.5,168.9,161.5L168.9,161.5z"/>
			<path class="voice-for-companies-st29" d="M160.7,161.6c0.5,0,1,0,1.6,0c0.5,1.2,1,2.5,1.5,3.7c0.1,0.3,0.2,0.6,0.4,0.9c0.6-1.5,1.3-3.1,1.9-4.6
				c0.5,0,1,0,1.5,0c0,2.1,0,4.1,0,6.2c-0.4,0-0.7,0-1.1,0c0-1.5,0-3.1,0-4.6c0-0.1,0-0.1,0-0.2c0,0,0,0.1-0.1,0.1
				c-0.6,1.6-1.2,3.1-1.9,4.7c-0.3,0-0.5,0-0.8,0c-0.6-1.6-1.3-3.1-1.9-4.7c0,0,0-0.1-0.1-0.1c0,0.7,0,1.3,0,2c0,0.9,0,1.9,0,2.8
				c-0.3,0-0.7,0-1,0C160.7,165.8,160.7,163.7,160.7,161.6L160.7,161.6z"/>
			<path class="voice-for-companies-st29" d="M171.8,163.4c0.5-0.1,1.1-0.1,1.6,0c0.1,0,0.2,0.1,0.3,0.1c0,0.3,0,0.7,0,1c-0.3-0.3-0.8-0.4-1.2-0.4
				c-0.3,0-0.7,0.2-0.9,0.5c-0.3,0.3-0.3,0.8-0.3,1.2c0,0.3,0.2,0.7,0.4,0.9c0.3,0.2,0.6,0.3,1,0.3c0.3,0,0.7-0.2,1-0.4
				c0,0.3,0,0.6,0,1c-0.4,0.3-1,0.3-1.5,0.3s-1-0.2-1.4-0.6c-0.4-0.4-0.6-0.9-0.6-1.5s0.1-1.2,0.4-1.7
				C170.9,163.8,171.4,163.5,171.8,163.4L171.8,163.4z"/>
			<path class="voice-for-companies-st29" d="M183.5,163.3c0.5-0.1,1,0,1.5,0.2c0,0.3,0,0.7,0,1c-0.3-0.2-0.7-0.3-1.1-0.3c-0.2,0-0.4,0.1-0.5,0.3
				s0,0.4,0.2,0.5c0.3,0.2,0.7,0.3,1,0.5c0.2,0.1,0.5,0.3,0.6,0.6c0.2,0.5,0.1,1.1-0.3,1.5c-0.4,0.4-1,0.5-1.5,0.5
				c-0.4,0-0.7-0.1-1.1-0.2c0-0.3,0-0.7,0-1c0.3,0.2,0.6,0.4,1,0.4c0.2,0,0.5,0,0.7-0.1s0.3-0.4,0.1-0.6c-0.1-0.1-0.3-0.2-0.5-0.3
				c-0.3-0.1-0.6-0.3-0.9-0.5c-0.2-0.2-0.3-0.4-0.4-0.6c-0.1-0.4-0.1-0.8,0.1-1.1C182.7,163.6,183.1,163.4,183.5,163.3L183.5,163.3z
				"/>
			<path class="voice-for-companies-st29" d="M176.1,163.4c0.3-0.2,0.7-0.2,1-0.1c0,0.4,0,0.7,0,1.1c-0.2-0.1-0.5-0.2-0.7-0.2c-0.3,0-0.5,0.3-0.7,0.5
				c-0.1,0.3-0.2,0.6-0.2,0.9c0,0.7,0,1.4,0,2.1c-0.4,0-0.7,0-1.1,0c0-1.5,0-3,0-4.5c0.4,0,0.7,0,1.1,0c0,0.3,0,0.5,0,0.8
				C175.7,163.9,175.8,163.6,176.1,163.4L176.1,163.4z"/>
			<path class="voice-for-companies-st29" d="M168.5,163.4c0.4,0,0.7,0,1.1,0c0,1.5,0,3,0,4.5c-0.4,0-0.7,0-1.1,0C168.5,166.3,168.5,164.9,168.5,163.4
				L168.5,163.4z"/>
			<path class="voice-for-companies-st29" d="M181.5,164.4c-0.2-0.4-0.5-0.8-0.9-0.9c-0.5-0.2-1-0.2-1.5-0.2c-0.5,0.1-1.1,0.3-1.4,0.7
				c-0.3,0.4-0.5,0.9-0.5,1.4c0,0.6,0.1,1.2,0.4,1.7c0.3,0.4,0.7,0.7,1.2,0.8c0.4,0.1,0.8,0.1,1.2,0c0.5-0.1,0.9-0.4,1.2-0.8
				c0.3-0.4,0.4-0.8,0.5-1.3C181.8,165.3,181.7,164.8,181.5,164.4z M180.5,166.5c-0.1,0.2-0.3,0.4-0.5,0.5c-0.3,0.1-0.6,0.1-0.9,0
				c-0.3-0.1-0.5-0.3-0.7-0.6s-0.2-0.7-0.2-1.1c0-0.3,0.2-0.7,0.4-0.9s0.4-0.3,0.7-0.3s0.7,0.1,0.9,0.3s0.3,0.6,0.4,0.9
				C180.7,165.7,180.6,166.1,180.5,166.5z"/>
			<path class="voice-for-companies-st29" d="M190.1,164.5c-0.2-0.4-0.5-0.8-0.9-1c-0.5-0.2-1.1-0.3-1.6-0.2c-0.4,0.1-0.9,0.2-1.2,0.5
				c-0.4,0.3-0.6,0.9-0.7,1.4c-0.1,0.5,0,1.1,0.2,1.5c0.2,0.5,0.6,0.9,1.1,1.1c0.5,0.2,1,0.2,1.5,0.1c0.5-0.1,1-0.4,1.3-0.8
				c0.3-0.4,0.5-1,0.5-1.5C190.2,165.2,190.2,164.9,190.1,164.5z M189.1,166c0,0.2-0.1,0.5-0.3,0.7s-0.4,0.3-0.6,0.3
				c-0.3,0-0.5,0-0.8-0.1s-0.5-0.3-0.6-0.6s-0.2-0.6-0.1-1c0-0.3,0.1-0.6,0.3-0.9c0.2-0.2,0.5-0.4,0.8-0.4s0.6,0,0.9,0.3
				c0.2,0.2,0.3,0.4,0.4,0.7C189.1,165.4,189.1,165.7,189.1,166z"/>
			<path class="voice-for-companies-st30" d="M147.3,165c1.6,0,3.3,0,4.9,0c0,1.6,0,3.3,0,4.9h-4.9V165L147.3,165z"/>
			<path class="voice-for-companies-st31" d="M152.7,165c1.6,0,3.3,0,4.9,0c0,1.6,0,3.3,0,4.9h-4.9C152.7,168.3,152.7,166.6,152.7,165L152.7,165z"/>
		</g>
	</g>
	<g>
		<ellipse class="voice-for-companies-st32" cx="231.7" cy="137" rx="23.3" ry="23.3"/>
		<g>
			<circle class="voice-for-companies-st33" cx="217.9" cy="137" r="5.9"/>
			<path class="voice-for-companies-st33" d="M227.7,134.2c0.2,0,1-0.1,1.9,0.7c0,0,0.1,0.1,0,0.1l-0.5,0.6c0,0-0.1,0.1-0.1,0c-0.1-0.1-0.2-0.2-0.4-0.3
				c-0.3-0.1-0.6-0.3-0.9-0.3c-0.3,0-0.8,0.1-0.8,0.6c0,0.4,0.3,0.5,1.4,0.8c0.7,0.2,1.5,0.5,1.5,1.6c0,1-0.8,1.6-2,1.6
				c-0.7,0-1.6-0.3-2.2-0.9c0,0,0-0.1,0-0.1l0.5-0.6c0,0,0.1,0,0.1,0c0.2,0.2,0.8,0.6,1.6,0.6c0.9,0,0.9-0.6,0.9-0.6
				c0-0.2-0.1-0.4-0.6-0.6c-0.5-0.1-1.6-0.3-2-0.8c-0.3-0.3-0.3-0.7-0.3-0.9C225.8,135.3,226.2,134.2,227.7,134.2z"/>
			<path class="voice-for-companies-st33" d="M232.5,135.5c-0.8,0-1.3,0.6-1.3,0.6v-0.4c0-0.1,0-0.1-0.1-0.1h-0.9c-0.1,0-0.1,0-0.1,0.1v5.1
				c0,0.1,0,0.1,0.1,0.1h0.9c0.1,0,0.1,0,0.1-0.1v-1.6c0,0,0.4,0.6,1.3,0.6c0.7,0,1.9-0.6,1.9-2.1
				C234.4,136.1,233.3,135.5,232.5,135.5z M232.3,138.9c-0.6,0-1.1-0.5-1.1-1.2c0-0.4,0.3-1.2,1.1-1.2c0.8,0,1.1,0.6,1.1,1.2
				S233,138.9,232.3,138.9z"/>
			<path class="voice-for-companies-st33" d="M236.9,135.5c-1.3,0-2.2,1.1-2.2,2.1c0,1.1,0.9,2.1,2.2,2.1c1.3,0,2.2-1,2.2-2.1
				C239.1,136.6,238.2,135.5,236.9,135.5z M236.9,138.9c-0.5,0-1.1-0.5-1.1-1.2c0-0.8,0.5-1.2,1.1-1.2c0.5,0,1.1,0.4,1.1,1.2
				S237.4,138.9,236.9,138.9z"/>
			<path class="voice-for-companies-st33" d="M241.8,136.4v-0.7c0-0.1,0-0.1-0.1-0.1h-1v-1c0-0.1,0-0.1-0.1-0.1h-0.8c-0.1,0-0.1,0-0.1,0.1v1h-0.4
				c-0.1,0-0.1,0-0.1,0.1v0.7c0,0.1,0,0.1,0.1,0.1h0.4c0,0,0,1.6,0,2.1s0.2,1.2,1.1,1.2c0.4,0,0.8-0.1,0.9-0.2c0,0,0.1-0.1,0.1-0.1
				v-0.7c0-0.1-0.1-0.1-0.1-0.1c-0.1,0.1-0.3,0.1-0.5,0.1c-0.4,0-0.5-0.3-0.5-0.5s0-1.8,0-1.8L241.8,136.4
				C241.7,136.5,241.8,136.5,241.8,136.4z"/>
			<circle class="voice-for-companies-st33" cx="242.7" cy="134.5" r="0.6"/>
			<path class="voice-for-companies-st33" d="M243.1,139.7h-0.8c-0.1,0-0.1,0-0.1-0.1v-3.9c0-0.1,0-0.1,0.1-0.1h0.8c0.1,0,0.1,0,0.1,0.1L243.1,139.7
				C243.2,139.7,243.2,139.7,243.1,139.7z"/>
			<path class="voice-for-companies-st33" d="M244.2,136.5h-0.4c-0.1,0-0.1,0-0.1-0.1v-0.7c0-0.1,0-0.1,0.1-0.1h0.4c0,0,0-0.1,0-0.3s0-1.3,1.3-1.3
				c0.6,0,0.8,0.1,0.8,0.1s0,0.7,0,0.7s0,0.1-0.1,0.1c-0.1,0-0.3-0.1-0.5-0.1s-0.4,0.1-0.4,0.4c0,0.1,0,0.2,0,0.2h1.5
				c0,0,0.1,0,0.1,0.1l1.1,2.8l1-2.8c0,0,0.1-0.1,0.1-0.1h0.9c0,0,0.1,0,0.1,0.1c-0.2,0.6-1.5,3.8-1.6,4.2c-0.2,0.4-0.5,1.1-1.3,1.1
				c-0.5,0-0.8-0.2-1-0.3c0,0-0.1-0.1,0-0.1l0.3-0.7c0,0,0,0,0.1,0c0.1,0.1,0.3,0.2,0.5,0.2c0.3,0,0.5-0.4,0.5-0.4l-1.3-3.1h-0.9
				v3.1c0,0.1,0,0.1-0.1,0.1h-0.8c-0.1,0-0.1,0-0.1-0.1L244.2,136.5z"/>
			<g>
				<path class="voice-for-companies-st33" d="M250.5,135.9h0.3c0.1,0,0.2,0,0.2,0.1c0,0,0.1,0.1,0.1,0.2v0c0,0.1-0.1,0.2-0.1,0.2l0.2,0.2h-0.2l-0.1-0.2
					h0h-0.1v0.2h-0.1V135.9z M250.8,136.2c0.1,0,0.1,0,0.1-0.1v0c0-0.1,0-0.1-0.1-0.1h-0.1v0.2H250.8z"/>
			</g>
			<g>
				<path class="voice-for-companies-st33" d="M250.7,136.9c-0.4,0-0.6-0.3-0.6-0.6c0-0.4,0.3-0.6,0.6-0.6c0.4,0,0.6,0.3,0.6,0.6
					C251.4,136.6,251.1,136.9,250.7,136.9z M250.7,135.7c-0.3,0-0.6,0.3-0.6,0.6c0,0.3,0.3,0.6,0.6,0.6c0.3,0,0.6-0.3,0.6-0.6
					C251.3,135.9,251,135.7,250.7,135.7z"/>
			</g>
			<g>
				<path class="voice-for-companies-st0" d="M220.3,139.8c-0.1,0-0.1,0-0.2-0.1c-2.3-1.4-5.1-0.6-5.1-0.6c-0.2,0.1-0.4-0.1-0.5-0.3
					c-0.1-0.2,0.1-0.4,0.3-0.5c0.1,0,3.1-0.9,5.7,0.7c0.2,0.1,0.2,0.3,0.1,0.5C220.6,139.7,220.4,139.8,220.3,139.8z"/>
			</g>
			<g>
				<path class="voice-for-companies-st0" d="M221,138.2c-0.1,0-0.2,0-0.2-0.1c-2.9-1.7-5.9-0.7-5.9-0.7c-0.2,0.1-0.5,0-0.6-0.3c-0.1-0.2,0-0.5,0.3-0.6
					c0.1,0,3.4-1.1,6.6,0.8c0.2,0.1,0.3,0.4,0.2,0.6C221.3,138.1,221.1,138.2,221,138.2z"/>
			</g>
			<g>
				<path class="voice-for-companies-st0" d="M221.7,136.4c-0.1,0-0.2,0-0.3-0.1c-3.4-1.8-6.8-0.7-6.9-0.7c-0.3,0.1-0.6-0.1-0.7-0.4
					c-0.1-0.3,0.1-0.6,0.4-0.7c0.2-0.1,3.9-1.2,7.7,0.8c0.3,0.1,0.4,0.5,0.2,0.8C222.1,136.3,221.9,136.4,221.7,136.4z"/>
			</g>
		</g>
	</g>
	<g>
		<circle class="voice-for-companies-st11" cx="56" cy="77.9" r="26.5"/>
		<path class="voice-for-companies-st34" d="M49.3,66.9c1.9-0.8,4.2-1.2,6.5-1.2s4.4,0.4,6.3,1.2c-3.5,0.1-6.3,3-6.3,6.5C55.8,69.8,52.9,66.9,49.3,66.9z
			"/>
		<circle class="voice-for-companies-st35" cx="49.1" cy="73.4" r="1.1"/>
		<circle class="voice-for-companies-st36" cx="62.2" cy="73.4" r="1.1"/>
		<g>
			<path d="M49.3,70.2c-1.7,0-3.2,1.4-3.2,3.2c0,1.7,1.4,3.2,3.2,3.2c1.7,0,3.2-1.4,3.2-3.2C52.4,71.7,51,70.2,49.3,70.2z
				 M49.3,75.6c-1.2,0-2.2-1-2.2-2.2s1-2.2,2.2-2.2s2.2,1,2.2,2.2C51.4,74.6,50.5,75.6,49.3,75.6z M68.9,67h-4.3
				c-2.2-1.5-5.2-2.4-8.7-2.4S49.2,65.5,47,67h-4.1c0.7,0.8,1.2,1.9,1.3,2.6C43.4,70.7,43,72,43,73.4c0,3.6,2.9,6.5,6.5,6.5
				c2,0,3.8-0.9,5-2.4c0.5,0.6,1.3,1.7,1.5,2c0,0,0.9-1.4,1.5-2c1.2,1.5,3,2.4,5,2.4c3.6,0,6.5-2.9,6.5-6.5c0-1.4-0.5-2.7-1.2-3.8
				C67.7,68.9,68.2,67.8,68.9,67z M49.3,78.6c-2.9,0-5.2-2.3-5.2-5.2c0-2.9,2.3-5.2,5.2-5.2s5.2,2.3,5.2,5.2
				C54.6,76.3,52.2,78.6,49.3,78.6z M49.3,66.9c1.9-0.8,4.2-1.2,6.5-1.2s4.4,0.4,6.3,1.2c-3.5,0.1-6.3,3-6.3,6.5
				C55.8,69.8,52.9,66.9,49.3,66.9z M62.3,78.6c-2.9,0-5.2-2.3-5.2-5.2c0-2.9,2.3-5.2,5.2-5.2c2.9,0,5.2,2.3,5.2,5.2
				C67.5,76.3,65.2,78.6,62.3,78.6z M62.3,70.2c-1.7,0-3.2,1.4-3.2,3.2c0,1.7,1.4,3.2,3.2,3.2c1.7,0,3.2-1.4,3.2-3.2
				S64.1,70.2,62.3,70.2z M62.3,75.6c-1.2,0-2.2-1-2.2-2.2s1-2.2,2.2-2.2s2.2,1,2.2,2.2S63.5,75.6,62.3,75.6z"/>
			<g>
				<g>
					<path class="voice-for-companies-st19" d="M70.3,68.1h-0.2v-0.9h0.3c0.2,0,0.3,0,0.3,0.3c0,0.1,0,0.2-0.2,0.2l0.2,0.4h-0.2l-0.2-0.4h-0.1L70.3,68.1
						L70.3,68.1z M70.3,67.6c0.1,0,0.1,0,0.2,0s0.1-0.1,0.1-0.1c0-0.1,0-0.1-0.1-0.1c0,0-0.1,0-0.2,0V67.6z"/>
				</g>
				<path class="voice-for-companies-st19" d="M70.5,66.9c-0.4,0-0.8,0.4-0.8,0.8s0.4,0.8,0.8,0.8s0.8-0.4,0.8-0.8C71.3,67.2,70.9,66.9,70.5,66.9z
					 M70.5,68.3c-0.4,0-0.6-0.3-0.6-0.6c0-0.4,0.3-0.6,0.6-0.6c0.4,0,0.6,0.3,0.6,0.6S70.8,68.3,70.5,68.3z"/>
			</g>
		</g>
		<g>
			<g>
				<path class="voice-for-companies-st36" d="M75.7,86h-0.2v-0.9h0.3c0.2,0,0.3,0,0.3,0.3c0,0.1,0,0.2-0.2,0.2l0.2,0.4H76l-0.2-0.4h-0.1
					C75.7,85.6,75.7,86,75.7,86z M75.7,85.5c0.1,0,0.1,0,0.2,0s0.1-0.1,0.1-0.1c0-0.1,0-0.1-0.1-0.1c0,0-0.1,0-0.2,0V85.5z"/>
			</g>
			<path class="voice-for-companies-st36" d="M75.8,84.8c-0.4,0-0.8,0.4-0.8,0.8s0.4,0.8,0.8,0.8s0.8-0.4,0.8-0.8C76.6,85.2,76.3,84.8,75.8,84.8z
				 M75.8,86.3c-0.4,0-0.6-0.3-0.6-0.6c0-0.4,0.3-0.6,0.6-0.6c0.4,0,0.6,0.3,0.6,0.6C76.5,86,76.2,86.3,75.8,86.3z"/>
		</g>
		<g>
			<path class="voice-for-companies-st19" d="M38,85.9v-0.7h-1.2v-1.1L36,84.4v0.8h-0.7v0.7H36v2.3c0,1,0.4,1.5,1.2,1.5c0.3,0,0.5,0,0.8-0.1l0,0v-0.7
				l0,0c-0.1,0-0.3,0.1-0.5,0.1s-0.3-0.1-0.4-0.2C37,88.7,37,88.5,37,88.2V86L38,85.9L38,85.9z"/>
			<path class="voice-for-companies-st19" d="M41.1,85.1c-0.1,0-0.2,0-0.2,0c-0.3,0-0.5,0.1-0.8,0.3c-0.2,0.1-0.3,0.3-0.5,0.6v-0.7h-0.8l0,0
				c0,0.4,0,0.8,0,1.4v3h0.9v-2.3c0-0.4,0.1-0.8,0.3-1s0.5-0.3,0.8-0.3c0.1,0,0.2,0,0.3,0l0,0V85.1L41.1,85.1z"/>
			<g>
				<rect x="42" y="85.2" class="voice-for-companies-st19" width="0.9" height="4.4"/>
				<path class="voice-for-companies-st19" d="M42.4,84.5c0.2,0,0.3-0.1,0.4-0.2c0.1-0.1,0.2-0.2,0.2-0.4c0-0.2-0.1-0.3-0.2-0.4
					c-0.1-0.1-0.2-0.2-0.4-0.2s-0.3,0.1-0.4,0.2c-0.1,0.1-0.2,0.2-0.2,0.4c0,0.2,0.1,0.3,0.2,0.4C42.1,84.4,42.2,84.5,42.4,84.5z"/>
			</g>
			<path class="voice-for-companies-st19" d="M47.3,85.7c-0.4-0.4-0.8-0.6-1.3-0.6c-0.6,0-1.2,0.3-1.5,0.8v-0.7h-0.8v0.1c0,0.4,0,0.8,0,1.4v4.8h0.9v-2.3
				c0.1,0.2,0.3,0.3,0.5,0.4s0.5,0.2,0.8,0.2c0.6,0,1.1-0.2,1.4-0.7c0.4-0.4,0.6-1,0.6-1.7C47.8,86.7,47.6,86.1,47.3,85.7z
				 M45.1,86.1c0.2-0.1,0.4-0.2,0.6-0.2c0.4,0,0.7,0.1,0.9,0.4s0.3,0.7,0.3,1.1c0,0.5-0.1,0.9-0.3,1.2C46.3,88.8,46,89,45.7,89
				s-0.6-0.1-0.8-0.3c-0.2-0.2-0.3-0.5-0.3-0.8v-0.7c0-0.1,0-0.3,0.1-0.5C44.7,86.4,44.9,86.2,45.1,86.1z"/>
			<path class="voice-for-companies-st36" d="M51.9,89.6c0-0.3-0.1-0.6-0.1-1V87c0-0.6-0.1-1.1-0.4-1.4c-0.3-0.3-0.7-0.5-1.3-0.5s-1.1,0.1-1.5,0.4l0,0
				l0.2,0.6l0,0c0.3-0.2,0.7-0.3,1.2-0.3c0.3,0,0.6,0.1,0.7,0.2c0.2,0.2,0.2,0.4,0.2,0.7l0,0c-0.9,0-1.5,0.1-2,0.4s-0.7,0.7-0.7,1.2
				c0,0.4,0.1,0.7,0.4,0.9c0.3,0.3,0.6,0.4,1,0.4c0.6,0,1-0.2,1.4-0.6l0.1,0.5L51.9,89.6L51.9,89.6z M50.6,88.7
				c-0.2,0.2-0.5,0.3-0.8,0.3c-0.2,0-0.4-0.1-0.5-0.2s-0.2-0.3-0.2-0.5c0-0.3,0.1-0.5,0.4-0.7c0.3-0.2,0.7-0.2,1.4-0.2v0.7
				C50.9,88.3,50.8,88.6,50.6,88.7z"/>
			<path class="voice-for-companies-st36" d="M56.5,89.6L56.5,89.6c0-0.3,0-0.7,0-1.2v-5.3h-0.9v2.5c-0.1-0.1-0.3-0.3-0.4-0.4C55,85.1,54.7,85,54.4,85
				c-0.6,0-1,0.2-1.4,0.7c-0.4,0.4-0.6,1-0.6,1.7c0,0.6,0.2,1.2,0.5,1.6c0.4,0.4,0.8,0.6,1.4,0.6c0.3,0,0.6-0.1,0.9-0.2
				c0.2-0.1,0.4-0.3,0.5-0.5v0.6h0.8C56.5,89.5,56.5,89.6,56.5,89.6z M55.5,87v0.7c0,0.4-0.1,0.7-0.3,0.9c-0.2,0.2-0.5,0.3-0.8,0.3
				c-0.4,0-0.7-0.1-0.9-0.4s-0.3-0.7-0.3-1.1c0-0.5,0.1-0.9,0.3-1.1c0.2-0.3,0.5-0.4,0.9-0.4c0.3,0,0.6,0.1,0.8,0.3
				C55.4,86.4,55.5,86.7,55.5,87z"/>
			<path class="voice-for-companies-st36" d="M60.2,85.2c0,0-1.1,2.3-1.2,2.6c-0.1-0.3-1.2-2.6-1.2-2.6h-1l2.2,4.4l2.2-4.4H60.2z"/>
			<g>
				<rect x="61.6" y="85.2" class="voice-for-companies-st36" width="0.9" height="4.4"/>
				<path class="voice-for-companies-st36" d="M62.1,84.5c0.2,0,0.3-0.1,0.4-0.2c0.1-0.1,0.2-0.2,0.2-0.4c0-0.2-0.1-0.3-0.2-0.4
					c-0.1-0.1-0.2-0.2-0.4-0.2s-0.3,0.1-0.4,0.2c-0.1,0.1-0.2,0.2-0.2,0.4c0,0.2,0.1,0.3,0.2,0.4S61.9,84.5,62.1,84.5z"/>
			</g>
			<path class="voice-for-companies-st36" d="M66.1,87.6c-0.2-0.2-0.5-0.4-0.9-0.5c-0.3-0.1-0.6-0.2-0.7-0.3c-0.1-0.1-0.2-0.2-0.2-0.4
				c0-0.2,0.1-0.3,0.2-0.4s0.3-0.2,0.5-0.2c0.3,0,0.6,0.1,0.9,0.3l0,0l0.2-0.7l0,0c-0.3-0.2-0.7-0.3-1.1-0.3c-0.5,0-0.9,0.1-1.2,0.4
				s-0.4,0.6-0.4,1c0,0.6,0.4,1,1.2,1.3c0.3,0.1,0.5,0.2,0.6,0.3c0.1,0.1,0.2,0.2,0.2,0.4c0,0.2-0.1,0.3-0.2,0.4
				c0,0.1-0.2,0.1-0.5,0.1c-0.4,0-0.7-0.1-1.1-0.3l0,0l-0.2,0.7l0,0c0.4,0.2,0.8,0.3,1.3,0.3s0.9-0.1,1.3-0.4c0.3-0.2,0.5-0.6,0.5-1
				C66.4,88,66.3,87.8,66.1,87.6z"/>
			<path class="voice-for-companies-st36" d="M70.6,85.7c-0.4-0.4-0.9-0.6-1.5-0.6s-1.2,0.2-1.6,0.6s-0.6,1-0.6,1.7s0.2,1.2,0.6,1.6s0.9,0.6,1.5,0.6
				c0.4,0,0.8-0.1,1.1-0.3c0.3-0.2,0.6-0.5,0.8-0.8c0.2-0.4,0.3-0.8,0.3-1.2C71.2,86.7,71,86.2,70.6,85.7z M69,89
				c-0.4,0-0.6-0.2-0.9-0.5c-0.2-0.3-0.4-0.7-0.4-1.2s0.1-0.9,0.3-1.2c0.2-0.3,0.5-0.5,0.9-0.5s0.7,0.2,0.9,0.5
				c0.2,0.3,0.3,0.7,0.3,1.1c0,0.5-0.1,0.9-0.4,1.2C69.7,88.9,69.4,89,69,89z"/>
			<path class="voice-for-companies-st36" d="M74.2,85.1c-0.1,0-0.2,0-0.2,0c-0.3,0-0.5,0.1-0.8,0.3c-0.2,0.1-0.3,0.3-0.5,0.6v-0.7h-0.8l0,0
				c0,0.4,0,0.8,0,1.4v3h0.9v-2.3c0-0.4,0.1-0.8,0.3-1c0.2-0.2,0.5-0.3,0.8-0.3c0.1,0,0.2,0,0.3,0l0,0L74.2,85.1L74.2,85.1z"/>
		</g>
	</g>
	<g>
		<circle class="voice-for-companies-st11" cx="315.8" cy="120.9" r="23.5"/>
		<path class="voice-for-companies-st37" d="M330.4,111.8c-1.1,0.5-2.2,0.8-3.4,0.9c1.2-0.7,2.2-1.9,2.6-3.3c-1.2,0.7-2.4,1.2-3.8,1.5
			c-1.1-1.2-2.6-1.9-4.4-1.9c-3.3,0-6,2.7-6,6c0,0.5,0.1,0.9,0.2,1.4c-5-0.2-9.4-2.6-12.3-6.2c-0.5,0.9-0.8,1.9-0.8,3
			c0,2.1,1.1,3.9,2.7,5c-1,0-1.9-0.3-2.7-0.7c0,0,0,0,0,0.1c0,2.9,2.1,5.3,4.8,5.9c-0.5,0.1-1,0.2-1.6,0.2c-0.4,0-0.8,0-1.1-0.1
			c0.8,2.4,3,4.1,5.6,4.2c-2,1.6-4.6,2.6-7.4,2.6c-0.5,0-1,0-1.4-0.1c2.6,1.7,5.8,2.7,9.2,2.7c11,0,17-9.1,17-17c0-0.3,0-0.5,0-0.8
			C328.6,114.1,329.6,113,330.4,111.8L330.4,111.8z"/>
	</g>
	<g>
		
			<ellipse transform="matrix(0.8191 -0.5737 0.5737 0.8191 2.6911 161.5192)" class="voice-for-companies-st38" cx="257.4" cy="76.5" rx="27.2" ry="27.2"/>
		<g>
			<path class="voice-for-companies-st19" d="M239.5,82L239.5,82l1.4-4.7c0.1-0.5,0.5-1.1,1-0.9c0.8,0.2,0.8,0.5,0.8,0.7s-0.1,0.4-0.2,0.7l-2.2,7.1
				c-0.5,1.4-1.1,2.2-2.5,2.2c-1,0-1.4-0.5-1.4-1c0-0.6,0.6-0.8,1.2-0.8h0.2c0.3,0,0.6-0.2,0.8-0.8l-3-6.1c-0.2-0.5-0.3-0.7-0.3-1
				c0-0.6,0.1-0.7,0.7-0.9c0.4-0.2,1,0.3,1.1,0.8L239.5,82L239.5,82z"/>
			<path class="voice-for-companies-st19" d="M256.8,77.3c0-0.7,0.3-1,0.9-1s0.9,0.4,0.9,1v0.3l0,0c0.3-0.9,1.1-1.4,2.1-1.4c1.7,0,3.1,1.3,3.1,4.1
				c0,2.1-1,4-3.1,4c-0.9,0-1.6-0.4-2-1.1l0,0v2.9c0,0.7-0.4,1.1-1,1.1s-1-0.4-1-1.1v-8.8H256.8z M261.2,77.8
				c-1.2,0-1.7,1.2-1.7,2.6c0,1.2,0.4,2.7,1.7,2.7c1.3,0,1.7-1.5,1.7-2.7C262.8,79,262.3,77.8,261.2,77.8L261.2,77.8z"/>
			<path class="voice-for-companies-st19" d="M252.5,74.8c0-0.7,0.4-1.1,1-1.1s1,0.4,1,1.1v9c0,0.7-0.4,1.1-1,1.1s-1-0.4-1-1.1V74.8L252.5,74.8z"/>
			<path class="voice-for-companies-st19" d="M245.6,81.1c0,1.2,0.6,2,1.7,2c1.4,0,1.4-1.1,2.2-1.1c0.4,0,0.8,0.5,0.8,0.9c0,1.3-1.8,2-2.9,2
				c-2.6,0-3.6-2.1-3.6-4c0-2.6,1.3-4.3,3.5-4.3s3.4,1.8,3.4,3.6c0,0.8-0.2,1-0.8,1L245.6,81.1L245.6,81.1z M248.6,79.9
				c-0.1-1.1-0.8-2-1.7-2c-1,0-1.6,0.8-1.8,2H248.6L248.6,79.9z"/>
			<path class="voice-for-companies-st39" d="M279.3,69.6c-0.1,0.2-0.2,0.3-0.3,0.5c-0.1,0.1-0.3,0.2-0.5,0.3c-0.2,0.1-0.4,0.1-0.6,0.1s-0.4,0-0.6-0.1
				s-0.3-0.2-0.5-0.3c-0.1-0.1-0.2-0.3-0.3-0.5c-0.1-0.2-0.1-0.4-0.1-0.6s0-0.4,0.1-0.6s0.2-0.3,0.3-0.5c0.1-0.1,0.3-0.2,0.5-0.3
				c0.2-0.1,0.4-0.1,0.6-0.1s0.4,0,0.6,0.1s0.3,0.2,0.5,0.3c0.1,0.1,0.2,0.3,0.3,0.5c0.1,0.2,0.1,0.4,0.1,0.6S279.4,69.4,279.3,69.6
				L279.3,69.6z M279.1,68.5c-0.1-0.2-0.1-0.3-0.3-0.4c-0.1-0.1-0.2-0.2-0.4-0.3c-0.1-0.1-0.3-0.1-0.5-0.1s-0.3,0-0.5,0.1
				c-0.1,0.1-0.3,0.2-0.4,0.3c-0.1,0.1-0.2,0.2-0.3,0.4c-0.1,0.2-0.1,0.3-0.1,0.5s0,0.3,0.1,0.5s0.1,0.3,0.3,0.4
				c0.1,0.1,0.2,0.2,0.4,0.3c0.1,0.1,0.3,0.1,0.5,0.1s0.3,0,0.5-0.1c0.1-0.1,0.3-0.2,0.4-0.3c0.1-0.1,0.2-0.2,0.3-0.4
				c0.1-0.2,0.1-0.3,0.1-0.5C279.2,68.9,279.2,68.7,279.1,68.5L279.1,68.5z M278.4,69.9c0-0.1-0.1-0.2-0.1-0.4
				c0-0.1-0.1-0.2-0.1-0.2c-0.1,0-0.1-0.1-0.3-0.1h-0.2v0.7h-0.2v-1.6c0.1,0,0.1,0,0.2,0s0.1,0,0.2,0s0.2,0,0.3,0
				c0.1,0,0.1,0.1,0.2,0.1c0.1,0.1,0.1,0.2,0.1,0.3c0,0.1,0,0.2-0.1,0.3c-0.1,0.1-0.1,0.1-0.2,0.1l0,0c0.1,0,0.2,0.2,0.3,0.4
				c0,0.1,0,0.2,0.1,0.3c0,0.1,0,0.1,0.1,0.1L278.4,69.9L278.4,69.9z M278.2,68.5c-0.1-0.1-0.2-0.1-0.3-0.1h-0.1h-0.1V69h0.2
				c0.1,0,0.2,0,0.3-0.1c0.1,0,0.1-0.1,0.1-0.2C278.3,68.6,278.3,68.6,278.2,68.5L278.2,68.5z"/>
			<path class="voice-for-companies-st39" d="M272,75.7c-0.3,0.3,0,0.8,0,0.8l2,3.3c0,0,0.3,0.4,0.6,0.4c0.3,0,0.6-0.2,0.6-0.2l1.6-2.3
				c0,0,0.2-0.3,0.2-0.5c0-0.4-0.5-0.5-0.5-0.5l-3.7-1.2C272.6,75.6,272.2,75.5,272,75.7L272,75.7z"/>
			<path class="voice-for-companies-st39" d="M271.8,74c0.2,0.3,0.7,0.2,0.7,0.2l3.7-1.1c0,0,0.5-0.2,0.6-0.5s-0.1-0.6-0.1-0.6l-1.8-2.1
				c0,0-0.2-0.3-0.5-0.3c-0.4,0-0.6,0.4-0.6,0.4l-2.1,3.3C271.8,73.4,271.6,73.7,271.8,74L271.8,74z"/>
			<path class="voice-for-companies-st39" d="M270,72.7c0.4-0.1,0.5-0.7,0.5-0.7v-5.3c0,0-0.1-0.7-0.4-0.8c-0.5-0.3-0.6-0.1-0.7-0.1l-3.1,1.2
				c0,0-0.3,0.1-0.5,0.4c-0.2,0.4,0.2,0.9,0.2,0.9l3.2,4.4C269.3,72.5,269.6,72.8,270,72.7L270,72.7z"/>
			<path class="voice-for-companies-st39" d="M269.2,74.9c0-0.4-0.5-0.7-0.5-0.7l-3.3-1.7c0,0-0.5-0.2-0.7-0.1s-0.3,0.3-0.4,0.5l-0.2,2.7
				c0,0,0,0.5,0.1,0.7c0.2,0.3,0.7,0.1,0.7,0.1l3.9-0.9C269,75.5,269.2,75.4,269.2,74.9L269.2,74.9z"/>
			<path class="voice-for-companies-st39" d="M270.2,76.3c-0.3-0.2-0.7,0.2-0.7,0.2l-2.6,2.9c0,0-0.3,0.4-0.2,0.7c0.1,0.3,0.2,0.4,0.4,0.5l2.6,0.8
				c0,0,0.3,0.1,0.6,0c0.3-0.1,0.3-0.6,0.3-0.6l0.1-3.9C270.5,76.9,270.5,76.5,270.2,76.3L270.2,76.3z"/>
		</g>
	</g>
	<g>
		<circle class="voice-for-companies-st40" cx="379.1" cy="159.2" r="26.9"/>
		<g>
			<path class="voice-for-companies-st0" d="M362.5,169.9c0-0.3-0.3-0.8-0.8-0.8s-0.8,0.4-0.8,0.9s0.4,0.9,1,0.9h1.2c-0.3,0.4-0.8,0.7-1.3,0.7
				c-0.9,0-1.6-0.7-1.6-1.6c0-0.9,0.7-1.6,1.6-1.6s1.6,0.7,1.6,1.6c0,0.2,0,0.3-0.1,0.5h-1.8v-0.2h0.6
				C362.4,170.3,362.5,170.2,362.5,169.9"/>
			<polygon class="voice-for-companies-st0" points="364.6,169.4 365.2,168.5 366.1,168.5 365.1,170 366.2,171.5 365.3,171.5 364.6,170.6 363.9,171.5 
				363.1,171.5 364.2,170 363.1,168.5 364,168.5 			"/>
			<path class="voice-for-companies-st0" d="M367.1,169.1c0.2-0.5,0.6-0.7,1-0.7c0.7,0,1.4,0.6,1.4,1.6s-0.7,1.6-1.4,1.6c-0.4,0-0.8-0.2-1-0.7l0,0v1.8
				h-0.8v-4.2h0.8V169.1C367.1,169.1,367.1,169.2,367.1,169.1 M367.9,171c0.5,0,0.8-0.4,0.8-0.9s-0.4-0.9-0.8-0.9s-0.8,0.4-0.8,0.9
				S367.5,171,367.9,171"/>
			<path class="voice-for-companies-st0" d="M372.2,169.9c0-0.3-0.3-0.8-0.8-0.8s-0.8,0.4-0.8,0.9s0.4,0.9,1,0.9h1.2c-0.3,0.4-0.8,0.7-1.3,0.7
				c-0.9,0-1.6-0.7-1.6-1.6c0-0.9,0.7-1.6,1.6-1.6s1.6,0.7,1.6,1.6c0,0.2,0,0.3-0.1,0.5h-1.8v-0.2h0.6
				C372,170.3,372.2,170.2,372.2,169.9"/>
			<path class="voice-for-companies-st0" d="M375.6,170.9c-0.2,0.5-0.6,0.7-1,0.7c-0.7,0-1.4-0.6-1.4-1.6s0.7-1.6,1.4-1.6c0.4,0,0.8,0.2,1,0.7l0,0v-1.9
				h0.8v4.3h-0.8V170.9L375.6,170.9 M374.8,169.1c-0.5,0-0.8,0.4-0.8,0.9c0,0.6,0.4,0.9,0.8,0.9s0.8-0.4,0.8-0.9
				C375.6,169.5,375.2,169.1,374.8,169.1"/>
			<path class="voice-for-companies-st0" d="M376.9,167.7c0-0.2,0.2-0.5,0.5-0.5c0.2,0,0.5,0.2,0.5,0.5s-0.2,0.5-0.5,0.5
				C377.1,168.1,376.9,167.9,376.9,167.7 M377.7,171.5H377v-3h0.8L377.7,171.5L377.7,171.5z"/>
			<path class="voice-for-companies-st0" d="M380.5,170.9c-0.2,0.5-0.6,0.7-1,0.7c-0.7,0-1.4-0.6-1.4-1.6s0.7-1.6,1.4-1.6c0.4,0,0.8,0.2,1,0.7l0,0v-0.6
				h0.8v3h-0.8V170.9C380.6,170.9,380.5,170.9,380.5,170.9 M379.7,169.1c-0.5,0-0.8,0.4-0.8,0.9c0,0.6,0.4,0.9,0.8,0.9
				s0.8-0.4,0.8-0.9C380.6,169.5,380.2,169.1,379.7,169.1"/>
			<path class="voice-for-companies-st0" d="M385.2,170.9L385.2,170.9c-0.3,0.5-0.6,0.7-1,0.7c-0.7,0-1.4-0.6-1.4-1.6s0.7-1.6,1.4-1.6
				c0.4,0,0.8,0.2,1,0.7l0,0v-0.6h0.8v2.8c0,0.8-0.6,1.5-1.6,1.5c-0.6,0-1-0.2-1.4-0.5l0.5-0.5c0.3,0.2,0.6,0.4,0.9,0.4
				c0.6,0,0.8-0.4,0.8-0.9L385.2,170.9L385.2,170.9z M384.4,169.1c-0.4,0-0.8,0.4-0.8,0.9s0.4,0.9,0.8,0.9s0.8-0.4,0.8-0.9
				C385.2,169.5,384.8,169.1,384.4,169.1"/>
			<path class="voice-for-companies-st0" d="M387.3,168.5v0.7l0,0c0.1-0.5,0.3-0.7,0.7-0.7h0.1v0.8h-0.3c-0.3,0-0.5,0.2-0.5,0.6v1.7h-0.8v-3h0.8
				L387.3,168.5L387.3,168.5z"/>
			<path class="voice-for-companies-st0" d="M389.8,168.4c0.9,0,1.6,0.7,1.6,1.6c0,0.9-0.7,1.6-1.6,1.6s-1.6-0.7-1.6-1.6
				C388.2,169.2,388.9,168.4,389.8,168.4 M389.8,169.1c-0.5,0-0.8,0.4-0.8,0.9s0.4,0.9,0.8,0.9c0.5,0,0.8-0.4,0.8-0.9
				C390.6,169.5,390.2,169.1,389.8,169.1"/>
			<path class="voice-for-companies-st0" d="M393,171.6c-0.8,0-1.2-0.5-1.2-1.1v-2h0.8v1.9c0,0.3,0.2,0.5,0.5,0.5s0.5-0.2,0.5-0.5v-1.9h0.8v2
				C394.2,171.2,393.7,171.6,393,171.6"/>
			<path class="voice-for-companies-st0" d="M395.6,169.1c0.2-0.5,0.6-0.7,1-0.7c0.7,0,1.4,0.6,1.4,1.6s-0.7,1.6-1.4,1.6c-0.4,0-0.8-0.2-1-0.7l0,0v1.8
				h-0.8v-4.2h0.8V169.1C395.6,169.1,395.6,169.2,395.6,169.1 M396.4,171c0.5,0,0.8-0.4,0.8-0.9s-0.4-0.9-0.8-0.9s-0.8,0.4-0.8,0.9
				C395.5,170.6,395.9,171,396.4,171"/>
			<path class="voice-for-companies-st0" d="M384.7,153c0-2.2-2-5.3-5.8-5.3c-3.5,0-5.8,3-5.8,6c0,3.7,2.5,6.3,6.9,6.3h8.2c-1.9,3-5.3,5-9.2,5
				c-6.1,0-11.1-5-11.1-11.1s5-11.1,11.1-11.1s11.1,5,11.1,11.1c0,1.2-0.2,2.4-0.5,3.5h-12.4v-1.2l4.4-0.1
				C383.7,155.9,384.7,154.8,384.7,153"/>
			<polygon class="voice-for-companies-st0" points="387.3,164.1 387.3,164.3 387,164.3 387,165 386.8,165 386.8,164.3 386.5,164.3 386.5,164.1 			"/>
			<path class="voice-for-companies-st0" d="M388,164.1h0.3v0.9h-0.2v-0.6c0,0,0,0,0-0.1L388,164.1l-0.1,0.9h-0.2l-0.2-0.8c0,0,0,0,0,0.1v0.1v0.6h-0.2
				v-0.9h0.3l0.2,0.7L388,164.1L388,164.1z"/>
			<polygon class="voice-for-companies-st0" points="398.8,168.5 398.8,168.6 398.6,168.6 398.6,169 398.6,169 398.6,168.6 398.4,168.6 398.4,168.5 			
				"/>
			<path class="voice-for-companies-st0" d="M399.1,168.5h0.1v0.5h-0.1v-0.3l0,0C399.2,168.6,399.2,168.6,399.1,168.5v0.5H399l-0.1-0.4l0,0l0,0v0.3h-0.1
				v-0.5h0.1l0.1,0.4L399.1,168.5L399.1,168.5z"/>
		</g>
	</g>
	<g>
		<circle class="voice-for-companies-st41" cx="99.4" cy="35.3" r="28"/>
		<g>
			<path d="M79.5,39.7c0.5-0.8,1.1-1.1,2-1.2c0.9,0,1.5,0.4,2,1.2c0.1-0.2,0.2-0.3,0.4-0.5c0.5-0.5,1.1-0.7,1.8-0.7
				c0.4,0,0.8,0.1,1.1,0.2c0.5,0.3,0.8,0.7,1,1.3c0.1,0.3,0.1,0.7,0.1,1c0,1.4,0,2.9,0,4.3c0,0.1,0,0.1-0.1,0.1c-0.6,0-1.2,0-1.9,0
				c-0.2,0-0.1,0-0.1-0.1c0-1.3,0-2.6,0-3.8c0-0.2,0-0.3,0-0.5c-0.1-0.5-0.5-0.7-1-0.7s-0.7,0.3-0.9,0.7c-0.1,0.2-0.1,0.5-0.1,0.7
				c0,1.2,0,2.4,0,3.6c0,0.1,0,0.1-0.1,0.1c-0.6,0-1.3,0-1.9,0c-0.1,0-0.1,0-0.1-0.1c0-1.3,0-2.6,0-3.9c0-0.1,0-0.3-0.1-0.4
				c-0.1-0.5-0.5-0.7-1-0.7c-0.4,0-0.6,0.2-0.8,0.5c-0.1,0.3-0.2,0.5-0.2,0.8c0,1.2,0,2.4,0,3.6c0,0.2,0,0.1-0.1,0.1
				c-0.6,0-1.3,0-1.9,0c-0.1,0-0.1,0-0.1-0.1c0-2.2,0-4.3,0-6.5c0-0.1,0-0.1,0.1-0.1c0.6,0,1.2,0,1.8,0c0.1,0,0.1,0,0.1,0.1
				C79.5,39.1,79.5,39.4,79.5,39.7C79.5,39.6,79.5,39.7,79.5,39.7z"/>
			<path d="M100.7,44.6c-0.2,0.4-0.5,0.7-0.9,0.9s-0.8,0.3-1.2,0.2c-0.8,0-1.5-0.3-2-1c-0.4-0.5-0.6-1-0.7-1.6
				c-0.2-0.9-0.2-1.7,0.1-2.6c0.3-0.7,0.7-1.4,1.4-1.7c0.7-0.4,1.5-0.4,2.3-0.1c0.3,0.1,0.6,0.4,0.8,0.7l0.1,0.1l0,0v-0.1
				c0-1,0-1.9,0-2.9c0-0.1,0-0.1,0.1-0.1c0.6,0,1.3,0,1.9,0c0.1,0,0.1,0,0.1,0.1c0,3,0,5.9,0,8.9c0,0.1,0,0.1-0.1,0.1
				c-0.6,0-1.2,0-1.8,0c-0.1,0-0.1,0-0.1-0.1C100.7,45.1,100.7,44.8,100.7,44.6L100.7,44.6z M97.9,42c0,0.4,0,0.7,0.2,1.1
				c0.1,0.3,0.3,0.6,0.7,0.8c0.6,0.3,1.3,0,1.6-0.6c0.2-0.3,0.2-0.6,0.3-1c0-0.5,0-1-0.2-1.4c-0.2-0.5-0.6-0.7-1.1-0.8
				c-0.5,0-0.9,0.3-1.1,0.7C98,41.2,97.9,41.6,97.9,42z"/>
			<path class="voice-for-companies-st42" d="M110.6,44.7c-0.2,0.2-0.4,0.4-0.6,0.6c-0.3,0.2-0.7,0.3-1.1,0.3c-0.5,0-0.9,0-1.3-0.2c-0.8-0.3-1.3-1-1.3-2
				c0-0.9,0.4-1.4,1.3-1.7c0.4-0.2,0.9-0.2,1.3-0.3s0.8-0.1,1.1-0.2c0.1,0,0.1,0,0.2-0.1c0.3-0.1,0.4-0.4,0.3-0.8
				c-0.1-0.2-0.3-0.3-0.5-0.4c-0.3-0.1-0.5-0.1-0.8,0c-0.4,0.1-0.6,0.3-0.6,0.7c0,0.1,0,0.1-0.1,0.1c-0.6,0-1.2,0-1.8,0
				c-0.1,0-0.1,0-0.1-0.1c0.1-0.9,0.5-1.5,1.3-1.8c0.5-0.2,1-0.3,1.5-0.3c0.6,0,1.2,0,1.7,0.2c0.9,0.3,1.5,1,1.6,2
				c0,0.4,0,0.9,0,1.3c0,0.8,0,1.6,0,2.4c0,0.2,0,0.4,0,0.5s0.1,0.3,0.2,0.4v0.1h-0.1c-0.6,0-1.3,0-1.9,0c-0.1,0-0.1,0-0.1-0.1
				c-0.1-0.2-0.1-0.4-0.2-0.5C110.6,44.8,110.6,44.7,110.6,44.7z M110.6,42.2c-0.5,0.2-0.9,0.3-1.4,0.4c-0.2,0.1-0.4,0.1-0.6,0.2
				c-0.3,0.2-0.3,0.4-0.3,0.7s0.2,0.4,0.4,0.5c0.3,0.1,0.5,0.1,0.8,0c0.6-0.1,0.9-0.5,1-1.1C110.6,42.8,110.6,42.6,110.6,42.2z"/>
			<path class="voice-for-companies-st42" d="M90.5,42.6c0.1,0.8,0.5,1.3,1.1,1.4c0.3,0.1,0.5,0.1,0.8,0s0.5-0.3,0.7-0.5c0-0.1,0.1-0.1,0.1-0.1
				c0.6,0,1.3,0,1.9,0c0.1,0,0.1,0,0.1,0.1c-0.2,0.7-0.7,1.3-1.4,1.7c-0.5,0.3-1,0.4-1.6,0.5c-0.6,0-1.2,0-1.8-0.3
				c-1.1-0.5-1.8-1.3-2-2.4c-0.2-0.8-0.1-1.6,0.2-2.4c0.5-1.1,1.3-1.8,2.5-2c0.7-0.1,1.4-0.1,2.1,0.2c0.8,0.4,1.4,1,1.7,1.9
				c0.2,0.6,0.3,1.2,0.3,1.9c0,0.1-0.1,0.1-0.1,0.1c-1.5,0-3.1,0-4.6,0C90.5,42.6,90.5,42.6,90.5,42.6z M91.8,41.3
				c0.4,0,0.8,0,1.2,0c0.1,0,0.1,0,0.1-0.1S93,40.9,93,40.8c-0.3-0.9-1.5-1.1-2.1-0.4c-0.2,0.2-0.3,0.5-0.4,0.8c0,0.1,0,0.1,0.1,0.1
				C91,41.3,91.4,41.3,91.8,41.3z"/>
			<path class="voice-for-companies-st42" d="M89.3,33.3c0,0.3-0.2,0.5-0.3,0.8c-0.4,0.6-1,1-1.7,1.3c-0.8,0.3-1.7,0.3-2.5,0c-1-0.3-1.7-1.1-2-2.1
				s-0.3-2,0.2-3s1.3-1.6,2.4-1.8c0.8-0.1,1.5-0.1,2.2,0.2c0.8,0.4,1.4,1.1,1.7,1.9c0.2,0.5,0.2,1,0.3,1.5c0,0.1,0,0.2,0,0.3
				s0,0.1-0.1,0.1h-0.1c-1.5,0-3,0-4.5,0c-0.2,0-0.2,0-0.1,0.2c0.1,0.4,0.2,0.8,0.6,1c0.5,0.3,1.1,0.4,1.6,0.1
				c0.2-0.1,0.4-0.3,0.5-0.5c0,0,0-0.1,0.1-0.1C88,33.3,88.6,33.3,89.3,33.3L89.3,33.3z M85.9,31.2c0.4,0,0.7,0,1.1,0
				c0.3,0,0.3,0,0.2-0.3c-0.3-1-1.5-1.4-2.2-0.7c-0.3,0.2-0.4,0.6-0.5,0.9c0,0.1,0,0.1,0.1,0.1C85.1,31.2,85.5,31.2,85.9,31.2z"/>
			<path class="voice-for-companies-st42" d="M112.8,29.5c0.1-0.2,0.3-0.4,0.5-0.5c0.5-0.4,1.1-0.6,1.8-0.6c0.4,0,0.8,0.1,1.1,0.3c0.6,0.4,0.9,0.9,1,1.5
				c0.1,0.2,0.1,0.5,0.1,0.7c0,1.4,0,2.8,0,4.2c0,0.2,0,0.1-0.1,0.1c-0.6,0-1.2,0-1.8,0c-0.1,0-0.1,0-0.1-0.1c0-1.3,0-2.6,0-3.9
				c0-0.2,0-0.3-0.1-0.5c-0.1-0.5-0.6-0.8-1.1-0.8c-0.5,0.1-0.9,0.4-1.1,1c0,0.2-0.1,0.3-0.1,0.5c0,1.2,0,2.4,0,3.6
				c0,0.1,0,0.1-0.1,0.1c-0.6,0-1.2,0-1.8,0c-0.1,0-0.1,0-0.1-0.1c0-2.2,0-4.3,0-6.5c0-0.1,0-0.1,0.1-0.1c0.6,0,1.2,0,1.8,0
				c0.1,0,0.1,0,0.1,0.1c0,0.2,0,0.5,0,0.7C112.8,29.4,112.8,29.5,112.8,29.5z"/>
			<path class="voice-for-companies-st42" d="M103.2,32c0-0.9,0.2-1.6,0.8-2.3c0.6-0.7,1.4-1.1,2.3-1.2c0.7-0.1,1.4,0,2.1,0.3c1,0.5,1.6,1.3,1.9,2.4
				c0.2,0.8,0.1,1.6-0.2,2.4c-0.5,1.1-1.3,1.8-2.4,2c-0.9,0.2-1.7,0.1-2.5-0.3c-1-0.5-1.6-1.3-1.9-2.4
				C103.2,32.6,103.2,32.3,103.2,32z M105.3,32c0,0.4,0.1,0.8,0.2,1.2c0.4,0.8,1.2,1,1.9,0.7c0.4-0.2,0.6-0.5,0.8-0.9
				c0.2-0.7,0.2-1.4,0-2c-0.1-0.3-0.2-0.5-0.4-0.7c-0.5-0.5-1.8-0.6-2.2,0.5C105.3,31.1,105.3,31.6,105.3,32z"/>
			<path class="voice-for-companies-st42" d="M100.5,30.2C100.4,30.2,100.4,30.2,100.5,30.2c-1.1,0-2,0-3,0c-0.1,0-0.1,0-0.1-0.1c0-0.5,0-0.9,0-1.4
				c0-0.1,0-0.1,0.1-0.1c1.8,0,3.6,0,5.4,0c0.1,0,0.1,0,0.1,0.1c0,0.4,0,0.9,0,1.3c0,0.1,0,0.1-0.1,0.2c-1,1.1-2,2.2-2.9,3.3
				l-0.1,0.1c0.1,0,0.1,0,0.1,0c1,0,2,0,3,0c0.1,0,0.1,0,0.1,0.1c0,0.5,0,0.9,0,1.4c0,0.1,0,0.1-0.1,0.1c-1.9,0-3.7,0-5.6,0
				c-0.1,0-0.1,0-0.1-0.1c0-0.5,0-0.9,0-1.4c0-0.1,0-0.1,0.1-0.2C98.4,32.6,99.4,31.4,100.5,30.2C100.5,30.3,100.5,30.3,100.5,30.2z
				"/>
			<path class="voice-for-companies-st42" d="M76.1,28.6c0.1,0,0.2,0,0.3,0c0.6,0,1.1,0,1.7,0c0.1,0,0.1,0,0.2,0.1c0.4,1.4,0.8,2.8,1.3,4.1v0.1
				c0.1-0.2,0.1-0.4,0.2-0.5c0.4-1.2,0.8-2.5,1.1-3.7c0-0.1,0.1-0.1,0.2-0.1c0.6,0,1.2,0,1.8,0H83c-0.1,0.3-0.2,0.5-0.3,0.8
				c-0.7,2-1.4,3.9-2,5.9c0,0.1-0.1,0.1-0.2,0.1c-0.6,0-1.3,0-1.9,0c-0.1,0-0.1,0-0.1-0.1c-0.8-2.2-1.5-4.4-2.3-6.5
				C76.1,28.7,76.1,28.6,76.1,28.6z"/>
			<path class="voice-for-companies-st42" d="M91.9,29.7c0.1-0.2,0.3-0.5,0.5-0.6c0.3-0.3,0.8-0.5,1.2-0.5c0.1,0,0.3,0,0.4,0s0.1,0,0.1,0.1
				c0,0.5,0,1.1,0,1.6c0,0.1,0,0.1-0.1,0.1c-0.3,0-0.6,0-0.9,0c-0.7,0.2-1,0.6-1.1,1.3c0,0.2,0,0.4,0,0.6c0,1,0,2,0,2.9
				c0,0.1,0,0.1-0.1,0.1c-0.6,0-1.2,0-1.8,0c-0.1,0-0.1,0-0.1-0.1c0-2.2,0-4.3,0-6.5c0-0.1,0-0.1,0.1-0.1c0.6,0,1.2,0,1.7,0
				c0.1,0,0.1,0,0.1,0.1c0,0.3,0,0.6,0,0.9C91.9,29.6,91.9,29.7,91.9,29.7z"/>
			<path d="M105.7,42.1c0,1.1,0,2.2,0,3.2c0,0.1,0,0.1-0.1,0.1c-0.6,0-1.3,0-1.9,0c-0.1,0-0.1,0-0.1-0.1c0-2.2,0-4.3,0-6.5
				c0-0.1,0-0.1,0.1-0.1c0.6,0,1.3,0,1.9,0c0.1,0,0.1,0,0.1,0.1C105.7,39.9,105.7,41,105.7,42.1z"/>
			<path d="M96.8,32c0,1.1,0,2.2,0,3.2c0,0.1,0,0.1-0.1,0.1c-0.6,0-1.2,0-1.8,0c-0.1,0-0.1,0-0.1-0.1c0-2.2,0-4.3,0-6.5
				c0-0.1,0-0.1,0.1-0.1c0.6,0,1.2,0,1.8,0c0.1,0,0.1,0,0.1,0.1C96.8,29.8,96.8,30.9,96.8,32z"/>
			<path class="voice-for-companies-st43" d="M117.2,28.6c0.3,0,0.7,0,1,0c0.1,0,0.1,0.1,0.1,0.1c0.3,0.6,0.6,1.2,0.9,1.8c0,0,0,0.1,0.1,0.1
				c0.1-0.3,0.2-0.5,0.3-0.7c0.7-1.5,1.4-3.1,2.1-4.6c0-0.1,0.1-0.1,0.2-0.1c0.3,0,0.6,0,0.9,0c0,0.1,0,0.1,0,0.1
				c-1,2.2-2,4.4-3,6.5c0,0.1-0.1,0.1-0.2,0.1c-0.2,0-0.4,0-0.6,0c0,0-0.1,0-0.1-0.1C118.2,30.8,117.7,29.7,117.2,28.6L117.2,28.6z"
				/>
			<path d="M104.7,38.1c-0.3,0-0.6,0-1,0c-0.1,0-0.1,0-0.1-0.1c0-0.5,0-1.1,0-1.6c0-0.1,0-0.1,0.1-0.1c0.7,0,1.3,0,2,0
				c0.1,0,0.1,0,0.1,0.1c0,0.5,0,1.1,0,1.6c0,0.1,0,0.1-0.1,0.1C105.3,38.1,105,38.1,104.7,38.1z"/>
			<path d="M95.7,26.2c0.3,0,0.6,0,0.9,0c0.1,0,0.1,0,0.1,0.1c0,0.5,0,1.1,0,1.6c0,0.1,0,0.1-0.1,0.1c-0.6,0-1.3,0-1.9,0
				c-0.1,0-0.1,0-0.1-0.1c0-0.5,0-1.1,0-1.6c0-0.1,0-0.1,0.1-0.1C95.1,26.2,95.4,26.2,95.7,26.2z"/>
		</g>
	</g>
	<g>
		<circle class="voice-for-companies-st11" cx="296.3" cy="30.2" r="26.1"/>
		<g>
			<path class="voice-for-companies-st44" d="M308.1,34.4c-0.2,0.3-0.4,0.5-0.5,0.7c-1,1.5-2.1,3.1-3.1,4.6c-0.1,0.2-0.3,0.4-0.5,0.6
				c-0.4,0.4-1.1,0.5-1.4,0c-0.6-0.8-1.2-1.6-1.6-2.5c-0.4-0.8-0.2-1.7,0.5-2.4c1.4-1.6,2.8-3.1,4.2-4.7c0.4-0.4,0.4-0.4,0.1-1
				c-0.9-1.9-1.9-3.8-2.8-5.7c-0.2-0.5-0.4-0.9-0.2-1.4c0.2-0.6,0.7-1,1.3-1.1c1-0.1,1.8,0.3,2.3,1.1c0.7,1.1,1.4,2.1,2.1,3.2
				c0.2,0.2,0.3,0.5,0.6,0.8c0.8-0.9,1.5-1.7,2.3-2.6c0.6-0.7,1.2-1.4,1.8-2c0.4-0.5,1-0.7,1.6-0.8c0.9-0.1,1.5,0.7,1.2,1.5
				c-0.1,0.3-0.3,0.6-0.5,0.9c-1.3,1.9-2.6,3.8-3.9,5.7c-0.3,0.4-0.2,0.6,0,1c1.7,2.6,3.5,5.2,5.2,7.8c0.1,0.1,0.2,0.3,0.3,0.4
				c0.6,1,0.4,1.7-0.7,2c-0.8,0.2-1.7,0.5-2.5,0.7c-1.2,0.3-2-0.1-2.5-1.1c-0.9-1.8-1.9-3.5-2.9-5.2
				C308.3,34.7,308.2,34.6,308.1,34.4z"/>
			<path class="voice-for-companies-st45" d="M290.9,30c0,3.4-0.7,5.6-2.3,7.5c-1.5,1.8-3.5,2.8-5.9,2.7c-2-0.1-3.6-1-4.9-2.4c-2.1-2.4-2.8-5.2-2.4-8.3
				c0.3-2,1-3.8,2.4-5.3c1.5-1.6,3.3-2.5,5.5-2.5c2.4,0.1,4.3,1.3,5.7,3.2C290.3,26.7,290.9,28.7,290.9,30z M286.7,31
				c-0.1-0.6-0.1-1.2-0.2-1.7c-0.2-1.4-0.7-2.7-1.7-3.8c-1-1-2.4-1.1-3.4,0c-0.5,0.5-0.9,1-1.1,1.6c-1.1,2.4-1.1,4.9-0.2,7.4
				c0.3,0.7,0.7,1.4,1.3,1.9c1.1,1,2.4,1,3.5,0c0.6-0.5,0.9-1.2,1.2-1.9C286.5,33.4,286.7,32.2,286.7,31z"/>
			<path class="voice-for-companies-st46" d="M297.2,34.7c-1.1,0-2.1,0-3.2,0c-1.3,0-2.1-0.8-2.2-2.1c0-3-0.1-6.1-0.2-9.1c0-0.9-0.1-1.8-0.1-2.7
				c0-1.2,0.5-1.7,1.6-1.7c0.5,0,1,0,1.4,0c0.9,0,1.3,0.5,1.3,1.3c0,0.5,0,1,0,1.4c0,2.4,0.1,4.7,0.1,7.1c0,1,0.3,1.3,1.3,1.3
				s2.1,0.1,3.1,0.1s1.3,0.3,1.3,1.4c0,0.6,0,1.2-0.1,1.8c-0.1,0.8-0.4,1.1-1.2,1.1C299.4,34.7,298.3,34.7,297.2,34.7L297.2,34.7z"
				/>
		</g>
	</g>
	<path class="voice-for-companies-st47" d="M349.7,261.7c0-0.7,0.6-2.2,2.5-2.2c1,0,2.2,0.6,2.2,2.2H349.7L349.7,261.7z M352.1,257.5
		c-3.1,0-4.3,2.1-4.8,3.8c-0.1,0.5-0.1,1-0.1,1.5c0,1.1,0.4,2.2,1,3.2c1,1.4,2.5,2,4.1,2s2.7-0.2,3.6-0.7c0.1-0.1,0.2-0.2,0.2-0.5
		v-1.4c0-0.2-0.1-0.4-0.4-0.2c-0.9,0.6-2,0.9-3.3,0.9c-1.4-0.1-2.5-1.1-2.6-2.5h6.8c0.1,0,0.2-0.1,0.2-0.2
		C356.8,261.3,356.2,257.5,352.1,257.5L352.1,257.5z M335.8,266H333c-0.4,0-0.7-0.1-1.1-0.4c-0.4-0.2-0.5-0.6-0.5-1
		c0-0.5,0.4-1.6,2.2-1.6h2.2L335.8,266L335.8,266z M338,261.7c0-1.4-0.2-2.3-1-3.1c-0.6-0.7-1.8-1.1-3.1-1.1c-1.2,0-2.3,0.4-3.4,1
		c-0.1,0-0.1,0.1-0.1,0.2l0,0l0.1,1.5c0,0.2,0.1,0.2,0.4,0.1c1.6-1,3.3-1,4.1-0.6c1,0.5,0.9,1.6,0.9,1.6s-1.5,0-2.3,0
		c-1.1,0-4.3,0.4-4.3,3.4l0,0l0,0c0,1,0.4,1.8,1.1,2.5c0.6,0.5,1.6,0.7,2.7,0.7h4.9c0.1,0,0.2-0.1,0.2-0.2L338,261.7L338,261.7z
		 M362.9,265.9c-1.2,0-2.1-0.9-2.5-2c-0.1-0.4-0.2-0.7-0.2-1.2c0-0.4,0.1-0.9,0.2-1.2c0.4-1.1,1.2-2,2.5-2c2.7,0,2.8,2.8,2.8,3.2
		C365.7,263,365.7,265.9,362.9,265.9L362.9,265.9z M368,262.7c0-1.1-0.2-2.2-1-3.2c-1-1.4-2.5-2-4.1-2s-3.2,0.7-4.1,2
		c-1.4,1.8-1.4,4.6,0,6.4c1,1.4,2.5,2,4.1,2c1.1,0,2.1-0.2,3-0.9v1.2c0,1.7-1.5,2-2.5,2.1c-0.6,0-1.6,0-2-0.1c-0.2,0-0.5,0-0.5,0.2
		v1.5c0,0.1,0.1,0.2,0.2,0.2c2.2,0.2,3.7,0.1,4.8-0.5c0.7-0.5,1.4-1.2,1.6-2.1c0.2-0.6,0.2-1.4,0.2-2.1v-4.8L368,262.7L368,262.7z
		 M375.3,258.1v1.2c0,0.2-0.1,0.4-0.4,0.4c-2-0.4-3.1,0.5-3.1,2.2v5.8c0,0.1-0.1,0.2-0.2,0.2h-1.7c-0.1,0-0.2-0.1-0.2-0.2
		c0,0,0-5.8,0-5.9c0-1.5,0.7-2.5,1.2-3c0.7-0.7,1.8-1.2,3.1-1.2c0.1,0,0.9,0,1.2,0.1l0,0C375.3,257.6,375.3,257.8,375.3,258.1
		L375.3,258.1z M341.8,267.6c0,0.1-0.1,0.2-0.2,0.2h-1.7c-0.1,0-0.2-0.1-0.2-0.2v-14c0-0.1,0.1-0.2,0.2-0.2h1.7
		c0.1,0,0.2,0.1,0.2,0.2V267.6L341.8,267.6z M345.9,267.6c0,0.1-0.1,0.2-0.2,0.2H344c-0.1,0-0.2-0.1-0.2-0.2v-14
		c0-0.1,0.1-0.2,0.2-0.2h1.7c0.1,0,0.2,0.1,0.2,0.2L345.9,267.6L345.9,267.6z M383.3,263.9c-0.4,1.1-1.2,2-2.5,2
		c-1.2,0-2.1-0.9-2.5-2c-0.1-0.4-0.2-0.7-0.2-1.2c0-0.4,0.1-0.9,0.2-1.2c0.4-1.1,1.2-2,2.5-2c1.2,0,2.1,0.9,2.5,2
		c0.1,0.4,0.2,0.7,0.2,1.2C383.4,263,383.4,263.5,383.3,263.9L383.3,263.9z M384.9,259.5c-1-1.4-2.5-2-4.1-2s-3.2,0.7-4.1,2
		c-0.6,0.9-1,2.1-1,3.2s0.4,2.2,1,3.2c1,1.4,2.5,2,4.1,2s3.2-0.7,4.1-2c0.6-0.9,1-2.1,1-3.2S385.5,260.5,384.9,259.5L384.9,259.5z"
		/>
</g>
</svg>
