<?xml version="1.0" encoding="utf-8"?>
<!-- Generator: Adobe Illustrator 21.1.0, SVG Export Plug-In . SVG Version: 6.00 Build 0)  -->
<svg version="1.1" id="homeblock2svg" xmlns="http://www.w3.org/2000/svg" xmlns:xlink="http://www.w3.org/1999/xlink" x="0px"
	 y="0px" viewBox="0 0 417.5 400.9" enable-background="new 0 0 417.5 400.9" xml:space="preserve">
<g id="whiteelements">
	<ellipse opacity="0" fill="#231F20" cx="208.7" cy="200.4" rx="208.7" ry="200.4"/>
	<g>
		<g>
			<path fill="none" stroke="#FFFFFF" stroke-linecap="round" stroke-miterlimit="10" stroke-dasharray="0,2" d="M258.3,110.8
				L240.3,145c-2,3.8-0.9,8.6,2.7,11c5.7,3.8,10.7,8.7,14.6,14.2"/>
			<g>
				<g>
					
						<ellipse transform="matrix(0.8076 -0.5898 0.5898 0.8076 -50.8765 184.6352)" fill="#FFFFFF" cx="257.5" cy="170.3" rx="1.9" ry="1.9"/>
					<path fill="#FFFFFF" d="M255.8,171.5c-0.7-0.9-0.5-2.3,0.5-3c0.9-0.7,2.3-0.5,3,0.5c0.7,0.9,0.5,2.3-0.5,3
						S256.5,172.5,255.8,171.5C255.1,170.6,256.5,172.5,255.8,171.5z M258.8,169.3c-0.5-0.7-1.6-0.9-2.3-0.4
						c-0.7,0.5-0.9,1.6-0.4,2.3c0.5,0.7,1.6,0.9,2.3,0.4C259.2,171.1,259.3,170,258.8,169.3C258.3,168.6,259.3,170,258.8,169.3z"/>
				</g>
			</g>
		</g>
	</g>
	<g>
		<g>
			<path fill="none" stroke="#FFFFFF" stroke-linecap="round" stroke-miterlimit="10" stroke-dasharray="0,2" d="M331.9,168.9
				l-58.6,12.3c-4.6,1-7.5,5.5-6.6,10.1c0.8,3.7,1.2,7.6,1.2,11.5c0,2.6-0.2,5.1-0.5,7.6"/>
			<g>
				<g>
					
						<ellipse transform="matrix(0.1275 -0.9918 0.9918 0.1275 24.7069 448.7219)" fill="#FFFFFF" cx="267.4" cy="210.3" rx="1.9" ry="1.9"/>
					<path fill="#FFFFFF" d="M265.3,210c0.1-1.2,1.2-2,2.4-1.8s2,1.2,1.8,2.4c-0.1,1.2-1.2,2-2.4,1.8S265.1,211.2,265.3,210
						C265.4,208.9,265.1,211.2,265.3,210z M269,210.5c0.1-0.9-0.5-1.7-1.4-1.8s-1.7,0.5-1.8,1.4c-0.1,0.9,0.5,1.7,1.4,1.8
						S268.9,211.4,269,210.5C269.1,209.6,268.9,211.4,269,210.5z"/>
				</g>
			</g>
		</g>
	</g>
	<path fill="none" stroke="#FFFFFF" stroke-linecap="round" stroke-miterlimit="10" stroke-dasharray="0,2" d="M292.6,250
		l-25.7-14.7c-3.7-2.1-8.3-1.1-10.9,2.2c-5.1,6.5-11.5,11.8-18.9,15.5c-3.7,1.9-5.6,6.2-4.3,10.2l19.6,60.9"/>
	<g>
		<g>
			<path fill="none" stroke="#FFFFFF" stroke-linecap="round" stroke-miterlimit="10" stroke-dasharray="0,2" d="M217,258.8
				c-1.7,0.2-3.5,0.2-5.3,0.2c-7.3,0-14.2-1.4-20.6-3.9c-3.9-1.5-8.2,0-10.4,3.6l-46.5,79.3"/>
			<g>
				<g>
					
						<ellipse transform="matrix(0.9953 -9.681835e-02 9.681835e-02 0.9953 -24.0392 22.2144)" fill="#FFFFFF" cx="216.9" cy="258.8" rx="1.9" ry="1.9"/>
					<path fill="#FFFFFF" d="M216.7,256.7c-1.2,0.1-2,1.2-1.9,2.3c0.1,1.2,1.2,2,2.3,1.9c1.2-0.1,2-1.2,1.9-2.3
						C218.9,257.4,217.8,256.6,216.7,256.7C215.5,256.8,217.8,256.6,216.7,256.7z M217,260.4c-0.9,0.1-1.7-0.6-1.8-1.5
						c-0.1-0.9,0.6-1.7,1.5-1.8c0.9-0.1,1.7,0.6,1.8,1.5C218.6,259.6,217.9,260.4,217,260.4C216.1,260.5,217.9,260.4,217,260.4z"/>
				</g>
			</g>
		</g>
	</g>
	<g>
		<g>
			<path fill="none" stroke="#FFFFFF" stroke-linecap="round" stroke-miterlimit="10" stroke-dasharray="0,2" d="M170.7,241.4
				c-2.3-2.4-4.3-5-6.2-7.8c-2.3-3.5-6.8-4.9-10.6-3.2L81.4,263"/>
			<g>
				<g>
					
						<ellipse transform="matrix(0.7217 -0.6922 0.6922 0.7217 -119.5292 185.2683)" fill="#FFFFFF" cx="170.7" cy="241.3" rx="1.9" ry="1.9"/>
					<path fill="#FFFFFF" d="M172.2,239.8c-0.8-0.8-2.2-0.9-3-0.1s-0.9,2.2-0.1,3c0.8,0.8,2.2,0.9,3,0.1
						C173,242,173,240.7,172.2,239.8C171.4,239,173,240.7,172.2,239.8z M169.5,242.4c-0.6-0.6-0.6-1.7,0-2.3c0.6-0.6,1.7-0.6,2.3,0
						c0.6,0.6,0.6,1.7,0,2.3S170.1,243.1,169.5,242.4C168.9,241.8,170.1,243.1,169.5,242.4z"/>
				</g>
			</g>
		</g>
	</g>
	<g>
		<g>
			<path fill="none" stroke="#FFFFFF" stroke-linecap="round" stroke-miterlimit="10" stroke-dasharray="0,2" d="M173.7,115.6
				l12.8,28.4c1.7,3.8,6,5.8,10.1,4.7c4.8-1.3,9.9-2,15.1-2c3.7,0,7.4,0.4,10.9,1.1"/>
			<g>
				<g>
					
						<ellipse transform="matrix(0.1997 -0.9799 0.9799 0.1997 33.3798 336.1045)" fill="#FFFFFF" cx="222.4" cy="147.6" rx="1.9" ry="1.9"/>
					<path fill="#FFFFFF" d="M222,149.7c-1.2-0.2-1.9-1.4-1.7-2.5c0.2-1.2,1.4-1.9,2.5-1.7c1.2,0.2,1.9,1.4,1.7,2.5
						S223.2,149.9,222,149.7C220.9,149.5,223.2,149.9,222,149.7z M222.8,146c-0.9-0.2-1.7,0.4-1.9,1.3s0.4,1.7,1.3,1.9
						c0.9,0.2,1.7-0.4,1.9-1.3S223.7,146.2,222.8,146C221.9,145.8,223.7,146.2,222.8,146z"/>
				</g>
			</g>
		</g>
	</g>
	
		<circle fill="#FFFFFF" stroke="#FFFFFF" stroke-width="2.2381" stroke-linecap="round" stroke-miterlimit="10" cx="173.7" cy="115.6" r="9.3"/>
	
		<circle fill="#FFFFFF" stroke="#FFFFFF" stroke-width="1.5167" stroke-linecap="round" stroke-miterlimit="10" cx="258.8" cy="110.5" r="9.3"/>
	
		<circle fill="#FFFFFF" stroke="#FFFFFF" stroke-width="1.5167" stroke-linecap="round" stroke-miterlimit="10" cx="331.9" cy="168.9" r="9.3"/>
	
		<circle fill="#FFFFFF" stroke="#FFFFFF" stroke-width="0.7336" stroke-linecap="round" stroke-miterlimit="10" cx="292.4" cy="250" r="4.5"/>
	
		<circle fill="#FFFFFF" stroke="#FFFFFF" stroke-width="3.4451" stroke-linecap="round" stroke-miterlimit="10" cx="253.2" cy="325.4" r="21"/>
	
		<circle fill="#FFFFFF" stroke="#FFFFFF" stroke-width="1.1165" stroke-linecap="round" stroke-miterlimit="10" cx="134.2" cy="338.1" r="6.8"/>
	
		<circle fill="#FFFFFF" stroke="#FFFFFF" stroke-width="3.0305" stroke-linecap="round" stroke-miterlimit="10" cx="80.9" cy="263.1" r="18.5"/>
	<g id="Rss_1_">
		
			<ellipse id="circle_1_" transform="matrix(0.6767 -0.7362 0.7362 0.6767 1.3021 223.0018)" fill="#CC143A" cx="254.6" cy="110" rx="1.3" ry="1.3"/>
		<path fill="#CC143A" d="M257.4,114.3l-1.2-1.1c0.8-0.9,1.2-2,1.1-3.2c0-1.2-0.5-2.3-1.4-3.1l1.1-1.2
			C259.5,107.9,259.7,111.7,257.4,114.3L257.4,114.3z"/>
		<path fill="#CC143A" d="M259.8,116.5l-1.2-1.1c2.8-3.2,2.6-8-0.4-10.9l1.1-1.2C263,106.7,263.3,112.6,259.8,116.5L259.8,116.5z"/>
	</g>
	<g>
		<path fill="#CC143A" d="M76.3,254.2l10.5,10.5l-0.5,0.5l-10.9-8.3c-0.6-0.4-1.4-0.4-1.9,0.1l-3.2,3.2c-0.5,0.5-0.5,1.4,0,1.9
			l9.5,9.5l-0.7,0.7c-0.6,0.7-0.6,1.7,0,2.3l1.9,1.9c0.4,0.4,1.1,0.4,1.5,0c0.4-0.4,0.4-1.1,0-1.5l-1.5-1.5l7.7-7.7
			c0.6-0.7,0.6-1.7,0-2.3l-10.8-10.8c-0.4-0.4-1.1-0.4-1.5,0C75.9,253.1,75.9,253.8,76.3,254.2z M80.4,262.6l2.1,1.6l-4,4l-1.8-1.8
			L80.4,262.6z M75.8,265.5l-1.8-1.8l3.4-3.4l2.1,1.6L75.8,265.5z M74.5,258.1l1.9,1.5l-3.3,3.3l-1.7-1.7L74.5,258.1z M79.4,269
			l4.1-4.1l1.7,1.3l-4.3,4.3L79.4,269z"/>
		
			<ellipse transform="matrix(0.7071 -0.7071 0.7071 0.7071 -157.8693 138.2432)" fill="#CC143A" cx="87.9" cy="259.7" rx="2.1" ry="2.1"/>
		
			<ellipse transform="matrix(0.7071 -0.7071 0.7071 0.7071 -154.9348 131.1584)" fill="#CC143A" cx="80.9" cy="252.6" rx="2.1" ry="2.1"/>
	</g>
	<path fill="#CC143A" d="M245,335.4c0,0.1,0.1,0.3,0.2,0.4c0.8,1.7,2.9,2.4,4.6,1.6c0.4-0.2,0.8-0.5,1.1-0.8c1,1.9,3.5,2.7,5.5,1.8
		c0.6-0.3,1.2-0.8,1.6-1.3c2,1.3,4.6,1.5,6.9,0.4c3.5-1.7,5-5.9,3.3-9.5c-0.4-0.9-1-1.7-1.8-2.3c0.7-1.2,0.8-2.6,0.2-3.9
		c-0.9-1.9-3.1-2.8-5.1-2.1c-0.2,0.1-0.3,0.1-0.5,0.2l-3.7,1.8l3.1,6.3l0.5-1.5c0.3-0.8,1.1-1.2,1.9-0.9c0.8,0.3,1.2,1.1,0.9,1.9
		l-1.9,5.4c-0.1,0.4-0.4,0.7-0.8,0.8c-0.3,0.2-0.7,0.2-1.1,0.1l-5.4-1.9c-0.8-0.3-1.2-1.1-0.9-1.9c0.3-0.8,1.1-1.2,1.9-0.9l1.5,0.5
		l-3.1-6.3l-3.3,1.6l-2.2-4.6l1.5,0.5c0.8,0.3,1.6-0.1,1.9-0.9c0.3-0.8-0.1-1.6-0.9-1.9l-5.4-1.9c-0.4-0.1-0.8-0.1-1.1,0.1
		s-0.6,0.5-0.8,0.8l-1.9,5.4c-0.3,0.8,0.1,1.6,0.9,1.9c0.8,0.3,1.6-0.1,1.9-0.9l0.5-1.5l2.2,4.7l-4.2,2c-1.8,0.9-2.5,3-1.7,4.7
		l0.1,0.3C241.9,334.9,243.5,335.6,245,335.4z"/>
	<path fill="#CC143A" d="M174.9,109.6l-6.8,1.5l2.5,11.1l9.9-2.2l-1.8-8.1L174.9,109.6z M174.9,111.1l2.1,1.3l-1.7,0.4L174.9,111.1z
		 M178.9,119.1l-7.4,1.7l-1.9-8.7l4.7-1l0.6,2.6l2.8-0.6L178.9,119.1z"/>
	<g>
		<path fill="#CC143A" d="M338.1,166.3c0.6,1.6-0.2,3.4-1.9,4c-1.6,0.6-3.4-0.2-4-1.9c-0.6-1.6,0.2-3.4,1.9-4
			C335.7,163.8,337.5,164.6,338.1,166.3"/>
		<path fill="#CC143A" d="M333.3,170.8c-0.8-0.4-1.5-1.2-1.8-2.1c-0.3-0.9-0.3-1.9,0-2.8c-1.5-1.4-3.8-1.9-6-1.1l3.9,10.7
			C331.6,174.7,333,172.8,333.3,170.8z"/>
	</g>
</g>
<g id="blueelements">
	<ellipse opacity="0" fill="#231F20" cx="208.7" cy="200.4" rx="208.7" ry="200.4"/>
	<g>
		<g opacity="0.3">
			<path fill="none" stroke="#000000" stroke-width="4" stroke-linecap="round" stroke-miterlimit="10" d="M201.8,59.7l3.3,59.7
				c0.2,3.5,3.1,6.1,6.5,6.1c0,0,0,0,0.1,0c15.7,0,30.4,4.6,42.7,12.6"/>
			<ellipse transform="matrix(0.5647 -0.8253 0.8253 0.5647 -3.2854 269.7998)" cx="254.1" cy="138" rx="4.5" ry="4.5"/>
			<path d="M251.2,142.2c-2.3-1.6-2.9-4.8-1.3-7.1c1.6-2.3,4.8-2.9,7.1-1.3c2.3,1.6,2.9,4.8,1.3,7.1
				C256.8,143.2,253.6,143.8,251.2,142.2C248.9,140.6,253.6,143.8,251.2,142.2z M256.3,134.8c-1.8-1.2-4.2-0.8-5.4,1s-0.8,4.2,1,5.4
				c1.8,1.2,4.2,0.8,5.4-1C258.6,138.4,258.1,136,256.3,134.8C254.6,133.6,258.1,136,256.3,134.8z"/>
		</g>
		<g>
			<g>
				<path fill="none" stroke="#1A3D6F" stroke-width="4" stroke-linecap="round" stroke-miterlimit="10" d="M201.8,58.7l3.3,59.7
					c0.2,3.5,3.1,6.1,6.5,6.1c0,0,0,0,0.1,0c15.7,0,30.4,4.6,42.7,12.6"/>
				<g>
					<g>
						
							<ellipse transform="matrix(0.5647 -0.8253 0.8253 0.5647 -2.4601 269.3646)" fill="#FFFFFF" cx="254.1" cy="137" rx="4.5" ry="4.5"/>
						<path fill="#1A3D6F" d="M251.2,141.2c-2.3-1.6-2.9-4.8-1.3-7.1c1.6-2.3,4.8-2.9,7.1-1.3c2.3,1.6,2.9,4.8,1.3,7.1
							C256.8,142.2,253.6,142.8,251.2,141.2C248.9,139.6,253.6,142.8,251.2,141.2z M256.3,133.8c-1.8-1.2-4.2-0.8-5.4,1
							s-0.8,4.2,1,5.4c1.8,1.2,4.2,0.8,5.4-1C258.6,137.4,258.1,135,256.3,133.8C254.6,132.6,258.1,135,256.3,133.8z"/>
					</g>
				</g>
			</g>
		</g>
	</g>
	<g>
		<g opacity="0.3">
			<path fill="none" stroke="#000000" stroke-width="4" stroke-linecap="round" stroke-miterlimit="10" d="M323.4,116.6L278.6,148
				c-3.8,2.7-4.8,7.9-2.2,11.7c4.6,6.8,8.2,14.3,10.5,22.3"/>
			<ellipse transform="matrix(0.9675 -0.2529 0.2529 0.9675 -36.6542 78.4594)" cx="286.9" cy="181.8" rx="4.5" ry="4.5"/>
			<path d="M281.9,183.1c-0.7-2.7,0.9-5.5,3.7-6.2c2.7-0.7,5.5,0.9,6.2,3.7c0.7,2.7-0.9,5.5-3.7,6.2
				C285.4,187.5,282.6,185.8,281.9,183.1C281.2,180.4,282.6,185.8,281.9,183.1z M290.6,180.8c-0.5-2.1-2.7-3.3-4.8-2.8
				c-2.1,0.5-3.3,2.7-2.8,4.8c0.5,2.1,2.7,3.3,4.8,2.8S291.2,182.9,290.6,180.8C290.1,178.7,291.2,182.9,290.6,180.8z"/>
		</g>
		<g>
			<g>
				<path fill="none" stroke="#1A3D6F" stroke-width="4" stroke-linecap="round" stroke-miterlimit="10" d="M323.4,115.6L278.6,147
					c-3.8,2.7-4.8,7.9-2.2,11.7c4.6,6.8,8.2,14.3,10.5,22.3"/>
				<g>
					<g>
						
							<ellipse transform="matrix(0.9675 -0.2529 0.2529 0.9675 -36.4013 78.4268)" fill="#FFFFFF" cx="286.9" cy="180.8" rx="4.5" ry="4.5"/>
						<path fill="#1A3D6F" d="M281.9,182.1c-0.7-2.7,0.9-5.5,3.7-6.2c2.7-0.7,5.5,0.9,6.2,3.7c0.7,2.7-0.9,5.5-3.7,6.2
							C285.4,186.5,282.6,184.8,281.9,182.1C281.2,179.4,282.6,184.8,281.9,182.1z M290.6,179.8c-0.5-2.1-2.7-3.3-4.8-2.8
							c-2.1,0.5-3.3,2.7-2.8,4.8c0.5,2.1,2.7,3.3,4.8,2.8S291.2,181.9,290.6,179.8C290.1,177.7,291.2,181.9,290.6,179.8z"/>
					</g>
				</g>
			</g>
		</g>
	</g>
	<g>
		<g opacity="0.3">
			<path fill="none" stroke="#000000" stroke-width="4" stroke-linecap="round" stroke-miterlimit="10" d="M313.7,197h-16.9
				c-3.7,0-6.7,3-6.7,6.8c0,0,0,0,0,0.1c0,14.6-4,28.2-10.9,39.9c-2.1,3.6-1.4,8.1,1.8,10.8l42.6,36.5"/>
		</g>
		<g>
			<path fill="none" stroke="#1A3D6F" stroke-width="4" stroke-linecap="round" stroke-miterlimit="10" d="M313.7,196h-16.9
				c-3.7,0-6.7,3-6.7,6.8c0,0,0,0,0,0.1c0,14.6-4,28.2-10.9,39.9c-2.1,3.6-1.4,8.1,1.8,10.8l42.6,36.5"/>
		</g>
	</g>
	<g>
		<g opacity="0.3">
			<path fill="none" stroke="#000000" stroke-width="4" stroke-linecap="round" stroke-miterlimit="10" d="M177.4,322.9l9.7-36.5
				c1.1-4.1-1-8.4-4.9-10c-10.7-4.4-20.2-11-28-19.3"/>
			<ellipse transform="matrix(0.7519 -0.6593 0.6593 0.7519 -131.2953 165.6206)" cx="154.4" cy="257.3" rx="4.5" ry="4.5"/>
			<path d="M158.2,253.9c1.9,2.1,1.6,5.4-0.5,7.2c-2.1,1.9-5.4,1.6-7.2-0.5c-1.9-2.1-1.6-5.4,0.5-7.2
				C153.2,251.6,156.4,251.8,158.2,253.9C160.1,256,156.4,251.8,158.2,253.9z M151.5,259.8c1.4,1.6,3.9,1.8,5.5,0.4
				c1.6-1.4,1.8-3.9,0.4-5.5c-1.4-1.6-3.9-1.8-5.5-0.4S150,258.2,151.5,259.8C152.9,261.5,150,258.2,151.5,259.8z"/>
		</g>
		<g>
			<g>
				<path fill="none" stroke="#1A3D6F" stroke-width="4" stroke-linecap="round" stroke-miterlimit="10" d="M177.4,321.9l9.7-36.5
					c1.1-4.1-1-8.4-4.9-10c-10.7-4.4-20.2-11-28-19.3"/>
				<g>
					<g>
						
							<ellipse transform="matrix(0.7519 -0.6593 0.6593 0.7519 -130.6361 165.3725)" fill="#FFFFFF" cx="154.4" cy="256.3" rx="4.5" ry="4.5"/>
						<path fill="#1A3D6F" d="M158.2,252.9c1.9,2.1,1.6,5.4-0.5,7.2c-2.1,1.9-5.4,1.6-7.2-0.5c-1.9-2.1-1.6-5.4,0.5-7.2
							C153.2,250.6,156.4,250.8,158.2,252.9C160.1,255,156.4,250.8,158.2,252.9z M151.5,258.8c1.4,1.6,3.9,1.8,5.5,0.4
							c1.6-1.4,1.8-3.9,0.4-5.5c-1.4-1.6-3.9-1.8-5.5-0.4S150,257.2,151.5,258.8C152.9,260.5,150,257.2,151.5,258.8z"/>
					</g>
				</g>
			</g>
		</g>
	</g>
	<g>
		<g opacity="0.3">
			<path fill="none" stroke="#000000" stroke-width="4" stroke-linecap="round" stroke-miterlimit="10" d="M125.6,256.6L138,249
				c3.7-2.3,5.1-7,3.2-10.9c-5-10.4-7.9-22-7.9-34.3c0-0.7,0-1.4,0-2c0.1-4.8-3.7-8.7-8.5-8.7H83.6"/>
		</g>
		<g>
			<path fill="none" stroke="#1A3D6F" stroke-width="4" stroke-linecap="round" stroke-miterlimit="10" d="M125.6,255.6L138,248
				c3.7-2.3,5.1-7,3.2-10.9c-5-10.4-7.9-22-7.9-34.3c0-0.7,0-1.4,0-2c0.1-4.8-3.7-8.7-8.5-8.7H83.6"/>
		</g>
	</g>
	<g>
		<g opacity="0.3">
			<path fill="none" stroke="#000000" stroke-width="4" stroke-linecap="round" stroke-miterlimit="10" d="M53.8,107.3l84.7,50.9
				c3.7,2.2,8.4,1.3,11-2.1c9.3-12.1,21.9-21.3,36.6-26.4"/>
			<ellipse transform="matrix(0.9519 -0.3063 0.3063 0.9519 -30.8476 63.1735)" cx="185.9" cy="129.9" rx="4.5" ry="4.5"/>
			<path d="M187.4,134.7c-2.7,0.9-5.6-0.6-6.4-3.3c-0.9-2.7,0.6-5.6,3.3-6.4c2.7-0.9,5.6,0.6,6.4,3.3
				C191.6,131,190.1,133.9,187.4,134.7C184.8,135.6,190.1,133.9,187.4,134.7z M184.7,126.2c-2.1,0.7-3.2,2.9-2.5,4.9
				c0.7,2.1,2.9,3.2,4.9,2.5c2.1-0.7,3.2-2.9,2.5-4.9C188.9,126.6,186.7,125.5,184.7,126.2C182.6,126.8,186.7,125.5,184.7,126.2z"/>
		</g>
		<g>
			<g>
				<path fill="none" stroke="#1A3D6F" stroke-width="4" stroke-linecap="round" stroke-miterlimit="10" d="M53.8,106.3l84.7,50.9
					c3.7,2.2,8.4,1.3,11-2.1c9.3-12.1,21.9-21.3,36.6-26.4"/>
				<g>
					<g>
						
							<ellipse transform="matrix(0.9519 -0.3063 0.3063 0.9519 -30.5414 63.1254)" fill="#FFFFFF" cx="185.9" cy="128.9" rx="4.5" ry="4.5"/>
						<path fill="#1A3D6F" d="M187.4,133.7c-2.7,0.9-5.6-0.6-6.4-3.3c-0.9-2.7,0.6-5.6,3.3-6.4c2.7-0.9,5.6,0.6,6.4,3.3
							C191.6,130,190.1,132.9,187.4,133.7C184.8,134.6,190.1,132.9,187.4,133.7z M184.7,125.2c-2.1,0.7-3.2,2.9-2.5,4.9
							c0.7,2.1,2.9,3.2,4.9,2.5c2.1-0.7,3.2-2.9,2.5-4.9C188.9,125.6,186.7,124.5,184.7,125.2C182.6,125.8,186.7,124.5,184.7,125.2z
							"/>
					</g>
				</g>
			</g>
		</g>
	</g>
	<g>
		<g opacity="0.3">
			<circle cx="53.8" cy="107.3" r="15.9"/>
			
				<circle fill="none" stroke="#000000" stroke-width="2.6026" stroke-linecap="round" stroke-miterlimit="10" cx="53.8" cy="107.3" r="15.9"/>
		</g>
		<g>
			<circle fill="#1A3D6F" cx="53.8" cy="106.3" r="15.9"/>
			
				<circle fill="none" stroke="#1A3D6F" stroke-width="2.6026" stroke-linecap="round" stroke-miterlimit="10" cx="53.8" cy="106.3" r="15.9"/>
		</g>
	</g>
	<g>
		<g opacity="0.3">
			<circle cx="83.6" cy="193" r="12.9"/>
			
				<circle fill="none" stroke="#000000" stroke-width="2.1229" stroke-linecap="round" stroke-miterlimit="10" cx="83.6" cy="193" r="12.9"/>
		</g>
		<g>
			<circle fill="#1A3D6F" cx="83.6" cy="192" r="12.9"/>
			
				<circle fill="none" stroke="#1A3D6F" stroke-width="2.1229" stroke-linecap="round" stroke-miterlimit="10" cx="83.6" cy="192" r="12.9"/>
		</g>
	</g>
	<g>
		<g opacity="0.3">
			<circle cx="125.6" cy="256.9" r="6"/>
			
				<circle fill="none" stroke="#000000" stroke-width="0.9772" stroke-linecap="round" stroke-miterlimit="10" cx="125.6" cy="256.9" r="6"/>
		</g>
		<g>
			<circle fill="#1A3D6F" cx="125.6" cy="255.9" r="6"/>
			
				<circle fill="none" stroke="#1A3D6F" stroke-width="0.9772" stroke-linecap="round" stroke-miterlimit="10" cx="125.6" cy="255.9" r="6"/>
		</g>
	</g>
	<g>
		<g opacity="0.3">
			<circle cx="177.4" cy="322.9" r="14"/>
			
				<circle fill="none" stroke="#000000" stroke-width="2.2997" stroke-linecap="round" stroke-miterlimit="10" cx="177.4" cy="322.9" r="14"/>
		</g>
		<g>
			<circle fill="#1A3D6F" cx="177.4" cy="321.9" r="14"/>
			
				<circle fill="none" stroke="#1A3D6F" stroke-width="2.2997" stroke-linecap="round" stroke-miterlimit="10" cx="177.4" cy="321.9" r="14"/>
		</g>
	</g>
	<g>
		<g opacity="0.3">
			<circle cx="323.4" cy="291" r="17.6"/>
			
				<circle fill="none" stroke="#000000" stroke-width="2.8831" stroke-linecap="round" stroke-miterlimit="10" cx="323.4" cy="291" r="17.6"/>
		</g>
		<g>
			<circle fill="#1A3D6F" cx="323.4" cy="290" r="17.6"/>
			
				<circle fill="none" stroke="#1A3D6F" stroke-width="2.8831" stroke-linecap="round" stroke-miterlimit="10" cx="323.4" cy="290" r="17.6"/>
		</g>
	</g>
	<g>
		<g opacity="0.3">
			<circle cx="313.7" cy="197" r="14"/>
			
				<circle fill="none" stroke="#000000" stroke-width="2.2997" stroke-linecap="round" stroke-miterlimit="10" cx="313.7" cy="197" r="14"/>
		</g>
		<g>
			<circle fill="#1A3D6F" cx="313.7" cy="196" r="14"/>
			
				<circle fill="none" stroke="#1A3D6F" stroke-width="2.2997" stroke-linecap="round" stroke-miterlimit="10" cx="313.7" cy="196" r="14"/>
		</g>
	</g>
	<g>
		<g opacity="0.3">
			<circle cx="323.1" cy="116.8" r="17.9"/>
			
				<circle fill="none" stroke="#000000" stroke-width="2.9411" stroke-linecap="round" stroke-miterlimit="10" cx="323.1" cy="116.8" r="17.9"/>
		</g>
		<g>
			<circle fill="#1A3D6F" cx="323.1" cy="115.8" r="17.9"/>
			
				<circle fill="none" stroke="#1A3D6F" stroke-width="2.9411" stroke-linecap="round" stroke-miterlimit="10" cx="323.1" cy="115.8" r="17.9"/>
		</g>
	</g>
	<g>
		<g opacity="0.3">
			<circle cx="201.8" cy="59.7" r="14"/>
			
				<circle fill="none" stroke="#000000" stroke-width="2.2997" stroke-linecap="round" stroke-miterlimit="10" cx="201.8" cy="59.7" r="14"/>
		</g>
		<g>
			<circle fill="#1A3D6F" cx="201.8" cy="58.7" r="14"/>
			
				<circle fill="none" stroke="#1A3D6F" stroke-width="2.2997" stroke-linecap="round" stroke-miterlimit="10" cx="201.8" cy="58.7" r="14"/>
		</g>
	</g>
	<g>
		<g opacity="0.3">
			<path fill="none" stroke="#000000" stroke-width="4" stroke-linecap="round" stroke-miterlimit="10" d="M248.1,273.2
				c-10.9,5.7-23.3,9-36.4,9c0,0-0.1,0-0.1,0c-4.2,0-7.8,3.1-8.2,7.3l-1.7,16.2"/>
			<ellipse transform="matrix(0.8712 -0.4909 0.4909 0.8712 -102.2451 156.8741)" cx="247.9" cy="273.3" rx="4.5" ry="4.5"/>
			<path d="M245.4,268.9c-2.5,1.4-3.3,4.5-1.9,7s4.5,3.3,7,1.9c2.5-1.4,3.3-4.5,1.9-7C250.9,268.3,247.8,267.5,245.4,268.9
				C242.9,270.2,247.8,267.5,245.4,268.9z M249.8,276.7c-1.9,1.1-4.3,0.4-5.3-1.5c-1.1-1.9-0.4-4.3,1.5-5.3c1.9-1.1,4.3-0.4,5.3,1.5
				C252.3,273.3,251.7,275.7,249.8,276.7C247.9,277.8,251.7,275.7,249.8,276.7z"/>
		</g>
		<g>
			<g>
				<path fill="none" stroke="#1A3D6F" stroke-width="4" stroke-linecap="round" stroke-miterlimit="10" d="M248.1,272.2
					c-10.9,5.7-23.3,9-36.4,9c0,0-0.1,0-0.1,0c-4.2,0-7.8,3.1-8.2,7.3l-1.7,16.2"/>
				<g>
					<g>
						
							<ellipse transform="matrix(0.8712 -0.4909 0.4909 0.8712 -101.7543 156.7453)" fill="#FFFFFF" cx="247.9" cy="272.3" rx="4.5" ry="4.5"/>
						<path fill="#1A3D6F" d="M245.4,267.9c-2.5,1.4-3.3,4.5-1.9,7s4.5,3.3,7,1.9c2.5-1.4,3.3-4.5,1.9-7
							C250.9,267.3,247.8,266.5,245.4,267.9C242.9,269.2,247.8,266.5,245.4,267.9z M249.8,275.7c-1.9,1.1-4.3,0.4-5.3-1.5
							c-1.1-1.9-0.4-4.3,1.5-5.3c1.9-1.1,4.3-0.4,5.3,1.5C252.3,272.3,251.7,274.7,249.8,275.7C247.9,276.8,251.7,274.7,249.8,275.7
							z"/>
					</g>
				</g>
			</g>
		</g>
	</g>
	<g id="Buble_2_">
		<g opacity="0.3">
			<path d="M201.8,51.8c5,0,9.1,3.3,9.1,7.3c0,1.6-0.6,3.1-1.7,4.3l1.7,4.2l-7.1-1.4c-0.7,0-1.6,0.2-2.4,0.2c-0.1,0-0.2,0-0.3,0
				c-4.8,0-8.2-3.3-8.2-7.3C192.7,55.1,196.8,51.8,201.8,51.8 M201.8,53.8c-3.9,0-7.1,2.4-7.1,5.3c0,3,2.7,5.3,6.2,5.3
				c0.1,0,0.2,0,0.2,0c0.3,0,0.7-0.1,1.1-0.1c0.4-0.1,0.9-0.1,1.3-0.1l0.2,0l0.2,0l3.5,0.7l-0.3-0.8l-0.5-1.2l0.8-0.9
				c0.6-0.6,1.2-1.6,1.2-3C208.9,56.2,205.7,53.8,201.8,53.8L201.8,53.8z"/>
		</g>
		<g>
			<path fill="#FFFFFF" d="M201.8,50.8c5,0,9.1,3.3,9.1,7.3c0,1.6-0.6,3.1-1.7,4.3l1.7,4.2l-7.1-1.4c-0.7,0-1.6,0.2-2.4,0.2
				c-0.1,0-0.2,0-0.3,0c-4.8,0-8.2-3.3-8.2-7.3C192.7,54.1,196.8,50.8,201.8,50.8 M201.8,52.8c-3.9,0-7.1,2.4-7.1,5.3
				c0,3,2.7,5.3,6.2,5.3c0.1,0,0.2,0,0.2,0c0.3,0,0.7-0.1,1.1-0.1c0.4-0.1,0.9-0.1,1.3-0.1l0.2,0l0.2,0l3.5,0.7l-0.3-0.8l-0.5-1.2
				l0.8-0.9c0.6-0.6,1.2-1.6,1.2-3C208.9,55.2,205.7,52.8,201.8,52.8L201.8,52.8z"/>
		</g>
	</g>
	<g id="Mail_2_">
		<g opacity="0.3">
			<path d="M323.1,103.8l-12.4,8.9l12.3,17.1l12.4-8.9L323.1,103.8z M331.4,119.1l-7.8-2.6l0-8.3L331.4,119.1z M323.3,127.6
				l-10.4-14.5l8.4-6l0,11l10.4,3.5L323.3,127.6z"/>
		</g>
		<g>
			<path fill="#FFFFFF" d="M323.1,102.8l-12.4,8.9l12.3,17.1l12.4-8.9L323.1,102.8z M331.4,118.1l-7.8-2.6l0-8.3L331.4,118.1z
				 M323.3,126.6l-10.4-14.5l8.4-6l0,11l10.4,3.5L323.3,126.6z"/>
		</g>
	</g>
	<g id="buyutec_2_">
		<g opacity="0.3">
			<path d="M84.9,195.8c-0.2,0.2-0.2,0.5,0,0.7l3.8,4.2c0.2,0.2,0.5,0.2,0.7,0l1.7-1.5c0.2-0.2,0.2-0.5,0-0.7l-3.8-4.2
				c-0.2-0.2-0.5-0.2-0.7,0L84.9,195.8z"/>
			<path d="M76.2,188.9c-0.2,0.6-0.3,1.2-0.3,1.8c0,2.3,1.4,4.4,3.7,5.2c2.9,1,6.1-0.5,7.1-3.4c0.2-0.6,0.3-1.2,0.3-1.8
				c0-2.3-1.4-4.4-3.7-5.2C80.3,184.4,77.2,186,76.2,188.9z M82.7,186.8c1.6,0.6,2.7,2.1,2.7,3.8c0,0.4-0.1,0.9-0.2,1.3
				c-0.4,1-1.1,1.8-2.1,2.3c-1,0.5-2.1,0.5-3.1,0.2c-1.6-0.6-2.7-2.1-2.7-3.8c0-0.4,0.1-0.9,0.2-1.3c0.4-1,1.1-1.8,2.1-2.3
				C80.6,186.6,81.7,186.5,82.7,186.8z"/>
		</g>
		<g>
			<g>
				<path fill="#FFFFFF" d="M84.9,194.8c-0.2,0.2-0.2,0.5,0,0.7l3.8,4.2c0.2,0.2,0.5,0.2,0.7,0l1.7-1.5c0.2-0.2,0.2-0.5,0-0.7
					l-3.8-4.2c-0.2-0.2-0.5-0.2-0.7,0L84.9,194.8z"/>
				<path fill="#FFFFFF" d="M76.2,187.9c-0.2,0.6-0.3,1.2-0.3,1.8c0,2.3,1.4,4.4,3.7,5.2c2.9,1,6.1-0.5,7.1-3.4
					c0.2-0.6,0.3-1.2,0.3-1.8c0-2.3-1.4-4.4-3.7-5.2C80.3,183.4,77.2,185,76.2,187.9z M82.7,185.8c1.6,0.6,2.7,2.1,2.7,3.8
					c0,0.4-0.1,0.9-0.2,1.3c-0.4,1-1.1,1.8-2.1,2.3c-1,0.5-2.1,0.5-3.1,0.2c-1.6-0.6-2.7-2.1-2.7-3.8c0-0.4,0.1-0.9,0.2-1.3
					c0.4-1,1.1-1.8,2.1-2.3C80.6,185.6,81.7,185.5,82.7,185.8z"/>
			</g>
		</g>
	</g>
	<g>
		<g opacity="0.3">
			<path d="M314.1,296.1l10.5-10.5l0.5,0.5l-8.3,10.9c-0.4,0.6-0.4,1.4,0.1,1.9l3.2,3.2c0.5,0.5,1.4,0.5,1.9,0l9.5-9.5l0.7,0.7
				c0.7,0.6,1.7,0.6,2.3,0l1.9-1.9c0.4-0.4,0.4-1.1,0-1.5c-0.4-0.4-1.1-0.4-1.5,0l-1.5,1.5l-7.7-7.7c-0.7-0.6-1.7-0.6-2.3,0
				l-10.8,10.8c-0.4,0.4-0.4,1.1,0,1.5C313.1,296.5,313.7,296.5,314.1,296.1z M322.6,291.9l1.6-2.1l4,4l-1.8,1.8L322.6,291.9z
				 M325.4,296.5l-1.8,1.8l-3.4-3.4l1.6-2.1L325.4,296.5z M318,297.9l1.5-1.9l3.3,3.3l-1.7,1.7L318,297.9z M329,293l-4.1-4.1
				l1.3-1.7l4.3,4.3L329,293z"/>
			<ellipse transform="matrix(0.7071 -0.7071 0.7071 0.7071 -107.4998 309.3051)" cx="319.6" cy="284.4" rx="2.1" ry="2.1"/>
			<ellipse transform="matrix(0.7071 -0.7071 0.7071 0.7071 -114.5845 306.3705)" cx="312.5" cy="291.5" rx="2.1" ry="2.1"/>
		</g>
		<g>
			<g>
				<path fill="#FFFFFF" d="M314.1,295.1l10.5-10.5l0.5,0.5l-8.3,10.9c-0.4,0.6-0.4,1.4,0.1,1.9l3.2,3.2c0.5,0.5,1.4,0.5,1.9,0
					l9.5-9.5l0.7,0.7c0.7,0.6,1.7,0.6,2.3,0l1.9-1.9c0.4-0.4,0.4-1.1,0-1.5c-0.4-0.4-1.1-0.4-1.5,0l-1.5,1.5l-7.7-7.7
					c-0.7-0.6-1.7-0.6-2.3,0l-10.8,10.8c-0.4,0.4-0.4,1.1,0,1.5C313.1,295.5,313.7,295.5,314.1,295.1z M322.6,290.9l1.6-2.1l4,4
					l-1.8,1.8L322.6,290.9z M325.4,295.5l-1.8,1.8l-3.4-3.4l1.6-2.1L325.4,295.5z M318,296.9l1.5-1.9l3.3,3.3l-1.7,1.7L318,296.9z
					 M329,292l-4.1-4.1l1.3-1.7l4.3,4.3L329,292z"/>
				
					<ellipse transform="matrix(0.7071 -0.7071 0.7071 0.7071 -106.7927 309.0122)" fill="#FFFFFF" cx="319.6" cy="283.4" rx="2.1" ry="2.1"/>
				
					<ellipse transform="matrix(0.7071 -0.7071 0.7071 0.7071 -113.8774 306.0776)" fill="#FFFFFF" cx="312.5" cy="290.5" rx="2.1" ry="2.1"/>
			</g>
		</g>
	</g>
	<g>
		<g opacity="0.3">
			<path d="M58.8,109.1c-0.6,0.5-1,1.1-1.2,1.8l-7.9,1c0,0,0,0,0-0.1c0,0,0-0.1-0.1-0.1c0,0,0-0.1-0.1-0.1c0,0,0,0,0,0
				c0,0,0,0,0-0.1l3-7.5c1.3-0.1,2.4-0.9,3-2.1c0.7-1.7-0.1-3.7-1.9-4.4c-1.7-0.7-3.7,0.1-4.4,1.9c-0.5,1.3-0.2,2.6,0.7,3.6l-3,7.4
				c-0.1,0-0.1,0-0.2,0c0,0,0,0-0.1,0c-0.1,0-0.1,0-0.2,0c0,0,0,0,0,0c0,0,0,0,0,0c0,0-0.1,0-0.1,0c0,0,0,0,0,0c0,0-0.1,0-0.1,0
				c0,0,0,0,0,0c-0.1,0-0.2,0.1-0.3,0.1c0,0,0,0,0,0c0,0-0.1,0-0.1,0c0,0,0,0,0,0c0,0-0.1,0-0.1,0c0,0,0,0-0.1,0c0,0-0.1,0-0.1,0
				c0,0,0,0,0,0c0,0-0.1,0-0.1,0.1c0,0,0,0,0,0c0,0-0.1,0.1-0.1,0.1c0,0,0,0-0.1,0c0,0,0,0-0.1,0.1c0,0,0,0-0.1,0c0,0,0,0-0.1,0
				c0,0,0,0,0,0c0,0,0,0-0.1,0.1c0,0,0,0-0.1,0.1c0,0,0,0,0,0c-0.5,0.5-0.9,1.1-1,1.8c0,0,0,0.1,0,0.1c0,0,0,0,0,0.1
				c0,0,0,0.1,0,0.1c0,0,0,0,0,0.1c0,0,0,0,0,0.1c0,0,0,0.1,0,0.1c0,0,0,0,0,0c0,0,0,0.1,0,0.1c0,0,0,0,0,0c0,0.4,0.1,0.8,0.2,1.2
				c0,0,0,0,0,0c0,0,0,0.1,0.1,0.1c0,0,0,0,0,0c0,0,0,0.1,0.1,0.1c0,0,0,0,0,0c0,0,0,0.1,0.1,0.1c0,0,0,0,0,0.1c0,0,0,0.1,0,0.1
				c0,0,0,0,0,0.1c0,0,0,0,0,0.1c0,0,0,0.1,0.1,0.1c0,0,0,0,0,0.1c0,0,0,0.1,0.1,0.1c0,0,0,0,0,0c0,0,0,0,0,0c0,0,0,0,0.1,0.1
				c0,0,0,0,0.1,0.1c0,0,0,0,0,0c0,0,0.1,0.1,0.1,0.1c0,0,0,0,0,0c0.4,0.4,0.8,0.6,1.2,0.8c0.3,0.1,0.7,0.2,1.1,0.2c0,0,0,0,0,0
				c0,0,0.1,0,0.1,0c0,0,0,0,0.1,0c0,0,0.1,0,0.1,0c0,0,0.1,0,0.1,0c0,0,0,0,0.1,0c0,0,0.1,0,0.1,0c0,0,0,0,0,0c0,0,0,0,0,0
				c0,0,0.1,0,0.1,0c0,0,0.1,0,0.1,0c0,0,0,0,0.1,0c0,0,0.1,0,0.1,0c0,0,0,0,0.1,0c0,0,0.1,0,0.1,0c0,0,0,0,0,0c0,0,0.1,0,0.1-0.1
				c0,0,0,0,0,0c0,0,0.1,0,0.1-0.1c0,0,0,0,0,0c0.4-0.2,0.7-0.4,1-0.7c0,0,0,0,0,0c0,0,0.1-0.1,0.1-0.1c0,0,0,0,0,0
				c0,0,0.1-0.1,0.1-0.1c0,0,0,0,0,0c0,0,0-0.1,0.1-0.1c0,0,0-0.1,0.1-0.1c0,0,0,0,0-0.1c0,0,0,0,0-0.1c0,0,0,0,0-0.1
				c0,0,0-0.1,0.1-0.1c0,0,0-0.1,0-0.1c0,0,0,0,0-0.1c0,0,0-0.1,0-0.1c0,0,0,0,0,0c0.1-0.1,0.1-0.3,0.2-0.5l8-1c0,0,0,0,0,0.1
				c1.2,1.5,3.3,1.8,4.8,0.6s1.8-3.3,0.6-4.8C62.4,108.3,60.2,108,58.8,109.1z"/>
		</g>
		<g>
			<path fill="#FFFFFF" d="M58.8,108.1c-0.6,0.5-1,1.1-1.2,1.8l-7.9,1c0,0,0,0,0-0.1c0,0,0-0.1-0.1-0.1c0,0,0-0.1-0.1-0.1
				c0,0,0,0,0,0c0,0,0,0,0-0.1l3-7.5c1.3-0.1,2.4-0.9,3-2.1c0.7-1.7-0.1-3.7-1.9-4.4c-1.7-0.7-3.7,0.1-4.4,1.9
				c-0.5,1.3-0.2,2.6,0.7,3.6l-3,7.4c-0.1,0-0.1,0-0.2,0c0,0,0,0-0.1,0c-0.1,0-0.1,0-0.2,0c0,0,0,0,0,0c0,0,0,0,0,0c0,0-0.1,0-0.1,0
				c0,0,0,0,0,0c0,0-0.1,0-0.1,0c0,0,0,0,0,0c-0.1,0-0.2,0.1-0.3,0.1c0,0,0,0,0,0c0,0-0.1,0-0.1,0c0,0,0,0,0,0c0,0-0.1,0-0.1,0
				c0,0,0,0-0.1,0c0,0-0.1,0-0.1,0c0,0,0,0,0,0c0,0-0.1,0-0.1,0.1c0,0,0,0,0,0c0,0-0.1,0.1-0.1,0.1c0,0,0,0-0.1,0c0,0,0,0-0.1,0.1
				c0,0,0,0-0.1,0c0,0,0,0-0.1,0c0,0,0,0,0,0c0,0,0,0-0.1,0.1c0,0,0,0-0.1,0.1c0,0,0,0,0,0c-0.5,0.5-0.9,1.1-1,1.8c0,0,0,0.1,0,0.1
				c0,0,0,0,0,0.1c0,0,0,0.1,0,0.1c0,0,0,0,0,0.1c0,0,0,0,0,0.1c0,0,0,0.1,0,0.1c0,0,0,0,0,0c0,0,0,0.1,0,0.1c0,0,0,0,0,0
				c0,0.4,0.1,0.8,0.2,1.2c0,0,0,0,0,0c0,0,0,0.1,0.1,0.1c0,0,0,0,0,0c0,0,0,0.1,0.1,0.1c0,0,0,0,0,0c0,0,0,0.1,0.1,0.1
				c0,0,0,0,0,0.1c0,0,0,0.1,0,0.1c0,0,0,0,0,0.1c0,0,0,0,0,0.1c0,0,0,0.1,0.1,0.1c0,0,0,0,0,0.1c0,0,0,0.1,0.1,0.1c0,0,0,0,0,0
				c0,0,0,0,0,0c0,0,0,0,0.1,0.1c0,0,0,0,0.1,0.1c0,0,0,0,0,0c0,0,0.1,0.1,0.1,0.1c0,0,0,0,0,0c0.4,0.4,0.8,0.6,1.2,0.8
				c0.3,0.1,0.7,0.2,1.1,0.2c0,0,0,0,0,0c0,0,0.1,0,0.1,0c0,0,0,0,0.1,0c0,0,0.1,0,0.1,0c0,0,0.1,0,0.1,0c0,0,0,0,0.1,0
				c0,0,0.1,0,0.1,0c0,0,0,0,0,0c0,0,0,0,0,0c0,0,0.1,0,0.1,0c0,0,0.1,0,0.1,0c0,0,0,0,0.1,0c0,0,0.1,0,0.1,0c0,0,0,0,0.1,0
				c0,0,0.1,0,0.1,0c0,0,0,0,0,0c0,0,0.1,0,0.1-0.1c0,0,0,0,0,0c0,0,0.1,0,0.1-0.1c0,0,0,0,0,0c0.4-0.2,0.7-0.4,1-0.7c0,0,0,0,0,0
				c0,0,0.1-0.1,0.1-0.1c0,0,0,0,0,0c0,0,0.1-0.1,0.1-0.1c0,0,0,0,0,0c0,0,0-0.1,0.1-0.1c0,0,0-0.1,0.1-0.1c0,0,0,0,0-0.1
				c0,0,0,0,0-0.1c0,0,0,0,0-0.1c0,0,0-0.1,0.1-0.1c0,0,0-0.1,0-0.1c0,0,0,0,0-0.1c0,0,0-0.1,0-0.1c0,0,0,0,0,0
				c0.1-0.1,0.1-0.3,0.2-0.5l8-1c0,0,0,0,0,0.1c1.2,1.5,3.3,1.8,4.8,0.6s1.8-3.3,0.6-4.8C62.4,107.3,60.2,107,58.8,108.1z"/>
		</g>
	</g>
	<g>
		<g opacity="0.3">
			<circle cx="201.8" cy="305.8" r="4.6"/>
			
				<circle fill="none" stroke="#000000" stroke-width="0.7575" stroke-linecap="round" stroke-miterlimit="10" cx="201.8" cy="305.8" r="4.6"/>
		</g>
		<g>
			<circle fill="#1A3D6F" cx="201.8" cy="304.8" r="4.6"/>
			
				<circle fill="none" stroke="#1A3D6F" stroke-width="0.7575" stroke-linecap="round" stroke-miterlimit="10" cx="201.8" cy="304.8" r="4.6"/>
		</g>
	</g>
</g>
<g id="greenelements">
	<ellipse opacity="0" fill="#231F20" cx="208.7" cy="200.4" rx="208.7" ry="200.4"/>
	<g>
		<g opacity="0.3">
			<path fill="none" stroke="#000000" stroke-width="2" stroke-linecap="round" stroke-miterlimit="10" d="M143.4,200.8
				c0-0.3,0-0.6,0-1c0-14.4,5.4-27.5,14.3-37.5c2.8-3.2,2.9-7.9,0.2-11.2L113.6,99"/>
			<ellipse transform="matrix(0.999 -4.383314e-02 4.383314e-02 0.999 -8.6539 6.4809)" cx="143.5" cy="200.6" rx="3.8" ry="3.8"/>
			<path d="M147.7,200.4c-0.1-2.3-2.1-4.2-4.4-4.1c-2.3,0.1-4.2,2.1-4.1,4.4c0.1,2.3,2.1,4.2,4.4,4.1S147.8,202.7,147.7,200.4
				C147.6,198,147.8,202.7,147.7,200.4z M140.2,200.7c-0.1-1.8,1.3-3.3,3.1-3.4c1.8-0.1,3.3,1.3,3.4,3.1c0.1,1.8-1.3,3.3-3.1,3.4
				C141.8,203.9,140.3,202.5,140.2,200.7C140.1,198.9,140.3,202.5,140.2,200.7z"/>
		</g>
		<g>
			<g>
				<path fill="none" stroke="#00A0A3" stroke-width="2" stroke-linecap="round" stroke-miterlimit="10" d="M143.4,199.8
					c0-0.3,0-0.6,0-1c0-14.4,5.4-27.5,14.3-37.5c2.8-3.2,2.9-7.9,0.2-11.2L113.6,98"/>
				<g>
					<g>
						
							<ellipse transform="matrix(0.999 -4.383314e-02 4.383314e-02 0.999 -8.6101 6.4799)" fill="#FFFFFF" cx="143.5" cy="199.6" rx="3.8" ry="3.8"/>
						<path fill="#00A0A3" d="M147.7,199.4c-0.1-2.3-2.1-4.2-4.4-4.1c-2.3,0.1-4.2,2.1-4.1,4.4c0.1,2.3,2.1,4.2,4.4,4.1
							S147.8,201.7,147.7,199.4C147.6,197,147.8,201.7,147.7,199.4z M140.2,199.7c-0.1-1.8,1.3-3.3,3.1-3.4c1.8-0.1,3.3,1.3,3.4,3.1
							c0.1,1.8-1.3,3.3-3.1,3.4C141.8,202.9,140.3,201.5,140.2,199.7C140.1,197.9,140.3,201.5,140.2,199.7z"/>
					</g>
				</g>
			</g>
		</g>
	</g>
	<g>
		<g opacity="0.3">
			<circle cx="113.6" cy="98.8" r="19.5"/>
			
				<circle fill="none" stroke="#000000" stroke-width="2.4709" stroke-linecap="round" stroke-miterlimit="10" cx="113.6" cy="98.8" r="19.5"/>
		</g>
		<g>
			<circle fill="#00A0A3" cx="113.6" cy="97.8" r="19.5"/>
			
				<circle fill="none" stroke="#00A0A3" stroke-width="2.4709" stroke-linecap="round" stroke-miterlimit="10" cx="113.6" cy="97.8" r="19.5"/>
		</g>
	</g>
	<g>
		<g opacity="0.3">
			<path fill="none" stroke="#000000" stroke-width="2" stroke-linecap="round" stroke-miterlimit="10" d="M120.6,295.9l40.6-41.6
				c0.9-0.9,0.9-2.3,0-3.2c-7.9-8.3-13.7-18.5-16.5-30c-0.4-1.5-0.7-3.1-1-4.7c-0.2-1.2-1.3-2-2.5-1.9l-28.6,3.2"/>
		</g>
		<g>
			<path fill="none" stroke="#00A0A3" stroke-width="2" stroke-linecap="round" stroke-miterlimit="10" d="M120.6,294.9l40.6-41.6
				c0.9-0.9,0.9-2.3,0-3.2c-7.9-8.3-13.7-18.5-16.5-30c-0.4-1.5-0.7-3.1-1-4.7c-0.2-1.2-1.3-2-2.5-1.9l-28.6,3.2"/>
		</g>
	</g>
	<g>
		<g opacity="0.3">
			<path fill="none" stroke="#000000" stroke-width="2" stroke-linecap="round" stroke-miterlimit="10" d="M213.8,97.2l-1.8,38.5
				c-0.1,1.2-1.1,2.2-2.3,2.2c0,0,0,0,0,0c-27.4,0-50.9,16.4-61.3,40c-0.5,1-1.6,1.6-2.7,1.3l-60.7-21.2"/>
		</g>
		<g>
			<path fill="none" stroke="#00A0A3" stroke-width="2" stroke-linecap="round" stroke-miterlimit="10" d="M213.8,96.2l-1.8,38.5
				c-0.1,1.2-1.1,2.2-2.3,2.2c0,0,0,0,0,0c-27.4,0-50.9,16.4-61.3,40c-0.5,1-1.6,1.6-2.7,1.3l-60.7-21.2"/>
		</g>
	</g>
	<g>
		<g opacity="0.3">
			<path fill="none" stroke="#000000" stroke-width="2" stroke-linecap="round" stroke-miterlimit="10" d="M245,36.1l-21,101
				c-0.3,1.2,0.5,2.4,1.7,2.7c10.2,2.5,19.6,7.4,27.3,14c1,0.8,2.5,0.7,3.3-0.3l34.1-42.1"/>
		</g>
		<g>
			<path fill="none" stroke="#00A0A3" stroke-width="2" stroke-linecap="round" stroke-miterlimit="10" d="M245,35.1l-21,101
				c-0.3,1.2,0.5,2.4,1.7,2.7c10.2,2.5,19.6,7.4,27.3,14c1,0.8,2.5,0.7,3.3-0.3l34.1-42.1"/>
		</g>
	</g>
	<g>
		<g opacity="0.3">
			<path fill="none" stroke="#000000" stroke-width="2" stroke-linecap="round" stroke-miterlimit="10" d="M362.2,131.6l-90.6,42
				c-1.2,0.5-1.7,1.9-1.1,3.1c4,8.5,6.2,18.1,6.2,28.1c0,1.9-0.1,3.8-0.2,5.7"/>
			<ellipse transform="matrix(0.1077 -0.9942 0.9942 0.1077 37.5956 462.4449)" cx="276.4" cy="210.3" rx="3.8" ry="3.8"/>
			<path d="M272.2,209.8c0.3-2.3,2.4-4,4.7-3.8c2.3,0.3,4,2.4,3.8,4.7c-0.3,2.3-2.4,4-4.7,3.8C273.6,214.3,271.9,212.2,272.2,209.8
				C272.4,207.5,271.9,212.2,272.2,209.8z M279.7,210.6c0.2-1.8-1.1-3.4-2.9-3.6c-1.8-0.2-3.4,1.1-3.6,2.9c-0.2,1.8,1.1,3.4,2.9,3.6
				C277.9,213.7,279.5,212.4,279.7,210.6C279.9,208.8,279.5,212.4,279.7,210.6z"/>
		</g>
		<g>
			<g>
				<path fill="none" stroke="#00A0A3" stroke-width="2" stroke-linecap="round" stroke-miterlimit="10" d="M362.2,130.6l-90.6,42
					c-1.2,0.5-1.7,1.9-1.1,3.1c4,8.5,6.2,18.1,6.2,28.1c0,1.9-0.1,3.8-0.2,5.7"/>
				<g>
					<g>
						
							<ellipse transform="matrix(0.1077 -0.9942 0.9942 0.1077 38.5898 461.5526)" fill="#FFFFFF" cx="276.4" cy="209.3" rx="3.8" ry="3.8"/>
						<path fill="#00A0A3" d="M272.2,208.8c0.3-2.3,2.4-4,4.7-3.8c2.3,0.3,4,2.4,3.8,4.7c-0.3,2.3-2.4,4-4.7,3.8
							C273.6,213.3,271.9,211.2,272.2,208.8C272.4,206.5,271.9,211.2,272.2,208.8z M279.7,209.6c0.2-1.8-1.1-3.4-2.9-3.6
							c-1.8-0.2-3.4,1.1-3.6,2.9c-0.2,1.8,1.1,3.4,2.9,3.6C277.9,212.7,279.5,211.4,279.7,209.6
							C279.9,207.8,279.5,211.4,279.7,209.6z"/>
					</g>
				</g>
			</g>
		</g>
	</g>
	<g>
		<g opacity="0.3">
			<path fill="none" stroke="#000000" stroke-width="2" stroke-linecap="round" stroke-miterlimit="10" d="M332.9,241.6l-57.1-16.3
				c-1.2-0.3-2.4,0.3-2.8,1.5c-2.4,7-5.9,13.4-10.4,19.1"/>
			<ellipse transform="matrix(0.6223 -0.7828 0.7828 0.6223 -93.0258 298.4232)" cx="262.7" cy="245.6" rx="3.8" ry="3.8"/>
			<path d="M259.4,243c1.5-1.8,4.1-2.1,6-0.7c1.8,1.5,2.1,4.1,0.7,6c-1.5,1.8-4.1,2.1-6,0.7C258.2,247.5,257.9,244.8,259.4,243
				C260.9,241.1,257.9,244.8,259.4,243z M265.3,247.6c1.1-1.4,0.9-3.5-0.5-4.6c-1.4-1.1-3.5-0.9-4.6,0.5c-1.1,1.4-0.9,3.5,0.5,4.6
				C262.1,249.3,264.2,249,265.3,247.6C266.4,246.2,264.2,249,265.3,247.6z"/>
		</g>
		<g>
			<g>
				<path fill="none" stroke="#00A0A3" stroke-width="2" stroke-linecap="round" stroke-miterlimit="10" d="M332.9,240.6l-57.1-16.3
					c-1.2-0.3-2.4,0.3-2.8,1.5c-2.4,7-5.9,13.4-10.4,19.1"/>
				<g>
					<g>
						
							<ellipse transform="matrix(0.6223 -0.7828 0.7828 0.6223 -92.243 298.0455)" fill="#FFFFFF" cx="262.7" cy="244.6" rx="3.8" ry="3.8"/>
						<path fill="#00A0A3" d="M259.4,242c1.5-1.8,4.1-2.1,6-0.7c1.8,1.5,2.1,4.1,0.7,6c-1.5,1.8-4.1,2.1-6,0.7
							C258.2,246.5,257.9,243.8,259.4,242C260.9,240.1,257.9,243.8,259.4,242z M265.3,246.6c1.1-1.4,0.9-3.5-0.5-4.6
							c-1.4-1.1-3.5-0.9-4.6,0.5c-1.1,1.4-0.9,3.5,0.5,4.6C262.1,248.3,264.2,248,265.3,246.6C266.4,245.2,264.2,248,265.3,246.6z"
							/>
					</g>
				</g>
			</g>
		</g>
	</g>
	<g>
		<g opacity="0.3">
			<path fill="none" stroke="#000000" stroke-width="2" stroke-linecap="round" stroke-miterlimit="10" d="M269.5,279.7l-14.6-22.1
				c-0.8-1.1-2.3-1.4-3.4-0.5c-10.9,8.7-24.6,14.1-39.6,14.6c-1.2,0-2.2,1.1-2.2,2.3v86.4"/>
		</g>
		<g>
			<path fill="none" stroke="#00A0A3" stroke-width="2" stroke-linecap="round" stroke-miterlimit="10" d="M269.5,278.7l-14.6-22.1
				c-0.8-1.1-2.3-1.4-3.4-0.5c-10.9,8.7-24.6,14.1-39.6,14.6c-1.2,0-2.2,1.1-2.2,2.3v86.4"/>
		</g>
	</g>
	<g id="Cloud">
		<g opacity="0.3">
			<path d="M124.1,93.9c-0.1-0.1-0.1-0.3-0.2-0.4c-0.9-1.6-3-2.2-4.6-1.3c-0.4,0.2-0.8,0.5-1,0.9c-1.1-1.9-3.6-2.5-5.5-1.4
				c-0.6,0.3-1.1,0.8-1.5,1.4c-2-1.1-4.6-1.2-6.8,0c-3.4,1.9-4.6,6.1-2.7,9.5c0.5,0.9,1.1,1.6,1.9,2.1c-0.6,1.2-0.6,2.6,0.1,3.9
				c1,1.8,3.2,2.6,5.1,1.8c0.2-0.1,0.3-0.1,0.5-0.2l17.3-9.7c1.7-0.9,2.3-3,1.4-4.7l-0.1-0.3C127.2,94.2,125.6,93.6,124.1,93.9z"/>
		</g>
		<g>
			<path fill="#FFFFFF" d="M124.1,92.9c-0.1-0.1-0.1-0.3-0.2-0.4c-0.9-1.6-3-2.2-4.6-1.3c-0.4,0.2-0.8,0.5-1,0.9
				c-1.1-1.9-3.6-2.5-5.5-1.4c-0.6,0.3-1.1,0.8-1.5,1.4c-2-1.1-4.6-1.2-6.8,0c-3.4,1.9-4.6,6.1-2.7,9.5c0.5,0.9,1.1,1.6,1.9,2.1
				c-0.6,1.2-0.6,2.6,0.1,3.9c1,1.8,3.2,2.6,5.1,1.8c0.2-0.1,0.3-0.1,0.5-0.2l17.3-9.7c1.7-0.9,2.3-3,1.4-4.7l-0.1-0.3
				C127.2,93.2,125.6,92.6,124.1,92.9z"/>
		</g>
	</g>
	<g>
		<g opacity="0.3">
			<circle cx="213.8" cy="97.2" r="6.9"/>
			
				<circle fill="none" stroke="#000000" stroke-width="1.1272" stroke-linecap="round" stroke-miterlimit="10" cx="213.8" cy="97.2" r="6.9"/>
		</g>
		<g>
			<circle fill="#00A0A3" cx="213.8" cy="96.2" r="6.9"/>
			
				<circle fill="none" stroke="#00A0A3" stroke-width="1.1272" stroke-linecap="round" stroke-miterlimit="10" cx="213.8" cy="96.2" r="6.9"/>
		</g>
	</g>
	<g>
		<g opacity="0.3">
			<circle cx="290.4" cy="111.6" r="6.7"/>
			
				<circle fill="none" stroke="#000000" stroke-width="1.0938" stroke-linecap="round" stroke-miterlimit="10" cx="290.4" cy="111.6" r="6.7"/>
		</g>
		<g>
			<circle fill="#00A0A3" cx="290.4" cy="110.6" r="6.7"/>
			
				<circle fill="none" stroke="#00A0A3" stroke-width="1.0938" stroke-linecap="round" stroke-miterlimit="10" cx="290.4" cy="110.6" r="6.7"/>
		</g>
	</g>
	<g>
		<g opacity="0.3">
			<circle cx="362.2" cy="131.6" r="9.1"/>
			
				<circle fill="none" stroke="#000000" stroke-width="1.4932" stroke-linecap="round" stroke-miterlimit="10" cx="362.2" cy="131.6" r="9.1"/>
		</g>
		<g>
			<circle fill="#00A0A3" cx="362.2" cy="130.6" r="9.1"/>
			
				<circle fill="none" stroke="#00A0A3" stroke-width="1.4932" stroke-linecap="round" stroke-miterlimit="10" cx="362.2" cy="130.6" r="9.1"/>
		</g>
	</g>
	<g>
		<g opacity="0.3">
			<circle cx="332.9" cy="241.7" r="11.4"/>
			
				<circle fill="none" stroke="#000000" stroke-width="1.8697" stroke-linecap="round" stroke-miterlimit="10" cx="332.9" cy="241.7" r="11.4"/>
		</g>
		<g>
			<circle fill="#00A0A3" cx="332.9" cy="240.7" r="11.4"/>
			
				<circle fill="none" stroke="#00A0A3" stroke-width="1.8697" stroke-linecap="round" stroke-miterlimit="10" cx="332.9" cy="240.7" r="11.4"/>
		</g>
	</g>
	<g>
		<g opacity="0.3">
			<circle cx="84.9" cy="157.9" r="6.6"/>
			
				<circle fill="none" stroke="#000000" stroke-width="1.0853" stroke-linecap="round" stroke-miterlimit="10" cx="84.9" cy="157.9" r="6.6"/>
		</g>
		<g>
			<circle fill="#00A0A3" cx="84.9" cy="156.9" r="6.6"/>
			
				<circle fill="none" stroke="#00A0A3" stroke-width="1.0853" stroke-linecap="round" stroke-miterlimit="10" cx="84.9" cy="156.9" r="6.6"/>
		</g>
	</g>
	<g>
		<g opacity="0.3">
			<path d="M332.1,245.9l0.3-0.7l2,0.9l0,0c1.4,0.6,3.1,0,3.7-1.4c0.6-1.4,0-3.1-1.4-3.7l0,0l-2-0.9l0.3-0.7c0.1-0.2,0-0.3-0.2-0.4
				l-4-1.8c-0.2-0.1-0.3,0-0.4,0.2l-2.9,6.6c-0.1,0.2,0,0.3,0.2,0.4l4,1.8C331.8,246.1,332,246.1,332.1,245.9z M336.2,241.9
				C336.2,241.9,336.2,241.9,336.2,241.9c0.8,0.4,1.2,1.4,0.9,2.3c-0.4,0.9-1.4,1.3-2.3,0.9c0,0,0,0,0,0l-2-0.9l1.4-3.1L336.2,241.9
				z M330.3,241.8l0.5-1.1l0.9,0.8c0.2-0.2,0.5-0.3,0.7-0.1c0.3,0.1,0.5,0.5,0.3,0.8c-0.1,0.3-0.5,0.5-0.8,0.3
				c-0.2-0.1-0.4-0.4-0.4-0.6L330.3,241.8z"/>
		</g>
		<g>
			<path fill="#FFFFFF" d="M332.1,244.9l0.3-0.7l2,0.9l0,0c1.4,0.6,3.1,0,3.7-1.4c0.6-1.4,0-3.1-1.4-3.7l0,0l-2-0.9l0.3-0.7
				c0.1-0.2,0-0.3-0.2-0.4l-4-1.8c-0.2-0.1-0.3,0-0.4,0.2l-2.9,6.6c-0.1,0.2,0,0.3,0.2,0.4l4,1.8C331.8,245.1,332,245.1,332.1,244.9
				z M336.2,240.9C336.2,240.9,336.2,240.9,336.2,240.9c0.8,0.4,1.2,1.4,0.9,2.3c-0.4,0.9-1.4,1.3-2.3,0.9c0,0,0,0,0,0l-2-0.9
				l1.4-3.1L336.2,240.9z M330.3,240.8l0.5-1.1l0.9,0.8c0.2-0.2,0.5-0.3,0.7-0.1c0.3,0.1,0.5,0.5,0.3,0.8c-0.1,0.3-0.5,0.5-0.8,0.3
				c-0.2-0.1-0.4-0.4-0.4-0.6L330.3,240.8z"/>
		</g>
	</g>
	<g>
		<g opacity="0.3">
			<circle cx="112.5" cy="217.8" r="10.6"/>
			
				<circle fill="none" stroke="#000000" stroke-width="1.7305" stroke-linecap="round" stroke-miterlimit="10" cx="112.5" cy="217.8" r="10.6"/>
		</g>
		<g>
			<circle fill="#00A0A3" cx="112.5" cy="216.8" r="10.6"/>
			
				<circle fill="none" stroke="#00A0A3" stroke-width="1.7305" stroke-linecap="round" stroke-miterlimit="10" cx="112.5" cy="216.8" r="10.6"/>
		</g>
	</g>
	<g>
		<g opacity="0.3">
			<path d="M107.1,214.3v7.5c0,0.5,0.4,0.9,0.9,0.9h9.2c0.5,0,0.9-0.4,0.9-0.9v-7.5c0-0.5-0.4-0.9-0.9-0.9h-9.2
				C107.5,213.4,107.1,213.8,107.1,214.3z M108.1,214.5h1.6v7.2h-1.6V214.5z M117,221.6h-6.6v-7.2h6.6V221.6z"/>
			<circle cx="111.8" cy="220.2" r="0.7"/>
			<circle cx="111.8" cy="218.1" r="0.7"/>
			<circle cx="111.8" cy="216.1" r="0.7"/>
			<circle cx="113.7" cy="220.2" r="0.7"/>
			<circle cx="113.7" cy="218.1" r="0.7"/>
			<circle cx="113.7" cy="216.1" r="0.7"/>
			<circle cx="115.6" cy="220.2" r="0.7"/>
			<circle cx="115.6" cy="218.1" r="0.7"/>
			<circle cx="115.6" cy="216.1" r="0.7"/>
		</g>
		<g>
			<g>
				<path fill="#FFFFFF" d="M107.1,213.3v7.5c0,0.5,0.4,0.9,0.9,0.9h9.2c0.5,0,0.9-0.4,0.9-0.9v-7.5c0-0.5-0.4-0.9-0.9-0.9h-9.2
					C107.5,212.4,107.1,212.8,107.1,213.3z M108.1,213.5h1.6v7.2h-1.6V213.5z M117,220.6h-6.6v-7.2h6.6V220.6z"/>
				<circle fill="#FFFFFF" cx="111.8" cy="219.2" r="0.7"/>
				<circle fill="#FFFFFF" cx="111.8" cy="217.1" r="0.7"/>
				<circle fill="#FFFFFF" cx="111.8" cy="215.1" r="0.7"/>
				<circle fill="#FFFFFF" cx="113.7" cy="219.2" r="0.7"/>
				<circle fill="#FFFFFF" cx="113.7" cy="217.1" r="0.7"/>
				<circle fill="#FFFFFF" cx="113.7" cy="215.1" r="0.7"/>
				<circle fill="#FFFFFF" cx="115.6" cy="219.2" r="0.7"/>
				<circle fill="#FFFFFF" cx="115.6" cy="217.1" r="0.7"/>
				<circle fill="#FFFFFF" cx="115.6" cy="215.1" r="0.7"/>
			</g>
		</g>
	</g>
	<g>
		<g opacity="0.3">
			<circle cx="244.2" cy="36.8" r="14"/>
			
				<circle fill="none" stroke="#000000" stroke-width="2.2997" stroke-linecap="round" stroke-miterlimit="10" cx="244.2" cy="36.8" r="14"/>
		</g>
		<g>
			<circle fill="#00A0A3" cx="244.2" cy="35.8" r="14"/>
			
				<circle fill="none" stroke="#00A0A3" stroke-width="2.2997" stroke-linecap="round" stroke-miterlimit="10" cx="244.2" cy="35.8" r="14"/>
		</g>
	</g>
	<g>
		<g opacity="0.3">
			<path d="M251.6,32.2l-0.8-1.7c-0.3-0.5-0.7-0.8-1.3-0.9l-1.6-0.3c-0.6-0.1-1.1,0.1-1.5,0.5l-1.3,1.3l-6.2-1
				c-1.5-0.2-2.9,0.8-3.1,2.2l-1.1,6.4c-0.2,1.5,0.8,2.9,2.2,3.1l12.3,2c1.5,0.2,2.9-0.8,3.1-2.2l1.1-6.4
				C253.5,33.9,252.8,32.7,251.6,32.2z M247.3,30.7c0,0,0.1-0.1,0.2-0.1c0.1,0,0.2,0,0.2,0l1.6,0.3c0,0,0.1,0,0.2,0.1
				c0.1,0,0.1,0.1,0.1,0.1l0.4,0.8l-3.3-0.5L247.3,30.7z M242.8,40.6c-2.1-0.3-3.5-2.3-3.2-4.4c0.3-2.1,2.3-3.5,4.4-3.2
				c2.1,0.3,3.5,2.3,3.2,4.4S244.9,40.9,242.8,40.6z M236.3,39l1.1-6.4c0.1-0.6,0.7-1,1.2-0.9l1.8,0.3c-1.3,0.8-2.3,2.2-2.5,3.9
				c-0.3,1.8,0.2,3.4,1.3,4.7l-2-0.3C236.6,40.1,236.2,39.5,236.3,39z M250.7,41.3c-0.1,0.6-0.7,1-1.2,0.9l-3.1-0.5
				c1.4-0.8,2.5-2.3,2.8-4c0.3-1.7-0.2-3.3-1.2-4.5l2.9,0.5c0.6,0.1,1,0.7,0.9,1.2L250.7,41.3z"/>
		</g>
		<g>
			<path fill="#FFFFFF" d="M251.6,31.2l-0.8-1.7c-0.3-0.5-0.7-0.8-1.3-0.9l-1.6-0.3c-0.6-0.1-1.1,0.1-1.5,0.5l-1.3,1.3l-6.2-1
				c-1.5-0.2-2.9,0.8-3.1,2.2l-1.1,6.4c-0.2,1.5,0.8,2.9,2.2,3.1l12.3,2c1.5,0.2,2.9-0.8,3.1-2.2l1.1-6.4
				C253.5,32.9,252.8,31.7,251.6,31.2z M247.3,29.7c0,0,0.1-0.1,0.2-0.1c0.1,0,0.2,0,0.2,0l1.6,0.3c0,0,0.1,0,0.2,0.1
				c0.1,0,0.1,0.1,0.1,0.1l0.4,0.8l-3.3-0.5L247.3,29.7z M242.8,39.6c-2.1-0.3-3.5-2.3-3.2-4.4c0.3-2.1,2.3-3.5,4.4-3.2
				c2.1,0.3,3.5,2.3,3.2,4.4S244.9,39.9,242.8,39.6z M236.3,38l1.1-6.4c0.1-0.6,0.7-1,1.2-0.9l1.8,0.3c-1.3,0.8-2.3,2.2-2.5,3.9
				c-0.3,1.8,0.2,3.4,1.3,4.7l-2-0.3C236.6,39.1,236.2,38.5,236.3,38z M250.7,40.3c-0.1,0.6-0.7,1-1.2,0.9l-3.1-0.5
				c1.4-0.8,2.5-2.3,2.8-4c0.3-1.7-0.2-3.3-1.2-4.5l2.9,0.5c0.6,0.1,1,0.7,0.9,1.2L250.7,40.3z"/>
		</g>
	</g>
	<g>
		<g opacity="0.3">
			<circle cx="269.5" cy="279.9" r="11.4"/>
			
				<circle fill="none" stroke="#000000" stroke-width="1.8697" stroke-linecap="round" stroke-miterlimit="10" cx="269.5" cy="279.9" r="11.4"/>
		</g>
		<g>
			<circle fill="#00A0A3" cx="269.5" cy="278.9" r="11.4"/>
			
				<circle fill="none" stroke="#00A0A3" stroke-width="1.8697" stroke-linecap="round" stroke-miterlimit="10" cx="269.5" cy="278.9" r="11.4"/>
		</g>
	</g>
	<g>
		<g opacity="0.3">
			<polygon points="264.1,281.5 274.9,284.2 269.6,274.6 268.5,278.4 264.8,275.9 263.9,277.3 267.4,279.7 			"/>
		</g>
		<g>
			<polygon fill="#FFFFFF" points="264.1,280.5 274.9,283.2 269.6,273.6 268.5,277.4 264.8,274.9 263.9,276.3 267.4,278.7 			"/>
		</g>
	</g>
	<g>
		<g opacity="0.3">
			<circle cx="209.7" cy="369.1" r="14.6"/>
			
				<circle fill="none" stroke="#000000" stroke-width="2.3869" stroke-linecap="round" stroke-miterlimit="10" cx="209.7" cy="369.1" r="14.6"/>
		</g>
		<g>
			<circle fill="#00A0A3" cx="209.7" cy="368.1" r="14.6"/>
			
				<circle fill="none" stroke="#00A0A3" stroke-width="2.3869" stroke-linecap="round" stroke-miterlimit="10" cx="209.7" cy="368.1" r="14.6"/>
		</g>
	</g>
	<g id="Nota_2_">
		<g opacity="0.3">
			<path d="M201.1,365.1v11.5l0,0l0,0v0l0,0l11.1-1.5h0v-9.1c0.4,0.1,0.9,0.2,1.5,0.1c1.6-0.2,2.9-1.3,2.7-2.6
				c-0.1-1.3-1.6-2.2-3.2-2c-1.6,0.2-2.9,1.3-2.7,2.6c0,0,0,0.1,0,0.1v7.9l-7.7,1.1V367c0.4,0.1,0.9,0.2,1.5,0.1
				c1.6-0.2,2.9-1.3,2.7-2.6c-0.1-1.3-1.6-2.2-3.2-2C202.2,362.6,201,363.8,201.1,365.1C201.1,365.1,201.1,365.1,201.1,365.1z"/>
		</g>
		<g>
			<path fill="#FFFFFF" d="M201.1,364.1v11.5l0,0l0,0v0l0,0l11.1-1.5h0v-9.1c0.4,0.1,0.9,0.2,1.5,0.1c1.6-0.2,2.9-1.3,2.7-2.6
				c-0.1-1.3-1.6-2.2-3.2-2c-1.6,0.2-2.9,1.3-2.7,2.6c0,0,0,0.1,0,0.1v7.9l-7.7,1.1V366c0.4,0.1,0.9,0.2,1.5,0.1
				c1.6-0.2,2.9-1.3,2.7-2.6c-0.1-1.3-1.6-2.2-3.2-2C202.2,361.6,201,362.8,201.1,364.1C201.1,364.1,201.1,364.1,201.1,364.1z"/>
		</g>
	</g>
	<g>
		<g opacity="0.3">
			<circle cx="120.6" cy="295.9" r="9.6"/>
			
				<circle fill="none" stroke="#000000" stroke-width="1.5699" stroke-linecap="round" stroke-miterlimit="10" cx="120.6" cy="295.9" r="9.6"/>
		</g>
		<g>
			<circle fill="#00A0A3" cx="120.6" cy="294.9" r="9.6"/>
			
				<circle fill="none" stroke="#00A0A3" stroke-width="1.5699" stroke-linecap="round" stroke-miterlimit="10" cx="120.6" cy="294.9" r="9.6"/>
		</g>
	</g>
	<g>
		<g opacity="0.3">
			<path d="M117.8,293.1l0.6,0.5l-1.4,1.7l0,0c-1,1.2-0.9,2.9,0.3,4c1.2,1,2.9,0.9,4-0.3l0,0l1.4-1.7l0.6,0.5c0.1,0.1,0.3,0.1,0.4,0
				l2.9-3.3c0.1-0.1,0.1-0.3,0-0.4l-5.4-4.7c-0.1-0.1-0.3-0.1-0.4,0l-2.9,3.3C117.7,292.8,117.7,293,117.8,293.1z M120.4,298.3
				C120.4,298.3,120.4,298.3,120.4,298.3c-0.6,0.7-1.7,0.8-2.4,0.2c-0.7-0.6-0.8-1.7-0.2-2.4c0,0,0,0,0,0l1.4-1.7l2.6,2.3
				L120.4,298.3z M122.3,292.6l0.9,0.8l-1,0.6c0.1,0.2,0.1,0.5-0.1,0.7c-0.2,0.3-0.6,0.3-0.9,0.1c-0.3-0.2-0.3-0.6-0.1-0.9
				c0.2-0.2,0.5-0.3,0.7-0.2L122.3,292.6z"/>
		</g>
		<g>
			<path fill="#FFFFFF" d="M117.8,292.1l0.6,0.5l-1.4,1.7l0,0c-1,1.2-0.9,2.9,0.3,4c1.2,1,2.9,0.9,4-0.3l0,0l1.4-1.7l0.6,0.5
				c0.1,0.1,0.3,0.1,0.4,0l2.9-3.3c0.1-0.1,0.1-0.3,0-0.4l-5.4-4.7c-0.1-0.1-0.3-0.1-0.4,0l-2.9,3.3
				C117.7,291.8,117.7,292,117.8,292.1z M120.4,297.3C120.4,297.3,120.4,297.3,120.4,297.3c-0.6,0.7-1.7,0.8-2.4,0.2
				c-0.7-0.6-0.8-1.7-0.2-2.4c0,0,0,0,0,0l1.4-1.7l2.6,2.3L120.4,297.3z M122.3,291.6l0.9,0.8l-1,0.6c0.1,0.2,0.1,0.5-0.1,0.7
				c-0.2,0.3-0.6,0.3-0.9,0.1c-0.3-0.2-0.3-0.6-0.1-0.9c0.2-0.2,0.5-0.3,0.7-0.2L122.3,291.6z"/>
		</g>
	</g>
</g>
<g id="eustars">
	<circle id="pulsecircle2" fill="#1A3D6F" cx="209.7" cy="203.4" r="47.9"/>
	<circle id="pulsecircle1" fill="#1A3D6F" cx="209.7" cy="203.4" r="47.9"/>
	<linearGradient id="circle_2_" gradientUnits="userSpaceOnUse" x1="209.7251" y1="157.7372" x2="209.7251" y2="247.2511">
		<stop  offset="0.1147" style="stop-color:#3A66A3"/>
		<stop  offset="0.8559" style="stop-color:#1A3D6F"/>
	</linearGradient>
	<circle id="circle" fill="url(#circle_2_)" cx="209.7" cy="203.4" r="47.9"/>
	<polygon fill="#FFD400" points="190.9,180.3 193.8,178.4 196.6,180.3 195.7,177 198.5,175.1 195.2,175.1 194.2,171.7 193.3,175.1 
		189.9,175.1 192.8,177 	"/>
	<polygon fill="#FFD400" points="206.9,176.3 209.7,174.4 212.6,176.3 211.6,172.9 214.5,171 211.2,171 210.2,167.7 209.2,171 
		205.9,171 208.8,172.9 	"/>
	<polygon fill="#FFD400" points="210.9,234 210,230.6 209,234 205.7,234 208.5,235.9 207.6,239.2 210.4,237.3 213.3,239.2 
		212.3,235.9 215.2,234 	"/>
	<polygon fill="#FFD400" points="178.3,205.8 181.1,207.7 180.2,204.4 183,202.5 179.7,202.5 178.7,199.2 177.8,202.5 174.4,202.5 
		177.3,204.4 176.4,207.7 	"/>
	<polygon fill="#FFD400" points="179.2,192 182.1,190.1 184.9,192 184,188.7 186.8,186.8 183.5,186.8 182.5,183.4 181.6,186.8 
		178.3,186.8 181.1,188.7 	"/>
	<polygon fill="#FFD400" points="194.9,229.7 194,226.3 193,229.7 189.7,229.7 192.6,231.6 191.6,234.9 194.5,233 197.3,234.9 
		196.4,231.6 199.2,229.7 	"/>
	<polygon fill="#FFD400" points="238.1,218 237.1,214.6 236.2,218 232.8,218 235.7,219.9 234.8,223.2 237.6,221.3 240.5,223.2 
		239.5,219.9 242.4,218 	"/>
	<polygon fill="#FFD400" points="226.4,229.7 225.5,226.3 224.5,229.7 221.2,229.7 224,231.6 223.1,234.9 225.9,233 228.8,234.9 
		227.8,231.6 230.7,229.7 	"/>
	<polygon fill="#FFD400" points="245.5,202.5 242.1,202.5 241.2,199.2 240,202.5 236.7,202.5 239.5,204.4 238.6,207.7 241.4,205.8 
		244.3,207.7 243.3,204.4 	"/>
	<polygon fill="#FFD400" points="225.5,172 224.5,175.3 221.2,175.3 224,177.2 223.1,180.6 225.9,178.7 228.8,180.6 227.8,177.2 
		230.7,175.3 227.4,175.3 	"/>
	<polygon fill="#FFD400" points="234,191.8 236.9,189.9 239.8,191.8 238.8,188.4 241.7,186.5 238.3,186.5 237.4,183.2 236.4,186.5 
		233.1,186.5 235.9,188.4 	"/>
	<polygon fill="#FFD400" points="183.3,218 182.3,214.6 181.4,218 178,218 180.9,219.9 179.9,223.2 182.8,221.3 185.6,223.2 
		184.7,219.9 187.6,218 183.3,218 	"/>
	<g id="dsmtext">
		<path fill="#FFD400" d="M199.9,198.6c0.9,0.5,1.6,1.1,2.1,2c0.5,0.8,0.8,1.8,0.8,2.9s-0.3,2.1-0.8,2.9c-0.5,0.9-1.2,1.5-2.2,2
			c-0.9,0.5-2,0.7-3.2,0.7h-4.8v-11.2h4.9C197.9,197.9,199,198.1,199.9,198.6z M198.7,205.7c0.5-0.5,0.7-1.3,0.7-2.2
			c0-0.9-0.3-1.6-0.8-2.2c-0.5-0.6-1.2-0.8-2-0.8h-1.5v6h1.7C197.6,206.5,198.2,206.2,198.7,205.7z"/>
		<path fill="#FFD400" d="M210.1,200.6c-0.7-0.2-1.3-0.4-1.8-0.4c-0.3,0-0.5,0.1-0.7,0.2c-0.2,0.1-0.2,0.3-0.2,0.5
			c0,0.3,0.2,0.5,0.5,0.7c0.3,0.2,0.8,0.3,1.5,0.5c0.8,0.2,1.4,0.5,2,0.7s1,0.6,1.3,1c0.4,0.5,0.6,1.1,0.6,1.9c0,0.8-0.2,1.4-0.6,2
			c-0.4,0.5-1,0.9-1.7,1.2s-1.5,0.4-2.3,0.4c-1,0-1.9-0.2-2.9-0.5s-1.8-0.8-2.5-1.3l1.2-2.5c0.6,0.5,1.3,0.9,2.1,1.2
			c0.8,0.3,1.5,0.5,2.1,0.5c0.4,0,0.6-0.1,0.8-0.2c0.2-0.1,0.3-0.3,0.3-0.6c0-0.3-0.2-0.5-0.5-0.7c-0.3-0.2-0.8-0.3-1.5-0.5
			c-0.8-0.2-1.4-0.4-1.9-0.6c-0.5-0.2-1-0.6-1.3-1c-0.4-0.5-0.6-1.1-0.6-1.8c0-0.7,0.2-1.4,0.6-1.9c0.4-0.5,0.9-1,1.6-1.2
			s1.5-0.4,2.4-0.4c0.8,0,1.7,0.1,2.5,0.4c0.8,0.2,1.6,0.6,2.2,1l-1.2,2.6C211.5,201.1,210.8,200.8,210.1,200.6z"/>
		<path fill="#FFD400" d="M214.5,197.9h3.6l3,6.2l3-6.2h3.6v11.2h-2.9v-6.7l-2.6,5.6H220l-2.6-5.6v6.7h-2.9V197.9z"/>
	</g>
</g>
</svg>
