<?xml version="1.0" encoding="utf-8"?>
<!-- Generator: Adobe Illustrator 21.1.0, SVG Export Plug-In . SVG Version: 6.00 Build 0)  -->
<svg version="1.1" id="Capa_1" xmlns="http://www.w3.org/2000/svg" xmlns:xlink="http://www.w3.org/1999/xlink" x="0px" y="0px"
	 viewBox="0 0 59 59" style="enable-background:new 0 0 59 59;" xml:space="preserve">
<style type="text/css">
	.st0{fill:#1B998B;}
	.st1{fill:#28685C;}
	.st2{fill:#FDD7AD;}
</style>
<g>
	<path class="st0" d="M30.2,5l-29,29.2c-1,1-1,2.6,0,3.6l20.5,20.5c1,1,2.6,1,3.6,0l28.2-29V5H30.2z M43.5,19c-2.2,0-4-1.8-4-4
		s1.8-4,4-4s4,1.8,4,4S45.7,19,43.5,19z"/>
	<path class="st1" d="M43.5,7c-4.4,0-8,3.6-8,8s3.6,8,8,8s8-3.6,8-8S47.9,7,43.5,7z M43.5,19c-2.2,0-4-1.8-4-4s1.8-4,4-4s4,1.8,4,4
		S45.7,19,43.5,19z"/>
	<path class="st2" d="M43.5,16c-0.3,0-0.5-0.1-0.7-0.3c-0.4-0.4-0.4-1,0-1.4l14-14c0.4-0.4,1-0.4,1.4,0s0.4,1,0,1.4l-14,14
		C44,15.9,43.8,16,43.5,16z"/>
</g>
</svg>
